<?xml version="1.0" encoding="UTF-8" standalone="no"?><svg xmlns="http://www.w3.org/2000/svg" xmlns:xlink="http://www.w3.org/1999/xlink" clip-rule="evenodd" stroke-miterlimit="4.00" viewBox="0 0 1024 768"><desc>SVG generated by Keynote</desc><defs></defs><g transform="matrix(1.00, 0.00, -0.00, -1.00, 0.0, 768.0)"><g><clipPath id="clip-155"><path d="M 0.0 768.0 L 1024.0 768.0 L 1024.0 0.0 L 0.0 0.0 Z M 0.0 768.0 "></path></clipPath><g clip-path="url(#clip-155)"><image xlink:href="../../7BB23D08-1DB8-49DD-BF67-071A41A734D0/assets/D3CB8578D364082F6943B53F933CCC32.jpeg" width="1024.00" height="768.00" transform="matrix(1.00, 0.00, -0.00, -1.00, 0.0, 768.0)"></image></g></g><text xml:space="preserve" font-family="GillSans-Light" font-size="18.9" fill="#525252" transform="matrix(1.00, 0.00, -0.00, -1.00, 104.0, 100.0)">•</text><text xml:space="preserve" font-family="GillSans-Light" font-size="23.0" fill="#525252" transform="matrix(1.00, 0.00, -0.00, -1.00, 125.0, 98.0)">I</text><text xml:space="preserve" font-family="GillSans-Light" font-size="23.0" fill="#525252" transform="matrix(1.00, 0.00, -0.00, -1.00, 129.8, 98.0)">n</text><text xml:space="preserve" font-family="GillSans-Light" font-size="23.0" fill="#525252" transform="matrix(1.00, 0.00, -0.00, -1.00, 141.1, 98.0)">i</text><text xml:space="preserve" font-family="GillSans-Light" font-size="23.0" fill="#525252" transform="matrix(1.00, 0.00, -0.00, -1.00, 145.4, 98.0)">t</text><text xml:space="preserve" font-family="GillSans-Light" font-size="23.0" fill="#525252" transform="matrix(1.00, 0.00, -0.00, -1.00, 152.3, 98.0)">i</text><text xml:space="preserve" font-family="GillSans-Light" font-size="23.0" fill="#525252" transform="matrix(1.00, 0.00, -0.00, -1.00, 156.6, 98.0)">a</text><text xml:space="preserve" font-family="GillSans-Light" font-size="23.0" fill="#525252" transform="matrix(1.00, 0.00, -0.00, -1.00, 166.5, 98.0)">t</text><text xml:space="preserve" font-family="GillSans-Light" font-size="23.0" fill="#525252" transform="matrix(1.00, 0.00, -0.00, -1.00, 173.4, 98.0)">e</text><text xml:space="preserve" font-family="GillSans-Light" font-size="23.0" fill="#525252" transform="matrix(1.00, 0.00, -0.00, -1.00, 184.4, 98.0)"> </text><text xml:space="preserve" font-family="GillSans-Light" font-size="23.0" fill="#525252" transform="matrix(1.00, 0.00, -0.00, -1.00, 190.8, 98.0)">t</text><text xml:space="preserve" font-family="GillSans-Light" font-size="23.0" fill="#525252" transform="matrix(1.00, 0.00, -0.00, -1.00, 197.7, 98.0)">o</text><text xml:space="preserve" font-family="GillSans-Light" font-size="23.0" fill="#525252" transform="matrix(1.00, 0.00, -0.00, -1.00, 210.2, 98.0)">u</text><text xml:space="preserve" font-family="GillSans-Light" font-size="23.0" fill="#525252" transform="matrix(1.00, 0.00, -0.00, -1.00, 221.5, 98.0)">c</text><text xml:space="preserve" font-family="GillSans-Light" font-size="23.0" fill="#525252" transform="matrix(1.00, 0.00, -0.00, -1.00, 231.1, 98.0)">h</text><text xml:space="preserve" font-family="GillSans-Light" font-size="23.0" fill="#525252" transform="matrix(1.00, 0.00, -0.00, -1.00, 242.3, 98.0)"> </text><text xml:space="preserve" font-family="GillSans-Light" font-size="23.0" fill="#525252" transform="matrix(1.00, 0.00, -0.00, -1.00, 248.7, 98.0)">i</text><text xml:space="preserve" font-family="GillSans-Light" font-size="23.0" fill="#525252" transform="matrix(1.00, 0.00, -0.00, -1.00, 253.1, 98.0)">d</text><text xml:space="preserve" font-family="GillSans-Light" font-size="23.0" fill="#525252" transform="matrix(1.00, 0.00, -0.00, -1.00, 264.8, 98.0)"> </text><text xml:space="preserve" font-family="GillSans-Light" font-size="23.0" fill="#525252" transform="matrix(1.00, 0.00, -0.00, -1.00, 271.2, 98.0)">t</text><text xml:space="preserve" font-family="GillSans-Light" font-size="23.0" fill="#525252" transform="matrix(1.00, 0.00, -0.00, -1.00, 278.1, 98.0)">r</text><text xml:space="preserve" font-family="GillSans-Light" font-size="23.0" fill="#525252" transform="matrix(1.00, 0.00, -0.00, -1.00, 286.3, 98.0)">a</text><text xml:space="preserve" font-family="GillSans-Light" font-size="23.0" fill="#525252" transform="matrix(1.00, 0.00, -0.00, -1.00, 296.1, 98.0)">n</text><text xml:space="preserve" font-family="GillSans-Light" font-size="23.0" fill="#525252" transform="matrix(1.00, 0.00, -0.00, -1.00, 307.4, 98.0)">s</text><text xml:space="preserve" font-family="GillSans-Light" font-size="23.0" fill="#525252" transform="matrix(1.00, 0.00, -0.00, -1.00, 315.6, 98.0)">a</text><text xml:space="preserve" font-family="GillSans-Light" font-size="23.0" fill="#525252" transform="matrix(1.00, 0.00, -0.00, -1.00, 325.4, 98.0)">c</text><text xml:space="preserve" font-family="GillSans-Light" font-size="23.0" fill="#525252" transform="matrix(1.00, 0.00, -0.00, -1.00, 335.0, 98.0)">t</text><text xml:space="preserve" font-family="GillSans-Light" font-size="23.0" fill="#525252" transform="matrix(1.00, 0.00, -0.00, -1.00, 341.9, 98.0)">i</text><text xml:space="preserve" font-family="GillSans-Light" font-size="23.0" fill="#525252" transform="matrix(1.00, 0.00, -0.00, -1.00, 346.2, 98.0)">o</text><text xml:space="preserve" font-family="GillSans-Light" font-size="23.0" fill="#525252" transform="matrix(1.00, 0.00, -0.00, -1.00, 358.7, 98.0)">n</text><text xml:space="preserve" font-family="GillSans-Light" font-size="23.0" fill="#525252" transform="matrix(1.00, 0.00, -0.00, -1.00, 370.0, 98.0)"> </text><text xml:space="preserve" font-family="GillSans-Light" font-size="23.0" fill="#525252" transform="matrix(1.00, 0.00, -0.00, -1.00, 376.4, 98.0)">f</text><text xml:space="preserve" font-family="GillSans-Light" font-size="23.0" fill="#525252" transform="matrix(1.00, 0.00, -0.00, -1.00, 381.9, 98.0)">r</text><text xml:space="preserve" font-family="GillSans-Light" font-size="23.0" fill="#525252" transform="matrix(1.00, 0.00, -0.00, -1.00, 389.5, 98.0)">o</text><text xml:space="preserve" font-family="GillSans-Light" font-size="23.0" fill="#525252" transform="matrix(1.00, 0.00, -0.00, -1.00, 402.0, 98.0)">m</text><text xml:space="preserve" font-family="GillSans-Light" font-size="23.0" fill="#525252" transform="matrix(1.00, 0.00, -0.00, -1.00, 419.7, 98.0)"> </text><text xml:space="preserve" font-family="GillSans-Light" font-size="23.0" fill="#525252" transform="matrix(1.00, 0.00, -0.00, -1.00, 426.1, 98.0)">p</text><text xml:space="preserve" font-family="GillSans-Light" font-size="23.0" fill="#525252" transform="matrix(1.00, 0.00, -0.00, -1.00, 437.9, 98.0)">l</text><text xml:space="preserve" font-family="GillSans-Light" font-size="23.0" fill="#525252" transform="matrix(1.00, 0.00, -0.00, -1.00, 442.2, 98.0)">a</text><text xml:space="preserve" font-family="GillSans-Light" font-size="23.0" fill="#525252" transform="matrix(1.00, 0.00, -0.00, -1.00, 452.0, 98.0)">t</text><text xml:space="preserve" font-family="GillSans-Light" font-size="23.0" fill="#525252" transform="matrix(1.00, 0.00, -0.00, -1.00, 458.9, 98.0)">f</text><text xml:space="preserve" font-family="GillSans-Light" font-size="23.0" fill="#525252" transform="matrix(1.00, 0.00, -0.00, -1.00, 464.2, 98.0)">o</text><text xml:space="preserve" font-family="GillSans-Light" font-size="23.0" fill="#525252" transform="matrix(1.00, 0.00, -0.00, -1.00, 476.7, 98.0)">r</text><text xml:space="preserve" font-family="GillSans-Light" font-size="23.0" fill="#525252" transform="matrix(1.00, 0.00, -0.00, -1.00, 484.9, 98.0)">m</text><image xlink:href="44C1773E832F1F31F17880F1E3BCB9A6.jpeg" width="712.00" height="534.00" transform="matrix(1.00, 0.00, -0.00, -1.00, 156.0, 691.0)"></image></g></svg>