<?xml version="1.0" encoding="UTF-8" standalone="no"?><svg xmlns="http://www.w3.org/2000/svg" xmlns:xlink="http://www.w3.org/1999/xlink" clip-rule="evenodd" stroke-miterlimit="4.00" viewBox="0 0 1024 768"><desc>SVG generated by Keynote</desc><defs></defs><g transform="matrix(1.00, 0.00, -0.00, -1.00, 0.0, 768.0)"><path d="M 0.0 768.0 L 1024.0 768.0 L 1024.0 0.0 L 0.0 0.0 Z M 0.0 768.0 " fill="#212121"></path><path d="M 0.0 0.0 L 960.0 0.0 " fill="none" stroke="#A6AAA9" stroke-width="2.00" transform="matrix(1.00, 0.00, 0.00, -1.00, 32.0, 689.8)"></path><text xml:space="preserve" font-family="DINAlternate-Bold" font-weight="bold" font-size="24.0" fill="#838686" transform="matrix(1.00, 0.00, -0.00, -1.00, 36.0, 705.0)">T</text><text xml:space="preserve" font-family="DINAlternate-Bold" font-weight="bold" font-size="24.0" fill="#838686" transform="matrix(1.00, 0.00, -0.00, -1.00, 49.2, 705.0)">E</text><text xml:space="preserve" font-family="DINAlternate-Bold" font-weight="bold" font-size="24.0" fill="#838686" transform="matrix(1.00, 0.00, -0.00, -1.00, 63.7, 705.0)">X</text><text xml:space="preserve" font-family="DINAlternate-Bold" font-weight="bold" font-size="24.0" fill="#838686" transform="matrix(1.00, 0.00, -0.00, -1.00, 77.8, 705.0)">T</text><text xml:space="preserve" font-family="DINCondensed-Bold" font-weight="bold" font-size="48.0" fill="#34A4DA" transform="matrix(1.00, 0.00, -0.00, -1.00, 36.0, 608.0)">C</text><text xml:space="preserve" font-family="DINCondensed-Bold" font-weight="bold" font-size="48.0" fill="#34A4DA" transform="matrix(1.00, 0.00, -0.00, -1.00, 55.5, 608.0)">#</text><text xml:space="preserve" font-family="DINCondensed-Bold" font-weight="bold" font-size="48.0" fill="#34A4DA" transform="matrix(1.00, 0.00, -0.00, -1.00, 73.4, 608.0)"> </text><text xml:space="preserve" font-family="DINCondensed-Bold" font-weight="bold" font-size="48.0" fill="#34A4DA" transform="matrix(1.00, 0.00, -0.00, -1.00, 82.3, 608.0)">S</text><text xml:space="preserve" font-family="DINCondensed-Bold" font-weight="bold" font-size="48.0" fill="#34A4DA" transform="matrix(1.00, 0.00, -0.00, -1.00, 101.8, 608.0)">C</text><text xml:space="preserve" font-family="DINCondensed-Bold" font-weight="bold" font-size="48.0" fill="#34A4DA" transform="matrix(1.00, 0.00, -0.00, -1.00, 121.3, 608.0)">R</text><text xml:space="preserve" font-family="DINCondensed-Bold" font-weight="bold" font-size="48.0" fill="#34A4DA" transform="matrix(1.00, 0.00, -0.00, -1.00, 141.8, 608.0)">I</text><text xml:space="preserve" font-family="DINCondensed-Bold" font-weight="bold" font-size="48.0" fill="#34A4DA" transform="matrix(1.00, 0.00, -0.00, -1.00, 151.6, 608.0)">P</text><text xml:space="preserve" font-family="DINCondensed-Bold" font-weight="bold" font-size="48.0" fill="#34A4DA" transform="matrix(1.00, 0.00, -0.00, -1.00, 171.1, 608.0)">T</text><text xml:space="preserve" font-family="DINCondensed-Bold" font-weight="bold" font-size="48.0" fill="#34A4DA" transform="matrix(1.00, 0.00, -0.00, -1.00, 187.1, 608.0)"> </text><text xml:space="preserve" font-family="DINCondensed-Bold" font-weight="bold" font-size="48.0" fill="#34A4DA" transform="matrix(1.00, 0.00, -0.00, -1.00, 196.0, 608.0)">E</text><text xml:space="preserve" font-family="DINCondensed-Bold" font-weight="bold" font-size="48.0" fill="#34A4DA" transform="matrix(1.00, 0.00, -0.00, -1.00, 213.7, 608.0)">X</text><text xml:space="preserve" font-family="DINCondensed-Bold" font-weight="bold" font-size="48.0" fill="#34A4DA" transform="matrix(1.00, 0.00, -0.00, -1.00, 232.4, 608.0)">A</text><text xml:space="preserve" font-family="DINCondensed-Bold" font-weight="bold" font-size="48.0" fill="#34A4DA" transform="matrix(1.00, 0.00, -0.00, -1.00, 252.0, 608.0)">M</text><text xml:space="preserve" font-family="DINCondensed-Bold" font-weight="bold" font-size="48.0" fill="#34A4DA" transform="matrix(1.00, 0.00, -0.00, -1.00, 278.6, 608.0)">P</text><text xml:space="preserve" font-family="DINCondensed-Bold" font-weight="bold" font-size="48.0" fill="#34A4DA" transform="matrix(1.00, 0.00, -0.00, -1.00, 298.2, 608.0)">L</text><text xml:space="preserve" font-family="DINCondensed-Bold" font-weight="bold" font-size="48.0" fill="#34A4DA" transform="matrix(1.00, 0.00, -0.00, -1.00, 315.9, 608.0)">E</text><image xlink:href="../../839F72FD-18FA-4656-B3BC-D732DF916E31/assets/FE0EBA1F233C6BFAABDBBAEAA3FA0202.png" width="960.00" height="436.00" transform="matrix(1.07, 0.00, -0.00, -1.07, 0.0, 544.0)"></image><text xml:space="preserve" font-family="AvenirNext-Medium" font-size="20.0" fill="#838686" transform="matrix(1.00, 0.00, -0.00, -1.00, 427.0, 33.0)">S</text><text xml:space="preserve" font-family="AvenirNext-Medium" font-size="20.0" fill="#838686" transform="matrix(1.00, 0.00, -0.00, -1.00, 438.4, 33.0)">e</text><text xml:space="preserve" font-family="AvenirNext-Medium" font-size="20.0" fill="#838686" transform="matrix(1.00, 0.00, -0.00, -1.00, 449.7, 33.0)">a</text><text xml:space="preserve" font-family="AvenirNext-Medium" font-size="20.0" fill="#838686" transform="matrix(1.00, 0.00, -0.00, -1.00, 460.4, 33.0)">t</text><text xml:space="preserve" font-family="AvenirNext-Medium" font-size="20.0" fill="#838686" transform="matrix(1.00, 0.00, -0.00, -1.00, 466.9, 33.0)">S</text><text xml:space="preserve" font-family="AvenirNext-Medium" font-size="20.0" fill="#838686" transform="matrix(1.00, 0.00, -0.00, -1.00, 478.3, 33.0)">c</text><text xml:space="preserve" font-family="AvenirNext-Medium" font-size="20.0" fill="#838686" transform="matrix(1.00, 0.00, -0.00, -1.00, 488.2, 33.0)">r</text><text xml:space="preserve" font-family="AvenirNext-Medium" font-size="20.0" fill="#838686" transform="matrix(1.00, 0.00, -0.00, -1.00, 495.4, 33.0)">i</text><text xml:space="preserve" font-family="AvenirNext-Medium" font-size="20.0" fill="#838686" transform="matrix(1.00, 0.00, -0.00, -1.00, 500.6, 33.0)">p</text><text xml:space="preserve" font-family="AvenirNext-Medium" font-size="20.0" fill="#838686" transform="matrix(1.00, 0.00, -0.00, -1.00, 513.3, 33.0)">t</text><text xml:space="preserve" font-family="AvenirNext-Medium" font-size="20.0" fill="#838686" transform="matrix(1.00, 0.00, -0.00, -1.00, 519.9, 33.0)"> </text><text xml:space="preserve" font-family="AvenirNext-Medium" font-size="20.0" fill="#838686" transform="matrix(1.00, 0.00, -0.00, -1.00, 524.9, 33.0)">S</text><text xml:space="preserve" font-family="AvenirNext-Medium" font-size="20.0" fill="#838686" transform="matrix(1.00, 0.00, -0.00, -1.00, 536.3, 33.0)">n</text><text xml:space="preserve" font-family="AvenirNext-Medium" font-size="20.0" fill="#838686" transform="matrix(1.00, 0.00, -0.00, -1.00, 547.9, 33.0)">i</text><text xml:space="preserve" font-family="AvenirNext-Medium" font-size="20.0" fill="#838686" transform="matrix(1.00, 0.00, -0.00, -1.00, 553.1, 33.0)">p</text><text xml:space="preserve" font-family="AvenirNext-Medium" font-size="20.0" fill="#838686" transform="matrix(1.00, 0.00, -0.00, -1.00, 565.8, 33.0)">p</text><text xml:space="preserve" font-family="AvenirNext-Medium" font-size="20.0" fill="#838686" transform="matrix(1.00, 0.00, -0.00, -1.00, 578.4, 33.0)">e</text><text xml:space="preserve" font-family="AvenirNext-Medium" font-size="20.0" fill="#838686" transform="matrix(1.00, 0.00, -0.00, -1.00, 589.9, 33.0)">t</text></g></svg>