<?xml version="1.0" encoding="UTF-8" standalone="no"?><svg xmlns="http://www.w3.org/2000/svg" xmlns:xlink="http://www.w3.org/1999/xlink" clip-rule="evenodd" stroke-miterlimit="4.00" viewBox="0 0 215 45"><desc>SVG generated by Keynote</desc><defs></defs><g transform="matrix(1.00, 0.00, -0.00, -1.00, 0.0, 45.0)"><text xml:space="preserve" font-family="AvenirNext-Medium" font-size="17.7" fill="#FEFFFE" transform="matrix(1.00, 0.00, -0.00, -1.00, 1.0, 30.0)">N</text><text xml:space="preserve" font-family="AvenirNext-Medium" font-size="17.7" fill="#FEFFFE" transform="matrix(1.00, 0.00, -0.00, -1.00, 14.6, 30.0)">o</text><text xml:space="preserve" font-family="AvenirNext-Medium" font-size="17.7" fill="#FEFFFE" transform="matrix(1.00, 0.00, -0.00, -1.00, 25.4, 30.0)">d</text><text xml:space="preserve" font-family="AvenirNext-Medium" font-size="17.7" fill="#FEFFFE" transform="matrix(1.00, 0.00, -0.00, -1.00, 36.7, 30.0)">e</text><text xml:space="preserve" font-family="AvenirNext-Medium" font-size="17.7" fill="#FEFFFE" transform="matrix(1.00, 0.00, -0.00, -1.00, 46.8, 30.0)">-</text><text xml:space="preserve" font-family="AvenirNext-Medium" font-size="17.7" fill="#FEFFFE" transform="matrix(1.00, 0.00, -0.00, -1.00, 52.4, 30.0)">R</text><text xml:space="preserve" font-family="AvenirNext-Medium" font-size="17.7" fill="#FEFFFE" transform="matrix(1.00, 0.00, -0.00, -1.00, 63.3, 30.0)">E</text><text xml:space="preserve" font-family="AvenirNext-Medium" font-size="17.7" fill="#FEFFFE" transform="matrix(1.00, 0.00, -0.00, -1.00, 73.9, 30.0)">D</text><text xml:space="preserve" font-family="AvenirNext-Medium" font-size="17.7" fill="#FEFFFE" transform="matrix(1.00, 0.00, -0.00, -1.00, 87.4, 30.0)">:</text><text xml:space="preserve" font-family="AvenirNext-Medium" font-size="17.7" fill="#FEFFFE" transform="matrix(1.00, 0.00, -0.00, -1.00, 92.7, 30.0)"> </text><text xml:space="preserve" font-family="AvenirNext-Medium" font-size="17.7" fill="#FEFFFE" transform="matrix(1.00, 0.00, -0.00, -1.00, 97.1, 30.0)">I</text><text xml:space="preserve" font-family="AvenirNext-Medium" font-size="17.7" fill="#FEFFFE" transform="matrix(1.00, 0.00, -0.00, -1.00, 101.9, 30.0)">B</text><text xml:space="preserve" font-family="AvenirNext-Medium" font-size="17.7" fill="#FEFFFE" transform="matrix(1.00, 0.00, -0.00, -1.00, 113.3, 30.0)">M</text><text xml:space="preserve" font-family="AvenirNext-Medium" font-size="17.7" fill="#FEFFFE" transform="matrix(1.00, 0.00, -0.00, -1.00, 129.2, 30.0)"> </text><text xml:space="preserve" font-family="AvenirNext-Medium" font-size="17.7" fill="#FEFFFE" transform="matrix(1.00, 0.00, -0.00, -1.00, 133.6, 30.0)">E</text><text xml:space="preserve" font-family="AvenirNext-Medium" font-size="17.7" fill="#FEFFFE" transform="matrix(1.00, 0.00, -0.00, -1.00, 144.3, 30.0)">m</text><text xml:space="preserve" font-family="AvenirNext-Medium" font-size="17.7" fill="#FEFFFE" transform="matrix(1.00, 0.00, -0.00, -1.00, 159.9, 30.0)">e</text><text xml:space="preserve" font-family="AvenirNext-Medium" font-size="17.7" fill="#FEFFFE" transform="matrix(1.00, 0.00, -0.00, -1.00, 170.1, 30.0)">r</text><text xml:space="preserve" font-family="AvenirNext-Medium" font-size="17.7" fill="#FEFFFE" transform="matrix(1.00, 0.00, -0.00, -1.00, 176.2, 30.0)">g</text><text xml:space="preserve" font-family="AvenirNext-Medium" font-size="17.7" fill="#FEFFFE" transform="matrix(1.00, 0.00, -0.00, -1.00, 187.3, 30.0)">i</text><text xml:space="preserve" font-family="AvenirNext-Medium" font-size="17.7" fill="#FEFFFE" transform="matrix(1.00, 0.00, -0.00, -1.00, 191.9, 30.0)">n</text><text xml:space="preserve" font-family="AvenirNext-Medium" font-size="17.7" fill="#FEFFFE" transform="matrix(1.00, 0.00, -0.00, -1.00, 202.2, 30.0)">g</text><text xml:space="preserve" font-family="AvenirNext-Medium" font-size="17.7" fill="#FEFFFE" transform="matrix(1.00, 0.00, -0.00, -1.00, 213.4, 30.0)"> </text><text xml:space="preserve" font-family="AvenirNext-Medium" font-size="17.7" fill="#FEFFFE" transform="matrix(1.00, 0.00, -0.00, -1.00, 54.0, 6.0)">T</text><text xml:space="preserve" font-family="AvenirNext-Medium" font-size="17.7" fill="#FEFFFE" transform="matrix(1.00, 0.00, -0.00, -1.00, 62.4, 6.0)">e</text><text xml:space="preserve" font-family="AvenirNext-Medium" font-size="17.7" fill="#FEFFFE" transform="matrix(1.00, 0.00, -0.00, -1.00, 72.5, 6.0)">c</text><text xml:space="preserve" font-family="AvenirNext-Medium" font-size="17.7" fill="#FEFFFE" transform="matrix(1.00, 0.00, -0.00, -1.00, 81.2, 6.0)">h</text><text xml:space="preserve" font-family="AvenirNext-Medium" font-size="17.7" fill="#FEFFFE" transform="matrix(1.00, 0.00, -0.00, -1.00, 91.6, 6.0)">n</text><text xml:space="preserve" font-family="AvenirNext-Medium" font-size="17.7" fill="#FEFFFE" transform="matrix(1.00, 0.00, -0.00, -1.00, 101.8, 6.0)">o</text><text xml:space="preserve" font-family="AvenirNext-Medium" font-size="17.7" fill="#FEFFFE" transform="matrix(1.00, 0.00, -0.00, -1.00, 112.6, 6.0)">l</text><text xml:space="preserve" font-family="AvenirNext-Medium" font-size="17.7" fill="#FEFFFE" transform="matrix(1.00, 0.00, -0.00, -1.00, 117.2, 6.0)">o</text><text xml:space="preserve" font-family="AvenirNext-Medium" font-size="17.7" fill="#FEFFFE" transform="matrix(1.00, 0.00, -0.00, -1.00, 128.0, 6.0)">g</text><text xml:space="preserve" font-family="AvenirNext-Medium" font-size="17.7" fill="#FEFFFE" transform="matrix(1.00, 0.00, -0.00, -1.00, 139.2, 6.0)">i</text><text xml:space="preserve" font-family="AvenirNext-Medium" font-size="17.7" fill="#FEFFFE" transform="matrix(1.00, 0.00, -0.00, -1.00, 143.8, 6.0)">e</text><text xml:space="preserve" font-family="AvenirNext-Medium" font-size="17.7" fill="#FEFFFE" transform="matrix(1.00, 0.00, -0.00, -1.00, 153.9, 6.0)">s</text></g></svg>