<?xml version="1.0" encoding="UTF-8" standalone="no"?><svg xmlns="http://www.w3.org/2000/svg" xmlns:xlink="http://www.w3.org/1999/xlink" clip-rule="evenodd" stroke-miterlimit="4.00" viewBox="0 0 1024 768"><desc>SVG generated by Keynote</desc><defs></defs><g transform="matrix(1.00, 0.00, -0.00, -1.00, 0.0, 768.0)"><path d="M 0.0 768.0 L 1024.0 768.0 L 1024.0 0.0 L 0.0 0.0 Z M 0.0 768.0 " fill="#212121"></path><path d="M 0.0 0.0 L 960.0 0.0 " fill="none" stroke="#A6AAA9" stroke-width="2.00" transform="matrix(1.00, 0.00, 0.00, -1.00, 32.0, 689.8)"></path><text xml:space="preserve" font-family="DINAlternate-Bold" font-weight="bold" font-size="24.0" fill="#838686" transform="matrix(1.00, 0.00, -0.00, -1.00, 36.0, 705.0)">V</text><text xml:space="preserve" font-family="DINAlternate-Bold" font-weight="bold" font-size="24.0" fill="#838686" transform="matrix(1.00, 0.00, -0.00, -1.00, 50.6, 705.0)">R</text><text xml:space="preserve" font-family="DINAlternate-Bold" font-weight="bold" font-size="24.0" fill="#838686" transform="matrix(1.00, 0.00, -0.00, -1.00, 66.4, 705.0)"> </text><text xml:space="preserve" font-family="DINAlternate-Bold" font-weight="bold" font-size="24.0" fill="#838686" transform="matrix(1.00, 0.00, -0.00, -1.00, 73.3, 705.0)">E</text><text xml:space="preserve" font-family="DINAlternate-Bold" font-weight="bold" font-size="24.0" fill="#838686" transform="matrix(1.00, 0.00, -0.00, -1.00, 87.9, 705.0)">X</text><text xml:space="preserve" font-family="DINAlternate-Bold" font-weight="bold" font-size="24.0" fill="#838686" transform="matrix(1.00, 0.00, -0.00, -1.00, 102.0, 705.0)">P</text><text xml:space="preserve" font-family="DINAlternate-Bold" font-weight="bold" font-size="24.0" fill="#838686" transform="matrix(1.00, 0.00, -0.00, -1.00, 117.4, 705.0)">E</text><text xml:space="preserve" font-family="DINAlternate-Bold" font-weight="bold" font-size="24.0" fill="#838686" transform="matrix(1.00, 0.00, -0.00, -1.00, 131.9, 705.0)">R</text><text xml:space="preserve" font-family="DINAlternate-Bold" font-weight="bold" font-size="24.0" fill="#838686" transform="matrix(1.00, 0.00, -0.00, -1.00, 147.8, 705.0)">I</text><text xml:space="preserve" font-family="DINAlternate-Bold" font-weight="bold" font-size="24.0" fill="#838686" transform="matrix(1.00, 0.00, -0.00, -1.00, 155.2, 705.0)">E</text><text xml:space="preserve" font-family="DINAlternate-Bold" font-weight="bold" font-size="24.0" fill="#838686" transform="matrix(1.00, 0.00, -0.00, -1.00, 169.7, 705.0)">N</text><text xml:space="preserve" font-family="DINAlternate-Bold" font-weight="bold" font-size="24.0" fill="#838686" transform="matrix(1.00, 0.00, -0.00, -1.00, 187.3, 705.0)">C</text><text xml:space="preserve" font-family="DINAlternate-Bold" font-weight="bold" font-size="24.0" fill="#838686" transform="matrix(1.00, 0.00, -0.00, -1.00, 201.9, 705.0)">E</text><text xml:space="preserve" font-family="DINCondensed-Bold" font-weight="bold" font-size="48.0" fill="#34A4DA" transform="matrix(1.00, 0.00, -0.00, -1.00, 36.0, 608.0)">W</text><text xml:space="preserve" font-family="DINCondensed-Bold" font-weight="bold" font-size="48.0" fill="#34A4DA" transform="matrix(1.00, 0.00, -0.00, -1.00, 64.5, 608.0)">H</text><text xml:space="preserve" font-family="DINCondensed-Bold" font-weight="bold" font-size="48.0" fill="#34A4DA" transform="matrix(1.00, 0.00, -0.00, -1.00, 84.9, 608.0)">A</text><text xml:space="preserve" font-family="DINCondensed-Bold" font-weight="bold" font-size="48.0" fill="#34A4DA" transform="matrix(1.00, 0.00, -0.00, -1.00, 101.8, 608.0)">T</text><text xml:space="preserve" font-family="DINCondensed-Bold" font-weight="bold" font-size="48.0" fill="#34A4DA" transform="matrix(1.00, 0.00, -0.00, -1.00, 117.7, 608.0)"> </text><text xml:space="preserve" font-family="DINCondensed-Bold" font-weight="bold" font-size="48.0" fill="#34A4DA" transform="matrix(1.00, 0.00, -0.00, -1.00, 126.7, 608.0)">I</text><text xml:space="preserve" font-family="DINCondensed-Bold" font-weight="bold" font-size="48.0" fill="#34A4DA" transform="matrix(1.00, 0.00, -0.00, -1.00, 136.5, 608.0)">S</text><text xml:space="preserve" font-family="DINCondensed-Bold" font-weight="bold" font-size="48.0" fill="#34A4DA" transform="matrix(1.00, 0.00, -0.00, -1.00, 156.0, 608.0)"> </text><text xml:space="preserve" font-family="DINCondensed-Bold" font-weight="bold" font-size="48.0" fill="#34A4DA" transform="matrix(1.00, 0.00, -0.00, -1.00, 164.9, 608.0)">N</text><text xml:space="preserve" font-family="DINCondensed-Bold" font-weight="bold" font-size="48.0" fill="#34A4DA" transform="matrix(1.00, 0.00, -0.00, -1.00, 186.2, 608.0)">E</text><text xml:space="preserve" font-family="DINCondensed-Bold" font-weight="bold" font-size="48.0" fill="#34A4DA" transform="matrix(1.00, 0.00, -0.00, -1.00, 204.0, 608.0)">X</text><text xml:space="preserve" font-family="DINCondensed-Bold" font-weight="bold" font-size="48.0" fill="#34A4DA" transform="matrix(1.00, 0.00, -0.00, -1.00, 222.6, 608.0)">T</text><text xml:space="preserve" font-family="DINCondensed-Bold" font-weight="bold" font-size="48.0" fill="#34A4DA" transform="matrix(1.00, 0.00, -0.00, -1.00, 238.6, 608.0)"> </text><text xml:space="preserve" font-family="DINCondensed-Bold" font-weight="bold" font-size="48.0" fill="#34A4DA" transform="matrix(1.00, 0.00, -0.00, -1.00, 247.5, 608.0)">I</text><text xml:space="preserve" font-family="DINCondensed-Bold" font-weight="bold" font-size="48.0" fill="#34A4DA" transform="matrix(1.00, 0.00, -0.00, -1.00, 257.3, 608.0)">N</text><text xml:space="preserve" font-family="DINCondensed-Bold" font-weight="bold" font-size="48.0" fill="#34A4DA" transform="matrix(1.00, 0.00, -0.00, -1.00, 278.6, 608.0)"> </text><text xml:space="preserve" font-family="DINCondensed-Bold" font-weight="bold" font-size="48.0" fill="#34A4DA" transform="matrix(1.00, 0.00, -0.00, -1.00, 287.5, 608.0)">V</text><text xml:space="preserve" font-family="DINCondensed-Bold" font-weight="bold" font-size="48.0" fill="#34A4DA" transform="matrix(1.00, 0.00, -0.00, -1.00, 307.1, 608.0)">R</text><text xml:space="preserve" font-family="DINCondensed-Bold" font-weight="bold" font-size="48.0" fill="#34A4DA" transform="matrix(1.00, 0.00, -0.00, -1.00, 327.5, 608.0)"> </text><text xml:space="preserve" font-family="DINCondensed-Bold" font-weight="bold" font-size="48.0" fill="#34A4DA" transform="matrix(1.00, 0.00, -0.00, -1.00, 336.4, 608.0)">F</text><text xml:space="preserve" font-family="DINCondensed-Bold" font-weight="bold" font-size="48.0" fill="#34A4DA" transform="matrix(1.00, 0.00, -0.00, -1.00, 354.2, 608.0)">O</text><text xml:space="preserve" font-family="DINCondensed-Bold" font-weight="bold" font-size="48.0" fill="#34A4DA" transform="matrix(1.00, 0.00, -0.00, -1.00, 374.6, 608.0)">R</text><text xml:space="preserve" font-family="DINCondensed-Bold" font-weight="bold" font-size="48.0" fill="#34A4DA" transform="matrix(1.00, 0.00, -0.00, -1.00, 395.1, 608.0)"> </text><text xml:space="preserve" font-family="DINCondensed-Bold" font-weight="bold" font-size="48.0" fill="#34A4DA" transform="matrix(1.00, 0.00, -0.00, -1.00, 404.0, 608.0)">U</text><text xml:space="preserve" font-family="DINCondensed-Bold" font-weight="bold" font-size="48.0" fill="#34A4DA" transform="matrix(1.00, 0.00, -0.00, -1.00, 424.5, 608.0)">S</text><text xml:space="preserve" font-family="DINCondensed-Bold" font-weight="bold" font-size="48.0" fill="#34A4DA" transform="matrix(1.00, 0.00, -0.00, -1.00, 444.0, 608.0)">?</text><text xml:space="preserve" font-family="LucidaGrande" font-size="35.7" fill="#34A4DA" transform="matrix(1.00, 0.00, -0.00, -1.00, 54.0, 513.9)">▸</text><text xml:space="preserve" font-family="AvenirNext-Medium" font-size="34.0" fill="#A6AAA8" transform="matrix(1.00, 0.00, -0.00, -1.00, 89.0, 517.0)">R</text><text xml:space="preserve" font-family="AvenirNext-Medium" font-size="34.0" fill="#A6AAA8" transform="matrix(1.00, 0.00, -0.00, -1.00, 109.5, 517.0)">e</text><text xml:space="preserve" font-family="AvenirNext-Medium" font-size="34.0" fill="#A6AAA8" transform="matrix(1.00, 0.00, -0.00, -1.00, 128.9, 517.0)">t</text><text xml:space="preserve" font-family="AvenirNext-Medium" font-size="34.0" fill="#A6AAA8" transform="matrix(1.00, 0.00, -0.00, -1.00, 140.1, 517.0)">a</text><text xml:space="preserve" font-family="AvenirNext-Medium" font-size="34.0" fill="#A6AAA8" transform="matrix(1.00, 0.00, -0.00, -1.00, 158.6, 517.0)">i</text><text xml:space="preserve" font-family="AvenirNext-Medium" font-size="34.0" fill="#A6AAA8" transform="matrix(1.00, 0.00, -0.00, -1.00, 167.4, 517.0)">l</text><text xml:space="preserve" font-family="AvenirNext-Medium" font-size="34.0" fill="#A6AAA8" transform="matrix(1.00, 0.00, -0.00, -1.00, 176.2, 517.0)"> </text><text xml:space="preserve" font-family="AvenirNext-Medium" font-size="34.0" fill="#A6AAA8" transform="matrix(1.00, 0.00, -0.00, -1.00, 184.7, 517.0)">-</text><text xml:space="preserve" font-family="AvenirNext-Medium" font-size="34.0" fill="#A6AAA8" transform="matrix(1.00, 0.00, -0.00, -1.00, 195.6, 517.0)"> </text><text xml:space="preserve" font-family="AvenirNext-Medium" font-size="34.0" fill="#A6AAA8" transform="matrix(1.00, 0.00, -0.00, -1.00, 204.1, 517.0)">R</text><text xml:space="preserve" font-family="AvenirNext-Medium" font-size="34.0" fill="#A6AAA8" transform="matrix(1.00, 0.00, -0.00, -1.00, 224.6, 517.0)">e</text><text xml:space="preserve" font-family="AvenirNext-Medium" font-size="34.0" fill="#A6AAA8" transform="matrix(1.00, 0.00, -0.00, -1.00, 244.0, 517.0)">w</text><text xml:space="preserve" font-family="AvenirNext-Medium" font-size="34.0" fill="#A6AAA8" transform="matrix(1.00, 0.00, -0.00, -1.00, 270.3, 517.0)">a</text><text xml:space="preserve" font-family="AvenirNext-Medium" font-size="34.0" fill="#A6AAA8" transform="matrix(1.00, 0.00, -0.00, -1.00, 288.8, 517.0)">r</text><text xml:space="preserve" font-family="AvenirNext-Medium" font-size="34.0" fill="#A6AAA8" transform="matrix(1.00, 0.00, -0.00, -1.00, 300.4, 517.0)">d</text><text xml:space="preserve" font-family="AvenirNext-Medium" font-size="34.0" fill="#A6AAA8" transform="matrix(1.00, 0.00, -0.00, -1.00, 322.0, 517.0)">s</text><text xml:space="preserve" font-family="AvenirNext-Medium" font-size="34.0" fill="#A6AAA8" transform="matrix(1.00, 0.00, -0.00, -1.00, 337.1, 517.0)"> </text><text xml:space="preserve" font-family="AvenirNext-Medium" font-size="34.0" fill="#A6AAA8" transform="matrix(1.00, 0.00, -0.00, -1.00, 345.6, 517.0)">E</text><text xml:space="preserve" font-family="AvenirNext-Medium" font-size="34.0" fill="#A6AAA8" transform="matrix(1.00, 0.00, -0.00, -1.00, 366.1, 517.0)">x</text><text xml:space="preserve" font-family="AvenirNext-Medium" font-size="34.0" fill="#A6AAA8" transform="matrix(1.00, 0.00, -0.00, -1.00, 383.4, 517.0)">p</text><text xml:space="preserve" font-family="AvenirNext-Medium" font-size="34.0" fill="#A6AAA8" transform="matrix(1.00, 0.00, -0.00, -1.00, 405.0, 517.0)">e</text><text xml:space="preserve" font-family="AvenirNext-Medium" font-size="34.0" fill="#A6AAA8" transform="matrix(1.00, 0.00, -0.00, -1.00, 424.5, 517.0)">r</text><text xml:space="preserve" font-family="AvenirNext-Medium" font-size="34.0" fill="#A6AAA8" transform="matrix(1.00, 0.00, -0.00, -1.00, 436.8, 517.0)">i</text><text xml:space="preserve" font-family="AvenirNext-Medium" font-size="34.0" fill="#A6AAA8" transform="matrix(1.00, 0.00, -0.00, -1.00, 445.6, 517.0)">e</text><text xml:space="preserve" font-family="AvenirNext-Medium" font-size="34.0" fill="#A6AAA8" transform="matrix(1.00, 0.00, -0.00, -1.00, 465.1, 517.0)">n</text><text xml:space="preserve" font-family="AvenirNext-Medium" font-size="34.0" fill="#A6AAA8" transform="matrix(1.00, 0.00, -0.00, -1.00, 484.9, 517.0)">c</text><text xml:space="preserve" font-family="AvenirNext-Medium" font-size="34.0" fill="#A6AAA8" transform="matrix(1.00, 0.00, -0.00, -1.00, 501.7, 517.0)">e</text><text xml:space="preserve" font-family="AvenirNext-Medium" font-size="34.0" fill="#A6AAA8" transform="matrix(1.00, 0.00, -0.00, -1.00, 521.1, 517.0)"> </text><text xml:space="preserve" font-family="LucidaGrande" font-size="35.7" fill="#34A4DA" transform="matrix(1.00, 0.00, -0.00, -1.00, 54.0, 217.9)">▸</text><text xml:space="preserve" font-family="AvenirNext-Medium" font-size="34.0" fill="#FEFFFE" transform="matrix(1.00, 0.00, -0.00, -1.00, 89.0, 221.0)">A</text><text xml:space="preserve" font-family="AvenirNext-Medium" font-size="34.0" fill="#FEFFFE" transform="matrix(1.00, 0.00, -0.00, -1.00, 113.2, 221.0)">u</text><text xml:space="preserve" font-family="AvenirNext-Medium" font-size="34.0" fill="#FEFFFE" transform="matrix(1.00, 0.00, -0.00, -1.00, 133.0, 221.0)">g</text><text xml:space="preserve" font-family="AvenirNext-Medium" font-size="34.0" fill="#FEFFFE" transform="matrix(1.00, 0.00, -0.00, -1.00, 154.4, 221.0)">m</text><text xml:space="preserve" font-family="AvenirNext-Medium" font-size="34.0" fill="#FEFFFE" transform="matrix(1.00, 0.00, -0.00, -1.00, 184.6, 221.0)">e</text><text xml:space="preserve" font-family="AvenirNext-Medium" font-size="34.0" fill="#FEFFFE" transform="matrix(1.00, 0.00, -0.00, -1.00, 204.1, 221.0)">n</text><text xml:space="preserve" font-family="AvenirNext-Medium" font-size="34.0" fill="#FEFFFE" transform="matrix(1.00, 0.00, -0.00, -1.00, 223.9, 221.0)">t</text><text xml:space="preserve" font-family="AvenirNext-Medium" font-size="34.0" fill="#FEFFFE" transform="matrix(1.00, 0.00, -0.00, -1.00, 235.1, 221.0)">e</text><text xml:space="preserve" font-family="AvenirNext-Medium" font-size="34.0" fill="#FEFFFE" transform="matrix(1.00, 0.00, -0.00, -1.00, 254.5, 221.0)">d</text><text xml:space="preserve" font-family="AvenirNext-Medium" font-size="34.0" fill="#FEFFFE" transform="matrix(1.00, 0.00, -0.00, -1.00, 276.1, 221.0)"> </text><text xml:space="preserve" font-family="AvenirNext-Medium" font-size="34.0" fill="#FEFFFE" transform="matrix(1.00, 0.00, -0.00, -1.00, 284.6, 221.0)">R</text><text xml:space="preserve" font-family="AvenirNext-Medium" font-size="34.0" fill="#FEFFFE" transform="matrix(1.00, 0.00, -0.00, -1.00, 305.1, 221.0)">e</text><text xml:space="preserve" font-family="AvenirNext-Medium" font-size="34.0" fill="#FEFFFE" transform="matrix(1.00, 0.00, -0.00, -1.00, 324.4, 221.0)">a</text><text xml:space="preserve" font-family="AvenirNext-Medium" font-size="34.0" fill="#FEFFFE" transform="matrix(1.00, 0.00, -0.00, -1.00, 342.8, 221.0)">l</text><text xml:space="preserve" font-family="AvenirNext-Medium" font-size="34.0" fill="#FEFFFE" transform="matrix(1.00, 0.00, -0.00, -1.00, 351.7, 221.0)">i</text><text xml:space="preserve" font-family="AvenirNext-Medium" font-size="34.0" fill="#FEFFFE" transform="matrix(1.00, 0.00, -0.00, -1.00, 360.5, 221.0)">t</text><text xml:space="preserve" font-family="AvenirNext-Medium" font-size="34.0" fill="#FEFFFE" transform="matrix(1.00, 0.00, -0.00, -1.00, 371.6, 221.0)">y</text><text xml:space="preserve" font-family="AvenirNext-Medium" font-size="34.0" fill="#FEFFFE" transform="matrix(1.00, 0.00, -0.00, -1.00, 388.8, 221.0)"> </text><text xml:space="preserve" font-family="DINAlternate-Bold" font-weight="bold" font-size="24.0" fill="#838686" transform="matrix(1.00, 0.00, -0.00, -1.00, 964.6, 707.4)">2</text><text xml:space="preserve" font-family="DINAlternate-Bold" font-weight="bold" font-size="24.0" fill="#838686" transform="matrix(1.00, 0.00, -0.00, -1.00, 976.1, 707.4)">8</text><g><clipPath id="clip-69"><path d="M 432.0 409.0 L 481.0 409.0 L 481.0 359.0 L 432.0 359.0 Z M 431.6 408.8 "></path></clipPath><g clip-path="url(#clip-69)"><image xlink:href="../../D7BD9FEB-8C78-4B2F-A510-E9587942F68E/assets/FF9C78533BFF324991143CF269C87D1D.png" width="50.00" height="50.00" transform="matrix(0.98, 0.00, -0.00, -1.00, 432.0, 409.0)"></image></g></g><image xlink:href="../../1BAB1C4D-BB7A-47EF-9FE2-B8D49D438E64/assets/9B0D1AE53584823E481C174E9950436D.png" width="183.00" height="137.00" transform="matrix(0.99, 0.00, -0.00, -1.01, 510.0, 453.0)"></image><image xlink:href="../../1BAB1C4D-BB7A-47EF-9FE2-B8D49D438E64/assets/1C67015BDF3A80C929E0DC4A922B3623.png" width="131.00" height="179.00" transform="matrix(1.01, 0.00, -0.00, -1.00, 258.0, 488.0)"></image><image xlink:href="../../1BAB1C4D-BB7A-47EF-9FE2-B8D49D438E64/assets/D442C102CCD1BEF359F8EF3405E69FA7.png" width="318.00" height="202.00" transform="matrix(1.00, 0.00, -0.00, -1.00, 514.0, 250.0)"></image><image xlink:href="../../1BAB1C4D-BB7A-47EF-9FE2-B8D49D438E64/assets/DA6C79E91FB70313C53967417AAB6E50.png" width="339.00" height="227.00" transform="matrix(1.00, 0.00, -0.00, 1.00, 503.0, 36.0)"></image><path d="M 551.1 210.1 L 808.6 210.1 L 808.6 145.2 L 551.1 145.2 Z M 551.1 210.1 " fill="#FEFFFE"></path><path d="M 0.0 0.0 L 257.4 0.0 L 257.4 64.9 L 0.0 64.9 Z M 0.0 0.0 " fill="none" stroke="#5A5754" stroke-width="2.00" transform="matrix(1.00, 0.00, 0.00, -1.00, 551.1, 210.1)"></path><g><clipPath id="clip-70"><path d="M 549.1 135.8 L 810.6 135.8 L 810.6 212.1 L 549.1 212.1 Z M 549.1 135.8 "></path></clipPath><g clip-path="url(#clip-70)"><text xml:space="preserve" font-family="DINCondensed-Bold" font-weight="bold" font-size="28.0" fill="#838787" transform="matrix(1.00, 0.00, -0.00, -1.00, 596.0, 185.0)">B</text><text xml:space="preserve" font-family="DINCondensed-Bold" font-weight="bold" font-size="28.0" fill="#838787" transform="matrix(1.00, 0.00, -0.00, -1.00, 607.6, 185.0)">A</text><text xml:space="preserve" font-family="DINCondensed-Bold" font-weight="bold" font-size="28.0" fill="#838787" transform="matrix(1.00, 0.00, -0.00, -1.00, 619.0, 185.0)">L</text><text xml:space="preserve" font-family="DINCondensed-Bold" font-weight="bold" font-size="28.0" fill="#838787" transform="matrix(1.00, 0.00, -0.00, -1.00, 629.3, 185.0)">A</text><text xml:space="preserve" font-family="DINCondensed-Bold" font-weight="bold" font-size="28.0" fill="#838787" transform="matrix(1.00, 0.00, -0.00, -1.00, 640.7, 185.0)">N</text><text xml:space="preserve" font-family="DINCondensed-Bold" font-weight="bold" font-size="28.0" fill="#838787" transform="matrix(1.00, 0.00, -0.00, -1.00, 653.2, 185.0)">C</text><text xml:space="preserve" font-family="DINCondensed-Bold" font-weight="bold" font-size="28.0" fill="#838787" transform="matrix(1.00, 0.00, -0.00, -1.00, 664.6, 185.0)">E</text><text xml:space="preserve" font-family="DINCondensed-Bold" font-weight="bold" font-size="28.0" fill="#838787" transform="matrix(1.00, 0.00, -0.00, -1.00, 674.9, 185.0)">:</text><text xml:space="preserve" font-family="DINCondensed-Bold" font-weight="bold" font-size="28.0" fill="#838787" transform="matrix(1.00, 0.00, -0.00, -1.00, 680.1, 185.0)"> </text><text xml:space="preserve" font-family="DINCondensed-Bold" font-weight="bold" font-size="28.0" fill="#838787" transform="matrix(1.00, 0.00, -0.00, -1.00, 685.3, 185.0)">$</text><text xml:space="preserve" font-family="DINCondensed-Bold" font-weight="bold" font-size="28.0" fill="#838787" transform="matrix(1.00, 0.00, -0.00, -1.00, 695.8, 185.0)">1</text><text xml:space="preserve" font-family="DINCondensed-Bold" font-weight="bold" font-size="28.0" fill="#838787" transform="matrix(1.00, 0.00, -0.00, -1.00, 706.2, 185.0)">4</text><text xml:space="preserve" font-family="DINCondensed-Bold" font-weight="bold" font-size="28.0" fill="#838787" transform="matrix(1.00, 0.00, -0.00, -1.00, 716.6, 185.0)">5</text><text xml:space="preserve" font-family="DINCondensed-Bold" font-weight="bold" font-size="28.0" fill="#838787" transform="matrix(1.00, 0.00, -0.00, -1.00, 727.0, 185.0)">4</text><text xml:space="preserve" font-family="DINCondensed-Bold" font-weight="bold" font-size="28.0" fill="#838787" transform="matrix(1.00, 0.00, -0.00, -1.00, 737.4, 185.0)">.</text><text xml:space="preserve" font-family="DINCondensed-Bold" font-weight="bold" font-size="28.0" fill="#838787" transform="matrix(1.00, 0.00, -0.00, -1.00, 742.6, 185.0)">3</text><text xml:space="preserve" font-family="DINCondensed-Bold" font-weight="bold" font-size="28.0" fill="#838787" transform="matrix(1.00, 0.00, -0.00, -1.00, 753.1, 185.0)">2</text><text xml:space="preserve" font-family="DINCondensed-Bold" font-weight="bold" font-size="28.0" fill="#838787" transform="matrix(1.00, 0.00, -0.00, -1.00, 763.5, 185.0)"> </text><text xml:space="preserve" font-family="DINCondensed-Bold" font-weight="bold" font-size="28.0" fill="#838787" transform="matrix(1.00, 0.00, -0.00, -1.00, 768.7, 185.0)"> </text><text xml:space="preserve" font-family="DINCondensed-Bold" font-weight="bold" font-size="28.0" fill="#838787" transform="matrix(1.00, 0.00, -0.00, -1.00, 773.9, 185.0)"> </text></g></g><g><clipPath id="clip-71"><path d="M 549.1 150.1 L 810.6 150.1 L 810.6 205.1 L 549.1 205.1 Z M 549.1 150.1 "></path></clipPath><g clip-path="url(#clip-71)"><text xml:space="preserve" font-family="DINCondensed-Bold" font-weight="bold" font-size="28.0" fill="#838787" transform="matrix(1.00, 0.00, -0.00, -1.00, 628.0, 156.0)">D</text><text xml:space="preserve" font-family="DINCondensed-Bold" font-weight="bold" font-size="28.0" fill="#838787" transform="matrix(1.00, 0.00, -0.00, -1.00, 639.9, 156.0)">U</text><text xml:space="preserve" font-family="DINCondensed-Bold" font-weight="bold" font-size="28.0" fill="#838787" transform="matrix(1.00, 0.00, -0.00, -1.00, 651.9, 156.0)">E</text><text xml:space="preserve" font-family="DINCondensed-Bold" font-weight="bold" font-size="28.0" fill="#838787" transform="matrix(1.00, 0.00, -0.00, -1.00, 662.2, 156.0)">:</text><text xml:space="preserve" font-family="DINCondensed-Bold" font-weight="bold" font-size="28.0" fill="#838787" transform="matrix(1.00, 0.00, -0.00, -1.00, 667.4, 156.0)"> </text><text xml:space="preserve" font-family="DINCondensed-Bold" font-weight="bold" font-size="28.0" fill="#838787" transform="matrix(1.00, 0.00, -0.00, -1.00, 672.6, 156.0)">2</text><text xml:space="preserve" font-family="DINCondensed-Bold" font-weight="bold" font-size="28.0" fill="#838787" transform="matrix(1.00, 0.00, -0.00, -1.00, 683.0, 156.0)"> </text><text xml:space="preserve" font-family="DINCondensed-Bold" font-weight="bold" font-size="28.0" fill="#838787" transform="matrix(1.00, 0.00, -0.00, -1.00, 688.3, 156.0)">D</text><text xml:space="preserve" font-family="DINCondensed-Bold" font-weight="bold" font-size="28.0" fill="#838787" transform="matrix(1.00, 0.00, -0.00, -1.00, 699.8, 156.0)">A</text><text xml:space="preserve" font-family="DINCondensed-Bold" font-weight="bold" font-size="28.0" fill="#838787" transform="matrix(1.00, 0.00, -0.00, -1.00, 709.7, 156.0)">Y</text><text xml:space="preserve" font-family="DINCondensed-Bold" font-weight="bold" font-size="28.0" fill="#838787" transform="matrix(1.00, 0.00, -0.00, -1.00, 720.6, 156.0)">S</text></g></g></g></svg>