<?xml version="1.0" encoding="UTF-8" standalone="no"?><svg xmlns="http://www.w3.org/2000/svg" xmlns:xlink="http://www.w3.org/1999/xlink" clip-rule="evenodd" stroke-miterlimit="4.00" viewBox="0 0 526 103"><desc>SVG generated by Keynote</desc><defs></defs><g transform="matrix(1.00, 0.00, -0.00, -1.00, 0.0, 103.0)"><path d="M 0.0 0.0 L 520.7 0.0 L 520.7 98.0 L 0.0 98.0 Z M 0.0 0.0 " fill="none" stroke="#5A5754" stroke-width="2.00" transform="matrix(1.00, 0.00, 0.00, -1.00, 2.9, 100.2)"></path><g><clipPath id="clip-58"><path d="M 3.9 3.2 L 522.6 3.2 L 522.6 99.2 L 3.9 99.2 Z M 3.9 3.2 "></path></clipPath><g clip-path="url(#clip-58)"><text xml:space="preserve" font-family="Menlo-Italic" font-style="italic" font-size="12.0" fill="#999999" transform="matrix(1.00, 0.00, -0.00, -1.00, 8.0, 82.0)">/</text><text xml:space="preserve" font-family="Menlo-Italic" font-style="italic" font-size="12.0" fill="#999999" transform="matrix(1.00, 0.00, -0.00, -1.00, 15.2, 82.0)">/</text><text xml:space="preserve" font-family="Menlo-Italic" font-style="italic" font-size="12.0" fill="#999999" transform="matrix(1.00, 0.00, -0.00, -1.00, 22.5, 82.0)">S</text><text xml:space="preserve" font-family="Menlo-Italic" font-style="italic" font-size="12.0" fill="#999999" transform="matrix(1.00, 0.00, -0.00, -1.00, 29.7, 82.0)">e</text><text xml:space="preserve" font-family="Menlo-Italic" font-style="italic" font-size="12.0" fill="#999999" transform="matrix(1.00, 0.00, -0.00, -1.00, 36.9, 82.0)">n</text><text xml:space="preserve" font-family="Menlo-Italic" font-style="italic" font-size="12.0" fill="#999999" transform="matrix(1.00, 0.00, -0.00, -1.00, 44.1, 82.0)">d</text><text xml:space="preserve" font-family="Menlo-Italic" font-style="italic" font-size="12.0" fill="#999999" transform="matrix(1.00, 0.00, -0.00, -1.00, 51.4, 82.0)"> </text><text xml:space="preserve" font-family="Menlo-Italic" font-style="italic" font-size="12.0" fill="#999999" transform="matrix(1.00, 0.00, -0.00, -1.00, 58.6, 82.0)">d</text><text xml:space="preserve" font-family="Menlo-Italic" font-style="italic" font-size="12.0" fill="#999999" transform="matrix(1.00, 0.00, -0.00, -1.00, 65.8, 82.0)">a</text><text xml:space="preserve" font-family="Menlo-Italic" font-style="italic" font-size="12.0" fill="#999999" transform="matrix(1.00, 0.00, -0.00, -1.00, 73.0, 82.0)">t</text><text xml:space="preserve" font-family="Menlo-Italic" font-style="italic" font-size="12.0" fill="#999999" transform="matrix(1.00, 0.00, -0.00, -1.00, 80.3, 82.0)">a</text><text xml:space="preserve" font-family="Menlo-Italic" font-style="italic" font-size="12.0" fill="#999999" transform="matrix(1.00, 0.00, -0.00, -1.00, 87.5, 82.0)"> </text><text xml:space="preserve" font-family="Menlo-Italic" font-style="italic" font-size="12.0" fill="#999999" transform="matrix(1.00, 0.00, -0.00, -1.00, 94.7, 82.0)">t</text><text xml:space="preserve" font-family="Menlo-Italic" font-style="italic" font-size="12.0" fill="#999999" transform="matrix(1.00, 0.00, -0.00, -1.00, 101.9, 82.0)">o</text><text xml:space="preserve" font-family="Menlo-Italic" font-style="italic" font-size="12.0" fill="#999999" transform="matrix(1.00, 0.00, -0.00, -1.00, 109.2, 82.0)"> </text><text xml:space="preserve" font-family="Menlo-Italic" font-style="italic" font-size="12.0" fill="#999999" transform="matrix(1.00, 0.00, -0.00, -1.00, 116.4, 82.0)">n</text><text xml:space="preserve" font-family="Menlo-Italic" font-style="italic" font-size="12.0" fill="#999999" transform="matrix(1.00, 0.00, -0.00, -1.00, 123.6, 82.0)">a</text><text xml:space="preserve" font-family="Menlo-Italic" font-style="italic" font-size="12.0" fill="#999999" transform="matrix(1.00, 0.00, -0.00, -1.00, 130.8, 82.0)">t</text><text xml:space="preserve" font-family="Menlo-Italic" font-style="italic" font-size="12.0" fill="#999999" transform="matrix(1.00, 0.00, -0.00, -1.00, 138.1, 82.0)">i</text><text xml:space="preserve" font-family="Menlo-Italic" font-style="italic" font-size="12.0" fill="#999999" transform="matrix(1.00, 0.00, -0.00, -1.00, 145.3, 82.0)">v</text><text xml:space="preserve" font-family="Menlo-Italic" font-style="italic" font-size="12.0" fill="#999999" transform="matrix(1.00, 0.00, -0.00, -1.00, 152.5, 82.0)">e</text><text xml:space="preserve" font-family="Menlo-Italic" font-style="italic" font-size="12.0" fill="#999999" transform="matrix(1.00, 0.00, -0.00, -1.00, 159.7, 82.0)"> </text><text xml:space="preserve" font-family="Menlo-Italic" font-style="italic" font-size="12.0" fill="#999999" transform="matrix(1.00, 0.00, -0.00, -1.00, 167.0, 82.0)">a</text><text xml:space="preserve" font-family="Menlo-Italic" font-style="italic" font-size="12.0" fill="#999999" transform="matrix(1.00, 0.00, -0.00, -1.00, 174.2, 82.0)">p</text><text xml:space="preserve" font-family="Menlo-Italic" font-style="italic" font-size="12.0" fill="#999999" transform="matrix(1.00, 0.00, -0.00, -1.00, 181.4, 82.0)">p</text><text xml:space="preserve" font-family="Menlo-Italic" font-style="italic" font-size="12.0" fill="#999999" transform="matrix(1.00, 0.00, -0.00, -1.00, 188.6, 82.0)"> </text><text xml:space="preserve" font-family="Menlo-Italic" font-style="italic" font-size="12.0" fill="#999999" transform="matrix(1.00, 0.00, -0.00, -1.00, 195.9, 82.0)">w</text><text xml:space="preserve" font-family="Menlo-Italic" font-style="italic" font-size="12.0" fill="#999999" transform="matrix(1.00, 0.00, -0.00, -1.00, 203.1, 82.0)">i</text><text xml:space="preserve" font-family="Menlo-Italic" font-style="italic" font-size="12.0" fill="#999999" transform="matrix(1.00, 0.00, -0.00, -1.00, 210.3, 82.0)">t</text><text xml:space="preserve" font-family="Menlo-Italic" font-style="italic" font-size="12.0" fill="#999999" transform="matrix(1.00, 0.00, -0.00, -1.00, 217.5, 82.0)">h</text><text xml:space="preserve" font-family="Menlo-Italic" font-style="italic" font-size="12.0" fill="#999999" transform="matrix(1.00, 0.00, -0.00, -1.00, 224.8, 82.0)"> </text><text xml:space="preserve" font-family="Menlo-Italic" font-style="italic" font-size="12.0" fill="#999999" transform="matrix(1.00, 0.00, -0.00, -1.00, 232.0, 82.0)">U</text><text xml:space="preserve" font-family="Menlo-Italic" font-style="italic" font-size="12.0" fill="#999999" transform="matrix(1.00, 0.00, -0.00, -1.00, 239.2, 82.0)">N</text><text xml:space="preserve" font-family="Menlo-Italic" font-style="italic" font-size="12.0" fill="#999999" transform="matrix(1.00, 0.00, -0.00, -1.00, 246.5, 82.0)">I</text><text xml:space="preserve" font-family="Menlo-Italic" font-style="italic" font-size="12.0" fill="#999999" transform="matrix(1.00, 0.00, -0.00, -1.00, 253.7, 82.0)">T</text><text xml:space="preserve" font-family="Menlo-Italic" font-style="italic" font-size="12.0" fill="#999999" transform="matrix(1.00, 0.00, -0.00, -1.00, 260.9, 82.0)">Y</text><text xml:space="preserve" font-family="Menlo-Italic" font-style="italic" font-size="12.0" fill="#999999" transform="matrix(1.00, 0.00, -0.00, -1.00, 268.1, 82.0)"> </text><text xml:space="preserve" font-family="Menlo-Italic" font-style="italic" font-size="12.0" fill="#999999" transform="matrix(1.00, 0.00, -0.00, -1.00, 275.4, 82.0)">C</text><text xml:space="preserve" font-family="Menlo-Italic" font-style="italic" font-size="12.0" fill="#999999" transform="matrix(1.00, 0.00, -0.00, -1.00, 282.6, 82.0)">O</text><text xml:space="preserve" font-family="Menlo-Italic" font-style="italic" font-size="12.0" fill="#999999" transform="matrix(1.00, 0.00, -0.00, -1.00, 289.8, 82.0)">D</text><text xml:space="preserve" font-family="Menlo-Italic" font-style="italic" font-size="12.0" fill="#999999" transform="matrix(1.00, 0.00, -0.00, -1.00, 297.0, 82.0)">E</text><text xml:space="preserve" font-family="Monaco" font-size="12.0" fill="#999999" transform="matrix(1.00, 0.00, -0.00, -1.00, 304.2, 82.0)"> </text><text xml:space="preserve" font-family="Menlo-Regular" font-size="12.0" fill="#4079B3" transform="matrix(1.00, 0.00, -0.00, -1.00, 8.0, 68.0)">A</text><text xml:space="preserve" font-family="Menlo-Regular" font-size="12.0" fill="#4079B3" transform="matrix(1.00, 0.00, -0.00, -1.00, 15.2, 68.0)">n</text><text xml:space="preserve" font-family="Menlo-Regular" font-size="12.0" fill="#4079B3" transform="matrix(1.00, 0.00, -0.00, -1.00, 22.5, 68.0)">d</text><text xml:space="preserve" font-family="Menlo-Regular" font-size="12.0" fill="#4079B3" transform="matrix(1.00, 0.00, -0.00, -1.00, 29.7, 68.0)">r</text><text xml:space="preserve" font-family="Menlo-Regular" font-size="12.0" fill="#4079B3" transform="matrix(1.00, 0.00, -0.00, -1.00, 36.9, 68.0)">o</text><text xml:space="preserve" font-family="Menlo-Regular" font-size="12.0" fill="#4079B3" transform="matrix(1.00, 0.00, -0.00, -1.00, 44.1, 68.0)">i</text><text xml:space="preserve" font-family="Menlo-Regular" font-size="12.0" fill="#4079B3" transform="matrix(1.00, 0.00, -0.00, -1.00, 51.4, 68.0)">d</text><text xml:space="preserve" font-family="Menlo-Regular" font-size="12.0" fill="#4079B3" transform="matrix(1.00, 0.00, -0.00, -1.00, 58.6, 68.0)">J</text><text xml:space="preserve" font-family="Menlo-Regular" font-size="12.0" fill="#4079B3" transform="matrix(1.00, 0.00, -0.00, -1.00, 65.8, 68.0)">a</text><text xml:space="preserve" font-family="Menlo-Regular" font-size="12.0" fill="#4079B3" transform="matrix(1.00, 0.00, -0.00, -1.00, 73.0, 68.0)">v</text><text xml:space="preserve" font-family="Menlo-Regular" font-size="12.0" fill="#4079B3" transform="matrix(1.00, 0.00, -0.00, -1.00, 80.3, 68.0)">a</text><text xml:space="preserve" font-family="Menlo-Regular" font-size="12.0" fill="#4079B3" transform="matrix(1.00, 0.00, -0.00, -1.00, 87.5, 68.0)">C</text><text xml:space="preserve" font-family="Menlo-Regular" font-size="12.0" fill="#4079B3" transform="matrix(1.00, 0.00, -0.00, -1.00, 94.7, 68.0)">l</text><text xml:space="preserve" font-family="Menlo-Regular" font-size="12.0" fill="#4079B3" transform="matrix(1.00, 0.00, -0.00, -1.00, 101.9, 68.0)">a</text><text xml:space="preserve" font-family="Menlo-Regular" font-size="12.0" fill="#4079B3" transform="matrix(1.00, 0.00, -0.00, -1.00, 109.2, 68.0)">s</text><text xml:space="preserve" font-family="Menlo-Regular" font-size="12.0" fill="#4079B3" transform="matrix(1.00, 0.00, -0.00, -1.00, 116.4, 68.0)">s</text><text xml:space="preserve" font-family="Menlo-Regular" font-size="12.0" fill="#424242" transform="matrix(1.00, 0.00, -0.00, -1.00, 123.6, 68.0)"> </text><text xml:space="preserve" font-family="Menlo-Regular" font-size="12.0" fill="#424242" transform="matrix(1.00, 0.00, -0.00, -1.00, 130.8, 68.0)">i</text><text xml:space="preserve" font-family="Menlo-Regular" font-size="12.0" fill="#424242" transform="matrix(1.00, 0.00, -0.00, -1.00, 138.0, 68.0)">n</text><text xml:space="preserve" font-family="Menlo-Regular" font-size="12.0" fill="#424242" transform="matrix(1.00, 0.00, -0.00, -1.00, 145.3, 68.0)">t</text><text xml:space="preserve" font-family="Menlo-Regular" font-size="12.0" fill="#424242" transform="matrix(1.00, 0.00, -0.00, -1.00, 152.5, 68.0)">e</text><text xml:space="preserve" font-family="Menlo-Regular" font-size="12.0" fill="#424242" transform="matrix(1.00, 0.00, -0.00, -1.00, 159.7, 68.0)">n</text><text xml:space="preserve" font-family="Menlo-Regular" font-size="12.0" fill="#424242" transform="matrix(1.00, 0.00, -0.00, -1.00, 166.9, 68.0)">t</text><text xml:space="preserve" font-family="Menlo-Regular" font-size="12.0" fill="#424242" transform="matrix(1.00, 0.00, -0.00, -1.00, 174.2, 68.0)">C</text><text xml:space="preserve" font-family="Menlo-Regular" font-size="12.0" fill="#424242" transform="matrix(1.00, 0.00, -0.00, -1.00, 181.4, 68.0)">l</text><text xml:space="preserve" font-family="Menlo-Regular" font-size="12.0" fill="#424242" transform="matrix(1.00, 0.00, -0.00, -1.00, 188.6, 68.0)">a</text><text xml:space="preserve" font-family="Menlo-Regular" font-size="12.0" fill="#424242" transform="matrix(1.00, 0.00, -0.00, -1.00, 195.9, 68.0)">s</text><text xml:space="preserve" font-family="Menlo-Regular" font-size="12.0" fill="#424242" transform="matrix(1.00, 0.00, -0.00, -1.00, 203.1, 68.0)">s</text><text xml:space="preserve" font-family="Menlo-Regular" font-size="12.0" fill="#424242" transform="matrix(1.00, 0.00, -0.00, -1.00, 210.3, 68.0)"> </text><text xml:space="preserve" font-family="Menlo-Regular" font-size="12.0" fill="#424242" transform="matrix(1.00, 0.00, -0.00, -1.00, 217.5, 68.0)">=</text><text xml:space="preserve" font-family="Menlo-Regular" font-size="12.0" fill="#424242" transform="matrix(1.00, 0.00, -0.00, -1.00, 224.8, 68.0)"> </text><text xml:space="preserve" font-family="Menlo-Regular" font-size="12.0" fill="#00A5A5" transform="matrix(1.00, 0.00, -0.00, -1.00, 232.0, 68.0)">n</text><text xml:space="preserve" font-family="Menlo-Regular" font-size="12.0" fill="#00A5A5" transform="matrix(1.00, 0.00, -0.00, -1.00, 239.2, 68.0)">e</text><text xml:space="preserve" font-family="Menlo-Regular" font-size="12.0" fill="#00A5A5" transform="matrix(1.00, 0.00, -0.00, -1.00, 246.4, 68.0)">w</text><text xml:space="preserve" font-family="Menlo-Regular" font-size="12.0" fill="#424242" transform="matrix(1.00, 0.00, -0.00, -1.00, 253.6, 68.0)"> </text><text xml:space="preserve" font-family="Menlo-Regular" font-size="12.0" fill="#4079B3" transform="matrix(1.00, 0.00, -0.00, -1.00, 260.9, 68.0)">A</text><text xml:space="preserve" font-family="Menlo-Regular" font-size="12.0" fill="#4079B3" transform="matrix(1.00, 0.00, -0.00, -1.00, 268.1, 68.0)">n</text><text xml:space="preserve" font-family="Menlo-Regular" font-size="12.0" fill="#4079B3" transform="matrix(1.00, 0.00, -0.00, -1.00, 275.3, 68.0)">d</text><text xml:space="preserve" font-family="Menlo-Regular" font-size="12.0" fill="#4079B3" transform="matrix(1.00, 0.00, -0.00, -1.00, 282.5, 68.0)">r</text><text xml:space="preserve" font-family="Menlo-Regular" font-size="12.0" fill="#4079B3" transform="matrix(1.00, 0.00, -0.00, -1.00, 289.8, 68.0)">o</text><text xml:space="preserve" font-family="Menlo-Regular" font-size="12.0" fill="#4079B3" transform="matrix(1.00, 0.00, -0.00, -1.00, 297.0, 68.0)">i</text><text xml:space="preserve" font-family="Menlo-Regular" font-size="12.0" fill="#4079B3" transform="matrix(1.00, 0.00, -0.00, -1.00, 304.2, 68.0)">d</text><text xml:space="preserve" font-family="Menlo-Regular" font-size="12.0" fill="#4079B3" transform="matrix(1.00, 0.00, -0.00, -1.00, 311.4, 68.0)">J</text><text xml:space="preserve" font-family="Menlo-Regular" font-size="12.0" fill="#4079B3" transform="matrix(1.00, 0.00, -0.00, -1.00, 318.7, 68.0)">a</text><text xml:space="preserve" font-family="Menlo-Regular" font-size="12.0" fill="#4079B3" transform="matrix(1.00, 0.00, -0.00, -1.00, 325.9, 68.0)">v</text><text xml:space="preserve" font-family="Menlo-Regular" font-size="12.0" fill="#4079B3" transform="matrix(1.00, 0.00, -0.00, -1.00, 333.1, 68.0)">a</text><text xml:space="preserve" font-family="Menlo-Regular" font-size="12.0" fill="#4079B3" transform="matrix(1.00, 0.00, -0.00, -1.00, 340.3, 68.0)">C</text><text xml:space="preserve" font-family="Menlo-Regular" font-size="12.0" fill="#4079B3" transform="matrix(1.00, 0.00, -0.00, -1.00, 347.6, 68.0)">l</text><text xml:space="preserve" font-family="Menlo-Regular" font-size="12.0" fill="#4079B3" transform="matrix(1.00, 0.00, -0.00, -1.00, 354.8, 68.0)">a</text><text xml:space="preserve" font-family="Menlo-Regular" font-size="12.0" fill="#4079B3" transform="matrix(1.00, 0.00, -0.00, -1.00, 362.0, 68.0)">s</text><text xml:space="preserve" font-family="Menlo-Regular" font-size="12.0" fill="#4079B3" transform="matrix(1.00, 0.00, -0.00, -1.00, 369.2, 68.0)">s</text><text xml:space="preserve" font-family="Menlo-Regular" font-size="12.0" fill="#424242" transform="matrix(1.00, 0.00, -0.00, -1.00, 376.5, 68.0)"> </text><text xml:space="preserve" font-family="Menlo-Regular" font-size="12.0" fill="#424242" transform="matrix(1.00, 0.00, -0.00, -1.00, 8.0, 54.0)">(</text><text xml:space="preserve" font-family="Menlo-Regular" font-size="12.0" fill="#F89000" transform="matrix(1.00, 0.00, -0.00, -1.00, 15.2, 54.0)">"</text><text xml:space="preserve" font-family="Menlo-Regular" font-size="12.0" fill="#F89000" transform="matrix(1.00, 0.00, -0.00, -1.00, 22.5, 54.0)">a</text><text xml:space="preserve" font-family="Menlo-Regular" font-size="12.0" fill="#F89000" transform="matrix(1.00, 0.00, -0.00, -1.00, 29.7, 54.0)">n</text><text xml:space="preserve" font-family="Menlo-Regular" font-size="12.0" fill="#F89000" transform="matrix(1.00, 0.00, -0.00, -1.00, 36.9, 54.0)">d</text><text xml:space="preserve" font-family="Menlo-Regular" font-size="12.0" fill="#F89000" transform="matrix(1.00, 0.00, -0.00, -1.00, 44.1, 54.0)">r</text><text xml:space="preserve" font-family="Menlo-Regular" font-size="12.0" fill="#F89000" transform="matrix(1.00, 0.00, -0.00, -1.00, 51.4, 54.0)">o</text><text xml:space="preserve" font-family="Menlo-Regular" font-size="12.0" fill="#F89000" transform="matrix(1.00, 0.00, -0.00, -1.00, 58.6, 54.0)">i</text><text xml:space="preserve" font-family="Menlo-Regular" font-size="12.0" fill="#F89000" transform="matrix(1.00, 0.00, -0.00, -1.00, 65.8, 54.0)">d</text><text xml:space="preserve" font-family="Menlo-Regular" font-size="12.0" fill="#F89000" transform="matrix(1.00, 0.00, -0.00, -1.00, 73.0, 54.0)">.</text><text xml:space="preserve" font-family="Menlo-Regular" font-size="12.0" fill="#F89000" transform="matrix(1.00, 0.00, -0.00, -1.00, 80.3, 54.0)">c</text><text xml:space="preserve" font-family="Menlo-Regular" font-size="12.0" fill="#F89000" transform="matrix(1.00, 0.00, -0.00, -1.00, 87.5, 54.0)">o</text><text xml:space="preserve" font-family="Menlo-Regular" font-size="12.0" fill="#F89000" transform="matrix(1.00, 0.00, -0.00, -1.00, 94.7, 54.0)">n</text><text xml:space="preserve" font-family="Menlo-Regular" font-size="12.0" fill="#F89000" transform="matrix(1.00, 0.00, -0.00, -1.00, 101.9, 54.0)">t</text><text xml:space="preserve" font-family="Menlo-Regular" font-size="12.0" fill="#F89000" transform="matrix(1.00, 0.00, -0.00, -1.00, 109.2, 54.0)">e</text><text xml:space="preserve" font-family="Menlo-Regular" font-size="12.0" fill="#F89000" transform="matrix(1.00, 0.00, -0.00, -1.00, 116.4, 54.0)">n</text><text xml:space="preserve" font-family="Menlo-Regular" font-size="12.0" fill="#F89000" transform="matrix(1.00, 0.00, -0.00, -1.00, 123.6, 54.0)">t</text><text xml:space="preserve" font-family="Menlo-Regular" font-size="12.0" fill="#F89000" transform="matrix(1.00, 0.00, -0.00, -1.00, 130.8, 54.0)">.</text><text xml:space="preserve" font-family="Menlo-Regular" font-size="12.0" fill="#F89000" transform="matrix(1.00, 0.00, -0.00, -1.00, 138.1, 54.0)">I</text><text xml:space="preserve" font-family="Menlo-Regular" font-size="12.0" fill="#F89000" transform="matrix(1.00, 0.00, -0.00, -1.00, 145.3, 54.0)">n</text><text xml:space="preserve" font-family="Menlo-Regular" font-size="12.0" fill="#F89000" transform="matrix(1.00, 0.00, -0.00, -1.00, 152.5, 54.0)">t</text><text xml:space="preserve" font-family="Menlo-Regular" font-size="12.0" fill="#F89000" transform="matrix(1.00, 0.00, -0.00, -1.00, 159.7, 54.0)">e</text><text xml:space="preserve" font-family="Menlo-Regular" font-size="12.0" fill="#F89000" transform="matrix(1.00, 0.00, -0.00, -1.00, 167.0, 54.0)">n</text><text xml:space="preserve" font-family="Menlo-Regular" font-size="12.0" fill="#F89000" transform="matrix(1.00, 0.00, -0.00, -1.00, 174.2, 54.0)">t</text><text xml:space="preserve" font-family="Menlo-Regular" font-size="12.0" fill="#F89000" transform="matrix(1.00, 0.00, -0.00, -1.00, 181.4, 54.0)">"</text><text xml:space="preserve" font-family="Menlo-Regular" font-size="12.0" fill="#424242" transform="matrix(1.00, 0.00, -0.00, -1.00, 188.6, 54.0)">)</text><text xml:space="preserve" font-family="Menlo-Regular" font-size="12.0" fill="#424242" transform="matrix(1.00, 0.00, -0.00, -1.00, 195.8, 54.0)">;</text><text xml:space="preserve" font-family="Monaco" font-size="12.0" fill="#424242" transform="matrix(1.00, 0.00, -0.00, -1.00, 203.1, 54.0)"> </text><text xml:space="preserve" font-family="Menlo-Regular" font-size="12.0" fill="#999999" transform="matrix(1.00, 0.00, -0.00, -1.00, 8.0, 40.0)">l</text><text xml:space="preserve" font-family="Menlo-Regular" font-size="12.0" fill="#999999" transform="matrix(1.00, 0.00, -0.00, -1.00, 15.2, 40.0)">a</text><text xml:space="preserve" font-family="Menlo-Regular" font-size="12.0" fill="#999999" transform="matrix(1.00, 0.00, -0.00, -1.00, 22.5, 40.0)">u</text><text xml:space="preserve" font-family="Menlo-Regular" font-size="12.0" fill="#999999" transform="matrix(1.00, 0.00, -0.00, -1.00, 29.7, 40.0)">n</text><text xml:space="preserve" font-family="Menlo-Regular" font-size="12.0" fill="#999999" transform="matrix(1.00, 0.00, -0.00, -1.00, 36.9, 40.0)">c</text><text xml:space="preserve" font-family="Menlo-Regular" font-size="12.0" fill="#999999" transform="matrix(1.00, 0.00, -0.00, -1.00, 44.1, 40.0)">h</text><text xml:space="preserve" font-family="Menlo-Regular" font-size="12.0" fill="#999999" transform="matrix(1.00, 0.00, -0.00, -1.00, 51.4, 40.0)">I</text><text xml:space="preserve" font-family="Menlo-Regular" font-size="12.0" fill="#999999" transform="matrix(1.00, 0.00, -0.00, -1.00, 58.6, 40.0)">n</text><text xml:space="preserve" font-family="Menlo-Regular" font-size="12.0" fill="#999999" transform="matrix(1.00, 0.00, -0.00, -1.00, 65.8, 40.0)">t</text><text xml:space="preserve" font-family="Menlo-Regular" font-size="12.0" fill="#999999" transform="matrix(1.00, 0.00, -0.00, -1.00, 73.0, 40.0)">e</text><text xml:space="preserve" font-family="Menlo-Regular" font-size="12.0" fill="#999999" transform="matrix(1.00, 0.00, -0.00, -1.00, 80.3, 40.0)">n</text><text xml:space="preserve" font-family="Menlo-Regular" font-size="12.0" fill="#999999" transform="matrix(1.00, 0.00, -0.00, -1.00, 87.5, 40.0)">t</text><text xml:space="preserve" font-family="Menlo-Regular" font-size="12.0" fill="#999999" transform="matrix(1.00, 0.00, -0.00, -1.00, 94.7, 40.0)">.</text><text xml:space="preserve" font-family="Menlo-Regular" font-size="12.0" fill="#999999" transform="matrix(1.00, 0.00, -0.00, -1.00, 101.9, 40.0)">C</text><text xml:space="preserve" font-family="Menlo-Regular" font-size="12.0" fill="#999999" transform="matrix(1.00, 0.00, -0.00, -1.00, 109.2, 40.0)">a</text><text xml:space="preserve" font-family="Menlo-Regular" font-size="12.0" fill="#999999" transform="matrix(1.00, 0.00, -0.00, -1.00, 116.4, 40.0)">l</text><text xml:space="preserve" font-family="Menlo-Regular" font-size="12.0" fill="#999999" transform="matrix(1.00, 0.00, -0.00, -1.00, 123.6, 40.0)">l</text><text xml:space="preserve" font-family="Menlo-Regular" font-size="12.0" fill="#999999" transform="matrix(1.00, 0.00, -0.00, -1.00, 130.8, 40.0)">&lt;</text><text xml:space="preserve" font-family="Menlo-Regular" font-size="12.0" fill="#4079B3" transform="matrix(1.00, 0.00, -0.00, -1.00, 138.0, 40.0)">A</text><text xml:space="preserve" font-family="Menlo-Regular" font-size="12.0" fill="#4079B3" transform="matrix(1.00, 0.00, -0.00, -1.00, 145.3, 40.0)">n</text><text xml:space="preserve" font-family="Menlo-Regular" font-size="12.0" fill="#4079B3" transform="matrix(1.00, 0.00, -0.00, -1.00, 152.5, 40.0)">d</text><text xml:space="preserve" font-family="Menlo-Regular" font-size="12.0" fill="#4079B3" transform="matrix(1.00, 0.00, -0.00, -1.00, 159.7, 40.0)">r</text><text xml:space="preserve" font-family="Menlo-Regular" font-size="12.0" fill="#4079B3" transform="matrix(1.00, 0.00, -0.00, -1.00, 166.9, 40.0)">o</text><text xml:space="preserve" font-family="Menlo-Regular" font-size="12.0" fill="#4079B3" transform="matrix(1.00, 0.00, -0.00, -1.00, 174.2, 40.0)">i</text><text xml:space="preserve" font-family="Menlo-Regular" font-size="12.0" fill="#4079B3" transform="matrix(1.00, 0.00, -0.00, -1.00, 181.4, 40.0)">d</text><text xml:space="preserve" font-family="Menlo-Regular" font-size="12.0" fill="#4079B3" transform="matrix(1.00, 0.00, -0.00, -1.00, 188.6, 40.0)">J</text><text xml:space="preserve" font-family="Menlo-Regular" font-size="12.0" fill="#4079B3" transform="matrix(1.00, 0.00, -0.00, -1.00, 195.8, 40.0)">a</text><text xml:space="preserve" font-family="Menlo-Regular" font-size="12.0" fill="#4079B3" transform="matrix(1.00, 0.00, -0.00, -1.00, 203.1, 40.0)">v</text><text xml:space="preserve" font-family="Menlo-Regular" font-size="12.0" fill="#4079B3" transform="matrix(1.00, 0.00, -0.00, -1.00, 210.3, 40.0)">a</text><text xml:space="preserve" font-family="Menlo-Regular" font-size="12.0" fill="#4079B3" transform="matrix(1.00, 0.00, -0.00, -1.00, 217.5, 40.0)">O</text><text xml:space="preserve" font-family="Menlo-Regular" font-size="12.0" fill="#4079B3" transform="matrix(1.00, 0.00, -0.00, -1.00, 224.8, 40.0)">b</text><text xml:space="preserve" font-family="Menlo-Regular" font-size="12.0" fill="#4079B3" transform="matrix(1.00, 0.00, -0.00, -1.00, 232.0, 40.0)">j</text><text xml:space="preserve" font-family="Menlo-Regular" font-size="12.0" fill="#4079B3" transform="matrix(1.00, 0.00, -0.00, -1.00, 239.2, 40.0)">e</text><text xml:space="preserve" font-family="Menlo-Regular" font-size="12.0" fill="#4079B3" transform="matrix(1.00, 0.00, -0.00, -1.00, 246.4, 40.0)">c</text><text xml:space="preserve" font-family="Menlo-Regular" font-size="12.0" fill="#4079B3" transform="matrix(1.00, 0.00, -0.00, -1.00, 253.7, 40.0)">t</text><text xml:space="preserve" font-family="Menlo-Regular" font-size="12.0" fill="#999999" transform="matrix(1.00, 0.00, -0.00, -1.00, 260.9, 40.0)">&gt;</text><text xml:space="preserve" font-family="Menlo-Regular" font-size="12.0" fill="#999999" transform="matrix(1.00, 0.00, -0.00, -1.00, 268.1, 40.0)">(</text><text xml:space="preserve" font-family="Menlo-Regular" font-size="12.0" fill="#F89000" transform="matrix(1.00, 0.00, -0.00, -1.00, 275.3, 40.0)">"</text><text xml:space="preserve" font-family="Menlo-Regular" font-size="12.0" fill="#F89000" transform="matrix(1.00, 0.00, -0.00, -1.00, 282.5, 40.0)">p</text><text xml:space="preserve" font-family="Menlo-Regular" font-size="12.0" fill="#F89000" transform="matrix(1.00, 0.00, -0.00, -1.00, 289.8, 40.0)">u</text><text xml:space="preserve" font-family="Menlo-Regular" font-size="12.0" fill="#F89000" transform="matrix(1.00, 0.00, -0.00, -1.00, 297.0, 40.0)">t</text><text xml:space="preserve" font-family="Menlo-Regular" font-size="12.0" fill="#F89000" transform="matrix(1.00, 0.00, -0.00, -1.00, 304.2, 40.0)">E</text><text xml:space="preserve" font-family="Menlo-Regular" font-size="12.0" fill="#F89000" transform="matrix(1.00, 0.00, -0.00, -1.00, 311.4, 40.0)">x</text><text xml:space="preserve" font-family="Menlo-Regular" font-size="12.0" fill="#F89000" transform="matrix(1.00, 0.00, -0.00, -1.00, 318.7, 40.0)">t</text><text xml:space="preserve" font-family="Menlo-Regular" font-size="12.0" fill="#F89000" transform="matrix(1.00, 0.00, -0.00, -1.00, 325.9, 40.0)">r</text><text xml:space="preserve" font-family="Menlo-Regular" font-size="12.0" fill="#F89000" transform="matrix(1.00, 0.00, -0.00, -1.00, 333.1, 40.0)">a</text><text xml:space="preserve" font-family="Menlo-Regular" font-size="12.0" fill="#F89000" transform="matrix(1.00, 0.00, -0.00, -1.00, 340.3, 40.0)">"</text><text xml:space="preserve" font-family="Menlo-Regular" font-size="12.0" fill="#999999" transform="matrix(1.00, 0.00, -0.00, -1.00, 347.6, 40.0)">,</text><text xml:space="preserve" font-family="Menlo-Regular" font-size="12.0" fill="#999999" transform="matrix(1.00, 0.00, -0.00, -1.00, 354.8, 40.0)"> </text><text xml:space="preserve" font-family="Menlo-Regular" font-size="12.0" fill="#999999" transform="matrix(1.00, 0.00, -0.00, -1.00, 8.0, 26.0)">i</text><text xml:space="preserve" font-family="Menlo-Regular" font-size="12.0" fill="#999999" transform="matrix(1.00, 0.00, -0.00, -1.00, 15.2, 26.0)">n</text><text xml:space="preserve" font-family="Menlo-Regular" font-size="12.0" fill="#999999" transform="matrix(1.00, 0.00, -0.00, -1.00, 22.5, 26.0)">t</text><text xml:space="preserve" font-family="Menlo-Regular" font-size="12.0" fill="#999999" transform="matrix(1.00, 0.00, -0.00, -1.00, 29.7, 26.0)">e</text><text xml:space="preserve" font-family="Menlo-Regular" font-size="12.0" fill="#999999" transform="matrix(1.00, 0.00, -0.00, -1.00, 36.9, 26.0)">n</text><text xml:space="preserve" font-family="Menlo-Regular" font-size="12.0" fill="#999999" transform="matrix(1.00, 0.00, -0.00, -1.00, 44.1, 26.0)">t</text><text xml:space="preserve" font-family="Menlo-Regular" font-size="12.0" fill="#999999" transform="matrix(1.00, 0.00, -0.00, -1.00, 51.4, 26.0)">C</text><text xml:space="preserve" font-family="Menlo-Regular" font-size="12.0" fill="#999999" transform="matrix(1.00, 0.00, -0.00, -1.00, 58.6, 26.0)">l</text><text xml:space="preserve" font-family="Menlo-Regular" font-size="12.0" fill="#999999" transform="matrix(1.00, 0.00, -0.00, -1.00, 65.8, 26.0)">a</text><text xml:space="preserve" font-family="Menlo-Regular" font-size="12.0" fill="#999999" transform="matrix(1.00, 0.00, -0.00, -1.00, 73.0, 26.0)">s</text><text xml:space="preserve" font-family="Menlo-Regular" font-size="12.0" fill="#999999" transform="matrix(1.00, 0.00, -0.00, -1.00, 80.3, 26.0)">s</text><text xml:space="preserve" font-family="Menlo-Regular" font-size="12.0" fill="#999999" transform="matrix(1.00, 0.00, -0.00, -1.00, 87.5, 26.0)">.</text><text xml:space="preserve" font-family="Menlo-Regular" font-size="12.0" fill="#999999" transform="matrix(1.00, 0.00, -0.00, -1.00, 94.7, 26.0)">G</text><text xml:space="preserve" font-family="Menlo-Regular" font-size="12.0" fill="#999999" transform="matrix(1.00, 0.00, -0.00, -1.00, 101.9, 26.0)">e</text><text xml:space="preserve" font-family="Menlo-Regular" font-size="12.0" fill="#999999" transform="matrix(1.00, 0.00, -0.00, -1.00, 109.2, 26.0)">t</text><text xml:space="preserve" font-family="Menlo-Regular" font-size="12.0" fill="#999999" transform="matrix(1.00, 0.00, -0.00, -1.00, 116.4, 26.0)">S</text><text xml:space="preserve" font-family="Menlo-Regular" font-size="12.0" fill="#999999" transform="matrix(1.00, 0.00, -0.00, -1.00, 123.6, 26.0)">t</text><text xml:space="preserve" font-family="Menlo-Regular" font-size="12.0" fill="#999999" transform="matrix(1.00, 0.00, -0.00, -1.00, 130.8, 26.0)">a</text><text xml:space="preserve" font-family="Menlo-Regular" font-size="12.0" fill="#999999" transform="matrix(1.00, 0.00, -0.00, -1.00, 138.1, 26.0)">t</text><text xml:space="preserve" font-family="Menlo-Regular" font-size="12.0" fill="#999999" transform="matrix(1.00, 0.00, -0.00, -1.00, 145.3, 26.0)">i</text><text xml:space="preserve" font-family="Menlo-Regular" font-size="12.0" fill="#999999" transform="matrix(1.00, 0.00, -0.00, -1.00, 152.5, 26.0)">c</text><text xml:space="preserve" font-family="Menlo-Regular" font-size="12.0" fill="#999999" transform="matrix(1.00, 0.00, -0.00, -1.00, 159.7, 26.0)">&lt;</text><text xml:space="preserve" font-family="Menlo-Regular" font-size="12.0" fill="#00A5A5" transform="matrix(1.00, 0.00, -0.00, -1.00, 166.9, 26.0)">s</text><text xml:space="preserve" font-family="Menlo-Regular" font-size="12.0" fill="#00A5A5" transform="matrix(1.00, 0.00, -0.00, -1.00, 174.2, 26.0)">t</text><text xml:space="preserve" font-family="Menlo-Regular" font-size="12.0" fill="#00A5A5" transform="matrix(1.00, 0.00, -0.00, -1.00, 181.4, 26.0)">r</text><text xml:space="preserve" font-family="Menlo-Regular" font-size="12.0" fill="#00A5A5" transform="matrix(1.00, 0.00, -0.00, -1.00, 188.6, 26.0)">i</text><text xml:space="preserve" font-family="Menlo-Regular" font-size="12.0" fill="#00A5A5" transform="matrix(1.00, 0.00, -0.00, -1.00, 195.8, 26.0)">n</text><text xml:space="preserve" font-family="Menlo-Regular" font-size="12.0" fill="#00A5A5" transform="matrix(1.00, 0.00, -0.00, -1.00, 203.1, 26.0)">g</text><text xml:space="preserve" font-family="Menlo-Regular" font-size="12.0" fill="#999999" transform="matrix(1.00, 0.00, -0.00, -1.00, 210.3, 26.0)">&gt;</text><text xml:space="preserve" font-family="Menlo-Regular" font-size="12.0" fill="#999999" transform="matrix(1.00, 0.00, -0.00, -1.00, 217.5, 26.0)">(</text><text xml:space="preserve" font-family="Menlo-Regular" font-size="12.0" fill="#F89000" transform="matrix(1.00, 0.00, -0.00, -1.00, 224.7, 26.0)">"</text><text xml:space="preserve" font-family="Menlo-Regular" font-size="12.0" fill="#F89000" transform="matrix(1.00, 0.00, -0.00, -1.00, 232.0, 26.0)">E</text><text xml:space="preserve" font-family="Menlo-Regular" font-size="12.0" fill="#F89000" transform="matrix(1.00, 0.00, -0.00, -1.00, 239.2, 26.0)">X</text><text xml:space="preserve" font-family="Menlo-Regular" font-size="12.0" fill="#F89000" transform="matrix(1.00, 0.00, -0.00, -1.00, 246.4, 26.0)">T</text><text xml:space="preserve" font-family="Menlo-Regular" font-size="12.0" fill="#F89000" transform="matrix(1.00, 0.00, -0.00, -1.00, 253.6, 26.0)">R</text><text xml:space="preserve" font-family="Menlo-Regular" font-size="12.0" fill="#F89000" transform="matrix(1.00, 0.00, -0.00, -1.00, 260.9, 26.0)">A</text><text xml:space="preserve" font-family="Menlo-Regular" font-size="12.0" fill="#F89000" transform="matrix(1.00, 0.00, -0.00, -1.00, 268.1, 26.0)">_</text><text xml:space="preserve" font-family="Menlo-Regular" font-size="12.0" fill="#F89000" transform="matrix(1.00, 0.00, -0.00, -1.00, 275.3, 26.0)">T</text><text xml:space="preserve" font-family="Menlo-Regular" font-size="12.0" fill="#F89000" transform="matrix(1.00, 0.00, -0.00, -1.00, 282.5, 26.0)">E</text><text xml:space="preserve" font-family="Menlo-Regular" font-size="12.0" fill="#F89000" transform="matrix(1.00, 0.00, -0.00, -1.00, 289.8, 26.0)">X</text><text xml:space="preserve" font-family="Menlo-Regular" font-size="12.0" fill="#F89000" transform="matrix(1.00, 0.00, -0.00, -1.00, 297.0, 26.0)">T</text><text xml:space="preserve" font-family="Menlo-Regular" font-size="12.0" fill="#F89000" transform="matrix(1.00, 0.00, -0.00, -1.00, 304.2, 26.0)">"</text><text xml:space="preserve" font-family="Menlo-Regular" font-size="12.0" fill="#999999" transform="matrix(1.00, 0.00, -0.00, -1.00, 311.4, 26.0)">)</text><text xml:space="preserve" font-family="Menlo-Regular" font-size="12.0" fill="#999999" transform="matrix(1.00, 0.00, -0.00, -1.00, 318.7, 26.0)">,</text><text xml:space="preserve" font-family="Menlo-Regular" font-size="12.0" fill="#999999" transform="matrix(1.00, 0.00, -0.00, -1.00, 325.9, 26.0)"> </text><text xml:space="preserve" font-family="Menlo-Regular" font-size="12.0" fill="#999999" transform="matrix(1.00, 0.00, -0.00, -1.00, 333.1, 26.0)">s</text><text xml:space="preserve" font-family="Menlo-Regular" font-size="12.0" fill="#999999" transform="matrix(1.00, 0.00, -0.00, -1.00, 340.3, 26.0)">e</text><text xml:space="preserve" font-family="Menlo-Regular" font-size="12.0" fill="#999999" transform="matrix(1.00, 0.00, -0.00, -1.00, 347.6, 26.0)">a</text><text xml:space="preserve" font-family="Menlo-Regular" font-size="12.0" fill="#999999" transform="matrix(1.00, 0.00, -0.00, -1.00, 354.8, 26.0)">t</text><text xml:space="preserve" font-family="Menlo-Regular" font-size="12.0" fill="#999999" transform="matrix(1.00, 0.00, -0.00, -1.00, 362.0, 26.0)">I</text><text xml:space="preserve" font-family="Menlo-Regular" font-size="12.0" fill="#999999" transform="matrix(1.00, 0.00, -0.00, -1.00, 369.2, 26.0)">n</text><text xml:space="preserve" font-family="Menlo-Regular" font-size="12.0" fill="#999999" transform="matrix(1.00, 0.00, -0.00, -1.00, 376.5, 26.0)">f</text><text xml:space="preserve" font-family="Menlo-Regular" font-size="12.0" fill="#999999" transform="matrix(1.00, 0.00, -0.00, -1.00, 383.7, 26.0)">o</text><text xml:space="preserve" font-family="Menlo-Regular" font-size="12.0" fill="#999999" transform="matrix(1.00, 0.00, -0.00, -1.00, 390.9, 26.0)">T</text><text xml:space="preserve" font-family="Menlo-Regular" font-size="12.0" fill="#999999" transform="matrix(1.00, 0.00, -0.00, -1.00, 398.1, 26.0)">e</text><text xml:space="preserve" font-family="Menlo-Regular" font-size="12.0" fill="#999999" transform="matrix(1.00, 0.00, -0.00, -1.00, 405.4, 26.0)">x</text><text xml:space="preserve" font-family="Menlo-Regular" font-size="12.0" fill="#999999" transform="matrix(1.00, 0.00, -0.00, -1.00, 412.6, 26.0)">t</text><text xml:space="preserve" font-family="Menlo-Regular" font-size="12.0" fill="#999999" transform="matrix(1.00, 0.00, -0.00, -1.00, 419.8, 26.0)">)</text><text xml:space="preserve" font-family="Menlo-Regular" font-size="12.0" fill="#999999" transform="matrix(1.00, 0.00, -0.00, -1.00, 427.0, 26.0)">;</text><text xml:space="preserve" font-family="Monaco" font-size="12.0" fill="#999999" transform="matrix(1.00, 0.00, -0.00, -1.00, 434.3, 26.0)"> </text></g></g></g></svg>