<?xml version="1.0" encoding="UTF-8" standalone="no"?><svg xmlns="http://www.w3.org/2000/svg" xmlns:xlink="http://www.w3.org/1999/xlink" clip-rule="evenodd" stroke-miterlimit="4.00" viewBox="0 0 217 103"><desc>SVG generated by Keynote</desc><defs></defs><g transform="matrix(1.00, 0.00, -0.00, -1.00, 0.0, 103.0)"><path d="M 24.1 101.7 L 192.7 101.7 C 199.3 101.7 202.6 101.7 206.2 100.6 C 210.0 99.2 213.1 96.1 214.5 92.3 C 215.6 88.7 215.6 85.4 215.6 78.7 L 215.6 24.7 C 215.6 18.1 215.6 14.7 214.5 11.2 C 213.1 7.3 210.0 4.3 206.2 2.9 C 202.6 1.7 199.3 1.7 192.6 1.7 L 24.1 1.7 C 17.5 1.7 14.2 1.7 10.6 2.9 C 6.8 4.3 3.7 7.3 2.3 11.2 C 1.2 14.7 1.2 18.1 1.2 24.8 L 1.2 78.8 C 1.2 85.4 1.2 88.7 2.3 92.3 C 3.7 96.1 6.8 99.2 10.6 100.6 C 14.2 101.7 17.5 101.7 24.2 101.7 Z M 24.1 101.7 " fill="#8ABE5D"></path><g><clipPath id="clip-56"><path d="M -1.8 1.7 L 218.6 1.7 L 218.6 101.7 L -1.8 101.7 Z M -1.8 1.7 "></path></clipPath><g clip-path="url(#clip-56)"><text xml:space="preserve" font-family="DINCondensed-Bold" font-weight="bold" font-size="28.0" fill="#FFFFFF" transform="matrix(1.00, 0.00, -0.00, -1.00, 64.0, 49.0)">C</text><text xml:space="preserve" font-family="DINCondensed-Bold" font-weight="bold" font-size="28.0" fill="#FFFFFF" transform="matrix(1.00, 0.00, -0.00, -1.00, 75.4, 49.0)">#</text><text xml:space="preserve" font-family="DINCondensed-Bold" font-weight="bold" font-size="28.0" fill="#FFFFFF" transform="matrix(1.00, 0.00, -0.00, -1.00, 85.8, 49.0)"> </text><text xml:space="preserve" font-family="DINCondensed-Bold" font-weight="bold" font-size="28.0" fill="#FFFFFF" transform="matrix(1.00, 0.00, -0.00, -1.00, 91.0, 49.0)">S</text><text xml:space="preserve" font-family="DINCondensed-Bold" font-weight="bold" font-size="28.0" fill="#FFFFFF" transform="matrix(1.00, 0.00, -0.00, -1.00, 102.4, 49.0)">C</text><text xml:space="preserve" font-family="DINCondensed-Bold" font-weight="bold" font-size="28.0" fill="#FFFFFF" transform="matrix(1.00, 0.00, -0.00, -1.00, 113.8, 49.0)">R</text><text xml:space="preserve" font-family="DINCondensed-Bold" font-weight="bold" font-size="28.0" fill="#FFFFFF" transform="matrix(1.00, 0.00, -0.00, -1.00, 125.7, 49.0)">I</text><text xml:space="preserve" font-family="DINCondensed-Bold" font-weight="bold" font-size="28.0" fill="#FFFFFF" transform="matrix(1.00, 0.00, -0.00, -1.00, 131.4, 49.0)">P</text><text xml:space="preserve" font-family="DINCondensed-Bold" font-weight="bold" font-size="28.0" fill="#FFFFFF" transform="matrix(1.00, 0.00, -0.00, -1.00, 142.8, 49.0)">T</text></g></g></g></svg>