<?xml version="1.0" encoding="UTF-8" standalone="no"?><svg xmlns="http://www.w3.org/2000/svg" xmlns:xlink="http://www.w3.org/1999/xlink" clip-rule="evenodd" stroke-miterlimit="4.00" viewBox="0 0 1024 768"><desc>SVG generated by Keynote</desc><defs></defs><g transform="matrix(1.00, 0.00, -0.00, -1.00, 0.0, 768.0)"><path d="M 0.0 768.0 L 1024.0 768.0 L 1024.0 0.0 L 0.0 0.0 Z M 0.0 768.0 " fill="#212121"></path><path d="M 0.0 0.0 L 960.0 0.0 " fill="none" stroke="#A6AAA9" stroke-width="2.00" transform="matrix(1.00, 0.00, 0.00, -1.00, 32.0, 689.8)"></path><text xml:space="preserve" font-family="DINAlternate-Bold" font-weight="bold" font-size="24.0" fill="#838686" transform="matrix(1.00, 0.00, -0.00, -1.00, 36.0, 705.0)">V</text><text xml:space="preserve" font-family="DINAlternate-Bold" font-weight="bold" font-size="24.0" fill="#838686" transform="matrix(1.00, 0.00, -0.00, -1.00, 50.6, 705.0)">R</text><text xml:space="preserve" font-family="DINAlternate-Bold" font-weight="bold" font-size="24.0" fill="#838686" transform="matrix(1.00, 0.00, -0.00, -1.00, 66.4, 705.0)"> </text><text xml:space="preserve" font-family="DINAlternate-Bold" font-weight="bold" font-size="24.0" fill="#838686" transform="matrix(1.00, 0.00, -0.00, -1.00, 73.3, 705.0)">E</text><text xml:space="preserve" font-family="DINAlternate-Bold" font-weight="bold" font-size="24.0" fill="#838686" transform="matrix(1.00, 0.00, -0.00, -1.00, 87.9, 705.0)">X</text><text xml:space="preserve" font-family="DINAlternate-Bold" font-weight="bold" font-size="24.0" fill="#838686" transform="matrix(1.00, 0.00, -0.00, -1.00, 102.0, 705.0)">P</text><text xml:space="preserve" font-family="DINAlternate-Bold" font-weight="bold" font-size="24.0" fill="#838686" transform="matrix(1.00, 0.00, -0.00, -1.00, 117.4, 705.0)">E</text><text xml:space="preserve" font-family="DINAlternate-Bold" font-weight="bold" font-size="24.0" fill="#838686" transform="matrix(1.00, 0.00, -0.00, -1.00, 131.9, 705.0)">R</text><text xml:space="preserve" font-family="DINAlternate-Bold" font-weight="bold" font-size="24.0" fill="#838686" transform="matrix(1.00, 0.00, -0.00, -1.00, 147.8, 705.0)">I</text><text xml:space="preserve" font-family="DINAlternate-Bold" font-weight="bold" font-size="24.0" fill="#838686" transform="matrix(1.00, 0.00, -0.00, -1.00, 155.2, 705.0)">E</text><text xml:space="preserve" font-family="DINAlternate-Bold" font-weight="bold" font-size="24.0" fill="#838686" transform="matrix(1.00, 0.00, -0.00, -1.00, 169.7, 705.0)">N</text><text xml:space="preserve" font-family="DINAlternate-Bold" font-weight="bold" font-size="24.0" fill="#838686" transform="matrix(1.00, 0.00, -0.00, -1.00, 187.3, 705.0)">C</text><text xml:space="preserve" font-family="DINAlternate-Bold" font-weight="bold" font-size="24.0" fill="#838686" transform="matrix(1.00, 0.00, -0.00, -1.00, 201.9, 705.0)">E</text><text xml:space="preserve" font-family="DINCondensed-Bold" font-weight="bold" font-size="48.0" fill="#34A4DA" transform="matrix(1.00, 0.00, -0.00, -1.00, 36.0, 608.0)">V</text><text xml:space="preserve" font-family="DINCondensed-Bold" font-weight="bold" font-size="48.0" fill="#34A4DA" transform="matrix(1.00, 0.00, -0.00, -1.00, 55.5, 608.0)">R</text><text xml:space="preserve" font-family="DINCondensed-Bold" font-weight="bold" font-size="48.0" fill="#34A4DA" transform="matrix(1.00, 0.00, -0.00, -1.00, 76.0, 608.0)"> </text><text xml:space="preserve" font-family="DINCondensed-Bold" font-weight="bold" font-size="48.0" fill="#34A4DA" transform="matrix(1.00, 0.00, -0.00, -1.00, 84.9, 608.0)">D</text><text xml:space="preserve" font-family="DINCondensed-Bold" font-weight="bold" font-size="48.0" fill="#34A4DA" transform="matrix(1.00, 0.00, -0.00, -1.00, 105.4, 608.0)">E</text><text xml:space="preserve" font-family="DINCondensed-Bold" font-weight="bold" font-size="48.0" fill="#34A4DA" transform="matrix(1.00, 0.00, -0.00, -1.00, 123.1, 608.0)">V</text><text xml:space="preserve" font-family="DINCondensed-Bold" font-weight="bold" font-size="48.0" fill="#34A4DA" transform="matrix(1.00, 0.00, -0.00, -1.00, 142.7, 608.0)">I</text><text xml:space="preserve" font-family="DINCondensed-Bold" font-weight="bold" font-size="48.0" fill="#34A4DA" transform="matrix(1.00, 0.00, -0.00, -1.00, 152.4, 608.0)">C</text><text xml:space="preserve" font-family="DINCondensed-Bold" font-weight="bold" font-size="48.0" fill="#34A4DA" transform="matrix(1.00, 0.00, -0.00, -1.00, 172.0, 608.0)">E</text><text xml:space="preserve" font-family="DINCondensed-Bold" font-weight="bold" font-size="48.0" fill="#34A4DA" transform="matrix(1.00, 0.00, -0.00, -1.00, 189.7, 608.0)">S</text><text xml:space="preserve" font-family="DINAlternate-Bold" font-weight="bold" font-size="24.0" fill="#838686" transform="matrix(1.00, 0.00, -0.00, -1.00, 976.1, 707.4)">5</text><g><clipPath id="clip-3"><path d="M 49.0 568.0 L 637.4 568.0 L 637.4 53.7 L 49.0 53.7 Z M 49.0 568.0 "></path></clipPath><g clip-path="url(#clip-3)"><path d="M 49.0 225.1 L 196.1 225.1 L 196.1 53.7 L 49.0 53.7 Z M 49.0 225.1 " fill="#2E86BA" fill-opacity="0.29"></path><path d="M 196.1 225.1 L 343.2 225.1 L 343.2 53.7 L 196.1 53.7 Z M 196.1 225.1 " fill="#2E86BA" fill-opacity="0.29"></path><path d="M 343.2 225.1 L 490.3 225.1 L 490.3 53.7 L 343.2 53.7 Z M 343.2 225.1 " fill="#2E86BA" fill-opacity="0.29"></path><path d="M 490.3 225.1 L 637.4 225.1 L 637.4 53.7 L 490.3 53.7 Z M 490.3 225.1 " fill="#2E86BA" fill-opacity="0.29"></path></g></g><g><clipPath id="clip-4"><path d="M 49.0 568.0 L 637.4 568.0 L 637.4 53.7 L 49.0 53.7 Z M 49.0 568.0 "></path></clipPath><g clip-path="url(#clip-4)"><g><clipPath id="clip-5"><path d="M 196.1 399.1 L 343.2 399.1 L 343.2 568.0 L 196.1 568.0 Z M 196.1 399.1 "></path></clipPath><g clip-path="url(#clip-5)"><text xml:space="preserve" font-family="AvenirNext-DemiBold" font-weight="bold" font-size="26.0" fill="#A6AAA9" transform="matrix(1.00, 0.00, -0.00, -1.00, 205.0, 475.0)">O</text><text xml:space="preserve" font-family="AvenirNext-DemiBold" font-weight="bold" font-size="26.0" fill="#A6AAA9" transform="matrix(1.00, 0.00, -0.00, -1.00, 227.1, 475.0)">c</text><text xml:space="preserve" font-family="AvenirNext-DemiBold" font-weight="bold" font-size="26.0" fill="#A6AAA9" transform="matrix(1.00, 0.00, -0.00, -1.00, 239.8, 475.0)">u</text><text xml:space="preserve" font-family="AvenirNext-DemiBold" font-weight="bold" font-size="26.0" fill="#A6AAA9" transform="matrix(1.00, 0.00, -0.00, -1.00, 254.9, 475.0)">l</text><text xml:space="preserve" font-family="AvenirNext-DemiBold" font-weight="bold" font-size="26.0" fill="#A6AAA9" transform="matrix(1.00, 0.00, -0.00, -1.00, 261.9, 475.0)">u</text><text xml:space="preserve" font-family="AvenirNext-DemiBold" font-weight="bold" font-size="26.0" fill="#A6AAA9" transform="matrix(1.00, 0.00, -0.00, -1.00, 277.0, 475.0)">s</text><text xml:space="preserve" font-family="AvenirNext-DemiBold" font-weight="bold" font-size="26.0" fill="#A6AAA9" transform="matrix(1.00, 0.00, -0.00, -1.00, 288.5, 475.0)"> </text><text xml:space="preserve" font-family="AvenirNext-DemiBold" font-weight="bold" font-size="26.0" fill="#A6AAA9" transform="matrix(1.00, 0.00, -0.00, -1.00, 295.0, 475.0)">R</text><text xml:space="preserve" font-family="AvenirNext-DemiBold" font-weight="bold" font-size="26.0" fill="#A6AAA9" transform="matrix(1.00, 0.00, -0.00, -1.00, 311.4, 475.0)">i</text><text xml:space="preserve" font-family="AvenirNext-DemiBold" font-weight="bold" font-size="26.0" fill="#A6AAA9" transform="matrix(1.00, 0.00, -0.00, -1.00, 318.4, 475.0)">f</text><text xml:space="preserve" font-family="AvenirNext-DemiBold" font-weight="bold" font-size="26.0" fill="#A6AAA9" transform="matrix(1.00, 0.00, -0.00, -1.00, 326.4, 475.0)">t</text></g></g></g></g><g><clipPath id="clip-6"><path d="M 49.0 568.0 L 637.4 568.0 L 637.4 53.7 L 49.0 53.7 Z M 49.0 568.0 "></path></clipPath><g clip-path="url(#clip-6)"><g><clipPath id="clip-7"><path d="M 343.2 399.1 L 490.3 399.1 L 490.3 568.0 L 343.2 568.0 Z M 343.2 399.1 "></path></clipPath><g clip-path="url(#clip-7)"><text xml:space="preserve" font-family="AvenirNext-DemiBold" font-weight="bold" font-size="26.0" fill="#A6AAA9" transform="matrix(1.00, 0.00, -0.00, -1.00, 368.0, 475.0)">G</text><text xml:space="preserve" font-family="AvenirNext-DemiBold" font-weight="bold" font-size="26.0" fill="#A6AAA9" transform="matrix(1.00, 0.00, -0.00, -1.00, 388.1, 475.0)">e</text><text xml:space="preserve" font-family="AvenirNext-DemiBold" font-weight="bold" font-size="26.0" fill="#A6AAA9" transform="matrix(1.00, 0.00, -0.00, -1.00, 402.9, 475.0)">a</text><text xml:space="preserve" font-family="AvenirNext-DemiBold" font-weight="bold" font-size="26.0" fill="#A6AAA9" transform="matrix(1.00, 0.00, -0.00, -1.00, 417.2, 475.0)">r</text><text xml:space="preserve" font-family="AvenirNext-DemiBold" font-weight="bold" font-size="26.0" fill="#A6AAA9" transform="matrix(1.00, 0.00, -0.00, -1.00, 426.6, 475.0)"> </text><text xml:space="preserve" font-family="AvenirNext-DemiBold" font-weight="bold" font-size="26.0" fill="#A6AAA9" transform="matrix(1.00, 0.00, -0.00, -1.00, 432.7, 475.0)">V</text><text xml:space="preserve" font-family="AvenirNext-DemiBold" font-weight="bold" font-size="26.0" fill="#A6AAA9" transform="matrix(1.00, 0.00, -0.00, -1.00, 449.6, 475.0)">R</text></g></g></g></g><g><clipPath id="clip-8"><path d="M 49.0 568.0 L 637.4 568.0 L 637.4 53.7 L 49.0 53.7 Z M 49.0 568.0 "></path></clipPath><g clip-path="url(#clip-8)"><g><clipPath id="clip-9"><path d="M 490.3 399.1 L 637.4 399.1 L 637.4 568.0 L 490.3 568.0 Z M 490.3 399.1 "></path></clipPath><g clip-path="url(#clip-9)"><text xml:space="preserve" font-family="AvenirNext-DemiBold" font-weight="bold" font-size="26.0" fill="#A6AAA9" transform="matrix(1.00, 0.00, -0.00, -1.00, 519.0, 493.0)">G</text><text xml:space="preserve" font-family="AvenirNext-DemiBold" font-weight="bold" font-size="26.0" fill="#A6AAA9" transform="matrix(1.00, 0.00, -0.00, -1.00, 539.1, 493.0)">o</text><text xml:space="preserve" font-family="AvenirNext-DemiBold" font-weight="bold" font-size="26.0" fill="#A6AAA9" transform="matrix(1.00, 0.00, -0.00, -1.00, 555.0, 493.0)">o</text><text xml:space="preserve" font-family="AvenirNext-DemiBold" font-weight="bold" font-size="26.0" fill="#A6AAA9" transform="matrix(1.00, 0.00, -0.00, -1.00, 570.8, 493.0)">g</text><text xml:space="preserve" font-family="AvenirNext-DemiBold" font-weight="bold" font-size="26.0" fill="#A6AAA9" transform="matrix(1.00, 0.00, -0.00, -1.00, 587.2, 493.0)">l</text><text xml:space="preserve" font-family="AvenirNext-DemiBold" font-weight="bold" font-size="26.0" fill="#A6AAA9" transform="matrix(1.00, 0.00, -0.00, -1.00, 594.2, 493.0)">e</text><text xml:space="preserve" font-family="AvenirNext-DemiBold" font-weight="bold" font-size="26.0" fill="#A6AAA9" transform="matrix(1.00, 0.00, -0.00, -1.00, 609.1, 493.0)"> </text><text xml:space="preserve" font-family="AvenirNext-DemiBold" font-weight="bold" font-size="26.0" fill="#A6AAA9" transform="matrix(1.00, 0.00, -0.00, -1.00, 499.0, 457.0)">C</text><text xml:space="preserve" font-family="AvenirNext-DemiBold" font-weight="bold" font-size="26.0" fill="#A6AAA9" transform="matrix(1.00, 0.00, -0.00, -1.00, 516.6, 457.0)">a</text><text xml:space="preserve" font-family="AvenirNext-DemiBold" font-weight="bold" font-size="26.0" fill="#A6AAA9" transform="matrix(1.00, 0.00, -0.00, -1.00, 530.9, 457.0)">r</text><text xml:space="preserve" font-family="AvenirNext-DemiBold" font-weight="bold" font-size="26.0" fill="#A6AAA9" transform="matrix(1.00, 0.00, -0.00, -1.00, 539.9, 457.0)">d</text><text xml:space="preserve" font-family="AvenirNext-DemiBold" font-weight="bold" font-size="26.0" fill="#A6AAA9" transform="matrix(1.00, 0.00, -0.00, -1.00, 556.4, 457.0)">b</text><text xml:space="preserve" font-family="AvenirNext-DemiBold" font-weight="bold" font-size="26.0" fill="#A6AAA9" transform="matrix(1.00, 0.00, -0.00, -1.00, 572.9, 457.0)">o</text><text xml:space="preserve" font-family="AvenirNext-DemiBold" font-weight="bold" font-size="26.0" fill="#A6AAA9" transform="matrix(1.00, 0.00, -0.00, -1.00, 588.8, 457.0)">a</text><text xml:space="preserve" font-family="AvenirNext-DemiBold" font-weight="bold" font-size="26.0" fill="#A6AAA9" transform="matrix(1.00, 0.00, -0.00, -1.00, 603.1, 457.0)">r</text><text xml:space="preserve" font-family="AvenirNext-DemiBold" font-weight="bold" font-size="26.0" fill="#A6AAA9" transform="matrix(1.00, 0.00, -0.00, -1.00, 612.1, 457.0)">d</text></g></g></g></g><g><clipPath id="clip-10"><path d="M 49.0 568.0 L 637.4 568.0 L 637.4 53.7 L 49.0 53.7 Z M 49.0 568.0 "></path></clipPath><g clip-path="url(#clip-10)"><g><clipPath id="clip-11"><path d="M 49.0 226.1 L 195.1 226.1 L 195.1 394.1 L 49.0 394.1 Z M 49.0 226.1 "></path></clipPath><g clip-path="url(#clip-11)"><text xml:space="preserve" font-family="AvenirNext-DemiBold" font-weight="bold" font-size="26.0" fill="#34A4DA" transform="matrix(1.00, 0.00, -0.00, -1.00, 71.0, 302.0)">P</text><text xml:space="preserve" font-family="AvenirNext-DemiBold" font-weight="bold" font-size="26.0" fill="#34A4DA" transform="matrix(1.00, 0.00, -0.00, -1.00, 86.9, 302.0)">l</text><text xml:space="preserve" font-family="AvenirNext-DemiBold" font-weight="bold" font-size="26.0" fill="#34A4DA" transform="matrix(1.00, 0.00, -0.00, -1.00, 93.8, 302.0)">a</text><text xml:space="preserve" font-family="AvenirNext-DemiBold" font-weight="bold" font-size="26.0" fill="#34A4DA" transform="matrix(1.00, 0.00, -0.00, -1.00, 107.9, 302.0)">t</text><text xml:space="preserve" font-family="AvenirNext-DemiBold" font-weight="bold" font-size="26.0" fill="#34A4DA" transform="matrix(1.00, 0.00, -0.00, -1.00, 116.7, 302.0)">f</text><text xml:space="preserve" font-family="AvenirNext-DemiBold" font-weight="bold" font-size="26.0" fill="#34A4DA" transform="matrix(1.00, 0.00, -0.00, -1.00, 125.1, 302.0)">o</text><text xml:space="preserve" font-family="AvenirNext-DemiBold" font-weight="bold" font-size="26.0" fill="#34A4DA" transform="matrix(1.00, 0.00, -0.00, -1.00, 141.0, 302.0)">r</text><text xml:space="preserve" font-family="AvenirNext-DemiBold" font-weight="bold" font-size="26.0" fill="#34A4DA" transform="matrix(1.00, 0.00, -0.00, -1.00, 150.5, 302.0)">m</text></g></g></g></g><g><clipPath id="clip-12"><path d="M 49.0 568.0 L 637.4 568.0 L 637.4 53.7 L 49.0 53.7 Z M 49.0 568.0 "></path></clipPath><g clip-path="url(#clip-12)"><g><clipPath id="clip-13"><path d="M 197.1 226.1 L 342.2 226.1 L 342.2 394.1 L 197.1 394.1 Z M 197.1 226.1 "></path></clipPath><g clip-path="url(#clip-13)"><text xml:space="preserve" font-family="AvenirNext-Medium" font-size="26.0" fill="#34A4DA" transform="matrix(1.00, 0.00, -0.00, -1.00, 253.0, 302.0)">P</text><text xml:space="preserve" font-family="AvenirNext-Medium" font-size="26.0" fill="#34A4DA" transform="matrix(1.00, 0.00, -0.00, -1.00, 268.5, 302.0)">C</text></g></g></g></g><g><clipPath id="clip-14"><path d="M 49.0 568.0 L 637.4 568.0 L 637.4 53.7 L 49.0 53.7 Z M 49.0 568.0 "></path></clipPath><g clip-path="url(#clip-14)"><g><clipPath id="clip-15"><path d="M 344.2 226.1 L 489.3 226.1 L 489.3 394.1 L 344.2 394.1 Z M 344.2 226.1 "></path></clipPath><g clip-path="url(#clip-15)"><text xml:space="preserve" font-family="AvenirNext-Medium" font-size="26.0" fill="#34A4DA" transform="matrix(1.00, 0.00, -0.00, -1.00, 375.0, 302.0)">M</text><text xml:space="preserve" font-family="AvenirNext-Medium" font-size="26.0" fill="#34A4DA" transform="matrix(1.00, 0.00, -0.00, -1.00, 398.5, 302.0)">o</text><text xml:space="preserve" font-family="AvenirNext-Medium" font-size="26.0" fill="#34A4DA" transform="matrix(1.00, 0.00, -0.00, -1.00, 414.3, 302.0)">b</text><text xml:space="preserve" font-family="AvenirNext-Medium" font-size="26.0" fill="#34A4DA" transform="matrix(1.00, 0.00, -0.00, -1.00, 430.9, 302.0)">i</text><text xml:space="preserve" font-family="AvenirNext-Medium" font-size="26.0" fill="#34A4DA" transform="matrix(1.00, 0.00, -0.00, -1.00, 437.6, 302.0)">l</text><text xml:space="preserve" font-family="AvenirNext-Medium" font-size="26.0" fill="#34A4DA" transform="matrix(1.00, 0.00, -0.00, -1.00, 444.4, 302.0)">e</text></g></g></g></g><g><clipPath id="clip-16"><path d="M 49.0 568.0 L 637.4 568.0 L 637.4 53.7 L 49.0 53.7 Z M 49.0 568.0 "></path></clipPath><g clip-path="url(#clip-16)"><g><clipPath id="clip-17"><path d="M 491.3 226.1 L 637.4 226.1 L 637.4 394.1 L 491.3 394.1 Z M 491.3 226.1 "></path></clipPath><g clip-path="url(#clip-17)"><text xml:space="preserve" font-family="AvenirNext-Medium" font-size="26.0" fill="#34A4DA" transform="matrix(1.00, 0.00, -0.00, -1.00, 522.0, 302.0)">M</text><text xml:space="preserve" font-family="AvenirNext-Medium" font-size="26.0" fill="#34A4DA" transform="matrix(1.00, 0.00, -0.00, -1.00, 545.5, 302.0)">o</text><text xml:space="preserve" font-family="AvenirNext-Medium" font-size="26.0" fill="#34A4DA" transform="matrix(1.00, 0.00, -0.00, -1.00, 561.3, 302.0)">b</text><text xml:space="preserve" font-family="AvenirNext-Medium" font-size="26.0" fill="#34A4DA" transform="matrix(1.00, 0.00, -0.00, -1.00, 577.9, 302.0)">i</text><text xml:space="preserve" font-family="AvenirNext-Medium" font-size="26.0" fill="#34A4DA" transform="matrix(1.00, 0.00, -0.00, -1.00, 584.6, 302.0)">l</text><text xml:space="preserve" font-family="AvenirNext-Medium" font-size="26.0" fill="#34A4DA" transform="matrix(1.00, 0.00, -0.00, -1.00, 591.4, 302.0)">e</text></g></g></g></g><g><clipPath id="clip-18"><path d="M 49.0 568.0 L 637.4 568.0 L 637.4 53.7 L 49.0 53.7 Z M 49.0 568.0 "></path></clipPath><g clip-path="url(#clip-18)"><g><clipPath id="clip-19"><path d="M 49.0 53.7 L 195.1 53.7 L 195.1 224.1 L 49.0 224.1 Z M 49.0 53.7 "></path></clipPath><g clip-path="url(#clip-19)"><text xml:space="preserve" font-family="AvenirNext-DemiBold" font-weight="bold" font-size="26.0" fill="#34A4DA" transform="matrix(1.00, 0.00, -0.00, -1.00, 56.0, 131.0)">P</text><text xml:space="preserve" font-family="AvenirNext-DemiBold" font-weight="bold" font-size="26.0" fill="#34A4DA" transform="matrix(1.00, 0.00, -0.00, -1.00, 70.7, 131.0)">r</text><text xml:space="preserve" font-family="AvenirNext-DemiBold" font-weight="bold" font-size="26.0" fill="#34A4DA" transform="matrix(1.00, 0.00, -0.00, -1.00, 80.1, 131.0)">i</text><text xml:space="preserve" font-family="AvenirNext-DemiBold" font-weight="bold" font-size="26.0" fill="#34A4DA" transform="matrix(1.00, 0.00, -0.00, -1.00, 87.1, 131.0)">c</text><text xml:space="preserve" font-family="AvenirNext-DemiBold" font-weight="bold" font-size="26.0" fill="#34A4DA" transform="matrix(1.00, 0.00, -0.00, -1.00, 99.8, 131.0)">e</text><text xml:space="preserve" font-family="AvenirNext-DemiBold" font-weight="bold" font-size="26.0" fill="#34A4DA" transform="matrix(1.00, 0.00, -0.00, -1.00, 114.7, 131.0)">(</text><text xml:space="preserve" font-family="AvenirNext-DemiBold" font-weight="bold" font-size="26.0" fill="#34A4DA" transform="matrix(1.00, 0.00, -0.00, -1.00, 123.3, 131.0)">C</text><text xml:space="preserve" font-family="AvenirNext-DemiBold" font-weight="bold" font-size="26.0" fill="#34A4DA" transform="matrix(1.00, 0.00, -0.00, -1.00, 141.1, 131.0)">A</text><text xml:space="preserve" font-family="AvenirNext-DemiBold" font-weight="bold" font-size="26.0" fill="#34A4DA" transform="matrix(1.00, 0.00, -0.00, -1.00, 159.4, 131.0)">D</text><text xml:space="preserve" font-family="AvenirNext-DemiBold" font-weight="bold" font-size="26.0" fill="#34A4DA" transform="matrix(1.00, 0.00, -0.00, -1.00, 179.3, 131.0)">)</text></g></g></g></g><g><clipPath id="clip-20"><path d="M 49.0 568.0 L 637.4 568.0 L 637.4 53.7 L 49.0 53.7 Z M 49.0 568.0 "></path></clipPath><g clip-path="url(#clip-20)"><g><clipPath id="clip-21"><path d="M 197.1 53.7 L 342.2 53.7 L 342.2 224.1 L 197.1 224.1 Z M 197.1 53.7 "></path></clipPath><g clip-path="url(#clip-21)"><text xml:space="preserve" font-family="AvenirNext-Medium" font-size="26.0" fill="#34A4DA" transform="matrix(1.00, 0.00, -0.00, -1.00, 239.0, 131.0)">$</text><text xml:space="preserve" font-family="AvenirNext-Medium" font-size="26.0" fill="#34A4DA" transform="matrix(1.00, 0.00, -0.00, -1.00, 254.5, 131.0)">6</text><text xml:space="preserve" font-family="AvenirNext-Medium" font-size="26.0" fill="#34A4DA" transform="matrix(1.00, 0.00, -0.00, -1.00, 269.9, 131.0)">5</text><text xml:space="preserve" font-family="AvenirNext-Medium" font-size="26.0" fill="#34A4DA" transform="matrix(1.00, 0.00, -0.00, -1.00, 285.4, 131.0)">0</text></g></g></g></g><g><clipPath id="clip-22"><path d="M 49.0 568.0 L 637.4 568.0 L 637.4 53.7 L 49.0 53.7 Z M 49.0 568.0 "></path></clipPath><g clip-path="url(#clip-22)"><g><clipPath id="clip-23"><path d="M 344.2 53.7 L 489.3 53.7 L 489.3 224.1 L 344.2 224.1 Z M 344.2 53.7 "></path></clipPath><g clip-path="url(#clip-23)"><text xml:space="preserve" font-family="AvenirNext-Medium" font-size="26.0" fill="#34A4DA" transform="matrix(1.00, 0.00, -0.00, -1.00, 386.0, 131.0)">$</text><text xml:space="preserve" font-family="AvenirNext-Medium" font-size="26.0" fill="#34A4DA" transform="matrix(1.00, 0.00, -0.00, -1.00, 401.5, 131.0)">1</text><text xml:space="preserve" font-family="AvenirNext-Medium" font-size="26.0" fill="#34A4DA" transform="matrix(1.00, 0.00, -0.00, -1.00, 416.9, 131.0)">4</text><text xml:space="preserve" font-family="AvenirNext-Medium" font-size="26.0" fill="#34A4DA" transform="matrix(1.00, 0.00, -0.00, -1.00, 432.4, 131.0)">0</text></g></g></g></g><g><clipPath id="clip-24"><path d="M 49.0 568.0 L 637.4 568.0 L 637.4 53.7 L 49.0 53.7 Z M 49.0 568.0 "></path></clipPath><g clip-path="url(#clip-24)"><g><clipPath id="clip-25"><path d="M 491.3 53.7 L 637.4 53.7 L 637.4 224.1 L 491.3 224.1 Z M 491.3 53.7 "></path></clipPath><g clip-path="url(#clip-25)"><text xml:space="preserve" font-family="AvenirNext-Medium" font-size="26.0" fill="#34A4DA" transform="matrix(1.00, 0.00, -0.00, -1.00, 549.0, 131.0)">$</text><text xml:space="preserve" font-family="AvenirNext-Medium" font-size="26.0" fill="#34A4DA" transform="matrix(1.00, 0.00, -0.00, -1.00, 564.5, 131.0)">4</text></g></g></g></g><g><clipPath id="clip-26"><path d="M 49.0 568.0 L 637.4 568.0 L 637.4 53.7 L 49.0 53.7 Z M 49.0 568.0 "></path></clipPath><g clip-path="url(#clip-26)"><path d="M 148.1 169.9 L 148.1 515.3 " fill="none" stroke="#5E6567" stroke-width="2.00" transform="matrix(1.00, 0.00, 0.00, -1.00, 48.0, 569.0)"></path><path d="M 295.2 169.9 L 295.2 515.3 " fill="none" stroke="#5E6567" stroke-width="2.00" transform="matrix(1.00, 0.00, 0.00, -1.00, 48.0, 569.0)"></path><path d="M 442.3 169.9 L 442.3 515.3 " fill="none" stroke="#5E6567" stroke-width="2.00" transform="matrix(1.00, 0.00, 0.00, -1.00, 48.0, 569.0)"></path><path d="M 1.0 343.9 L 589.4 343.9 " fill="none" stroke="#5E6567" stroke-width="2.00" transform="matrix(1.00, 0.00, 0.00, -1.00, 48.0, 569.0)"></path><path d="M 1.0 172.4 L 589.4 172.4 " fill="none" stroke="#5E6567" stroke-width="5.00" transform="matrix(1.00, 0.00, 0.00, -1.00, 48.0, 569.0)"></path></g></g><g><clipPath id="clip-27"><path d="M 671.0 539.0 L 995.0 539.0 L 995.0 56.0 L 671.0 56.0 Z M 671.1 539.0 "></path></clipPath><g clip-path="url(#clip-27)"><image xlink:href="32B3D5796FBD743D020968C7794465A5.png" width="324.00" height="483.00" transform="matrix(1.00, 0.00, -0.00, -1.00, 671.0, 539.0)"></image></g></g></g></svg>