<?xml version="1.0" encoding="UTF-8" standalone="no"?><svg xmlns="http://www.w3.org/2000/svg" xmlns:xlink="http://www.w3.org/1999/xlink" clip-rule="evenodd" stroke-miterlimit="4.00" viewBox="0 0 1024 768"><desc>SVG generated by Keynote</desc><defs></defs><g transform="matrix(1.00, 0.00, -0.00, -1.00, 0.0, 768.0)"><g><clipPath id="clip-174"><path d="M 0.0 768.0 L 1024.0 768.0 L 1024.0 0.0 L 0.0 0.0 Z M 0.0 768.0 "></path></clipPath><g clip-path="url(#clip-174)"><image xlink:href="../../7BB23D08-1DB8-49DD-BF67-071A41A734D0/assets/D3CB8578D364082F6943B53F933CCC32.jpeg" width="1024.00" height="768.00" transform="matrix(1.00, 0.00, -0.00, -1.00, 0.0, 768.0)"></image></g></g><text xml:space="preserve" font-family="GillSans-Light" font-size="72.0" fill="#525252" transform="matrix(1.00, 0.00, -0.00, -1.00, 134.0, 628.0)">H</text><text xml:space="preserve" font-family="GillSans-Light" font-size="72.0" fill="#525252" transform="matrix(1.00, 0.00, -0.00, -1.00, 185.8, 628.0)">O</text><text xml:space="preserve" font-family="GillSans-Light" font-size="72.0" fill="#525252" transform="matrix(1.00, 0.00, -0.00, -1.00, 245.1, 628.0)">U</text><text xml:space="preserve" font-family="GillSans-Light" font-size="72.0" fill="#525252" transform="matrix(1.00, 0.00, -0.00, -1.00, 295.4, 628.0)">S</text><text xml:space="preserve" font-family="GillSans-Light" font-size="72.0" fill="#525252" transform="matrix(1.00, 0.00, -0.00, -1.00, 329.2, 628.0)">E</text><text xml:space="preserve" font-family="GillSans-Light" font-size="72.0" fill="#525252" transform="matrix(1.00, 0.00, -0.00, -1.00, 364.5, 628.0)">H</text><text xml:space="preserve" font-family="GillSans-Light" font-size="72.0" fill="#525252" transform="matrix(1.00, 0.00, -0.00, -1.00, 416.3, 628.0)">O</text><text xml:space="preserve" font-family="GillSans-Light" font-size="72.0" fill="#525252" transform="matrix(1.00, 0.00, -0.00, -1.00, 475.6, 628.0)">L</text><text xml:space="preserve" font-family="GillSans-Light" font-size="72.0" fill="#525252" transform="matrix(1.00, 0.00, -0.00, -1.00, 509.4, 628.0)">D</text><text xml:space="preserve" font-family="GillSans-Light" font-size="72.0" fill="#525252" transform="matrix(1.00, 0.00, -0.00, -1.00, 562.7, 628.0)"> </text><text xml:space="preserve" font-family="GillSans-Light" font-size="72.0" fill="#525252" transform="matrix(1.00, 0.00, -0.00, -1.00, 582.7, 628.0)">S</text><text xml:space="preserve" font-family="GillSans-Light" font-size="72.0" fill="#525252" transform="matrix(1.00, 0.00, -0.00, -1.00, 616.5, 628.0)">E</text><text xml:space="preserve" font-family="GillSans-Light" font-size="72.0" fill="#525252" transform="matrix(1.00, 0.00, -0.00, -1.00, 651.8, 628.0)">C</text><text xml:space="preserve" font-family="GillSans-Light" font-size="72.0" fill="#525252" transform="matrix(1.00, 0.00, -0.00, -1.00, 700.5, 628.0)">U</text><text xml:space="preserve" font-family="GillSans-Light" font-size="72.0" fill="#525252" transform="matrix(1.00, 0.00, -0.00, -1.00, 750.8, 628.0)">R</text><text xml:space="preserve" font-family="GillSans-Light" font-size="72.0" fill="#525252" transform="matrix(1.00, 0.00, -0.00, -1.00, 792.1, 628.0)">I</text><text xml:space="preserve" font-family="GillSans-Light" font-size="72.0" fill="#525252" transform="matrix(1.00, 0.00, -0.00, -1.00, 807.0, 628.0)">T</text><text xml:space="preserve" font-family="GillSans-Light" font-size="72.0" fill="#525252" transform="matrix(1.00, 0.00, -0.00, -1.00, 848.3, 628.0)">Y</text><text xml:space="preserve" font-family="GillSans-Light" font-size="31.2" fill="#525252" transform="matrix(1.00, 0.00, -0.00, -1.00, 32.0, 375.4)">•</text><text xml:space="preserve" font-family="GillSans-Light" font-size="38.0" fill="#525252" transform="matrix(1.00, 0.00, -0.00, -1.00, 66.0, 373.0)">F</text><text xml:space="preserve" font-family="GillSans-Light" font-size="38.0" fill="#525252" transform="matrix(1.00, 0.00, -0.00, -1.00, 82.6, 373.0)">o</text><text xml:space="preserve" font-family="GillSans-Light" font-size="38.0" fill="#525252" transform="matrix(1.00, 0.00, -0.00, -1.00, 103.2, 373.0)">r</text><text xml:space="preserve" font-family="GillSans-Light" font-size="38.0" fill="#525252" transform="matrix(1.00, 0.00, -0.00, -1.00, 116.8, 373.0)">g</text><text xml:space="preserve" font-family="GillSans-Light" font-size="38.0" fill="#525252" transform="matrix(1.00, 0.00, -0.00, -1.00, 133.0, 373.0)">e</text><text xml:space="preserve" font-family="GillSans-Light" font-size="38.0" fill="#525252" transform="matrix(1.00, 0.00, -0.00, -1.00, 151.3, 373.0)">t</text><text xml:space="preserve" font-family="GillSans-Light" font-size="38.0" fill="#525252" transform="matrix(1.00, 0.00, -0.00, -1.00, 162.7, 373.0)"> </text><text xml:space="preserve" font-family="GillSans-Light" font-size="38.0" fill="#525252" transform="matrix(1.00, 0.00, -0.00, -1.00, 173.3, 373.0)">t</text><text xml:space="preserve" font-family="GillSans-Light" font-size="38.0" fill="#525252" transform="matrix(1.00, 0.00, -0.00, -1.00, 184.7, 373.0)">o</text><text xml:space="preserve" font-family="GillSans-Light" font-size="38.0" fill="#525252" transform="matrix(1.00, 0.00, -0.00, -1.00, 205.3, 373.0)"> </text><text xml:space="preserve" font-family="GillSans-Light" font-size="38.0" fill="#525252" transform="matrix(1.00, 0.00, -0.00, -1.00, 215.9, 373.0)">l</text><text xml:space="preserve" font-family="GillSans-Light" font-size="38.0" fill="#525252" transform="matrix(1.00, 0.00, -0.00, -1.00, 223.0, 373.0)">o</text><text xml:space="preserve" font-family="GillSans-Light" font-size="38.0" fill="#525252" transform="matrix(1.00, 0.00, -0.00, -1.00, 243.6, 373.0)">c</text><text xml:space="preserve" font-family="GillSans-Light" font-size="38.0" fill="#525252" transform="matrix(1.00, 0.00, -0.00, -1.00, 259.5, 373.0)">k</text><text xml:space="preserve" font-family="GillSans-Light" font-size="38.0" fill="#525252" transform="matrix(1.00, 0.00, -0.00, -1.00, 275.7, 373.0)"> </text><text xml:space="preserve" font-family="GillSans-Light" font-size="38.0" fill="#525252" transform="matrix(1.00, 0.00, -0.00, -1.00, 286.2, 373.0)">d</text><text xml:space="preserve" font-family="GillSans-Light" font-size="38.0" fill="#525252" transform="matrix(1.00, 0.00, -0.00, -1.00, 305.6, 373.0)">o</text><text xml:space="preserve" font-family="GillSans-Light" font-size="38.0" fill="#525252" transform="matrix(1.00, 0.00, -0.00, -1.00, 326.2, 373.0)">o</text><text xml:space="preserve" font-family="GillSans-Light" font-size="38.0" fill="#525252" transform="matrix(1.00, 0.00, -0.00, -1.00, 346.8, 373.0)">r</text><text xml:space="preserve" font-family="GillSans-Light" font-size="38.0" fill="#525252" transform="matrix(1.00, 0.00, -0.00, -1.00, 359.4, 373.0)">?</text><text xml:space="preserve" font-family="GillSans-Light" font-size="31.2" fill="#525252" transform="matrix(1.00, 0.00, -0.00, -1.00, 32.0, 294.4)">•</text><text xml:space="preserve" font-family="GillSans-Light" font-size="38.0" fill="#525252" transform="matrix(1.00, 0.00, -0.00, -1.00, 66.0, 292.0)">C</text><text xml:space="preserve" font-family="GillSans-Light" font-size="38.0" fill="#525252" transform="matrix(1.00, 0.00, -0.00, -1.00, 91.7, 292.0)">a</text><text xml:space="preserve" font-family="GillSans-Light" font-size="38.0" fill="#525252" transform="matrix(1.00, 0.00, -0.00, -1.00, 107.9, 292.0)">r</text><text xml:space="preserve" font-family="GillSans-Light" font-size="38.0" fill="#525252" transform="matrix(1.00, 0.00, -0.00, -1.00, 120.6, 292.0)">?</text><text xml:space="preserve" font-family="GillSans-Light" font-size="38.0" fill="#525252" transform="matrix(1.00, 0.00, -0.00, -1.00, 131.2, 292.0)"> </text><text xml:space="preserve" font-family="GillSans-Light" font-size="38.0" fill="#525252" transform="matrix(1.00, 0.00, -0.00, -1.00, 139.5, 292.0)">A</text><text xml:space="preserve" font-family="GillSans-Light" font-size="38.0" fill="#525252" transform="matrix(1.00, 0.00, -0.00, -1.00, 164.8, 292.0)">p</text><text xml:space="preserve" font-family="GillSans-Light" font-size="38.0" fill="#525252" transform="matrix(1.00, 0.00, -0.00, -1.00, 184.2, 292.0)">p</text><text xml:space="preserve" font-family="GillSans-Light" font-size="38.0" fill="#525252" transform="matrix(1.00, 0.00, -0.00, -1.00, 203.6, 292.0)">l</text><text xml:space="preserve" font-family="GillSans-Light" font-size="38.0" fill="#525252" transform="matrix(1.00, 0.00, -0.00, -1.00, 210.7, 292.0)">i</text><text xml:space="preserve" font-family="GillSans-Light" font-size="38.0" fill="#525252" transform="matrix(1.00, 0.00, -0.00, -1.00, 217.9, 292.0)">a</text><text xml:space="preserve" font-family="GillSans-Light" font-size="38.0" fill="#525252" transform="matrix(1.00, 0.00, -0.00, -1.00, 234.1, 292.0)">n</text><text xml:space="preserve" font-family="GillSans-Light" font-size="38.0" fill="#525252" transform="matrix(1.00, 0.00, -0.00, -1.00, 252.7, 292.0)">c</text><text xml:space="preserve" font-family="GillSans-Light" font-size="38.0" fill="#525252" transform="matrix(1.00, 0.00, -0.00, -1.00, 268.6, 292.0)">e</text><text xml:space="preserve" font-family="GillSans-Light" font-size="38.0" fill="#525252" transform="matrix(1.00, 0.00, -0.00, -1.00, 286.8, 292.0)">s</text><text xml:space="preserve" font-family="GillSans-Light" font-size="38.0" fill="#525252" transform="matrix(1.00, 0.00, -0.00, -1.00, 300.2, 292.0)">?</text><text xml:space="preserve" font-family="GillSans-Light" font-size="31.2" fill="#525252" transform="matrix(1.00, 0.00, -0.00, -1.00, 32.0, 213.4)">•</text><text xml:space="preserve" font-family="GillSans-Light" font-size="38.0" fill="#525252" transform="matrix(1.00, 0.00, -0.00, -1.00, 66.0, 211.0)">I</text><text xml:space="preserve" font-family="GillSans-Light" font-size="38.0" fill="#525252" transform="matrix(1.00, 0.00, -0.00, -1.00, 73.9, 211.0)">O</text><text xml:space="preserve" font-family="GillSans-Light" font-size="38.0" fill="#525252" transform="matrix(1.00, 0.00, -0.00, -1.00, 102.3, 211.0)">T</text><image xlink:href="../../DA35FAF9-7CAD-4625-A54B-7F1B4389CBC3/assets/2546C6B8BE9683824B9E18B392FFF86A.png" width="602.00" height="363.00" transform="matrix(1.00, 0.00, -0.00, -1.00, 397.0, 508.0)"></image></g></svg>