<?xml version="1.0" encoding="UTF-8" standalone="no"?><svg xmlns="http://www.w3.org/2000/svg" xmlns:xlink="http://www.w3.org/1999/xlink" clip-rule="evenodd" stroke-miterlimit="4.00" viewBox="0 0 1024 768"><desc>SVG generated by Keynote</desc><defs></defs><g transform="matrix(1.00, 0.00, -0.00, -1.00, 0.0, 768.0)"><g><clipPath id="clip-99"><path d="M 0.0 768.0 L 1024.0 768.0 L 1024.0 0.0 L 0.0 0.0 Z M 0.0 768.0 "></path></clipPath><g clip-path="url(#clip-99)"><image xlink:href="../../7BB23D08-1DB8-49DD-BF67-071A41A734D0/assets/D3CB8578D364082F6943B53F933CCC32.jpeg" width="1024.00" height="768.00" transform="matrix(1.00, 0.00, -0.00, -1.00, 0.0, 768.0)"></image></g></g><text xml:space="preserve" font-family="GillSans-Light" font-size="40.0" fill="#525252" transform="matrix(1.00, 0.00, -0.00, -1.00, 395.0, 680.0)">I</text><text xml:space="preserve" font-family="GillSans-Light" font-size="40.0" fill="#525252" transform="matrix(1.00, 0.00, -0.00, -1.00, 403.3, 680.0)">N</text><text xml:space="preserve" font-family="GillSans-Light" font-size="40.0" fill="#525252" transform="matrix(1.00, 0.00, -0.00, -1.00, 434.2, 680.0)">I</text><text xml:space="preserve" font-family="GillSans-Light" font-size="40.0" fill="#525252" transform="matrix(1.00, 0.00, -0.00, -1.00, 442.5, 680.0)">T</text><text xml:space="preserve" font-family="GillSans-Light" font-size="40.0" fill="#525252" transform="matrix(1.00, 0.00, -0.00, -1.00, 465.4, 680.0)">I</text><text xml:space="preserve" font-family="GillSans-Light" font-size="40.0" fill="#525252" transform="matrix(1.00, 0.00, -0.00, -1.00, 473.7, 680.0)">A</text><text xml:space="preserve" font-family="GillSans-Light" font-size="40.0" fill="#525252" transform="matrix(1.00, 0.00, -0.00, -1.00, 496.4, 680.0)">T</text><text xml:space="preserve" font-family="GillSans-Light" font-size="40.0" fill="#525252" transform="matrix(1.00, 0.00, -0.00, -1.00, 519.4, 680.0)">I</text><text xml:space="preserve" font-family="GillSans-Light" font-size="40.0" fill="#525252" transform="matrix(1.00, 0.00, -0.00, -1.00, 527.7, 680.0)">V</text><text xml:space="preserve" font-family="GillSans-Light" font-size="40.0" fill="#525252" transform="matrix(1.00, 0.00, -0.00, -1.00, 551.4, 680.0)">E</text><text xml:space="preserve" font-family="GillSans-Light" font-size="40.0" fill="#525252" transform="matrix(1.00, 0.00, -0.00, -1.00, 571.1, 680.0)"> </text><text xml:space="preserve" font-family="GillSans-Light" font-size="40.0" fill="#525252" transform="matrix(1.00, 0.00, -0.00, -1.00, 582.2, 680.0)">#</text><text xml:space="preserve" font-family="GillSans-Light" font-size="40.0" fill="#525252" transform="matrix(1.00, 0.00, -0.00, -1.00, 608.6, 680.0)">1</text><text xml:space="preserve" font-family="GillSans-Light" font-size="72.0" fill="#525252" transform="matrix(1.00, 0.00, -0.00, -1.00, 263.0, 605.0)">A</text><text xml:space="preserve" font-family="GillSans-Light" font-size="72.0" fill="#525252" transform="matrix(1.00, 0.00, -0.00, -1.00, 311.0, 605.0)">R</text><text xml:space="preserve" font-family="GillSans-Light" font-size="72.0" fill="#525252" transform="matrix(1.00, 0.00, -0.00, -1.00, 352.3, 605.0)">C</text><text xml:space="preserve" font-family="GillSans-Light" font-size="72.0" fill="#525252" transform="matrix(1.00, 0.00, -0.00, -1.00, 401.0, 605.0)">H</text><text xml:space="preserve" font-family="GillSans-Light" font-size="72.0" fill="#525252" transform="matrix(1.00, 0.00, -0.00, -1.00, 452.8, 605.0)">I</text><text xml:space="preserve" font-family="GillSans-Light" font-size="72.0" fill="#525252" transform="matrix(1.00, 0.00, -0.00, -1.00, 467.8, 605.0)">T</text><text xml:space="preserve" font-family="GillSans-Light" font-size="72.0" fill="#525252" transform="matrix(1.00, 0.00, -0.00, -1.00, 509.1, 605.0)">E</text><text xml:space="preserve" font-family="GillSans-Light" font-size="72.0" fill="#525252" transform="matrix(1.00, 0.00, -0.00, -1.00, 544.4, 605.0)">C</text><text xml:space="preserve" font-family="GillSans-Light" font-size="72.0" fill="#525252" transform="matrix(1.00, 0.00, -0.00, -1.00, 593.1, 605.0)">T</text><text xml:space="preserve" font-family="GillSans-Light" font-size="72.0" fill="#525252" transform="matrix(1.00, 0.00, -0.00, -1.00, 634.4, 605.0)">U</text><text xml:space="preserve" font-family="GillSans-Light" font-size="72.0" fill="#525252" transform="matrix(1.00, 0.00, -0.00, -1.00, 684.7, 605.0)">R</text><text xml:space="preserve" font-family="GillSans-Light" font-size="72.0" fill="#525252" transform="matrix(1.00, 0.00, -0.00, -1.00, 726.0, 605.0)">E</text><image xlink:href="067C8D7A98F161DBBAC96B32D0D84325.png" width="723.00" height="540.00" transform="matrix(1.05, 0.00, -0.00, -1.05, 131.0, 588.0)"></image></g></svg>