<?xml version="1.0" encoding="UTF-8" standalone="no"?><svg xmlns="http://www.w3.org/2000/svg" xmlns:xlink="http://www.w3.org/1999/xlink" clip-rule="evenodd" stroke-miterlimit="4.00" viewBox="0 0 1024 768"><desc>SVG generated by Keynote</desc><defs></defs><g transform="matrix(1.00, 0.00, -0.00, -1.00, 0.0, 768.0)"><path d="M 0.0 768.0 L 1024.0 768.0 L 1024.0 0.0 L 0.0 0.0 Z M 0.0 768.0 " fill="#212121"></path><path d="M 0.0 0.0 L 960.0 0.0 " fill="none" stroke="#A6AAA9" stroke-width="2.00" transform="matrix(1.00, 0.00, 0.00, -1.00, 32.0, 689.8)"></path><text xml:space="preserve" font-family="DINAlternate-Bold" font-weight="bold" font-size="24.0" fill="#838686" transform="matrix(1.00, 0.00, -0.00, -1.00, 36.0, 705.0)">J</text><text xml:space="preserve" font-family="DINAlternate-Bold" font-weight="bold" font-size="24.0" fill="#838686" transform="matrix(1.00, 0.00, -0.00, -1.00, 48.7, 705.0)">A</text><text xml:space="preserve" font-family="DINAlternate-Bold" font-weight="bold" font-size="24.0" fill="#838686" transform="matrix(1.00, 0.00, -0.00, -1.00, 63.3, 705.0)">V</text><text xml:space="preserve" font-family="DINAlternate-Bold" font-weight="bold" font-size="24.0" fill="#838686" transform="matrix(1.00, 0.00, -0.00, -1.00, 76.5, 705.0)">A</text><text xml:space="preserve" font-family="DINCondensed-Bold" font-weight="bold" font-size="46.2" fill="#34A4DA" transform="matrix(1.00, 0.00, -0.00, -1.00, 37.0, 611.0)">J</text><text xml:space="preserve" font-family="DINCondensed-Bold" font-weight="bold" font-size="46.2" fill="#34A4DA" transform="matrix(1.00, 0.00, -0.00, -1.00, 52.4, 611.0)">A</text><text xml:space="preserve" font-family="DINCondensed-Bold" font-weight="bold" font-size="46.2" fill="#34A4DA" transform="matrix(1.00, 0.00, -0.00, -1.00, 69.5, 611.0)">V</text><text xml:space="preserve" font-family="DINCondensed-Bold" font-weight="bold" font-size="46.2" fill="#34A4DA" transform="matrix(1.00, 0.00, -0.00, -1.00, 86.6, 611.0)">A</text><text xml:space="preserve" font-family="DINCondensed-Bold" font-weight="bold" font-size="46.2" fill="#34A4DA" transform="matrix(1.00, 0.00, -0.00, -1.00, 105.4, 611.0)"> </text><text xml:space="preserve" font-family="DINCondensed-Bold" font-weight="bold" font-size="46.2" fill="#34A4DA" transform="matrix(1.00, 0.00, -0.00, -1.00, 114.0, 611.0)">S</text><text xml:space="preserve" font-family="DINCondensed-Bold" font-weight="bold" font-size="46.2" fill="#34A4DA" transform="matrix(1.00, 0.00, -0.00, -1.00, 132.7, 611.0)">A</text><text xml:space="preserve" font-family="DINCondensed-Bold" font-weight="bold" font-size="46.2" fill="#34A4DA" transform="matrix(1.00, 0.00, -0.00, -1.00, 151.5, 611.0)">M</text><text xml:space="preserve" font-family="DINCondensed-Bold" font-weight="bold" font-size="46.2" fill="#34A4DA" transform="matrix(1.00, 0.00, -0.00, -1.00, 177.2, 611.0)">P</text><text xml:space="preserve" font-family="DINCondensed-Bold" font-weight="bold" font-size="46.2" fill="#34A4DA" transform="matrix(1.00, 0.00, -0.00, -1.00, 196.0, 611.0)">L</text><text xml:space="preserve" font-family="DINCondensed-Bold" font-weight="bold" font-size="46.2" fill="#34A4DA" transform="matrix(1.00, 0.00, -0.00, -1.00, 213.1, 611.0)">E</text><text xml:space="preserve" font-family="DINCondensed-Bold" font-weight="bold" font-size="46.2" fill="#34A4DA" transform="matrix(1.00, 0.00, -0.00, -1.00, 230.2, 611.0)"> </text><text xml:space="preserve" font-family="DINCondensed-Bold" font-weight="bold" font-size="46.2" fill="#34A4DA" transform="matrix(1.00, 0.00, -0.00, -1.00, 238.8, 611.0)">C</text><text xml:space="preserve" font-family="DINCondensed-Bold" font-weight="bold" font-size="46.2" fill="#34A4DA" transform="matrix(1.00, 0.00, -0.00, -1.00, 257.6, 611.0)">O</text><text xml:space="preserve" font-family="DINCondensed-Bold" font-weight="bold" font-size="46.2" fill="#34A4DA" transform="matrix(1.00, 0.00, -0.00, -1.00, 277.3, 611.0)">D</text><text xml:space="preserve" font-family="DINCondensed-Bold" font-weight="bold" font-size="46.2" fill="#34A4DA" transform="matrix(1.00, 0.00, -0.00, -1.00, 297.0, 611.0)">E</text><text xml:space="preserve" font-family="DINCondensed-Bold" font-weight="bold" font-size="46.2" fill="#34A4DA" transform="matrix(1.00, 0.00, -0.00, -1.00, 314.1, 611.0)"> </text><text xml:space="preserve" font-family="DINCondensed-Bold" font-weight="bold" font-size="46.2" fill="#34A4DA" transform="matrix(1.00, 0.00, -0.00, -1.00, 322.7, 611.0)">-</text><text xml:space="preserve" font-family="DINCondensed-Bold" font-weight="bold" font-size="46.2" fill="#34A4DA" transform="matrix(1.00, 0.00, -0.00, -1.00, 340.6, 611.0)"> </text><text xml:space="preserve" font-family="DINCondensed-Bold" font-weight="bold" font-size="46.2" fill="#34A4DA" transform="matrix(1.00, 0.00, -0.00, -1.00, 349.2, 611.0)">C</text><text xml:space="preserve" font-family="DINCondensed-Bold" font-weight="bold" font-size="46.2" fill="#34A4DA" transform="matrix(1.00, 0.00, -0.00, -1.00, 368.0, 611.0)">O</text><text xml:space="preserve" font-family="DINCondensed-Bold" font-weight="bold" font-size="46.2" fill="#34A4DA" transform="matrix(1.00, 0.00, -0.00, -1.00, 387.7, 611.0)">N</text><text xml:space="preserve" font-family="DINCondensed-Bold" font-weight="bold" font-size="46.2" fill="#34A4DA" transform="matrix(1.00, 0.00, -0.00, -1.00, 408.2, 611.0)">N</text><text xml:space="preserve" font-family="DINCondensed-Bold" font-weight="bold" font-size="46.2" fill="#34A4DA" transform="matrix(1.00, 0.00, -0.00, -1.00, 428.7, 611.0)">E</text><text xml:space="preserve" font-family="DINCondensed-Bold" font-weight="bold" font-size="46.2" fill="#34A4DA" transform="matrix(1.00, 0.00, -0.00, -1.00, 445.8, 611.0)">C</text><text xml:space="preserve" font-family="DINCondensed-Bold" font-weight="bold" font-size="46.2" fill="#34A4DA" transform="matrix(1.00, 0.00, -0.00, -1.00, 464.6, 611.0)">T</text><text xml:space="preserve" font-family="DINCondensed-Bold" font-weight="bold" font-size="46.2" fill="#34A4DA" transform="matrix(1.00, 0.00, -0.00, -1.00, 480.0, 611.0)">I</text><text xml:space="preserve" font-family="DINCondensed-Bold" font-weight="bold" font-size="46.2" fill="#34A4DA" transform="matrix(1.00, 0.00, -0.00, -1.00, 489.4, 611.0)">N</text><text xml:space="preserve" font-family="DINCondensed-Bold" font-weight="bold" font-size="46.2" fill="#34A4DA" transform="matrix(1.00, 0.00, -0.00, -1.00, 509.9, 611.0)">G</text><text xml:space="preserve" font-family="DINCondensed-Bold" font-weight="bold" font-size="46.2" fill="#34A4DA" transform="matrix(1.00, 0.00, -0.00, -1.00, 529.6, 611.0)"> </text><text xml:space="preserve" font-family="DINCondensed-Bold" font-weight="bold" font-size="46.2" fill="#34A4DA" transform="matrix(1.00, 0.00, -0.00, -1.00, 538.2, 611.0)">A</text><text xml:space="preserve" font-family="DINCondensed-Bold" font-weight="bold" font-size="46.2" fill="#34A4DA" transform="matrix(1.00, 0.00, -0.00, -1.00, 557.0, 611.0)">N</text><text xml:space="preserve" font-family="DINCondensed-Bold" font-weight="bold" font-size="46.2" fill="#34A4DA" transform="matrix(1.00, 0.00, -0.00, -1.00, 577.5, 611.0)">D</text><text xml:space="preserve" font-family="DINCondensed-Bold" font-weight="bold" font-size="46.2" fill="#34A4DA" transform="matrix(1.00, 0.00, -0.00, -1.00, 597.2, 611.0)">R</text><text xml:space="preserve" font-family="DINCondensed-Bold" font-weight="bold" font-size="46.2" fill="#34A4DA" transform="matrix(1.00, 0.00, -0.00, -1.00, 616.9, 611.0)">O</text><text xml:space="preserve" font-family="DINCondensed-Bold" font-weight="bold" font-size="46.2" fill="#34A4DA" transform="matrix(1.00, 0.00, -0.00, -1.00, 636.5, 611.0)">I</text><text xml:space="preserve" font-family="DINCondensed-Bold" font-weight="bold" font-size="46.2" fill="#34A4DA" transform="matrix(1.00, 0.00, -0.00, -1.00, 646.0, 611.0)">D</text><text xml:space="preserve" font-family="DINCondensed-Bold" font-weight="bold" font-size="46.2" fill="#34A4DA" transform="matrix(1.00, 0.00, -0.00, -1.00, 665.6, 611.0)"> </text><text xml:space="preserve" font-family="DINCondensed-Bold" font-weight="bold" font-size="46.2" fill="#34A4DA" transform="matrix(1.00, 0.00, -0.00, -1.00, 674.2, 611.0)">T</text><text xml:space="preserve" font-family="DINCondensed-Bold" font-weight="bold" font-size="46.2" fill="#34A4DA" transform="matrix(1.00, 0.00, -0.00, -1.00, 689.0, 611.0)">O</text><text xml:space="preserve" font-family="DINCondensed-Bold" font-weight="bold" font-size="46.2" fill="#34A4DA" transform="matrix(1.00, 0.00, -0.00, -1.00, 708.7, 611.0)"> </text><text xml:space="preserve" font-family="DINCondensed-Bold" font-weight="bold" font-size="46.2" fill="#34A4DA" transform="matrix(1.00, 0.00, -0.00, -1.00, 717.3, 611.0)">B</text><text xml:space="preserve" font-family="DINCondensed-Bold" font-weight="bold" font-size="46.2" fill="#34A4DA" transform="matrix(1.00, 0.00, -0.00, -1.00, 737.0, 611.0)">L</text><text xml:space="preserve" font-family="DINCondensed-Bold" font-weight="bold" font-size="46.2" fill="#34A4DA" transform="matrix(1.00, 0.00, -0.00, -1.00, 754.1, 611.0)">U</text><text xml:space="preserve" font-family="DINCondensed-Bold" font-weight="bold" font-size="46.2" fill="#34A4DA" transform="matrix(1.00, 0.00, -0.00, -1.00, 773.8, 611.0)">E</text><text xml:space="preserve" font-family="DINCondensed-Bold" font-weight="bold" font-size="46.2" fill="#34A4DA" transform="matrix(1.00, 0.00, -0.00, -1.00, 790.8, 611.0)">T</text><text xml:space="preserve" font-family="DINCondensed-Bold" font-weight="bold" font-size="46.2" fill="#34A4DA" transform="matrix(1.00, 0.00, -0.00, -1.00, 805.6, 611.0)">O</text><text xml:space="preserve" font-family="DINCondensed-Bold" font-weight="bold" font-size="46.2" fill="#34A4DA" transform="matrix(1.00, 0.00, -0.00, -1.00, 825.3, 611.0)">O</text><text xml:space="preserve" font-family="DINCondensed-Bold" font-weight="bold" font-size="46.2" fill="#34A4DA" transform="matrix(1.00, 0.00, -0.00, -1.00, 844.4, 611.0)">T</text><text xml:space="preserve" font-family="DINCondensed-Bold" font-weight="bold" font-size="46.2" fill="#34A4DA" transform="matrix(1.00, 0.00, -0.00, -1.00, 859.8, 611.0)">H</text><text xml:space="preserve" font-family="DINCondensed-Bold" font-weight="bold" font-size="46.2" fill="#34A4DA" transform="matrix(1.00, 0.00, -0.00, -1.00, 879.5, 611.0)"> </text><text xml:space="preserve" font-family="DINCondensed-Bold" font-weight="bold" font-size="46.2" fill="#34A4DA" transform="matrix(1.00, 0.00, -0.00, -1.00, 888.1, 611.0)">D</text><text xml:space="preserve" font-family="DINCondensed-Bold" font-weight="bold" font-size="46.2" fill="#34A4DA" transform="matrix(1.00, 0.00, -0.00, -1.00, 907.7, 611.0)">E</text><text xml:space="preserve" font-family="DINCondensed-Bold" font-weight="bold" font-size="46.2" fill="#34A4DA" transform="matrix(1.00, 0.00, -0.00, -1.00, 924.8, 611.0)">V</text><text xml:space="preserve" font-family="DINCondensed-Bold" font-weight="bold" font-size="46.2" fill="#34A4DA" transform="matrix(1.00, 0.00, -0.00, -1.00, 943.6, 611.0)">I</text><text xml:space="preserve" font-family="DINCondensed-Bold" font-weight="bold" font-size="46.2" fill="#34A4DA" transform="matrix(1.00, 0.00, -0.00, -1.00, 953.1, 611.0)">C</text><text xml:space="preserve" font-family="DINCondensed-Bold" font-weight="bold" font-size="46.2" fill="#34A4DA" transform="matrix(1.00, 0.00, -0.00, -1.00, 971.9, 611.0)">E</text><text xml:space="preserve" font-family="AvenirNext-Medium" font-size="20.0" fill="#838686" transform="matrix(1.00, 0.00, -0.00, -1.00, 427.0, 33.0)">J</text><text xml:space="preserve" font-family="AvenirNext-Medium" font-size="20.0" fill="#838686" transform="matrix(1.00, 0.00, -0.00, -1.00, 436.8, 33.0)">a</text><text xml:space="preserve" font-family="AvenirNext-Medium" font-size="20.0" fill="#838686" transform="matrix(1.00, 0.00, -0.00, -1.00, 447.6, 33.0)">v</text><text xml:space="preserve" font-family="AvenirNext-Medium" font-size="20.0" fill="#838686" transform="matrix(1.00, 0.00, -0.00, -1.00, 457.7, 33.0)">a</text><text xml:space="preserve" font-family="AvenirNext-Medium" font-size="20.0" fill="#838686" transform="matrix(1.00, 0.00, -0.00, -1.00, 468.5, 33.0)"> </text><text xml:space="preserve" font-family="AvenirNext-Medium" font-size="20.0" fill="#838686" transform="matrix(1.00, 0.00, -0.00, -1.00, 473.5, 33.0)">S</text><text xml:space="preserve" font-family="AvenirNext-Medium" font-size="20.0" fill="#838686" transform="matrix(1.00, 0.00, -0.00, -1.00, 484.9, 33.0)">a</text><text xml:space="preserve" font-family="AvenirNext-Medium" font-size="20.0" fill="#838686" transform="matrix(1.00, 0.00, -0.00, -1.00, 495.8, 33.0)">m</text><text xml:space="preserve" font-family="AvenirNext-Medium" font-size="20.0" fill="#838686" transform="matrix(1.00, 0.00, -0.00, -1.00, 513.5, 33.0)">p</text><text xml:space="preserve" font-family="AvenirNext-Medium" font-size="20.0" fill="#838686" transform="matrix(1.00, 0.00, -0.00, -1.00, 526.2, 33.0)">l</text><text xml:space="preserve" font-family="AvenirNext-Medium" font-size="20.0" fill="#838686" transform="matrix(1.00, 0.00, -0.00, -1.00, 531.4, 33.0)">e</text><text xml:space="preserve" font-family="AvenirNext-Medium" font-size="20.0" fill="#838686" transform="matrix(1.00, 0.00, -0.00, -1.00, 542.8, 33.0)"> </text><text xml:space="preserve" font-family="AvenirNext-Medium" font-size="20.0" fill="#838686" transform="matrix(1.00, 0.00, -0.00, -1.00, 547.8, 33.0)">C</text><text xml:space="preserve" font-family="AvenirNext-Medium" font-size="20.0" fill="#838686" transform="matrix(1.00, 0.00, -0.00, -1.00, 561.8, 33.0)">o</text><text xml:space="preserve" font-family="AvenirNext-Medium" font-size="20.0" fill="#838686" transform="matrix(1.00, 0.00, -0.00, -1.00, 574.0, 33.0)">d</text><text xml:space="preserve" font-family="AvenirNext-Medium" font-size="20.0" fill="#838686" transform="matrix(1.00, 0.00, -0.00, -1.00, 586.7, 33.0)">e</text><g><clipPath id="clip-85"><path d="M 1.0 578.0 L 1025.0 578.0 L 1025.0 169.0 L 1.0 169.0 Z M 1.0 578.4 "></path></clipPath><g clip-path="url(#clip-85)"><image xlink:href="../../EFEC392B-1817-40B8-B4BE-67EF876BC63D/assets/E921CE5C60DF1FD8DC36C4BDC616A755.png" width="960.00" height="383.00" transform="matrix(1.07, 0.00, -0.00, -1.07, 1.0, 578.0)"></image></g></g></g></svg>