<svg id="Layer_1" data-name="Layer 1" xmlns="http://www.w3.org/2000/svg" viewBox="0 0 317.011 108.368"><defs><style>.cls-1{fill:#06325f;}.cls-2{fill:#2a496f;}.cls-3{fill:#57a6d9;}</style></defs><title>Untitled-2</title><path class="cls-1" d="M126.383,29.224a2.24,2.24,0,0,0-3.49-2.81l-14.87,18.44-30.23-2.91-8.37-21.65a2.222,2.222,0,0,0-1.73-1.4L42.723,15a2.218,2.218,0,0,0-2.09.8l-15.86,19.67a2.212,2.212,0,0,0-.34,2.21l8.29,21.48a0.435,0.435,0,0,0-.06.07l-16.24,20.13a2.225,2.225,0,0,0,1.74,3.62,2.2,2.2,0,0,0,1.73-.83L35.573,62.7l22.62,3.54,9.64,30.07a2.236,2.236,0,0,0,1.79,1.53l28.98,4.53,5.74,18.51a2.244,2.244,0,0,0,2.13,1.57,2.589,2.589,0,0,0,.67-0.1,2.263,2.263,0,0,0,1.48-2.81l-5.69-18.33,19.03-23.59a2.236,2.236,0,0,0,.34-2.21l-10.74-27.8V47.6Zm-89.14,29.22-8.17-21.16L43.3,19.614l22.41,3.51,8.18,21.16-14.24,17.65Zm80.42,17.38-17.9,22.19-28.08-4.38-9.05-28.24L77.9,46.444l28.48,2.76,1.03,0.1,0.36,0.93Z" transform="translate(-15.931 -14.975)"/><path class="cls-2" d="M156.9,45.866a8.709,8.709,0,0,1-6.654,2.6H141.31v-28.5h8.935a8.711,8.711,0,0,1,6.654,2.6c2.692,2.882,2.58,7.4,2.58,11.247S159.591,42.984,156.9,45.866Zm-1.42-21.773a7.216,7.216,0,0,0-5.72-2.2h-6.43V46.547h6.43a7.216,7.216,0,0,0,5.72-2.2c2.094-2.361,1.981-7.324,1.981-10.526S157.572,26.455,155.479,24.093Z" transform="translate(-15.931 -14.975)"/><path class="cls-2" d="M165.156,19.971h2.019v28.5h-2.019v-28.5Z" transform="translate(-15.931 -14.975)"/><path class="cls-2" d="M188.967,45.426a9.14,9.14,0,0,1-6.99,3.282,9.02,9.02,0,0,1-6.654-2.922c-2.43-2.6-2.467-5.163-2.467-11.567,0-6.444.038-8.965,2.467-11.567a9.022,9.022,0,0,1,6.654-2.922c4.636,0,8.3,3.322,9.084,8.325h-2.019c-0.785-3.962-3.477-6.4-7.065-6.4a6.831,6.831,0,0,0-5.047,2.2c-1.906,2.042-2.056,4.283-2.056,10.366s0.15,8.325,2.056,10.366a6.831,6.831,0,0,0,5.047,2.2,6.968,6.968,0,0,0,5.533-2.762,8.685,8.685,0,0,0,1.606-5.643V35.82h-7.14V33.9h9.159v4.643C191.136,41.543,190.574,43.625,188.967,45.426Z" transform="translate(-15.931 -14.975)"/><path class="cls-2" d="M196.737,19.971h2.019v28.5h-2.019v-28.5Z" transform="translate(-15.931 -14.975)"/><path class="cls-2" d="M212.437,48.468h-2.019V21.892h-7.926V19.971H220.4v1.921h-7.963V48.468Z" transform="translate(-15.931 -14.975)"/><path class="cls-2" d="M235.237,41.543H222.826l-2.317,6.924H218.34l9.795-28.5h1.794l9.795,28.5h-2.168Zm-11.775-1.921H234.6l-5.57-16.77Z" transform="translate(-15.931 -14.975)"/><path class="cls-2" d="M242.9,19.971h2.019V46.547h14.131v1.921H242.9v-28.5Z" transform="translate(-15.931 -14.975)"/><path class="cls-3" d="M140.674,86.322v-28.5h4.038v28.5h-4.038Z" transform="translate(-15.931 -14.975)"/><path class="cls-3" d="M166.5,86.322l-12.3-20.052V86.322h-4.038v-28.5h3.7l12.3,20.012V57.825h4.038v28.5h-3.7Z" transform="translate(-15.931 -14.975)"/><path class="cls-3" d="M191.994,86.322L179.7,66.271V86.322h-4.038v-28.5h3.7l12.3,20.012V57.825H195.7v28.5h-3.7Z" transform="translate(-15.931 -14.975)"/><path class="cls-3" d="M216.774,83.521a9.6,9.6,0,0,1-14.02,0c-2.616-2.8-2.579-5.964-2.579-11.447s-0.037-8.645,2.579-11.447a9.6,9.6,0,0,1,14.02,0c2.616,2.8,2.542,5.963,2.542,11.447S219.391,80.719,216.774,83.521Zm-3.065-20.292a5.339,5.339,0,0,0-7.926,0c-1.309,1.521-1.57,3.122-1.57,8.845s0.262,7.325,1.57,8.845a5.34,5.34,0,0,0,7.926,0c1.309-1.521,1.569-3.122,1.569-8.845S215.018,64.75,213.709,63.229Z" transform="translate(-15.931 -14.975)"/><path class="cls-3" d="M232.022,86.322h-3.141l-8.748-28.5h4.188l6.131,20.732,6.131-20.732h4.262Z" transform="translate(-15.931 -14.975)"/><path class="cls-3" d="M256.991,86.322L255.159,80.6h-10.5l-1.831,5.724h-4.3l9.758-28.5h3.252l9.758,28.5h-4.3ZM250,64.269l-4.15,12.648h8.188Z" transform="translate(-15.931 -14.975)"/><path class="cls-3" d="M270.334,61.708V86.322H266.3V61.708h-7.328V57.825h18.692v3.882h-7.327Z" transform="translate(-15.931 -14.975)"/><path class="cls-3" d="M280.76,86.322v-28.5H284.8v28.5H280.76Z" transform="translate(-15.931 -14.975)"/><path class="cls-3" d="M305.88,83.521a9.6,9.6,0,0,1-14.02,0c-2.616-2.8-2.579-5.964-2.579-11.447s-0.037-8.645,2.579-11.447a9.6,9.6,0,0,1,14.02,0c2.616,2.8,2.542,5.963,2.542,11.447S308.5,80.719,305.88,83.521Zm-3.065-20.292a5.339,5.339,0,0,0-7.926,0c-1.309,1.521-1.57,3.122-1.57,8.845s0.262,7.325,1.57,8.845a5.34,5.34,0,0,0,7.926,0c1.309-1.521,1.569-3.122,1.569-8.845S304.123,64.75,302.814,63.229Z" transform="translate(-15.931 -14.975)"/><path class="cls-3" d="M329.24,86.322l-12.3-20.052V86.322H312.9v-28.5h3.7l12.3,20.012V57.825h4.037v28.5h-3.7Z" transform="translate(-15.931 -14.975)"/><path class="cls-2" d="M141.31,94.846h2.019v26.576H157.46v1.921H141.31v-28.5Z" transform="translate(-15.931 -14.975)"/><path class="cls-2" d="M176.035,116.419H163.624l-2.318,6.924h-2.168l9.795-28.5h1.794l9.794,28.5h-2.168ZM164.259,114.5H175.4l-5.57-16.77Z" transform="translate(-15.931 -14.975)"/><path class="cls-2" d="M194.07,123.343H183.977v-28.5h9.794c4.412,0,7.7,2.762,7.7,7.444a6.5,6.5,0,0,1-4.149,6.4,6.926,6.926,0,0,1,4.561,6.884C201.883,120.661,198.743,123.343,194.07,123.343Zm-0.523-26.576H186v11.047h7.552c3.215,0,5.906-1.6,5.906-5.523S196.762,96.767,193.547,96.767Zm0.3,12.968H186v11.688h7.851c3.626,0,6.019-2.161,6.019-5.844S197.472,109.734,193.846,109.734Z" transform="translate(-15.931 -14.975)"/></svg>