<?xml version="1.0" encoding="UTF-8" standalone="no"?><svg xmlns="http://www.w3.org/2000/svg" xmlns:xlink="http://www.w3.org/1999/xlink" clip-rule="evenodd" stroke-miterlimit="4.00" viewBox="0 0 1024 768"><desc>SVG generated by Keynote</desc><defs></defs><g transform="matrix(1.00, 0.00, -0.00, -1.00, 0.0, 768.0)"><path d="M 0.0 768.0 L 1024.0 768.0 L 1024.0 0.0 L 0.0 0.0 Z M 0.0 768.0 " fill="#212121"></path><path d="M 0.0 0.0 L 960.0 0.0 " fill="none" stroke="#A6AAA9" stroke-width="2.00" transform="matrix(1.00, 0.00, 0.00, -1.00, 32.0, 689.8)"></path><text xml:space="preserve" font-family="DINAlternate-Bold" font-weight="bold" font-size="24.0" fill="#838686" transform="matrix(1.00, 0.00, -0.00, -1.00, 36.0, 705.0)">I</text><text xml:space="preserve" font-family="DINAlternate-Bold" font-weight="bold" font-size="24.0" fill="#838686" transform="matrix(1.00, 0.00, -0.00, -1.00, 43.4, 705.0)">N</text><text xml:space="preserve" font-family="DINAlternate-Bold" font-weight="bold" font-size="24.0" fill="#838686" transform="matrix(1.00, 0.00, -0.00, -1.00, 61.0, 705.0)">T</text><text xml:space="preserve" font-family="DINAlternate-Bold" font-weight="bold" font-size="24.0" fill="#838686" transform="matrix(1.00, 0.00, -0.00, -1.00, 74.2, 705.0)">E</text><text xml:space="preserve" font-family="DINAlternate-Bold" font-weight="bold" font-size="24.0" fill="#838686" transform="matrix(1.00, 0.00, -0.00, -1.00, 88.7, 705.0)">R</text><text xml:space="preserve" font-family="DINAlternate-Bold" font-weight="bold" font-size="24.0" fill="#838686" transform="matrix(1.00, 0.00, -0.00, -1.00, 104.6, 705.0)">N</text><text xml:space="preserve" font-family="DINAlternate-Bold" font-weight="bold" font-size="24.0" fill="#838686" transform="matrix(1.00, 0.00, -0.00, -1.00, 122.2, 705.0)">E</text><text xml:space="preserve" font-family="DINAlternate-Bold" font-weight="bold" font-size="24.0" fill="#838686" transform="matrix(1.00, 0.00, -0.00, -1.00, 136.7, 705.0)">T</text><text xml:space="preserve" font-family="DINAlternate-Bold" font-weight="bold" font-size="24.0" fill="#838686" transform="matrix(1.00, 0.00, -0.00, -1.00, 149.9, 705.0)"> </text><text xml:space="preserve" font-family="DINAlternate-Bold" font-weight="bold" font-size="24.0" fill="#838686" transform="matrix(1.00, 0.00, -0.00, -1.00, 156.9, 705.0)">O</text><text xml:space="preserve" font-family="DINAlternate-Bold" font-weight="bold" font-size="24.0" fill="#838686" transform="matrix(1.00, 0.00, -0.00, -1.00, 172.7, 705.0)">F</text><text xml:space="preserve" font-family="DINAlternate-Bold" font-weight="bold" font-size="24.0" fill="#838686" transform="matrix(1.00, 0.00, -0.00, -1.00, 186.8, 705.0)"> </text><text xml:space="preserve" font-family="DINAlternate-Bold" font-weight="bold" font-size="24.0" fill="#838686" transform="matrix(1.00, 0.00, -0.00, -1.00, 193.7, 705.0)">T</text><text xml:space="preserve" font-family="DINAlternate-Bold" font-weight="bold" font-size="24.0" fill="#838686" transform="matrix(1.00, 0.00, -0.00, -1.00, 206.9, 705.0)">H</text><text xml:space="preserve" font-family="DINAlternate-Bold" font-weight="bold" font-size="24.0" fill="#838686" transform="matrix(1.00, 0.00, -0.00, -1.00, 223.7, 705.0)">I</text><text xml:space="preserve" font-family="DINAlternate-Bold" font-weight="bold" font-size="24.0" fill="#838686" transform="matrix(1.00, 0.00, -0.00, -1.00, 231.1, 705.0)">N</text><text xml:space="preserve" font-family="DINAlternate-Bold" font-weight="bold" font-size="24.0" fill="#838686" transform="matrix(1.00, 0.00, -0.00, -1.00, 248.7, 705.0)">G</text><text xml:space="preserve" font-family="DINAlternate-Bold" font-weight="bold" font-size="24.0" fill="#838686" transform="matrix(1.00, 0.00, -0.00, -1.00, 264.5, 705.0)">S</text><text xml:space="preserve" font-family="DINCondensed-Bold" font-weight="bold" font-size="45.6" fill="#34A4DA" transform="matrix(1.00, 0.00, -0.00, -1.00, 36.0, 611.0)">2</text><text xml:space="preserve" font-family="DINCondensed-Bold" font-weight="bold" font-size="45.6" fill="#34A4DA" transform="matrix(1.00, 0.00, -0.00, -1.00, 53.0, 611.0)">.</text><text xml:space="preserve" font-family="DINCondensed-Bold" font-weight="bold" font-size="45.6" fill="#34A4DA" transform="matrix(1.00, 0.00, -0.00, -1.00, 61.4, 611.0)"> </text><text xml:space="preserve" font-family="DINCondensed-Bold" font-weight="bold" font-size="45.6" fill="#34A4DA" transform="matrix(1.00, 0.00, -0.00, -1.00, 69.9, 611.0)">A</text><text xml:space="preserve" font-family="DINCondensed-Bold" font-weight="bold" font-size="45.6" fill="#34A4DA" transform="matrix(1.00, 0.00, -0.00, -1.00, 88.5, 611.0)">M</text><text xml:space="preserve" font-family="DINCondensed-Bold" font-weight="bold" font-size="45.6" fill="#34A4DA" transform="matrix(1.00, 0.00, -0.00, -1.00, 113.8, 611.0)">B</text><text xml:space="preserve" font-family="DINCondensed-Bold" font-weight="bold" font-size="45.6" fill="#34A4DA" transform="matrix(1.00, 0.00, -0.00, -1.00, 133.3, 611.0)">I</text><text xml:space="preserve" font-family="DINCondensed-Bold" font-weight="bold" font-size="45.6" fill="#34A4DA" transform="matrix(1.00, 0.00, -0.00, -1.00, 142.6, 611.0)">E</text><text xml:space="preserve" font-family="DINCondensed-Bold" font-weight="bold" font-size="45.6" fill="#34A4DA" transform="matrix(1.00, 0.00, -0.00, -1.00, 159.4, 611.0)">N</text><text xml:space="preserve" font-family="DINCondensed-Bold" font-weight="bold" font-size="45.6" fill="#34A4DA" transform="matrix(1.00, 0.00, -0.00, -1.00, 179.7, 611.0)">T</text><text xml:space="preserve" font-family="DINCondensed-Bold" font-weight="bold" font-size="45.6" fill="#34A4DA" transform="matrix(1.00, 0.00, -0.00, -1.00, 194.8, 611.0)"> </text><text xml:space="preserve" font-family="DINCondensed-Bold" font-weight="bold" font-size="45.6" fill="#34A4DA" transform="matrix(1.00, 0.00, -0.00, -1.00, 203.3, 611.0)">T</text><text xml:space="preserve" font-family="DINCondensed-Bold" font-weight="bold" font-size="45.6" fill="#34A4DA" transform="matrix(1.00, 0.00, -0.00, -1.00, 218.4, 611.0)">E</text><text xml:space="preserve" font-family="DINCondensed-Bold" font-weight="bold" font-size="45.6" fill="#34A4DA" transform="matrix(1.00, 0.00, -0.00, -1.00, 235.3, 611.0)">M</text><text xml:space="preserve" font-family="DINCondensed-Bold" font-weight="bold" font-size="45.6" fill="#34A4DA" transform="matrix(1.00, 0.00, -0.00, -1.00, 260.7, 611.0)">P</text><text xml:space="preserve" font-family="DINCondensed-Bold" font-weight="bold" font-size="45.6" fill="#34A4DA" transform="matrix(1.00, 0.00, -0.00, -1.00, 279.2, 611.0)">E</text><text xml:space="preserve" font-family="DINCondensed-Bold" font-weight="bold" font-size="45.6" fill="#34A4DA" transform="matrix(1.00, 0.00, -0.00, -1.00, 296.1, 611.0)">R</text><text xml:space="preserve" font-family="DINCondensed-Bold" font-weight="bold" font-size="45.6" fill="#34A4DA" transform="matrix(1.00, 0.00, -0.00, -1.00, 315.5, 611.0)">A</text><text xml:space="preserve" font-family="DINCondensed-Bold" font-weight="bold" font-size="45.6" fill="#34A4DA" transform="matrix(1.00, 0.00, -0.00, -1.00, 331.6, 611.0)">T</text><text xml:space="preserve" font-family="DINCondensed-Bold" font-weight="bold" font-size="45.6" fill="#34A4DA" transform="matrix(1.00, 0.00, -0.00, -1.00, 346.7, 611.0)">U</text><text xml:space="preserve" font-family="DINCondensed-Bold" font-weight="bold" font-size="45.6" fill="#34A4DA" transform="matrix(1.00, 0.00, -0.00, -1.00, 366.1, 611.0)">R</text><text xml:space="preserve" font-family="DINCondensed-Bold" font-weight="bold" font-size="45.6" fill="#34A4DA" transform="matrix(1.00, 0.00, -0.00, -1.00, 385.6, 611.0)">E</text><text xml:space="preserve" font-family="DINCondensed-Bold" font-weight="bold" font-size="45.6" fill="#34A4DA" transform="matrix(1.00, 0.00, -0.00, -1.00, 402.4, 611.0)"> </text><text xml:space="preserve" font-family="DINCondensed-Bold" font-weight="bold" font-size="45.6" fill="#34A4DA" transform="matrix(1.00, 0.00, -0.00, -1.00, 410.9, 611.0)">O</text><text xml:space="preserve" font-family="DINCondensed-Bold" font-weight="bold" font-size="45.6" fill="#34A4DA" transform="matrix(1.00, 0.00, -0.00, -1.00, 430.3, 611.0)">F</text><text xml:space="preserve" font-family="DINCondensed-Bold" font-weight="bold" font-size="45.6" fill="#34A4DA" transform="matrix(1.00, 0.00, -0.00, -1.00, 447.2, 611.0)"> </text><text xml:space="preserve" font-family="DINCondensed-Bold" font-weight="bold" font-size="45.6" fill="#34A4DA" transform="matrix(1.00, 0.00, -0.00, -1.00, 455.7, 611.0)">F</text><text xml:space="preserve" font-family="DINCondensed-Bold" font-weight="bold" font-size="45.6" fill="#34A4DA" transform="matrix(1.00, 0.00, -0.00, -1.00, 472.6, 611.0)">U</text><text xml:space="preserve" font-family="DINCondensed-Bold" font-weight="bold" font-size="45.6" fill="#34A4DA" transform="matrix(1.00, 0.00, -0.00, -1.00, 492.0, 611.0)">R</text><text xml:space="preserve" font-family="DINCondensed-Bold" font-weight="bold" font-size="45.6" fill="#34A4DA" transform="matrix(1.00, 0.00, -0.00, -1.00, 511.4, 611.0)">N</text><text xml:space="preserve" font-family="DINCondensed-Bold" font-weight="bold" font-size="45.6" fill="#34A4DA" transform="matrix(1.00, 0.00, -0.00, -1.00, 531.7, 611.0)">I</text><text xml:space="preserve" font-family="DINCondensed-Bold" font-weight="bold" font-size="45.6" fill="#34A4DA" transform="matrix(1.00, 0.00, -0.00, -1.00, 541.0, 611.0)">T</text><text xml:space="preserve" font-family="DINCondensed-Bold" font-weight="bold" font-size="45.6" fill="#34A4DA" transform="matrix(1.00, 0.00, -0.00, -1.00, 556.1, 611.0)">U</text><text xml:space="preserve" font-family="DINCondensed-Bold" font-weight="bold" font-size="45.6" fill="#34A4DA" transform="matrix(1.00, 0.00, -0.00, -1.00, 575.5, 611.0)">R</text><text xml:space="preserve" font-family="DINCondensed-Bold" font-weight="bold" font-size="45.6" fill="#34A4DA" transform="matrix(1.00, 0.00, -0.00, -1.00, 595.0, 611.0)">E</text><text xml:space="preserve" font-family="DINCondensed-Bold" font-weight="bold" font-size="45.6" fill="#34A4DA" transform="matrix(1.00, 0.00, -0.00, -1.00, 611.8, 611.0)">S</text><text xml:space="preserve" font-family="DINCondensed-Bold" font-weight="bold" font-size="45.6" fill="#34A4DA" transform="matrix(1.00, 0.00, -0.00, -1.00, 630.4, 611.0)">.</text><text xml:space="preserve" font-family="DINCondensed-Bold" font-weight="bold" font-size="45.6" fill="#34A4DA" transform="matrix(1.00, 0.00, -0.00, -1.00, 638.8, 611.0)"> </text><text xml:space="preserve" font-family="DINCondensed-Bold" font-weight="bold" font-size="45.6" fill="#34A4DA" transform="matrix(1.00, 0.00, -0.00, -1.00, 647.3, 611.0)">A</text><text xml:space="preserve" font-family="DINCondensed-Bold" font-weight="bold" font-size="45.6" fill="#34A4DA" transform="matrix(1.00, 0.00, -0.00, -1.00, 665.9, 611.0)">L</text><text xml:space="preserve" font-family="DINCondensed-Bold" font-weight="bold" font-size="45.6" fill="#34A4DA" transform="matrix(1.00, 0.00, -0.00, -1.00, 679.4, 611.0)">T</text><text xml:space="preserve" font-family="DINCondensed-Bold" font-weight="bold" font-size="45.6" fill="#34A4DA" transform="matrix(1.00, 0.00, -0.00, -1.00, 694.5, 611.0)">I</text><text xml:space="preserve" font-family="DINCondensed-Bold" font-weight="bold" font-size="45.6" fill="#34A4DA" transform="matrix(1.00, 0.00, -0.00, -1.00, 703.8, 611.0)">T</text><text xml:space="preserve" font-family="DINCondensed-Bold" font-weight="bold" font-size="45.6" fill="#34A4DA" transform="matrix(1.00, 0.00, -0.00, -1.00, 719.0, 611.0)">U</text><text xml:space="preserve" font-family="DINCondensed-Bold" font-weight="bold" font-size="45.6" fill="#34A4DA" transform="matrix(1.00, 0.00, -0.00, -1.00, 738.4, 611.0)">D</text><text xml:space="preserve" font-family="DINCondensed-Bold" font-weight="bold" font-size="45.6" fill="#34A4DA" transform="matrix(1.00, 0.00, -0.00, -1.00, 757.8, 611.0)">E</text><text xml:space="preserve" font-family="DINCondensed-Bold" font-weight="bold" font-size="45.6" fill="#34A4DA" transform="matrix(1.00, 0.00, -0.00, -1.00, 774.7, 611.0)"> </text><text xml:space="preserve" font-family="DINCondensed-Bold" font-weight="bold" font-size="45.6" fill="#34A4DA" transform="matrix(1.00, 0.00, -0.00, -1.00, 783.2, 611.0)">O</text><text xml:space="preserve" font-family="DINCondensed-Bold" font-weight="bold" font-size="45.6" fill="#34A4DA" transform="matrix(1.00, 0.00, -0.00, -1.00, 802.6, 611.0)">F</text><text xml:space="preserve" font-family="DINCondensed-Bold" font-weight="bold" font-size="45.6" fill="#34A4DA" transform="matrix(1.00, 0.00, -0.00, -1.00, 819.5, 611.0)"> </text><text xml:space="preserve" font-family="DINCondensed-Bold" font-weight="bold" font-size="45.6" fill="#34A4DA" transform="matrix(1.00, 0.00, -0.00, -1.00, 827.9, 611.0)">A</text><text xml:space="preserve" font-family="DINCondensed-Bold" font-weight="bold" font-size="45.6" fill="#34A4DA" transform="matrix(1.00, 0.00, -0.00, -1.00, 846.5, 611.0)"> </text><text xml:space="preserve" font-family="DINCondensed-Bold" font-weight="bold" font-size="45.6" fill="#34A4DA" transform="matrix(1.00, 0.00, -0.00, -1.00, 855.0, 611.0)">S</text><text xml:space="preserve" font-family="DINCondensed-Bold" font-weight="bold" font-size="45.6" fill="#34A4DA" transform="matrix(1.00, 0.00, -0.00, -1.00, 873.5, 611.0)">U</text><text xml:space="preserve" font-family="DINCondensed-Bold" font-weight="bold" font-size="45.6" fill="#34A4DA" transform="matrix(1.00, 0.00, -0.00, -1.00, 892.9, 611.0)">R</text><text xml:space="preserve" font-family="DINCondensed-Bold" font-weight="bold" font-size="45.6" fill="#34A4DA" transform="matrix(1.00, 0.00, -0.00, -1.00, 912.3, 611.0)">F</text><text xml:space="preserve" font-family="DINCondensed-Bold" font-weight="bold" font-size="45.6" fill="#34A4DA" transform="matrix(1.00, 0.00, -0.00, -1.00, 926.9, 611.0)">A</text><text xml:space="preserve" font-family="DINCondensed-Bold" font-weight="bold" font-size="45.6" fill="#34A4DA" transform="matrix(1.00, 0.00, -0.00, -1.00, 945.5, 611.0)">C</text><text xml:space="preserve" font-family="DINCondensed-Bold" font-weight="bold" font-size="45.6" fill="#34A4DA" transform="matrix(1.00, 0.00, -0.00, -1.00, 964.1, 611.0)">E</text><text xml:space="preserve" font-family="DINAlternate-Bold" font-weight="bold" font-size="24.0" fill="#838686" transform="matrix(1.00, 0.00, -0.00, -1.00, 964.6, 707.4)">2</text><text xml:space="preserve" font-family="DINAlternate-Bold" font-weight="bold" font-size="24.0" fill="#838686" transform="matrix(1.00, 0.00, -0.00, -1.00, 976.1, 707.4)">7</text><text xml:space="preserve" font-family="AvenirNext-Medium" font-size="20.0" fill="#838686" transform="matrix(1.00, 0.00, -0.00, -1.00, 453.0, 26.0)">T</text><text xml:space="preserve" font-family="AvenirNext-Medium" font-size="20.0" fill="#838686" transform="matrix(1.00, 0.00, -0.00, -1.00, 462.5, 26.0)">e</text><text xml:space="preserve" font-family="AvenirNext-Medium" font-size="20.0" fill="#838686" transform="matrix(1.00, 0.00, -0.00, -1.00, 473.9, 26.0)">m</text><text xml:space="preserve" font-family="AvenirNext-Medium" font-size="20.0" fill="#838686" transform="matrix(1.00, 0.00, -0.00, -1.00, 491.7, 26.0)">p</text><text xml:space="preserve" font-family="AvenirNext-Medium" font-size="20.0" fill="#838686" transform="matrix(1.00, 0.00, -0.00, -1.00, 504.3, 26.0)">e</text><text xml:space="preserve" font-family="AvenirNext-Medium" font-size="20.0" fill="#838686" transform="matrix(1.00, 0.00, -0.00, -1.00, 515.8, 26.0)">r</text><text xml:space="preserve" font-family="AvenirNext-Medium" font-size="20.0" fill="#838686" transform="matrix(1.00, 0.00, -0.00, -1.00, 522.8, 26.0)">a</text><text xml:space="preserve" font-family="AvenirNext-Medium" font-size="20.0" fill="#838686" transform="matrix(1.00, 0.00, -0.00, -1.00, 533.4, 26.0)">t</text><text xml:space="preserve" font-family="AvenirNext-Medium" font-size="20.0" fill="#838686" transform="matrix(1.00, 0.00, -0.00, -1.00, 540.0, 26.0)">u</text><text xml:space="preserve" font-family="AvenirNext-Medium" font-size="20.0" fill="#838686" transform="matrix(1.00, 0.00, -0.00, -1.00, 551.6, 26.0)">r</text><text xml:space="preserve" font-family="AvenirNext-Medium" font-size="20.0" fill="#838686" transform="matrix(1.00, 0.00, -0.00, -1.00, 558.5, 26.0)">e</text><image xlink:href="../../FFE3C3C7-C327-4C82-9DC8-0D2E57AFECFB/assets/952829CC4D546392754A35A3B758CB68.png" width="466.00" height="505.00" transform="matrix(1.00, 0.00, -0.00, -1.00, 279.0, 572.0)"></image></g></svg>