<?xml version="1.0" encoding="UTF-8" standalone="no"?><svg xmlns="http://www.w3.org/2000/svg" xmlns:xlink="http://www.w3.org/1999/xlink" clip-rule="evenodd" stroke-miterlimit="4.00" viewBox="0 0 918 217"><desc>SVG generated by Keynote</desc><defs></defs><g transform="matrix(1.00, 0.00, -0.00, -1.00, 0.0, 217.0)"><text xml:space="preserve" font-family="LucidaGrande" font-size="30.4" fill="#34A4DA" transform="matrix(1.00, 0.00, -0.00, -1.00, 0.1, 188.1)">▸</text><text xml:space="preserve" font-family="AvenirNext-Medium" font-size="29.0" fill="#838686" transform="matrix(1.00, 0.00, -0.00, -1.00, 35.0, 190.0)">I</text><text xml:space="preserve" font-family="AvenirNext-Medium" font-size="29.0" fill="#838686" transform="matrix(1.00, 0.00, -0.00, -1.00, 42.9, 190.0)">n</text><text xml:space="preserve" font-family="AvenirNext-Medium" font-size="29.0" fill="#838686" transform="matrix(1.00, 0.00, -0.00, -1.00, 59.7, 190.0)"> </text><text xml:space="preserve" font-family="AvenirNext-Medium" font-size="29.0" fill="#838686" transform="matrix(1.00, 0.00, -0.00, -1.00, 67.0, 190.0)">t</text><text xml:space="preserve" font-family="AvenirNext-Medium" font-size="29.0" fill="#838686" transform="matrix(1.00, 0.00, -0.00, -1.00, 76.5, 190.0)">e</text><text xml:space="preserve" font-family="AvenirNext-Medium" font-size="29.0" fill="#838686" transform="matrix(1.00, 0.00, -0.00, -1.00, 93.1, 190.0)">l</text><text xml:space="preserve" font-family="AvenirNext-Medium" font-size="29.0" fill="#838686" transform="matrix(1.00, 0.00, -0.00, -1.00, 100.7, 190.0)">e</text><text xml:space="preserve" font-family="AvenirNext-Medium" font-size="29.0" fill="#838686" transform="matrix(1.00, 0.00, -0.00, -1.00, 117.3, 190.0)">c</text><text xml:space="preserve" font-family="AvenirNext-Medium" font-size="29.0" fill="#838686" transform="matrix(1.00, 0.00, -0.00, -1.00, 131.6, 190.0)">o</text><text xml:space="preserve" font-family="AvenirNext-Medium" font-size="29.0" fill="#838686" transform="matrix(1.00, 0.00, -0.00, -1.00, 149.3, 190.0)">m</text><text xml:space="preserve" font-family="AvenirNext-Medium" font-size="29.0" fill="#838686" transform="matrix(1.00, 0.00, -0.00, -1.00, 175.0, 190.0)">m</text><text xml:space="preserve" font-family="AvenirNext-Medium" font-size="29.0" fill="#838686" transform="matrix(1.00, 0.00, -0.00, -1.00, 200.8, 190.0)">u</text><text xml:space="preserve" font-family="AvenirNext-Medium" font-size="29.0" fill="#838686" transform="matrix(1.00, 0.00, -0.00, -1.00, 217.6, 190.0)">n</text><text xml:space="preserve" font-family="AvenirNext-Medium" font-size="29.0" fill="#838686" transform="matrix(1.00, 0.00, -0.00, -1.00, 234.5, 190.0)">i</text><text xml:space="preserve" font-family="AvenirNext-Medium" font-size="29.0" fill="#838686" transform="matrix(1.00, 0.00, -0.00, -1.00, 242.0, 190.0)">c</text><text xml:space="preserve" font-family="AvenirNext-Medium" font-size="29.0" fill="#838686" transform="matrix(1.00, 0.00, -0.00, -1.00, 256.4, 190.0)">a</text><text xml:space="preserve" font-family="AvenirNext-Medium" font-size="29.0" fill="#838686" transform="matrix(1.00, 0.00, -0.00, -1.00, 271.8, 190.0)">t</text><text xml:space="preserve" font-family="AvenirNext-Medium" font-size="29.0" fill="#838686" transform="matrix(1.00, 0.00, -0.00, -1.00, 281.3, 190.0)">i</text><text xml:space="preserve" font-family="AvenirNext-Medium" font-size="29.0" fill="#838686" transform="matrix(1.00, 0.00, -0.00, -1.00, 288.8, 190.0)">o</text><text xml:space="preserve" font-family="AvenirNext-Medium" font-size="29.0" fill="#838686" transform="matrix(1.00, 0.00, -0.00, -1.00, 306.5, 190.0)">n</text><text xml:space="preserve" font-family="AvenirNext-Medium" font-size="29.0" fill="#838686" transform="matrix(1.00, 0.00, -0.00, -1.00, 323.4, 190.0)">s</text><text xml:space="preserve" font-family="AvenirNext-Medium" font-size="29.0" fill="#838686" transform="matrix(1.00, 0.00, -0.00, -1.00, 336.3, 190.0)">,</text><text xml:space="preserve" font-family="AvenirNext-Medium" font-size="29.0" fill="#838686" transform="matrix(1.00, 0.00, -0.00, -1.00, 343.0, 190.0)"> </text><text xml:space="preserve" font-family="AvenirNext-Medium" font-size="29.0" fill="#838686" transform="matrix(1.00, 0.00, -0.00, -1.00, 350.2, 190.0)">r</text><text xml:space="preserve" font-family="AvenirNext-Medium" font-size="29.0" fill="#838686" transform="matrix(1.00, 0.00, -0.00, -1.00, 360.2, 190.0)">e</text><text xml:space="preserve" font-family="AvenirNext-Medium" font-size="29.0" fill="#838686" transform="matrix(1.00, 0.00, -0.00, -1.00, 376.8, 190.0)">c</text><text xml:space="preserve" font-family="AvenirNext-Medium" font-size="29.0" fill="#838686" transform="matrix(1.00, 0.00, -0.00, -1.00, 391.1, 190.0)">e</text><text xml:space="preserve" font-family="AvenirNext-Medium" font-size="29.0" fill="#838686" transform="matrix(1.00, 0.00, -0.00, -1.00, 407.7, 190.0)">i</text><text xml:space="preserve" font-family="AvenirNext-Medium" font-size="29.0" fill="#838686" transform="matrix(1.00, 0.00, -0.00, -1.00, 415.2, 190.0)">v</text><text xml:space="preserve" font-family="AvenirNext-Medium" font-size="29.0" fill="#838686" transform="matrix(1.00, 0.00, -0.00, -1.00, 429.9, 190.0)">e</text><text xml:space="preserve" font-family="AvenirNext-Medium" font-size="29.0" fill="#838686" transform="matrix(1.00, 0.00, -0.00, -1.00, 446.5, 190.0)">d</text><text xml:space="preserve" font-family="AvenirNext-Medium" font-size="29.0" fill="#838686" transform="matrix(1.00, 0.00, -0.00, -1.00, 464.9, 190.0)"> </text><text xml:space="preserve" font-family="AvenirNext-Medium" font-size="29.0" fill="#838686" transform="matrix(1.00, 0.00, -0.00, -1.00, 472.1, 190.0)">s</text><text xml:space="preserve" font-family="AvenirNext-Medium" font-size="29.0" fill="#838686" transform="matrix(1.00, 0.00, -0.00, -1.00, 485.0, 190.0)">i</text><text xml:space="preserve" font-family="AvenirNext-Medium" font-size="29.0" fill="#838686" transform="matrix(1.00, 0.00, -0.00, -1.00, 492.5, 190.0)">g</text><text xml:space="preserve" font-family="AvenirNext-Medium" font-size="29.0" fill="#838686" transform="matrix(1.00, 0.00, -0.00, -1.00, 510.9, 190.0)">n</text><text xml:space="preserve" font-family="AvenirNext-Medium" font-size="29.0" fill="#838686" transform="matrix(1.00, 0.00, -0.00, -1.00, 527.7, 190.0)">a</text><text xml:space="preserve" font-family="AvenirNext-Medium" font-size="29.0" fill="#838686" transform="matrix(1.00, 0.00, -0.00, -1.00, 543.5, 190.0)">l</text><text xml:space="preserve" font-family="AvenirNext-Medium" font-size="29.0" fill="#838686" transform="matrix(1.00, 0.00, -0.00, -1.00, 551.0, 190.0)"> </text><text xml:space="preserve" font-family="AvenirNext-Medium" font-size="29.0" fill="#838686" transform="matrix(1.00, 0.00, -0.00, -1.00, 558.2, 190.0)">s</text><text xml:space="preserve" font-family="AvenirNext-Medium" font-size="29.0" fill="#838686" transform="matrix(1.00, 0.00, -0.00, -1.00, 571.1, 190.0)">t</text><text xml:space="preserve" font-family="AvenirNext-Medium" font-size="29.0" fill="#838686" transform="matrix(1.00, 0.00, -0.00, -1.00, 580.7, 190.0)">r</text><text xml:space="preserve" font-family="AvenirNext-Medium" font-size="29.0" fill="#838686" transform="matrix(1.00, 0.00, -0.00, -1.00, 590.6, 190.0)">e</text><text xml:space="preserve" font-family="AvenirNext-Medium" font-size="29.0" fill="#838686" transform="matrix(1.00, 0.00, -0.00, -1.00, 607.3, 190.0)">n</text><text xml:space="preserve" font-family="AvenirNext-Medium" font-size="29.0" fill="#838686" transform="matrix(1.00, 0.00, -0.00, -1.00, 624.1, 190.0)">g</text><text xml:space="preserve" font-family="AvenirNext-Medium" font-size="29.0" fill="#838686" transform="matrix(1.00, 0.00, -0.00, -1.00, 642.5, 190.0)">t</text><text xml:space="preserve" font-family="AvenirNext-Medium" font-size="29.0" fill="#838686" transform="matrix(1.00, 0.00, -0.00, -1.00, 652.0, 190.0)">h</text><text xml:space="preserve" font-family="AvenirNext-Medium" font-size="29.0" fill="#838686" transform="matrix(1.00, 0.00, -0.00, -1.00, 668.9, 190.0)"> </text><text xml:space="preserve" font-family="AvenirNext-Medium" font-size="29.0" fill="#838686" transform="matrix(1.00, 0.00, -0.00, -1.00, 676.2, 190.0)">i</text><text xml:space="preserve" font-family="AvenirNext-Medium" font-size="29.0" fill="#838686" transform="matrix(1.00, 0.00, -0.00, -1.00, 683.7, 190.0)">n</text><text xml:space="preserve" font-family="AvenirNext-Medium" font-size="29.0" fill="#838686" transform="matrix(1.00, 0.00, -0.00, -1.00, 700.6, 190.0)">d</text><text xml:space="preserve" font-family="AvenirNext-Medium" font-size="29.0" fill="#838686" transform="matrix(1.00, 0.00, -0.00, -1.00, 719.0, 190.0)">i</text><text xml:space="preserve" font-family="AvenirNext-Medium" font-size="29.0" fill="#838686" transform="matrix(1.00, 0.00, -0.00, -1.00, 726.5, 190.0)">c</text><text xml:space="preserve" font-family="AvenirNext-Medium" font-size="29.0" fill="#838686" transform="matrix(1.00, 0.00, -0.00, -1.00, 740.8, 190.0)">a</text><text xml:space="preserve" font-family="AvenirNext-Medium" font-size="29.0" fill="#838686" transform="matrix(1.00, 0.00, -0.00, -1.00, 756.3, 190.0)">t</text><text xml:space="preserve" font-family="AvenirNext-Medium" font-size="29.0" fill="#838686" transform="matrix(1.00, 0.00, -0.00, -1.00, 765.8, 190.0)">o</text><text xml:space="preserve" font-family="AvenirNext-Medium" font-size="29.0" fill="#838686" transform="matrix(1.00, 0.00, -0.00, -1.00, 783.5, 190.0)">r</text><text xml:space="preserve" font-family="AvenirNext-Medium" font-size="29.0" fill="#838686" transform="matrix(1.00, 0.00, -0.00, -1.00, 794.0, 190.0)"> </text><text xml:space="preserve" font-family="AvenirNext-Medium" font-size="29.0" fill="#838686" transform="matrix(1.00, 0.00, -0.00, -1.00, 801.2, 190.0)">(</text><text xml:space="preserve" font-family="AvenirNext-Medium" font-size="29.0" fill="#838686" transform="matrix(1.00, 0.00, -0.00, -1.00, 810.4, 190.0)">R</text><text xml:space="preserve" font-family="AvenirNext-Medium" font-size="29.0" fill="#838686" transform="matrix(1.00, 0.00, -0.00, -1.00, 828.2, 190.0)">S</text><text xml:space="preserve" font-family="AvenirNext-Medium" font-size="29.0" fill="#838686" transform="matrix(1.00, 0.00, -0.00, -1.00, 844.7, 190.0)">S</text><text xml:space="preserve" font-family="AvenirNext-Medium" font-size="29.0" fill="#838686" transform="matrix(1.00, 0.00, -0.00, -1.00, 861.2, 190.0)">I</text><text xml:space="preserve" font-family="AvenirNext-Medium" font-size="29.0" fill="#838686" transform="matrix(1.00, 0.00, -0.00, -1.00, 869.0, 190.0)">)</text><text xml:space="preserve" font-family="AvenirNext-Medium" font-size="29.0" fill="#838686" transform="matrix(1.00, 0.00, -0.00, -1.00, 878.2, 190.0)"> </text><text xml:space="preserve" font-family="AvenirNext-Medium" font-size="29.0" fill="#838686" transform="matrix(1.00, 0.00, -0.00, -1.00, 885.4, 190.0)">i</text><text xml:space="preserve" font-family="AvenirNext-Medium" font-size="29.0" fill="#838686" transform="matrix(1.00, 0.00, -0.00, -1.00, 892.9, 190.0)">s</text><text xml:space="preserve" font-family="AvenirNext-Medium" font-size="29.0" fill="#838686" transform="matrix(1.00, 0.00, -0.00, -1.00, 905.8, 190.0)"> </text><text xml:space="preserve" font-family="AvenirNext-Medium" font-size="29.0" fill="#838686" transform="matrix(1.00, 0.00, -0.00, -1.00, 35.0, 150.0)">a</text><text xml:space="preserve" font-family="AvenirNext-Medium" font-size="29.0" fill="#838686" transform="matrix(1.00, 0.00, -0.00, -1.00, 50.7, 150.0)"> </text><text xml:space="preserve" font-family="AvenirNext-Medium" font-size="29.0" fill="#838686" transform="matrix(1.00, 0.00, -0.00, -1.00, 58.0, 150.0)">m</text><text xml:space="preserve" font-family="AvenirNext-Medium" font-size="29.0" fill="#838686" transform="matrix(1.00, 0.00, -0.00, -1.00, 83.7, 150.0)">e</text><text xml:space="preserve" font-family="AvenirNext-Medium" font-size="29.0" fill="#838686" transform="matrix(1.00, 0.00, -0.00, -1.00, 100.1, 150.0)">a</text><text xml:space="preserve" font-family="AvenirNext-Medium" font-size="29.0" fill="#838686" transform="matrix(1.00, 0.00, -0.00, -1.00, 115.9, 150.0)">s</text><text xml:space="preserve" font-family="AvenirNext-Medium" font-size="29.0" fill="#838686" transform="matrix(1.00, 0.00, -0.00, -1.00, 128.7, 150.0)">u</text><text xml:space="preserve" font-family="AvenirNext-Medium" font-size="29.0" fill="#838686" transform="matrix(1.00, 0.00, -0.00, -1.00, 145.6, 150.0)">r</text><text xml:space="preserve" font-family="AvenirNext-Medium" font-size="29.0" fill="#838686" transform="matrix(1.00, 0.00, -0.00, -1.00, 155.6, 150.0)">e</text><text xml:space="preserve" font-family="AvenirNext-Medium" font-size="29.0" fill="#838686" transform="matrix(1.00, 0.00, -0.00, -1.00, 172.2, 150.0)">m</text><text xml:space="preserve" font-family="AvenirNext-Medium" font-size="29.0" fill="#838686" transform="matrix(1.00, 0.00, -0.00, -1.00, 197.9, 150.0)">e</text><text xml:space="preserve" font-family="AvenirNext-Medium" font-size="29.0" fill="#838686" transform="matrix(1.00, 0.00, -0.00, -1.00, 214.5, 150.0)">n</text><text xml:space="preserve" font-family="AvenirNext-Medium" font-size="29.0" fill="#838686" transform="matrix(1.00, 0.00, -0.00, -1.00, 231.4, 150.0)">t</text><text xml:space="preserve" font-family="AvenirNext-Medium" font-size="29.0" fill="#838686" transform="matrix(1.00, 0.00, -0.00, -1.00, 241.0, 150.0)"> </text><text xml:space="preserve" font-family="AvenirNext-Medium" font-size="29.0" fill="#838686" transform="matrix(1.00, 0.00, -0.00, -1.00, 248.2, 150.0)">o</text><text xml:space="preserve" font-family="AvenirNext-Medium" font-size="29.0" fill="#838686" transform="matrix(1.00, 0.00, -0.00, -1.00, 265.9, 150.0)">f</text><text xml:space="preserve" font-family="AvenirNext-Medium" font-size="29.0" fill="#838686" transform="matrix(1.00, 0.00, -0.00, -1.00, 275.6, 150.0)"> </text><text xml:space="preserve" font-family="AvenirNext-Medium" font-size="29.0" fill="#838686" transform="matrix(1.00, 0.00, -0.00, -1.00, 282.8, 150.0)">t</text><text xml:space="preserve" font-family="AvenirNext-Medium" font-size="29.0" fill="#838686" transform="matrix(1.00, 0.00, -0.00, -1.00, 292.4, 150.0)">h</text><text xml:space="preserve" font-family="AvenirNext-Medium" font-size="29.0" fill="#838686" transform="matrix(1.00, 0.00, -0.00, -1.00, 309.3, 150.0)">e</text><text xml:space="preserve" font-family="AvenirNext-Medium" font-size="29.0" fill="#838686" transform="matrix(1.00, 0.00, -0.00, -1.00, 325.9, 150.0)"> </text><text xml:space="preserve" font-family="AvenirNext-Medium" font-size="29.0" fill="#838686" transform="matrix(1.00, 0.00, -0.00, -1.00, 333.2, 150.0)">p</text><text xml:space="preserve" font-family="AvenirNext-Medium" font-size="29.0" fill="#838686" transform="matrix(1.00, 0.00, -0.00, -1.00, 351.6, 150.0)">o</text><text xml:space="preserve" font-family="AvenirNext-Medium" font-size="29.0" fill="#838686" transform="matrix(1.00, 0.00, -0.00, -1.00, 369.3, 150.0)">w</text><text xml:space="preserve" font-family="AvenirNext-Medium" font-size="29.0" fill="#838686" transform="matrix(1.00, 0.00, -0.00, -1.00, 391.7, 150.0)">e</text><text xml:space="preserve" font-family="AvenirNext-Medium" font-size="29.0" fill="#838686" transform="matrix(1.00, 0.00, -0.00, -1.00, 408.3, 150.0)">r</text><text xml:space="preserve" font-family="AvenirNext-Medium" font-size="29.0" fill="#838686" transform="matrix(1.00, 0.00, -0.00, -1.00, 418.8, 150.0)"> </text><text xml:space="preserve" font-family="AvenirNext-Medium" font-size="29.0" fill="#838686" transform="matrix(1.00, 0.00, -0.00, -1.00, 426.0, 150.0)">p</text><text xml:space="preserve" font-family="AvenirNext-Medium" font-size="29.0" fill="#838686" transform="matrix(1.00, 0.00, -0.00, -1.00, 444.4, 150.0)">r</text><text xml:space="preserve" font-family="AvenirNext-Medium" font-size="29.0" fill="#838686" transform="matrix(1.00, 0.00, -0.00, -1.00, 454.4, 150.0)">e</text><text xml:space="preserve" font-family="AvenirNext-Medium" font-size="29.0" fill="#838686" transform="matrix(1.00, 0.00, -0.00, -1.00, 471.0, 150.0)">s</text><text xml:space="preserve" font-family="AvenirNext-Medium" font-size="29.0" fill="#838686" transform="matrix(1.00, 0.00, -0.00, -1.00, 483.9, 150.0)">e</text><text xml:space="preserve" font-family="AvenirNext-Medium" font-size="29.0" fill="#838686" transform="matrix(1.00, 0.00, -0.00, -1.00, 500.5, 150.0)">n</text><text xml:space="preserve" font-family="AvenirNext-Medium" font-size="29.0" fill="#838686" transform="matrix(1.00, 0.00, -0.00, -1.00, 517.4, 150.0)">t</text><text xml:space="preserve" font-family="AvenirNext-Medium" font-size="29.0" fill="#838686" transform="matrix(1.00, 0.00, -0.00, -1.00, 526.9, 150.0)"> </text><text xml:space="preserve" font-family="AvenirNext-Medium" font-size="29.0" fill="#838686" transform="matrix(1.00, 0.00, -0.00, -1.00, 534.2, 150.0)">i</text><text xml:space="preserve" font-family="AvenirNext-Medium" font-size="29.0" fill="#838686" transform="matrix(1.00, 0.00, -0.00, -1.00, 541.7, 150.0)">n</text><text xml:space="preserve" font-family="AvenirNext-Medium" font-size="29.0" fill="#838686" transform="matrix(1.00, 0.00, -0.00, -1.00, 558.6, 150.0)"> </text><text xml:space="preserve" font-family="AvenirNext-Medium" font-size="29.0" fill="#838686" transform="matrix(1.00, 0.00, -0.00, -1.00, 565.8, 150.0)">a</text><text xml:space="preserve" font-family="AvenirNext-Medium" font-size="29.0" fill="#838686" transform="matrix(1.00, 0.00, -0.00, -1.00, 581.5, 150.0)"> </text><text xml:space="preserve" font-family="AvenirNext-Medium" font-size="29.0" fill="#838686" transform="matrix(1.00, 0.00, -0.00, -1.00, 588.8, 150.0)">r</text><text xml:space="preserve" font-family="AvenirNext-Medium" font-size="29.0" fill="#838686" transform="matrix(1.00, 0.00, -0.00, -1.00, 598.8, 150.0)">e</text><text xml:space="preserve" font-family="AvenirNext-Medium" font-size="29.0" fill="#838686" transform="matrix(1.00, 0.00, -0.00, -1.00, 615.4, 150.0)">c</text><text xml:space="preserve" font-family="AvenirNext-Medium" font-size="29.0" fill="#838686" transform="matrix(1.00, 0.00, -0.00, -1.00, 629.7, 150.0)">e</text><text xml:space="preserve" font-family="AvenirNext-Medium" font-size="29.0" fill="#838686" transform="matrix(1.00, 0.00, -0.00, -1.00, 646.3, 150.0)">i</text><text xml:space="preserve" font-family="AvenirNext-Medium" font-size="29.0" fill="#838686" transform="matrix(1.00, 0.00, -0.00, -1.00, 653.8, 150.0)">v</text><text xml:space="preserve" font-family="AvenirNext-Medium" font-size="29.0" fill="#838686" transform="matrix(1.00, 0.00, -0.00, -1.00, 668.4, 150.0)">e</text><text xml:space="preserve" font-family="AvenirNext-Medium" font-size="29.0" fill="#838686" transform="matrix(1.00, 0.00, -0.00, -1.00, 685.1, 150.0)">d</text><text xml:space="preserve" font-family="AvenirNext-Medium" font-size="29.0" fill="#838686" transform="matrix(1.00, 0.00, -0.00, -1.00, 703.5, 150.0)"> </text><text xml:space="preserve" font-family="AvenirNext-Medium" font-size="29.0" fill="#838686" transform="matrix(1.00, 0.00, -0.00, -1.00, 710.7, 150.0)">r</text><text xml:space="preserve" font-family="AvenirNext-Medium" font-size="29.0" fill="#838686" transform="matrix(1.00, 0.00, -0.00, -1.00, 720.9, 150.0)">a</text><text xml:space="preserve" font-family="AvenirNext-Medium" font-size="29.0" fill="#838686" transform="matrix(1.00, 0.00, -0.00, -1.00, 736.6, 150.0)">d</text><text xml:space="preserve" font-family="AvenirNext-Medium" font-size="29.0" fill="#838686" transform="matrix(1.00, 0.00, -0.00, -1.00, 755.0, 150.0)">i</text><text xml:space="preserve" font-family="AvenirNext-Medium" font-size="29.0" fill="#838686" transform="matrix(1.00, 0.00, -0.00, -1.00, 762.5, 150.0)">o</text><text xml:space="preserve" font-family="AvenirNext-Medium" font-size="29.0" fill="#838686" transform="matrix(1.00, 0.00, -0.00, -1.00, 780.2, 150.0)"> </text><text xml:space="preserve" font-family="AvenirNext-Medium" font-size="29.0" fill="#838686" transform="matrix(1.00, 0.00, -0.00, -1.00, 787.4, 150.0)">s</text><text xml:space="preserve" font-family="AvenirNext-Medium" font-size="29.0" fill="#838686" transform="matrix(1.00, 0.00, -0.00, -1.00, 800.3, 150.0)">i</text><text xml:space="preserve" font-family="AvenirNext-Medium" font-size="29.0" fill="#838686" transform="matrix(1.00, 0.00, -0.00, -1.00, 807.8, 150.0)">g</text><text xml:space="preserve" font-family="AvenirNext-Medium" font-size="29.0" fill="#838686" transform="matrix(1.00, 0.00, -0.00, -1.00, 826.1, 150.0)">n</text><text xml:space="preserve" font-family="AvenirNext-Medium" font-size="29.0" fill="#838686" transform="matrix(1.00, 0.00, -0.00, -1.00, 843.0, 150.0)">a</text><text xml:space="preserve" font-family="AvenirNext-Medium" font-size="29.0" fill="#838686" transform="matrix(1.00, 0.00, -0.00, -1.00, 858.7, 150.0)">l</text><text xml:space="preserve" font-family="AvenirNext-Medium" font-size="29.0" fill="#838686" transform="matrix(1.00, 0.00, -0.00, -1.00, 866.3, 150.0)">.</text><text xml:space="preserve" font-family="AvenirNext-Medium" font-size="29.0" fill="#838686" transform="matrix(1.00, 0.00, -0.00, -1.00, 873.0, 150.0)"> </text><text xml:space="preserve" font-family="LucidaGrande" font-size="30.4" fill="#34A4DA" transform="matrix(1.00, 0.00, -0.00, -1.00, 35.1, 80.1)">▸</text><text xml:space="preserve" font-family="AvenirNext-Medium" font-size="29.0" fill="#838686" transform="matrix(1.00, 0.00, -0.00, -1.00, 70.0, 82.0)">E</text><text xml:space="preserve" font-family="AvenirNext-Medium" font-size="29.0" fill="#838686" transform="matrix(1.00, 0.00, -0.00, -1.00, 87.1, 82.0)">v</text><text xml:space="preserve" font-family="AvenirNext-Medium" font-size="29.0" fill="#838686" transform="matrix(1.00, 0.00, -0.00, -1.00, 101.7, 82.0)">e</text><text xml:space="preserve" font-family="AvenirNext-Medium" font-size="29.0" fill="#838686" transform="matrix(1.00, 0.00, -0.00, -1.00, 118.3, 82.0)">r</text><text xml:space="preserve" font-family="AvenirNext-Medium" font-size="29.0" fill="#838686" transform="matrix(1.00, 0.00, -0.00, -1.00, 128.8, 82.0)">y</text><text xml:space="preserve" font-family="AvenirNext-Medium" font-size="29.0" fill="#838686" transform="matrix(1.00, 0.00, -0.00, -1.00, 143.4, 82.0)"> </text><text xml:space="preserve" font-family="AvenirNext-Medium" font-size="29.0" fill="#838686" transform="matrix(1.00, 0.00, -0.00, -1.00, 150.7, 82.0)">b</text><text xml:space="preserve" font-family="AvenirNext-Medium" font-size="29.0" fill="#838686" transform="matrix(1.00, 0.00, -0.00, -1.00, 169.1, 82.0)">l</text><text xml:space="preserve" font-family="AvenirNext-Medium" font-size="29.0" fill="#838686" transform="matrix(1.00, 0.00, -0.00, -1.00, 176.7, 82.0)">u</text><text xml:space="preserve" font-family="AvenirNext-Medium" font-size="29.0" fill="#838686" transform="matrix(1.00, 0.00, -0.00, -1.00, 193.5, 82.0)">e</text><text xml:space="preserve" font-family="AvenirNext-Medium" font-size="29.0" fill="#838686" transform="matrix(1.00, 0.00, -0.00, -1.00, 210.2, 82.0)">t</text><text xml:space="preserve" font-family="AvenirNext-Medium" font-size="29.0" fill="#838686" transform="matrix(1.00, 0.00, -0.00, -1.00, 219.7, 82.0)">o</text><text xml:space="preserve" font-family="AvenirNext-Medium" font-size="29.0" fill="#838686" transform="matrix(1.00, 0.00, -0.00, -1.00, 237.4, 82.0)">o</text><text xml:space="preserve" font-family="AvenirNext-Medium" font-size="29.0" fill="#838686" transform="matrix(1.00, 0.00, -0.00, -1.00, 255.1, 82.0)">t</text><text xml:space="preserve" font-family="AvenirNext-Medium" font-size="29.0" fill="#838686" transform="matrix(1.00, 0.00, -0.00, -1.00, 264.6, 82.0)">h</text><text xml:space="preserve" font-family="AvenirNext-Medium" font-size="29.0" fill="#838686" transform="matrix(1.00, 0.00, -0.00, -1.00, 281.6, 82.0)"> </text><text xml:space="preserve" font-family="AvenirNext-Medium" font-size="29.0" fill="#838686" transform="matrix(1.00, 0.00, -0.00, -1.00, 288.8, 82.0)">d</text><text xml:space="preserve" font-family="AvenirNext-Medium" font-size="29.0" fill="#838686" transform="matrix(1.00, 0.00, -0.00, -1.00, 307.2, 82.0)">e</text><text xml:space="preserve" font-family="AvenirNext-Medium" font-size="29.0" fill="#838686" transform="matrix(1.00, 0.00, -0.00, -1.00, 323.8, 82.0)">v</text><text xml:space="preserve" font-family="AvenirNext-Medium" font-size="29.0" fill="#838686" transform="matrix(1.00, 0.00, -0.00, -1.00, 338.5, 82.0)">i</text><text xml:space="preserve" font-family="AvenirNext-Medium" font-size="29.0" fill="#838686" transform="matrix(1.00, 0.00, -0.00, -1.00, 346.0, 82.0)">c</text><text xml:space="preserve" font-family="AvenirNext-Medium" font-size="29.0" fill="#838686" transform="matrix(1.00, 0.00, -0.00, -1.00, 360.3, 82.0)">e</text><text xml:space="preserve" font-family="AvenirNext-Medium" font-size="29.0" fill="#838686" transform="matrix(1.00, 0.00, -0.00, -1.00, 376.9, 82.0)"> </text><text xml:space="preserve" font-family="AvenirNext-Medium" font-size="29.0" fill="#838686" transform="matrix(1.00, 0.00, -0.00, -1.00, 384.2, 82.0)">h</text><text xml:space="preserve" font-family="AvenirNext-Medium" font-size="29.0" fill="#838686" transform="matrix(1.00, 0.00, -0.00, -1.00, 401.1, 82.0)">a</text><text xml:space="preserve" font-family="AvenirNext-Medium" font-size="29.0" fill="#838686" transform="matrix(1.00, 0.00, -0.00, -1.00, 416.8, 82.0)">s</text><text xml:space="preserve" font-family="AvenirNext-Medium" font-size="29.0" fill="#838686" transform="matrix(1.00, 0.00, -0.00, -1.00, 429.7, 82.0)"> </text><text xml:space="preserve" font-family="AvenirNext-Medium" font-size="29.0" fill="#838686" transform="matrix(1.00, 0.00, -0.00, -1.00, 436.9, 82.0)">i</text><text xml:space="preserve" font-family="AvenirNext-Medium" font-size="29.0" fill="#838686" transform="matrix(1.00, 0.00, -0.00, -1.00, 444.4, 82.0)">t</text><text xml:space="preserve" font-family="AvenirNext-Medium" font-size="29.0" fill="#838686" transform="matrix(1.00, 0.00, -0.00, -1.00, 454.0, 82.0)">s</text><text xml:space="preserve" font-family="AvenirNext-Medium" font-size="29.0" fill="#838686" transform="matrix(1.00, 0.00, -0.00, -1.00, 466.9, 82.0)"> </text><text xml:space="preserve" font-family="AvenirNext-Medium" font-size="29.0" fill="#838686" transform="matrix(1.00, 0.00, -0.00, -1.00, 474.1, 82.0)">R</text><text xml:space="preserve" font-family="AvenirNext-Medium" font-size="29.0" fill="#838686" transform="matrix(1.00, 0.00, -0.00, -1.00, 491.9, 82.0)">S</text><text xml:space="preserve" font-family="AvenirNext-Medium" font-size="29.0" fill="#838686" transform="matrix(1.00, 0.00, -0.00, -1.00, 508.4, 82.0)">S</text><text xml:space="preserve" font-family="AvenirNext-Medium" font-size="29.0" fill="#838686" transform="matrix(1.00, 0.00, -0.00, -1.00, 524.9, 82.0)">I</text><text xml:space="preserve" font-family="AvenirNext-Medium" font-size="29.0" fill="#838686" transform="matrix(1.00, 0.00, -0.00, -1.00, 532.8, 82.0)"> </text><text xml:space="preserve" font-family="AvenirNext-Medium" font-size="29.0" fill="#838686" transform="matrix(1.00, 0.00, -0.00, -1.00, 540.0, 82.0)">v</text><text xml:space="preserve" font-family="AvenirNext-Medium" font-size="29.0" fill="#838686" transform="matrix(1.00, 0.00, -0.00, -1.00, 554.6, 82.0)">a</text><text xml:space="preserve" font-family="AvenirNext-Medium" font-size="29.0" fill="#838686" transform="matrix(1.00, 0.00, -0.00, -1.00, 570.4, 82.0)">l</text><text xml:space="preserve" font-family="AvenirNext-Medium" font-size="29.0" fill="#838686" transform="matrix(1.00, 0.00, -0.00, -1.00, 577.9, 82.0)">u</text><text xml:space="preserve" font-family="AvenirNext-Medium" font-size="29.0" fill="#838686" transform="matrix(1.00, 0.00, -0.00, -1.00, 594.8, 82.0)">e</text><text xml:space="preserve" font-family="AvenirNext-Medium" font-size="29.0" fill="#838686" transform="matrix(1.00, 0.00, -0.00, -1.00, 611.4, 82.0)">,</text><text xml:space="preserve" font-family="AvenirNext-Medium" font-size="29.0" fill="#838686" transform="matrix(1.00, 0.00, -0.00, -1.00, 618.1, 82.0)"> </text><text xml:space="preserve" font-family="AvenirNext-Medium" font-size="29.0" fill="#838686" transform="matrix(1.00, 0.00, -0.00, -1.00, 625.3, 82.0)">t</text><text xml:space="preserve" font-family="AvenirNext-Medium" font-size="29.0" fill="#838686" transform="matrix(1.00, 0.00, -0.00, -1.00, 634.9, 82.0)">h</text><text xml:space="preserve" font-family="AvenirNext-Medium" font-size="29.0" fill="#838686" transform="matrix(1.00, 0.00, -0.00, -1.00, 651.8, 82.0)">e</text><text xml:space="preserve" font-family="AvenirNext-Medium" font-size="29.0" fill="#838686" transform="matrix(1.00, 0.00, -0.00, -1.00, 668.4, 82.0)">r</text><text xml:space="preserve" font-family="AvenirNext-Medium" font-size="29.0" fill="#838686" transform="matrix(1.00, 0.00, -0.00, -1.00, 678.4, 82.0)">e</text><text xml:space="preserve" font-family="AvenirNext-Medium" font-size="29.0" fill="#838686" transform="matrix(1.00, 0.00, -0.00, -1.00, 695.0, 82.0)">b</text><text xml:space="preserve" font-family="AvenirNext-Medium" font-size="29.0" fill="#838686" transform="matrix(1.00, 0.00, -0.00, -1.00, 713.5, 82.0)">y</text><text xml:space="preserve" font-family="AvenirNext-Medium" font-size="29.0" fill="#838686" transform="matrix(1.00, 0.00, -0.00, -1.00, 728.1, 82.0)"> </text><text xml:space="preserve" font-family="AvenirNext-Medium" font-size="29.0" fill="#838686" transform="matrix(1.00, 0.00, -0.00, -1.00, 735.3, 82.0)">e</text><text xml:space="preserve" font-family="AvenirNext-Medium" font-size="29.0" fill="#838686" transform="matrix(1.00, 0.00, -0.00, -1.00, 751.9, 82.0)">n</text><text xml:space="preserve" font-family="AvenirNext-Medium" font-size="29.0" fill="#838686" transform="matrix(1.00, 0.00, -0.00, -1.00, 768.8, 82.0)">a</text><text xml:space="preserve" font-family="AvenirNext-Medium" font-size="29.0" fill="#838686" transform="matrix(1.00, 0.00, -0.00, -1.00, 784.5, 82.0)">b</text><text xml:space="preserve" font-family="AvenirNext-Medium" font-size="29.0" fill="#838686" transform="matrix(1.00, 0.00, -0.00, -1.00, 803.0, 82.0)">l</text><text xml:space="preserve" font-family="AvenirNext-Medium" font-size="29.0" fill="#838686" transform="matrix(1.00, 0.00, -0.00, -1.00, 810.5, 82.0)">i</text><text xml:space="preserve" font-family="AvenirNext-Medium" font-size="29.0" fill="#838686" transform="matrix(1.00, 0.00, -0.00, -1.00, 818.0, 82.0)">n</text><text xml:space="preserve" font-family="AvenirNext-Medium" font-size="29.0" fill="#838686" transform="matrix(1.00, 0.00, -0.00, -1.00, 834.9, 82.0)">g</text><text xml:space="preserve" font-family="AvenirNext-Medium" font-size="29.0" fill="#838686" transform="matrix(1.00, 0.00, -0.00, -1.00, 853.2, 82.0)"> </text><text xml:space="preserve" font-family="AvenirNext-Medium" font-size="29.0" fill="#838686" transform="matrix(1.00, 0.00, -0.00, -1.00, 70.0, 42.0)">d</text><text xml:space="preserve" font-family="AvenirNext-Medium" font-size="29.0" fill="#838686" transform="matrix(1.00, 0.00, -0.00, -1.00, 88.4, 42.0)">e</text><text xml:space="preserve" font-family="AvenirNext-Medium" font-size="29.0" fill="#838686" transform="matrix(1.00, 0.00, -0.00, -1.00, 105.0, 42.0)">v</text><text xml:space="preserve" font-family="AvenirNext-Medium" font-size="29.0" fill="#838686" transform="matrix(1.00, 0.00, -0.00, -1.00, 119.6, 42.0)">e</text><text xml:space="preserve" font-family="AvenirNext-Medium" font-size="29.0" fill="#838686" transform="matrix(1.00, 0.00, -0.00, -1.00, 136.3, 42.0)">l</text><text xml:space="preserve" font-family="AvenirNext-Medium" font-size="29.0" fill="#838686" transform="matrix(1.00, 0.00, -0.00, -1.00, 143.8, 42.0)">o</text><text xml:space="preserve" font-family="AvenirNext-Medium" font-size="29.0" fill="#838686" transform="matrix(1.00, 0.00, -0.00, -1.00, 161.5, 42.0)">p</text><text xml:space="preserve" font-family="AvenirNext-Medium" font-size="29.0" fill="#838686" transform="matrix(1.00, 0.00, -0.00, -1.00, 179.9, 42.0)">e</text><text xml:space="preserve" font-family="AvenirNext-Medium" font-size="29.0" fill="#838686" transform="matrix(1.00, 0.00, -0.00, -1.00, 196.5, 42.0)">r</text><text xml:space="preserve" font-family="AvenirNext-Medium" font-size="29.0" fill="#838686" transform="matrix(1.00, 0.00, -0.00, -1.00, 207.0, 42.0)">s</text><text xml:space="preserve" font-family="AvenirNext-Medium" font-size="29.0" fill="#838686" transform="matrix(1.00, 0.00, -0.00, -1.00, 219.9, 42.0)"> </text><text xml:space="preserve" font-family="AvenirNext-Medium" font-size="29.0" fill="#838686" transform="matrix(1.00, 0.00, -0.00, -1.00, 227.1, 42.0)">t</text><text xml:space="preserve" font-family="AvenirNext-Medium" font-size="29.0" fill="#838686" transform="matrix(1.00, 0.00, -0.00, -1.00, 236.7, 42.0)">o</text><text xml:space="preserve" font-family="AvenirNext-Medium" font-size="29.0" fill="#838686" transform="matrix(1.00, 0.00, -0.00, -1.00, 254.4, 42.0)"> </text><text xml:space="preserve" font-family="AvenirNext-Medium" font-size="29.0" fill="#838686" transform="matrix(1.00, 0.00, -0.00, -1.00, 261.6, 42.0)">a</text><text xml:space="preserve" font-family="AvenirNext-Medium" font-size="29.0" fill="#838686" transform="matrix(1.00, 0.00, -0.00, -1.00, 277.3, 42.0)">p</text><text xml:space="preserve" font-family="AvenirNext-Medium" font-size="29.0" fill="#838686" transform="matrix(1.00, 0.00, -0.00, -1.00, 295.7, 42.0)">p</text><text xml:space="preserve" font-family="AvenirNext-Medium" font-size="29.0" fill="#838686" transform="matrix(1.00, 0.00, -0.00, -1.00, 314.1, 42.0)">r</text><text xml:space="preserve" font-family="AvenirNext-Medium" font-size="29.0" fill="#838686" transform="matrix(1.00, 0.00, -0.00, -1.00, 324.1, 42.0)">o</text><text xml:space="preserve" font-family="AvenirNext-Medium" font-size="29.0" fill="#838686" transform="matrix(1.00, 0.00, -0.00, -1.00, 341.5, 42.0)">x</text><text xml:space="preserve" font-family="AvenirNext-Medium" font-size="29.0" fill="#838686" transform="matrix(1.00, 0.00, -0.00, -1.00, 356.3, 42.0)">i</text><text xml:space="preserve" font-family="AvenirNext-Medium" font-size="29.0" fill="#838686" transform="matrix(1.00, 0.00, -0.00, -1.00, 363.8, 42.0)">m</text><text xml:space="preserve" font-family="AvenirNext-Medium" font-size="29.0" fill="#838686" transform="matrix(1.00, 0.00, -0.00, -1.00, 389.5, 42.0)">a</text><text xml:space="preserve" font-family="AvenirNext-Medium" font-size="29.0" fill="#838686" transform="matrix(1.00, 0.00, -0.00, -1.00, 405.0, 42.0)">t</text><text xml:space="preserve" font-family="AvenirNext-Medium" font-size="29.0" fill="#838686" transform="matrix(1.00, 0.00, -0.00, -1.00, 414.5, 42.0)">e</text><text xml:space="preserve" font-family="AvenirNext-Medium" font-size="29.0" fill="#838686" transform="matrix(1.00, 0.00, -0.00, -1.00, 431.1, 42.0)"> </text><text xml:space="preserve" font-family="AvenirNext-Medium" font-size="29.0" fill="#838686" transform="matrix(1.00, 0.00, -0.00, -1.00, 438.4, 42.0)">t</text><text xml:space="preserve" font-family="AvenirNext-Medium" font-size="29.0" fill="#838686" transform="matrix(1.00, 0.00, -0.00, -1.00, 447.9, 42.0)">h</text><text xml:space="preserve" font-family="AvenirNext-Medium" font-size="29.0" fill="#838686" transform="matrix(1.00, 0.00, -0.00, -1.00, 464.8, 42.0)">e</text><text xml:space="preserve" font-family="AvenirNext-Medium" font-size="29.0" fill="#838686" transform="matrix(1.00, 0.00, -0.00, -1.00, 481.5, 42.0)"> </text><text xml:space="preserve" font-family="AvenirNext-Medium" font-size="29.0" fill="#838686" transform="matrix(1.00, 0.00, -0.00, -1.00, 488.7, 42.0)">p</text><text xml:space="preserve" font-family="AvenirNext-Medium" font-size="29.0" fill="#838686" transform="matrix(1.00, 0.00, -0.00, -1.00, 507.1, 42.0)">r</text><text xml:space="preserve" font-family="AvenirNext-Medium" font-size="29.0" fill="#838686" transform="matrix(1.00, 0.00, -0.00, -1.00, 517.1, 42.0)">o</text><text xml:space="preserve" font-family="AvenirNext-Medium" font-size="29.0" fill="#838686" transform="matrix(1.00, 0.00, -0.00, -1.00, 534.5, 42.0)">x</text><text xml:space="preserve" font-family="AvenirNext-Medium" font-size="29.0" fill="#838686" transform="matrix(1.00, 0.00, -0.00, -1.00, 549.3, 42.0)">i</text><text xml:space="preserve" font-family="AvenirNext-Medium" font-size="29.0" fill="#838686" transform="matrix(1.00, 0.00, -0.00, -1.00, 556.8, 42.0)">m</text><text xml:space="preserve" font-family="AvenirNext-Medium" font-size="29.0" fill="#838686" transform="matrix(1.00, 0.00, -0.00, -1.00, 582.5, 42.0)">i</text><text xml:space="preserve" font-family="AvenirNext-Medium" font-size="29.0" fill="#838686" transform="matrix(1.00, 0.00, -0.00, -1.00, 590.0, 42.0)">t</text><text xml:space="preserve" font-family="AvenirNext-Medium" font-size="29.0" fill="#838686" transform="matrix(1.00, 0.00, -0.00, -1.00, 599.6, 42.0)">y</text><text xml:space="preserve" font-family="AvenirNext-Medium" font-size="29.0" fill="#838686" transform="matrix(1.00, 0.00, -0.00, -1.00, 614.2, 42.0)"> </text><text xml:space="preserve" font-family="AvenirNext-Medium" font-size="29.0" fill="#838686" transform="matrix(1.00, 0.00, -0.00, -1.00, 621.4, 42.0)">a</text><text xml:space="preserve" font-family="AvenirNext-Medium" font-size="29.0" fill="#838686" transform="matrix(1.00, 0.00, -0.00, -1.00, 637.2, 42.0)">n</text><text xml:space="preserve" font-family="AvenirNext-Medium" font-size="29.0" fill="#838686" transform="matrix(1.00, 0.00, -0.00, -1.00, 654.0, 42.0)">d</text><text xml:space="preserve" font-family="AvenirNext-Medium" font-size="29.0" fill="#838686" transform="matrix(1.00, 0.00, -0.00, -1.00, 672.4, 42.0)"> </text><text xml:space="preserve" font-family="AvenirNext-Medium" font-size="29.0" fill="#838686" transform="matrix(1.00, 0.00, -0.00, -1.00, 679.7, 42.0)">d</text><text xml:space="preserve" font-family="AvenirNext-Medium" font-size="29.0" fill="#838686" transform="matrix(1.00, 0.00, -0.00, -1.00, 698.1, 42.0)">i</text><text xml:space="preserve" font-family="AvenirNext-Medium" font-size="29.0" fill="#838686" transform="matrix(1.00, 0.00, -0.00, -1.00, 705.6, 42.0)">s</text><text xml:space="preserve" font-family="AvenirNext-Medium" font-size="29.0" fill="#838686" transform="matrix(1.00, 0.00, -0.00, -1.00, 718.5, 42.0)">t</text><text xml:space="preserve" font-family="AvenirNext-Medium" font-size="29.0" fill="#838686" transform="matrix(1.00, 0.00, -0.00, -1.00, 728.0, 42.0)">a</text><text xml:space="preserve" font-family="AvenirNext-Medium" font-size="29.0" fill="#838686" transform="matrix(1.00, 0.00, -0.00, -1.00, 743.8, 42.0)">n</text><text xml:space="preserve" font-family="AvenirNext-Medium" font-size="29.0" fill="#838686" transform="matrix(1.00, 0.00, -0.00, -1.00, 760.6, 42.0)">c</text><text xml:space="preserve" font-family="AvenirNext-Medium" font-size="29.0" fill="#838686" transform="matrix(1.00, 0.00, -0.00, -1.00, 775.0, 42.0)">e</text><text xml:space="preserve" font-family="AvenirNext-Medium" font-size="29.0" fill="#838686" transform="matrix(1.00, 0.00, -0.00, -1.00, 791.6, 42.0)"> </text><text xml:space="preserve" font-family="AvenirNext-Medium" font-size="29.0" fill="#838686" transform="matrix(1.00, 0.00, -0.00, -1.00, 798.8, 42.0)">b</text><text xml:space="preserve" font-family="AvenirNext-Medium" font-size="29.0" fill="#838686" transform="matrix(1.00, 0.00, -0.00, -1.00, 817.3, 42.0)">e</text><text xml:space="preserve" font-family="AvenirNext-Medium" font-size="29.0" fill="#838686" transform="matrix(1.00, 0.00, -0.00, -1.00, 833.9, 42.0)">t</text><text xml:space="preserve" font-family="AvenirNext-Medium" font-size="29.0" fill="#838686" transform="matrix(1.00, 0.00, -0.00, -1.00, 843.4, 42.0)">w</text><text xml:space="preserve" font-family="AvenirNext-Medium" font-size="29.0" fill="#838686" transform="matrix(1.00, 0.00, -0.00, -1.00, 865.8, 42.0)">e</text><text xml:space="preserve" font-family="AvenirNext-Medium" font-size="29.0" fill="#838686" transform="matrix(1.00, 0.00, -0.00, -1.00, 882.5, 42.0)">e</text><text xml:space="preserve" font-family="AvenirNext-Medium" font-size="29.0" fill="#838686" transform="matrix(1.00, 0.00, -0.00, -1.00, 899.1, 42.0)">n</text><text xml:space="preserve" font-family="AvenirNext-Medium" font-size="29.0" fill="#838686" transform="matrix(1.00, 0.00, -0.00, -1.00, 916.0, 42.0)"> </text><text xml:space="preserve" font-family="AvenirNext-Medium" font-size="29.0" fill="#838686" transform="matrix(1.00, 0.00, -0.00, -1.00, 70.0, 2.0)">t</text><text xml:space="preserve" font-family="AvenirNext-Medium" font-size="29.0" fill="#838686" transform="matrix(1.00, 0.00, -0.00, -1.00, 79.5, 2.0)">h</text><text xml:space="preserve" font-family="AvenirNext-Medium" font-size="29.0" fill="#838686" transform="matrix(1.00, 0.00, -0.00, -1.00, 96.5, 2.0)">e</text><text xml:space="preserve" font-family="AvenirNext-Medium" font-size="29.0" fill="#838686" transform="matrix(1.00, 0.00, -0.00, -1.00, 113.1, 2.0)"> </text><text xml:space="preserve" font-family="AvenirNext-Medium" font-size="29.0" fill="#838686" transform="matrix(1.00, 0.00, -0.00, -1.00, 120.3, 2.0)">c</text><text xml:space="preserve" font-family="AvenirNext-Medium" font-size="29.0" fill="#838686" transform="matrix(1.00, 0.00, -0.00, -1.00, 134.7, 2.0)">e</text><text xml:space="preserve" font-family="AvenirNext-Medium" font-size="29.0" fill="#838686" transform="matrix(1.00, 0.00, -0.00, -1.00, 151.3, 2.0)">l</text><text xml:space="preserve" font-family="AvenirNext-Medium" font-size="29.0" fill="#838686" transform="matrix(1.00, 0.00, -0.00, -1.00, 158.8, 2.0)">l</text><text xml:space="preserve" font-family="AvenirNext-Medium" font-size="29.0" fill="#838686" transform="matrix(1.00, 0.00, -0.00, -1.00, 166.4, 2.0)">u</text><text xml:space="preserve" font-family="AvenirNext-Medium" font-size="29.0" fill="#838686" transform="matrix(1.00, 0.00, -0.00, -1.00, 183.2, 2.0)">l</text><text xml:space="preserve" font-family="AvenirNext-Medium" font-size="29.0" fill="#838686" transform="matrix(1.00, 0.00, -0.00, -1.00, 190.8, 2.0)">a</text><text xml:space="preserve" font-family="AvenirNext-Medium" font-size="29.0" fill="#838686" transform="matrix(1.00, 0.00, -0.00, -1.00, 206.5, 2.0)">r</text><text xml:space="preserve" font-family="AvenirNext-Medium" font-size="29.0" fill="#838686" transform="matrix(1.00, 0.00, -0.00, -1.00, 217.0, 2.0)"> </text><text xml:space="preserve" font-family="AvenirNext-Medium" font-size="29.0" fill="#838686" transform="matrix(1.00, 0.00, -0.00, -1.00, 224.3, 2.0)">i</text><text xml:space="preserve" font-family="AvenirNext-Medium" font-size="29.0" fill="#838686" transform="matrix(1.00, 0.00, -0.00, -1.00, 231.8, 2.0)">t</text><text xml:space="preserve" font-family="AvenirNext-Medium" font-size="29.0" fill="#838686" transform="matrix(1.00, 0.00, -0.00, -1.00, 241.3, 2.0)">e</text><text xml:space="preserve" font-family="AvenirNext-Medium" font-size="29.0" fill="#838686" transform="matrix(1.00, 0.00, -0.00, -1.00, 257.9, 2.0)">m</text><text xml:space="preserve" font-family="AvenirNext-Medium" font-size="29.0" fill="#838686" transform="matrix(1.00, 0.00, -0.00, -1.00, 283.6, 2.0)"> </text><text xml:space="preserve" font-family="AvenirNext-Medium" font-size="29.0" fill="#838686" transform="matrix(1.00, 0.00, -0.00, -1.00, 290.9, 2.0)">a</text><text xml:space="preserve" font-family="AvenirNext-Medium" font-size="29.0" fill="#838686" transform="matrix(1.00, 0.00, -0.00, -1.00, 306.6, 2.0)">n</text><text xml:space="preserve" font-family="AvenirNext-Medium" font-size="29.0" fill="#838686" transform="matrix(1.00, 0.00, -0.00, -1.00, 323.5, 2.0)">d</text><text xml:space="preserve" font-family="AvenirNext-Medium" font-size="29.0" fill="#838686" transform="matrix(1.00, 0.00, -0.00, -1.00, 341.9, 2.0)"> </text><text xml:space="preserve" font-family="AvenirNext-Medium" font-size="29.0" fill="#838686" transform="matrix(1.00, 0.00, -0.00, -1.00, 349.2, 2.0)">B</text><text xml:space="preserve" font-family="AvenirNext-Medium" font-size="29.0" fill="#838686" transform="matrix(1.00, 0.00, -0.00, -1.00, 367.8, 2.0)">L</text><text xml:space="preserve" font-family="AvenirNext-Medium" font-size="29.0" fill="#838686" transform="matrix(1.00, 0.00, -0.00, -1.00, 382.6, 2.0)">E</text><text xml:space="preserve" font-family="AvenirNext-Medium" font-size="29.0" fill="#838686" transform="matrix(1.00, 0.00, -0.00, -1.00, 400.0, 2.0)"> </text><text xml:space="preserve" font-family="AvenirNext-Medium" font-size="29.0" fill="#838686" transform="matrix(1.00, 0.00, -0.00, -1.00, 407.3, 2.0)">d</text><text xml:space="preserve" font-family="AvenirNext-Medium" font-size="29.0" fill="#838686" transform="matrix(1.00, 0.00, -0.00, -1.00, 425.7, 2.0)">e</text><text xml:space="preserve" font-family="AvenirNext-Medium" font-size="29.0" fill="#838686" transform="matrix(1.00, 0.00, -0.00, -1.00, 442.3, 2.0)">v</text><text xml:space="preserve" font-family="AvenirNext-Medium" font-size="29.0" fill="#838686" transform="matrix(1.00, 0.00, -0.00, -1.00, 456.9, 2.0)">i</text><text xml:space="preserve" font-family="AvenirNext-Medium" font-size="29.0" fill="#838686" transform="matrix(1.00, 0.00, -0.00, -1.00, 464.4, 2.0)">c</text><text xml:space="preserve" font-family="AvenirNext-Medium" font-size="29.0" fill="#838686" transform="matrix(1.00, 0.00, -0.00, -1.00, 478.8, 2.0)">e</text><text xml:space="preserve" font-family="AvenirNext-Medium" font-size="29.0" fill="#838686" transform="matrix(1.00, 0.00, -0.00, -1.00, 495.4, 2.0)">.</text></g></svg>