<?xml version="1.0" encoding="UTF-8" standalone="no"?><svg xmlns="http://www.w3.org/2000/svg" xmlns:xlink="http://www.w3.org/1999/xlink" clip-rule="evenodd" stroke-miterlimit="4.00" viewBox="0 0 529 85"><desc>SVG generated by Keynote</desc><defs></defs><g transform="matrix(1.00, 0.00, -0.00, -1.00, 0.0, 85.0)"><text xml:space="preserve" font-family="LucidaGrande" font-size="22.1" fill="#34A4DA" transform="matrix(1.00, 0.00, -0.00, -1.00, 0.1, 62.8)">▸</text><text xml:space="preserve" font-family="AvenirNext-Medium" font-size="21.0" fill="#838686" transform="matrix(1.00, 0.00, -0.00, -1.00, 35.0, 64.0)">P</text><text xml:space="preserve" font-family="AvenirNext-Medium" font-size="21.0" fill="#838686" transform="matrix(1.00, 0.00, -0.00, -1.00, 46.5, 64.0)">r</text><text xml:space="preserve" font-family="AvenirNext-Medium" font-size="21.0" fill="#838686" transform="matrix(1.00, 0.00, -0.00, -1.00, 53.8, 64.0)">o</text><text xml:space="preserve" font-family="AvenirNext-Medium" font-size="21.0" fill="#838686" transform="matrix(1.00, 0.00, -0.00, -1.00, 66.6, 64.0)">d</text><text xml:space="preserve" font-family="AvenirNext-Medium" font-size="21.0" fill="#838686" transform="matrix(1.00, 0.00, -0.00, -1.00, 79.9, 64.0)">u</text><text xml:space="preserve" font-family="AvenirNext-Medium" font-size="21.0" fill="#838686" transform="matrix(1.00, 0.00, -0.00, -1.00, 92.1, 64.0)">c</text><text xml:space="preserve" font-family="AvenirNext-Medium" font-size="21.0" fill="#838686" transform="matrix(1.00, 0.00, -0.00, -1.00, 102.5, 64.0)">t</text><text xml:space="preserve" font-family="AvenirNext-Medium" font-size="21.0" fill="#838686" transform="matrix(1.00, 0.00, -0.00, -1.00, 109.4, 64.0)">i</text><text xml:space="preserve" font-family="AvenirNext-Medium" font-size="21.0" fill="#838686" transform="matrix(1.00, 0.00, -0.00, -1.00, 114.8, 64.0)">o</text><text xml:space="preserve" font-family="AvenirNext-Medium" font-size="21.0" fill="#838686" transform="matrix(1.00, 0.00, -0.00, -1.00, 127.7, 64.0)">n</text><text xml:space="preserve" font-family="AvenirNext-Medium" font-size="21.0" fill="#838686" transform="matrix(1.00, 0.00, -0.00, -1.00, 139.9, 64.0)"> </text><text xml:space="preserve" font-family="AvenirNext-Medium" font-size="21.0" fill="#838686" transform="matrix(1.00, 0.00, -0.00, -1.00, 145.1, 64.0)">C</text><text xml:space="preserve" font-family="AvenirNext-Medium" font-size="21.0" fill="#838686" transform="matrix(1.00, 0.00, -0.00, -1.00, 159.7, 64.0)">o</text><text xml:space="preserve" font-family="AvenirNext-Medium" font-size="21.0" fill="#838686" transform="matrix(1.00, 0.00, -0.00, -1.00, 172.6, 64.0)">m</text><text xml:space="preserve" font-family="AvenirNext-Medium" font-size="21.0" fill="#838686" transform="matrix(1.00, 0.00, -0.00, -1.00, 191.2, 64.0)">p</text><text xml:space="preserve" font-family="AvenirNext-Medium" font-size="21.0" fill="#838686" transform="matrix(1.00, 0.00, -0.00, -1.00, 204.5, 64.0)">a</text><text xml:space="preserve" font-family="AvenirNext-Medium" font-size="21.0" fill="#838686" transform="matrix(1.00, 0.00, -0.00, -1.00, 215.9, 64.0)">n</text><text xml:space="preserve" font-family="AvenirNext-Medium" font-size="21.0" fill="#838686" transform="matrix(1.00, 0.00, -0.00, -1.00, 228.1, 64.0)">y</text><text xml:space="preserve" font-family="AvenirNext-Medium" font-size="21.0" fill="#838686" transform="matrix(1.00, 0.00, -0.00, -1.00, 238.7, 64.0)">:</text><text xml:space="preserve" font-family="AvenirNext-Medium" font-size="21.0" fill="#838686" transform="matrix(1.00, 0.00, -0.00, -1.00, 245.0, 64.0)"> </text><text xml:space="preserve" font-family="AvenirNext-Medium" font-size="21.0" fill="#838686" transform="matrix(1.00, 0.00, -0.00, -1.00, 249.7, 64.0)">T</text><text xml:space="preserve" font-family="AvenirNext-Medium" font-size="21.0" fill="#838686" transform="matrix(1.00, 0.00, -0.00, -1.00, 259.7, 64.0)">e</text><text xml:space="preserve" font-family="AvenirNext-Medium" font-size="21.0" fill="#838686" transform="matrix(1.00, 0.00, -0.00, -1.00, 271.5, 64.0)">x</text><text xml:space="preserve" font-family="AvenirNext-Medium" font-size="21.0" fill="#838686" transform="matrix(1.00, 0.00, -0.00, -1.00, 282.2, 64.0)">a</text><text xml:space="preserve" font-family="AvenirNext-Medium" font-size="21.0" fill="#838686" transform="matrix(1.00, 0.00, -0.00, -1.00, 293.6, 64.0)">s</text><text xml:space="preserve" font-family="AvenirNext-Medium" font-size="21.0" fill="#838686" transform="matrix(1.00, 0.00, -0.00, -1.00, 302.9, 64.0)"> </text><text xml:space="preserve" font-family="AvenirNext-Medium" font-size="21.0" fill="#838686" transform="matrix(1.00, 0.00, -0.00, -1.00, 308.2, 64.0)">I</text><text xml:space="preserve" font-family="AvenirNext-Medium" font-size="21.0" fill="#838686" transform="matrix(1.00, 0.00, -0.00, -1.00, 313.9, 64.0)">n</text><text xml:space="preserve" font-family="AvenirNext-Medium" font-size="21.0" fill="#838686" transform="matrix(1.00, 0.00, -0.00, -1.00, 326.1, 64.0)">s</text><text xml:space="preserve" font-family="AvenirNext-Medium" font-size="21.0" fill="#838686" transform="matrix(1.00, 0.00, -0.00, -1.00, 335.4, 64.0)">t</text><text xml:space="preserve" font-family="AvenirNext-Medium" font-size="21.0" fill="#838686" transform="matrix(1.00, 0.00, -0.00, -1.00, 342.3, 64.0)">r</text><text xml:space="preserve" font-family="AvenirNext-Medium" font-size="21.0" fill="#838686" transform="matrix(1.00, 0.00, -0.00, -1.00, 349.9, 64.0)">u</text><text xml:space="preserve" font-family="AvenirNext-Medium" font-size="21.0" fill="#838686" transform="matrix(1.00, 0.00, -0.00, -1.00, 362.1, 64.0)">m</text><text xml:space="preserve" font-family="AvenirNext-Medium" font-size="21.0" fill="#838686" transform="matrix(1.00, 0.00, -0.00, -1.00, 380.8, 64.0)">e</text><text xml:space="preserve" font-family="AvenirNext-Medium" font-size="21.0" fill="#838686" transform="matrix(1.00, 0.00, -0.00, -1.00, 392.8, 64.0)">n</text><text xml:space="preserve" font-family="AvenirNext-Medium" font-size="21.0" fill="#838686" transform="matrix(1.00, 0.00, -0.00, -1.00, 405.0, 64.0)">t</text><text xml:space="preserve" font-family="AvenirNext-Medium" font-size="21.0" fill="#838686" transform="matrix(1.00, 0.00, -0.00, -1.00, 411.9, 64.0)"> </text><text xml:space="preserve" font-family="LucidaGrande" font-size="22.1" fill="#34A4DA" transform="matrix(1.00, 0.00, -0.00, -1.00, 0.1, 5.8)">▸</text><text xml:space="preserve" font-family="AvenirNext-Medium" font-size="21.0" fill="#838686" transform="matrix(1.00, 0.00, -0.00, -1.00, 35.0, 7.0)">C</text><text xml:space="preserve" font-family="AvenirNext-Medium" font-size="21.0" fill="#838686" transform="matrix(1.00, 0.00, -0.00, -1.00, 49.6, 7.0)">o</text><text xml:space="preserve" font-family="AvenirNext-Medium" font-size="21.0" fill="#838686" transform="matrix(1.00, 0.00, -0.00, -1.00, 62.4, 7.0)">s</text><text xml:space="preserve" font-family="AvenirNext-Medium" font-size="21.0" fill="#838686" transform="matrix(1.00, 0.00, -0.00, -1.00, 71.8, 7.0)">t</text><text xml:space="preserve" font-family="AvenirNext-Medium" font-size="21.0" fill="#838686" transform="matrix(1.00, 0.00, -0.00, -1.00, 78.7, 7.0)"> </text><text xml:space="preserve" font-family="AvenirNext-Medium" font-size="21.0" fill="#838686" transform="matrix(1.00, 0.00, -0.00, -1.00, 83.9, 7.0)">o</text><text xml:space="preserve" font-family="AvenirNext-Medium" font-size="21.0" fill="#838686" transform="matrix(1.00, 0.00, -0.00, -1.00, 96.7, 7.0)">f</text><text xml:space="preserve" font-family="AvenirNext-Medium" font-size="21.0" fill="#838686" transform="matrix(1.00, 0.00, -0.00, -1.00, 103.7, 7.0)"> </text><text xml:space="preserve" font-family="AvenirNext-Medium" font-size="21.0" fill="#838686" transform="matrix(1.00, 0.00, -0.00, -1.00, 109.0, 7.0)">C</text><text xml:space="preserve" font-family="AvenirNext-Medium" font-size="21.0" fill="#838686" transform="matrix(1.00, 0.00, -0.00, -1.00, 123.6, 7.0)">C</text><text xml:space="preserve" font-family="AvenirNext-Medium" font-size="21.0" fill="#838686" transform="matrix(1.00, 0.00, -0.00, -1.00, 138.5, 7.0)"> </text><text xml:space="preserve" font-family="AvenirNext-Medium" font-size="21.0" fill="#838686" transform="matrix(1.00, 0.00, -0.00, -1.00, 143.7, 7.0)">2</text><text xml:space="preserve" font-family="AvenirNext-Medium" font-size="21.0" fill="#838686" transform="matrix(1.00, 0.00, -0.00, -1.00, 156.2, 7.0)">6</text><text xml:space="preserve" font-family="AvenirNext-Medium" font-size="21.0" fill="#838686" transform="matrix(1.00, 0.00, -0.00, -1.00, 168.7, 7.0)">5</text><text xml:space="preserve" font-family="AvenirNext-Medium" font-size="21.0" fill="#838686" transform="matrix(1.00, 0.00, -0.00, -1.00, 181.2, 7.0)">0</text><text xml:space="preserve" font-family="AvenirNext-Medium" font-size="21.0" fill="#838686" transform="matrix(1.00, 0.00, -0.00, -1.00, 193.7, 7.0)"> </text><text xml:space="preserve" font-family="AvenirNext-Medium" font-size="21.0" fill="#838686" transform="matrix(1.00, 0.00, -0.00, -1.00, 198.9, 7.0)">S</text><text xml:space="preserve" font-family="AvenirNext-Medium" font-size="21.0" fill="#838686" transform="matrix(1.00, 0.00, -0.00, -1.00, 210.9, 7.0)">e</text><text xml:space="preserve" font-family="AvenirNext-Medium" font-size="21.0" fill="#838686" transform="matrix(1.00, 0.00, -0.00, -1.00, 222.9, 7.0)">n</text><text xml:space="preserve" font-family="AvenirNext-Medium" font-size="21.0" fill="#838686" transform="matrix(1.00, 0.00, -0.00, -1.00, 235.2, 7.0)">s</text><text xml:space="preserve" font-family="AvenirNext-Medium" font-size="21.0" fill="#838686" transform="matrix(1.00, 0.00, -0.00, -1.00, 244.5, 7.0)">o</text><text xml:space="preserve" font-family="AvenirNext-Medium" font-size="21.0" fill="#838686" transform="matrix(1.00, 0.00, -0.00, -1.00, 257.3, 7.0)">r</text><text xml:space="preserve" font-family="AvenirNext-Medium" font-size="21.0" fill="#838686" transform="matrix(1.00, 0.00, -0.00, -1.00, 264.9, 7.0)">T</text><text xml:space="preserve" font-family="AvenirNext-Medium" font-size="21.0" fill="#838686" transform="matrix(1.00, 0.00, -0.00, -1.00, 274.8, 7.0)">a</text><text xml:space="preserve" font-family="AvenirNext-Medium" font-size="21.0" fill="#838686" transform="matrix(1.00, 0.00, -0.00, -1.00, 286.2, 7.0)">g</text><text xml:space="preserve" font-family="AvenirNext-Medium" font-size="21.0" fill="#838686" transform="matrix(1.00, 0.00, -0.00, -1.00, 299.5, 7.0)">:</text><text xml:space="preserve" font-family="AvenirNext-Medium" font-size="21.0" fill="#838686" transform="matrix(1.00, 0.00, -0.00, -1.00, 305.8, 7.0)"> </text><text xml:space="preserve" font-family="AvenirNext-Medium" font-size="21.0" fill="#838686" transform="matrix(1.00, 0.00, -0.00, -1.00, 311.0, 7.0)">$</text><text xml:space="preserve" font-family="AvenirNext-Medium" font-size="21.0" fill="#838686" transform="matrix(1.00, 0.00, -0.00, -1.00, 323.5, 7.0)">2</text><text xml:space="preserve" font-family="AvenirNext-Medium" font-size="21.0" fill="#838686" transform="matrix(1.00, 0.00, -0.00, -1.00, 336.0, 7.0)">9</text><text xml:space="preserve" font-family="AvenirNext-Medium" font-size="21.0" fill="#838686" transform="matrix(1.00, 0.00, -0.00, -1.00, 348.5, 7.0)">.</text><text xml:space="preserve" font-family="AvenirNext-Medium" font-size="21.0" fill="#838686" transform="matrix(1.00, 0.00, -0.00, -1.00, 354.0, 7.0)">0</text><text xml:space="preserve" font-family="AvenirNext-Medium" font-size="21.0" fill="#838686" transform="matrix(1.00, 0.00, -0.00, -1.00, 366.5, 7.0)">0</text><text xml:space="preserve" font-family="AvenirNext-Medium" font-size="21.0" fill="#838686" transform="matrix(1.00, 0.00, -0.00, -1.00, 379.0, 7.0)"> </text><text xml:space="preserve" font-family="AvenirNext-Medium" font-size="21.0" fill="#838686" transform="matrix(1.00, 0.00, -0.00, -1.00, 384.2, 7.0)">(</text><text xml:space="preserve" font-family="AvenirNext-Medium" font-size="21.0" fill="#838686" transform="matrix(1.00, 0.00, -0.00, -1.00, 390.8, 7.0)">U</text><text xml:space="preserve" font-family="AvenirNext-Medium" font-size="21.0" fill="#838686" transform="matrix(1.00, 0.00, -0.00, -1.00, 405.8, 7.0)">S</text><text xml:space="preserve" font-family="AvenirNext-Medium" font-size="21.0" fill="#838686" transform="matrix(1.00, 0.00, -0.00, -1.00, 417.7, 7.0)">D</text><text xml:space="preserve" font-family="AvenirNext-Medium" font-size="21.0" fill="#838686" transform="matrix(1.00, 0.00, -0.00, -1.00, 433.7, 7.0)">)</text><text xml:space="preserve" font-family="AvenirNext-Medium" font-size="21.0" fill="#838686" transform="matrix(1.00, 0.00, -0.00, -1.00, 440.3, 7.0)"> </text><text xml:space="preserve" font-family="AvenirNext-Medium" font-size="21.0" fill="#838686" transform="matrix(1.00, 0.00, -0.00, -1.00, 445.6, 7.0)">/</text><text xml:space="preserve" font-family="AvenirNext-Medium" font-size="21.0" fill="#838686" transform="matrix(1.00, 0.00, -0.00, -1.00, 453.6, 7.0)"> </text><text xml:space="preserve" font-family="AvenirNext-Medium" font-size="21.0" fill="#838686" transform="matrix(1.00, 0.00, -0.00, -1.00, 458.8, 7.0)">d</text><text xml:space="preserve" font-family="AvenirNext-Medium" font-size="21.0" fill="#838686" transform="matrix(1.00, 0.00, -0.00, -1.00, 472.1, 7.0)">e</text><text xml:space="preserve" font-family="AvenirNext-Medium" font-size="21.0" fill="#838686" transform="matrix(1.00, 0.00, -0.00, -1.00, 484.2, 7.0)">v</text><text xml:space="preserve" font-family="AvenirNext-Medium" font-size="21.0" fill="#838686" transform="matrix(1.00, 0.00, -0.00, -1.00, 494.8, 7.0)">i</text><text xml:space="preserve" font-family="AvenirNext-Medium" font-size="21.0" fill="#838686" transform="matrix(1.00, 0.00, -0.00, -1.00, 500.2, 7.0)">c</text><text xml:space="preserve" font-family="AvenirNext-Medium" font-size="21.0" fill="#838686" transform="matrix(1.00, 0.00, -0.00, -1.00, 510.6, 7.0)">e</text><text xml:space="preserve" font-family="AvenirNext-Medium" font-size="21.0" fill="#838686" transform="matrix(1.00, 0.00, -0.00, -1.00, 522.6, 7.0)">.</text></g></svg>