<?xml version="1.0" encoding="UTF-8" standalone="no"?><svg xmlns="http://www.w3.org/2000/svg" xmlns:xlink="http://www.w3.org/1999/xlink" clip-rule="evenodd" stroke-miterlimit="4.00" viewBox="0 0 1024 768"><desc>SVG generated by Keynote</desc><defs></defs><g transform="matrix(1.00, 0.00, -0.00, -1.00, 0.0, 768.0)"><path d="M 0.0 768.0 L 1024.0 768.0 L 1024.0 0.0 L 0.0 0.0 Z M 0.0 768.0 " fill="#212121"></path><path d="M 0.0 0.0 L 960.0 0.0 " fill="none" stroke="#A6AAA9" stroke-width="2.00" transform="matrix(1.00, 0.00, 0.00, -1.00, 32.0, 689.8)"></path><text xml:space="preserve" font-family="DINAlternate-Bold" font-weight="bold" font-size="24.0" fill="#838686" transform="matrix(1.00, 0.00, -0.00, -1.00, 36.0, 705.0)">N</text><text xml:space="preserve" font-family="DINAlternate-Bold" font-weight="bold" font-size="24.0" fill="#838686" transform="matrix(1.00, 0.00, -0.00, -1.00, 53.6, 705.0)">O</text><text xml:space="preserve" font-family="DINAlternate-Bold" font-weight="bold" font-size="24.0" fill="#838686" transform="matrix(1.00, 0.00, -0.00, -1.00, 69.5, 705.0)">D</text><text xml:space="preserve" font-family="DINAlternate-Bold" font-weight="bold" font-size="24.0" fill="#838686" transform="matrix(1.00, 0.00, -0.00, -1.00, 85.8, 705.0)">E</text><text xml:space="preserve" font-family="DINAlternate-Bold" font-weight="bold" font-size="24.0" fill="#838686" transform="matrix(1.00, 0.00, -0.00, -1.00, 100.3, 705.0)">-</text><text xml:space="preserve" font-family="DINAlternate-Bold" font-weight="bold" font-size="24.0" fill="#838686" transform="matrix(1.00, 0.00, -0.00, -1.00, 111.3, 705.0)">R</text><text xml:space="preserve" font-family="DINAlternate-Bold" font-weight="bold" font-size="24.0" fill="#838686" transform="matrix(1.00, 0.00, -0.00, -1.00, 127.1, 705.0)">E</text><text xml:space="preserve" font-family="DINAlternate-Bold" font-weight="bold" font-size="24.0" fill="#838686" transform="matrix(1.00, 0.00, -0.00, -1.00, 141.7, 705.0)">D</text><text xml:space="preserve" font-family="DINAlternate-Bold" font-weight="bold" font-size="24.0" fill="#838686" transform="matrix(1.00, 0.00, -0.00, -1.00, 158.0, 705.0)">,</text><text xml:space="preserve" font-family="DINAlternate-Bold" font-weight="bold" font-size="24.0" fill="#838686" transform="matrix(1.00, 0.00, -0.00, -1.00, 165.0, 705.0)"> </text><text xml:space="preserve" font-family="DINAlternate-Bold" font-weight="bold" font-size="24.0" fill="#838686" transform="matrix(1.00, 0.00, -0.00, -1.00, 171.9, 705.0)">S</text><text xml:space="preserve" font-family="DINAlternate-Bold" font-weight="bold" font-size="24.0" fill="#838686" transform="matrix(1.00, 0.00, -0.00, -1.00, 186.9, 705.0)">E</text><text xml:space="preserve" font-family="DINAlternate-Bold" font-weight="bold" font-size="24.0" fill="#838686" transform="matrix(1.00, 0.00, -0.00, -1.00, 201.4, 705.0)">N</text><text xml:space="preserve" font-family="DINAlternate-Bold" font-weight="bold" font-size="24.0" fill="#838686" transform="matrix(1.00, 0.00, -0.00, -1.00, 219.1, 705.0)">S</text><text xml:space="preserve" font-family="DINAlternate-Bold" font-weight="bold" font-size="24.0" fill="#838686" transform="matrix(1.00, 0.00, -0.00, -1.00, 234.0, 705.0)">O</text><text xml:space="preserve" font-family="DINAlternate-Bold" font-weight="bold" font-size="24.0" fill="#838686" transform="matrix(1.00, 0.00, -0.00, -1.00, 249.9, 705.0)">R</text><text xml:space="preserve" font-family="DINAlternate-Bold" font-weight="bold" font-size="24.0" fill="#838686" transform="matrix(1.00, 0.00, -0.00, -1.00, 265.3, 705.0)">T</text><text xml:space="preserve" font-family="DINAlternate-Bold" font-weight="bold" font-size="24.0" fill="#838686" transform="matrix(1.00, 0.00, -0.00, -1.00, 276.7, 705.0)">A</text><text xml:space="preserve" font-family="DINAlternate-Bold" font-weight="bold" font-size="24.0" fill="#838686" transform="matrix(1.00, 0.00, -0.00, -1.00, 292.1, 705.0)">G</text><text xml:space="preserve" font-family="DINAlternate-Bold" font-weight="bold" font-size="24.0" fill="#838686" transform="matrix(1.00, 0.00, -0.00, -1.00, 307.9, 705.0)">,</text><text xml:space="preserve" font-family="DINAlternate-Bold" font-weight="bold" font-size="24.0" fill="#838686" transform="matrix(1.00, 0.00, -0.00, -1.00, 314.9, 705.0)"> </text><text xml:space="preserve" font-family="DINAlternate-Bold" font-weight="bold" font-size="24.0" fill="#838686" transform="matrix(1.00, 0.00, -0.00, -1.00, 321.9, 705.0)">B</text><text xml:space="preserve" font-family="DINAlternate-Bold" font-weight="bold" font-size="24.0" fill="#838686" transform="matrix(1.00, 0.00, -0.00, -1.00, 337.7, 705.0)">L</text><text xml:space="preserve" font-family="DINAlternate-Bold" font-weight="bold" font-size="24.0" fill="#838686" transform="matrix(1.00, 0.00, -0.00, -1.00, 352.2, 705.0)">U</text><text xml:space="preserve" font-family="DINAlternate-Bold" font-weight="bold" font-size="24.0" fill="#838686" transform="matrix(1.00, 0.00, -0.00, -1.00, 368.6, 705.0)">E</text><text xml:space="preserve" font-family="DINAlternate-Bold" font-weight="bold" font-size="24.0" fill="#838686" transform="matrix(1.00, 0.00, -0.00, -1.00, 383.1, 705.0)">M</text><text xml:space="preserve" font-family="DINAlternate-Bold" font-weight="bold" font-size="24.0" fill="#838686" transform="matrix(1.00, 0.00, -0.00, -1.00, 402.5, 705.0)">I</text><text xml:space="preserve" font-family="DINAlternate-Bold" font-weight="bold" font-size="24.0" fill="#838686" transform="matrix(1.00, 0.00, -0.00, -1.00, 409.9, 705.0)">X</text><text xml:space="preserve" font-family="DINCondensed-Bold" font-weight="bold" font-size="48.0" fill="#34A4DA" transform="matrix(1.00, 0.00, -0.00, -1.00, 36.0, 609.0)">W</text><text xml:space="preserve" font-family="DINCondensed-Bold" font-weight="bold" font-size="48.0" fill="#34A4DA" transform="matrix(1.00, 0.00, -0.00, -1.00, 64.5, 609.0)">H</text><text xml:space="preserve" font-family="DINCondensed-Bold" font-weight="bold" font-size="48.0" fill="#34A4DA" transform="matrix(1.00, 0.00, -0.00, -1.00, 84.9, 609.0)">A</text><text xml:space="preserve" font-family="DINCondensed-Bold" font-weight="bold" font-size="48.0" fill="#34A4DA" transform="matrix(1.00, 0.00, -0.00, -1.00, 101.8, 609.0)">T</text><text xml:space="preserve" font-family="DINCondensed-Bold" font-weight="bold" font-size="48.0" fill="#34A4DA" transform="matrix(1.00, 0.00, -0.00, -1.00, 117.7, 609.0)"> </text><text xml:space="preserve" font-family="DINCondensed-Bold" font-weight="bold" font-size="48.0" fill="#34A4DA" transform="matrix(1.00, 0.00, -0.00, -1.00, 126.7, 609.0)">I</text><text xml:space="preserve" font-family="DINCondensed-Bold" font-weight="bold" font-size="48.0" fill="#34A4DA" transform="matrix(1.00, 0.00, -0.00, -1.00, 136.5, 609.0)">S</text><text xml:space="preserve" font-family="DINCondensed-Bold" font-weight="bold" font-size="48.0" fill="#34A4DA" transform="matrix(1.00, 0.00, -0.00, -1.00, 156.0, 609.0)"> </text><text xml:space="preserve" font-family="DINCondensed-Bold" font-weight="bold" font-size="48.0" fill="#34A4DA" transform="matrix(1.00, 0.00, -0.00, -1.00, 164.9, 609.0)">N</text><text xml:space="preserve" font-family="DINCondensed-Bold" font-weight="bold" font-size="48.0" fill="#34A4DA" transform="matrix(1.00, 0.00, -0.00, -1.00, 186.2, 609.0)">O</text><text xml:space="preserve" font-family="DINCondensed-Bold" font-weight="bold" font-size="48.0" fill="#34A4DA" transform="matrix(1.00, 0.00, -0.00, -1.00, 206.6, 609.0)">D</text><text xml:space="preserve" font-family="DINCondensed-Bold" font-weight="bold" font-size="48.0" fill="#34A4DA" transform="matrix(1.00, 0.00, -0.00, -1.00, 227.1, 609.0)">E</text><text xml:space="preserve" font-family="DINCondensed-Bold" font-weight="bold" font-size="48.0" fill="#34A4DA" transform="matrix(1.00, 0.00, -0.00, -1.00, 244.8, 609.0)">-</text><text xml:space="preserve" font-family="DINCondensed-Bold" font-weight="bold" font-size="48.0" fill="#34A4DA" transform="matrix(1.00, 0.00, -0.00, -1.00, 263.5, 609.0)">R</text><text xml:space="preserve" font-family="DINCondensed-Bold" font-weight="bold" font-size="48.0" fill="#34A4DA" transform="matrix(1.00, 0.00, -0.00, -1.00, 284.0, 609.0)">E</text><text xml:space="preserve" font-family="DINCondensed-Bold" font-weight="bold" font-size="48.0" fill="#34A4DA" transform="matrix(1.00, 0.00, -0.00, -1.00, 301.7, 609.0)">D</text><text xml:space="preserve" font-family="DINCondensed-Bold" font-weight="bold" font-size="48.0" fill="#34A4DA" transform="matrix(1.00, 0.00, -0.00, -1.00, 322.2, 609.0)">?</text><text xml:space="preserve" font-family="AvenirNext-Medium" font-size="17.7" fill="#FEFFFE" transform="matrix(1.00, 0.00, -0.00, -1.00, 641.0, 87.0)">N</text><text xml:space="preserve" font-family="AvenirNext-Medium" font-size="17.7" fill="#FEFFFE" transform="matrix(1.00, 0.00, -0.00, -1.00, 654.6, 87.0)">o</text><text xml:space="preserve" font-family="AvenirNext-Medium" font-size="17.7" fill="#FEFFFE" transform="matrix(1.00, 0.00, -0.00, -1.00, 665.4, 87.0)">d</text><text xml:space="preserve" font-family="AvenirNext-Medium" font-size="17.7" fill="#FEFFFE" transform="matrix(1.00, 0.00, -0.00, -1.00, 676.7, 87.0)">e</text><text xml:space="preserve" font-family="AvenirNext-Medium" font-size="17.7" fill="#FEFFFE" transform="matrix(1.00, 0.00, -0.00, -1.00, 686.8, 87.0)">-</text><text xml:space="preserve" font-family="AvenirNext-Medium" font-size="17.7" fill="#FEFFFE" transform="matrix(1.00, 0.00, -0.00, -1.00, 692.4, 87.0)">R</text><text xml:space="preserve" font-family="AvenirNext-Medium" font-size="17.7" fill="#FEFFFE" transform="matrix(1.00, 0.00, -0.00, -1.00, 703.3, 87.0)">E</text><text xml:space="preserve" font-family="AvenirNext-Medium" font-size="17.7" fill="#FEFFFE" transform="matrix(1.00, 0.00, -0.00, -1.00, 713.9, 87.0)">D</text><text xml:space="preserve" font-family="AvenirNext-Medium" font-size="17.7" fill="#FEFFFE" transform="matrix(1.00, 0.00, -0.00, -1.00, 727.4, 87.0)">:</text><text xml:space="preserve" font-family="AvenirNext-Medium" font-size="17.7" fill="#FEFFFE" transform="matrix(1.00, 0.00, -0.00, -1.00, 732.7, 87.0)"> </text><text xml:space="preserve" font-family="AvenirNext-Medium" font-size="17.7" fill="#FEFFFE" transform="matrix(1.00, 0.00, -0.00, -1.00, 737.1, 87.0)">I</text><text xml:space="preserve" font-family="AvenirNext-Medium" font-size="17.7" fill="#FEFFFE" transform="matrix(1.00, 0.00, -0.00, -1.00, 741.9, 87.0)">B</text><text xml:space="preserve" font-family="AvenirNext-Medium" font-size="17.7" fill="#FEFFFE" transform="matrix(1.00, 0.00, -0.00, -1.00, 753.3, 87.0)">M</text><text xml:space="preserve" font-family="AvenirNext-Medium" font-size="17.7" fill="#FEFFFE" transform="matrix(1.00, 0.00, -0.00, -1.00, 769.2, 87.0)"> </text><text xml:space="preserve" font-family="AvenirNext-Medium" font-size="17.7" fill="#FEFFFE" transform="matrix(1.00, 0.00, -0.00, -1.00, 773.6, 87.0)">E</text><text xml:space="preserve" font-family="AvenirNext-Medium" font-size="17.7" fill="#FEFFFE" transform="matrix(1.00, 0.00, -0.00, -1.00, 784.3, 87.0)">m</text><text xml:space="preserve" font-family="AvenirNext-Medium" font-size="17.7" fill="#FEFFFE" transform="matrix(1.00, 0.00, -0.00, -1.00, 799.9, 87.0)">e</text><text xml:space="preserve" font-family="AvenirNext-Medium" font-size="17.7" fill="#FEFFFE" transform="matrix(1.00, 0.00, -0.00, -1.00, 810.1, 87.0)">r</text><text xml:space="preserve" font-family="AvenirNext-Medium" font-size="17.7" fill="#FEFFFE" transform="matrix(1.00, 0.00, -0.00, -1.00, 816.2, 87.0)">g</text><text xml:space="preserve" font-family="AvenirNext-Medium" font-size="17.7" fill="#FEFFFE" transform="matrix(1.00, 0.00, -0.00, -1.00, 827.3, 87.0)">i</text><text xml:space="preserve" font-family="AvenirNext-Medium" font-size="17.7" fill="#FEFFFE" transform="matrix(1.00, 0.00, -0.00, -1.00, 831.9, 87.0)">n</text><text xml:space="preserve" font-family="AvenirNext-Medium" font-size="17.7" fill="#FEFFFE" transform="matrix(1.00, 0.00, -0.00, -1.00, 842.2, 87.0)">g</text><text xml:space="preserve" font-family="AvenirNext-Medium" font-size="17.7" fill="#FEFFFE" transform="matrix(1.00, 0.00, -0.00, -1.00, 853.4, 87.0)"> </text><text xml:space="preserve" font-family="AvenirNext-Medium" font-size="17.7" fill="#FEFFFE" transform="matrix(1.00, 0.00, -0.00, -1.00, 694.0, 63.0)">T</text><text xml:space="preserve" font-family="AvenirNext-Medium" font-size="17.7" fill="#FEFFFE" transform="matrix(1.00, 0.00, -0.00, -1.00, 702.4, 63.0)">e</text><text xml:space="preserve" font-family="AvenirNext-Medium" font-size="17.7" fill="#FEFFFE" transform="matrix(1.00, 0.00, -0.00, -1.00, 712.5, 63.0)">c</text><text xml:space="preserve" font-family="AvenirNext-Medium" font-size="17.7" fill="#FEFFFE" transform="matrix(1.00, 0.00, -0.00, -1.00, 721.2, 63.0)">h</text><text xml:space="preserve" font-family="AvenirNext-Medium" font-size="17.7" fill="#FEFFFE" transform="matrix(1.00, 0.00, -0.00, -1.00, 731.6, 63.0)">n</text><text xml:space="preserve" font-family="AvenirNext-Medium" font-size="17.7" fill="#FEFFFE" transform="matrix(1.00, 0.00, -0.00, -1.00, 741.8, 63.0)">o</text><text xml:space="preserve" font-family="AvenirNext-Medium" font-size="17.7" fill="#FEFFFE" transform="matrix(1.00, 0.00, -0.00, -1.00, 752.6, 63.0)">l</text><text xml:space="preserve" font-family="AvenirNext-Medium" font-size="17.7" fill="#FEFFFE" transform="matrix(1.00, 0.00, -0.00, -1.00, 757.2, 63.0)">o</text><text xml:space="preserve" font-family="AvenirNext-Medium" font-size="17.7" fill="#FEFFFE" transform="matrix(1.00, 0.00, -0.00, -1.00, 768.0, 63.0)">g</text><text xml:space="preserve" font-family="AvenirNext-Medium" font-size="17.7" fill="#FEFFFE" transform="matrix(1.00, 0.00, -0.00, -1.00, 779.2, 63.0)">i</text><text xml:space="preserve" font-family="AvenirNext-Medium" font-size="17.7" fill="#FEFFFE" transform="matrix(1.00, 0.00, -0.00, -1.00, 783.8, 63.0)">e</text><text xml:space="preserve" font-family="AvenirNext-Medium" font-size="17.7" fill="#FEFFFE" transform="matrix(1.00, 0.00, -0.00, -1.00, 793.9, 63.0)">s</text></g></svg>