<?xml version="1.0" encoding="UTF-8" standalone="no"?><svg xmlns="http://www.w3.org/2000/svg" xmlns:xlink="http://www.w3.org/1999/xlink" clip-rule="evenodd" stroke-miterlimit="4.00" viewBox="0 0 189 24"><desc>SVG generated by Keynote</desc><defs></defs><g transform="matrix(1.00, 0.00, -0.00, -1.00, 0.0, 24.0)"><text xml:space="preserve" font-family="AvenirNext-Medium" font-size="20.0" fill="#838686" transform="matrix(1.00, 0.00, -0.00, -1.00, 2.0, 6.0)">A</text><text xml:space="preserve" font-family="AvenirNext-Medium" font-size="20.0" fill="#838686" transform="matrix(1.00, 0.00, -0.00, -1.00, 16.2, 6.0)">n</text><text xml:space="preserve" font-family="AvenirNext-Medium" font-size="20.0" fill="#838686" transform="matrix(1.00, 0.00, -0.00, -1.00, 27.9, 6.0)">d</text><text xml:space="preserve" font-family="AvenirNext-Medium" font-size="20.0" fill="#838686" transform="matrix(1.00, 0.00, -0.00, -1.00, 40.6, 6.0)">r</text><text xml:space="preserve" font-family="AvenirNext-Medium" font-size="20.0" fill="#838686" transform="matrix(1.00, 0.00, -0.00, -1.00, 47.4, 6.0)">o</text><text xml:space="preserve" font-family="AvenirNext-Medium" font-size="20.0" fill="#838686" transform="matrix(1.00, 0.00, -0.00, -1.00, 59.6, 6.0)">i</text><text xml:space="preserve" font-family="AvenirNext-Medium" font-size="20.0" fill="#838686" transform="matrix(1.00, 0.00, -0.00, -1.00, 64.8, 6.0)">d</text><text xml:space="preserve" font-family="AvenirNext-Medium" font-size="20.0" fill="#838686" transform="matrix(1.00, 0.00, -0.00, -1.00, 77.5, 6.0)"> </text><text xml:space="preserve" font-family="AvenirNext-Medium" font-size="20.0" fill="#838686" transform="matrix(1.00, 0.00, -0.00, -1.00, 82.2, 6.0)">A</text><text xml:space="preserve" font-family="AvenirNext-Medium" font-size="20.0" fill="#838686" transform="matrix(1.00, 0.00, -0.00, -1.00, 96.4, 6.0)">p</text><text xml:space="preserve" font-family="AvenirNext-Medium" font-size="20.0" fill="#838686" transform="matrix(1.00, 0.00, -0.00, -1.00, 109.1, 6.0)">p</text><text xml:space="preserve" font-family="AvenirNext-Medium" font-size="20.0" fill="#838686" transform="matrix(1.00, 0.00, -0.00, -1.00, 121.7, 6.0)">l</text><text xml:space="preserve" font-family="AvenirNext-Medium" font-size="20.0" fill="#838686" transform="matrix(1.00, 0.00, -0.00, -1.00, 126.9, 6.0)">i</text><text xml:space="preserve" font-family="AvenirNext-Medium" font-size="20.0" fill="#838686" transform="matrix(1.00, 0.00, -0.00, -1.00, 132.1, 6.0)">c</text><text xml:space="preserve" font-family="AvenirNext-Medium" font-size="20.0" fill="#838686" transform="matrix(1.00, 0.00, -0.00, -1.00, 142.0, 6.0)">a</text><text xml:space="preserve" font-family="AvenirNext-Medium" font-size="20.0" fill="#838686" transform="matrix(1.00, 0.00, -0.00, -1.00, 152.6, 6.0)">t</text><text xml:space="preserve" font-family="AvenirNext-Medium" font-size="20.0" fill="#838686" transform="matrix(1.00, 0.00, -0.00, -1.00, 159.2, 6.0)">i</text><text xml:space="preserve" font-family="AvenirNext-Medium" font-size="20.0" fill="#838686" transform="matrix(1.00, 0.00, -0.00, -1.00, 164.4, 6.0)">o</text><text xml:space="preserve" font-family="AvenirNext-Medium" font-size="20.0" fill="#838686" transform="matrix(1.00, 0.00, -0.00, -1.00, 176.6, 6.0)">n</text></g></svg>