<?xml version="1.0" encoding="UTF-8" standalone="no"?><svg xmlns="http://www.w3.org/2000/svg" xmlns:xlink="http://www.w3.org/1999/xlink" clip-rule="evenodd" stroke-miterlimit="4.00" viewBox="0 0 1024 768"><desc>SVG generated by Keynote</desc><defs></defs><g transform="matrix(1.00, 0.00, -0.00, -1.00, 0.0, 768.0)"><g><clipPath id="clip-107"><path d="M 0.0 768.0 L 1024.0 768.0 L 1024.0 0.0 L 0.0 0.0 Z M 0.0 768.0 "></path></clipPath><g clip-path="url(#clip-107)"><image xlink:href="../../7BB23D08-1DB8-49DD-BF67-071A41A734D0/assets/D3CB8578D364082F6943B53F933CCC32.jpeg" width="1024.00" height="768.00" transform="matrix(1.00, 0.00, -0.00, -1.00, 0.0, 768.0)"></image></g></g><text xml:space="preserve" font-family="GillSans-Light" font-size="72.0" fill="#525252" transform="matrix(1.00, 0.00, -0.00, -1.00, 273.0, 455.0)">O</text><text xml:space="preserve" font-family="GillSans-Light" font-size="72.0" fill="#525252" transform="matrix(1.00, 0.00, -0.00, -1.00, 332.3, 455.0)">U</text><text xml:space="preserve" font-family="GillSans-Light" font-size="72.0" fill="#525252" transform="matrix(1.00, 0.00, -0.00, -1.00, 382.6, 455.0)">T</text><text xml:space="preserve" font-family="GillSans-Light" font-size="72.0" fill="#525252" transform="matrix(1.00, 0.00, -0.00, -1.00, 423.9, 455.0)"> </text><text xml:space="preserve" font-family="GillSans-Light" font-size="72.0" fill="#525252" transform="matrix(1.00, 0.00, -0.00, -1.00, 443.9, 455.0)">O</text><text xml:space="preserve" font-family="GillSans-Light" font-size="72.0" fill="#525252" transform="matrix(1.00, 0.00, -0.00, -1.00, 503.1, 455.0)">F</text><text xml:space="preserve" font-family="GillSans-Light" font-size="72.0" fill="#525252" transform="matrix(1.00, 0.00, -0.00, -1.00, 534.7, 455.0)"> </text><text xml:space="preserve" font-family="GillSans-Light" font-size="72.0" fill="#525252" transform="matrix(1.00, 0.00, -0.00, -1.00, 554.7, 455.0)">B</text><text xml:space="preserve" font-family="GillSans-Light" font-size="72.0" fill="#525252" transform="matrix(1.00, 0.00, -0.00, -1.00, 594.3, 455.0)">A</text><text xml:space="preserve" font-family="GillSans-Light" font-size="72.0" fill="#525252" transform="matrix(1.00, 0.00, -0.00, -1.00, 642.3, 455.0)">N</text><text xml:space="preserve" font-family="GillSans-Light" font-size="72.0" fill="#525252" transform="matrix(1.00, 0.00, -0.00, -1.00, 697.8, 455.0)">D</text><text xml:space="preserve" font-family="GillSans-Light" font-size="72.0" fill="#525252" transform="matrix(1.00, 0.00, -0.00, -1.00, 751.2, 455.0)"> </text><text xml:space="preserve" font-family="GillSans-Light" font-size="72.0" fill="#525252" transform="matrix(1.00, 0.00, -0.00, -1.00, 212.0, 373.0)">A</text><text xml:space="preserve" font-family="GillSans-Light" font-size="72.0" fill="#525252" transform="matrix(1.00, 0.00, -0.00, -1.00, 258.6, 373.0)">U</text><text xml:space="preserve" font-family="GillSans-Light" font-size="72.0" fill="#525252" transform="matrix(1.00, 0.00, -0.00, -1.00, 308.9, 373.0)">T</text><text xml:space="preserve" font-family="GillSans-Light" font-size="72.0" fill="#525252" transform="matrix(1.00, 0.00, -0.00, -1.00, 350.2, 373.0)">H</text><text xml:space="preserve" font-family="GillSans-Light" font-size="72.0" fill="#525252" transform="matrix(1.00, 0.00, -0.00, -1.00, 402.0, 373.0)">E</text><text xml:space="preserve" font-family="GillSans-Light" font-size="72.0" fill="#525252" transform="matrix(1.00, 0.00, -0.00, -1.00, 437.3, 373.0)">N</text><text xml:space="preserve" font-family="GillSans-Light" font-size="72.0" fill="#525252" transform="matrix(1.00, 0.00, -0.00, -1.00, 492.8, 373.0)">T</text><text xml:space="preserve" font-family="GillSans-Light" font-size="72.0" fill="#525252" transform="matrix(1.00, 0.00, -0.00, -1.00, 534.1, 373.0)">I</text><text xml:space="preserve" font-family="GillSans-Light" font-size="72.0" fill="#525252" transform="matrix(1.00, 0.00, -0.00, -1.00, 549.0, 373.0)">C</text><text xml:space="preserve" font-family="GillSans-Light" font-size="72.0" fill="#525252" transform="matrix(1.00, 0.00, -0.00, -1.00, 601.0, 373.0)">A</text><text xml:space="preserve" font-family="GillSans-Light" font-size="72.0" fill="#525252" transform="matrix(1.00, 0.00, -0.00, -1.00, 641.8, 373.0)">T</text><text xml:space="preserve" font-family="GillSans-Light" font-size="72.0" fill="#525252" transform="matrix(1.00, 0.00, -0.00, -1.00, 683.1, 373.0)">I</text><text xml:space="preserve" font-family="GillSans-Light" font-size="72.0" fill="#525252" transform="matrix(1.00, 0.00, -0.00, -1.00, 698.1, 373.0)">O</text><text xml:space="preserve" font-family="GillSans-Light" font-size="72.0" fill="#525252" transform="matrix(1.00, 0.00, -0.00, -1.00, 757.4, 373.0)">N</text><text xml:space="preserve" font-family="GillSans-Light" font-size="38.0" fill="#525252" transform="matrix(1.00, 0.00, -0.00, -1.00, 397.0, 315.0)">A</text><text xml:space="preserve" font-family="GillSans-Light" font-size="38.0" fill="#525252" transform="matrix(1.00, 0.00, -0.00, -1.00, 422.3, 315.0)">n</text><text xml:space="preserve" font-family="GillSans-Light" font-size="38.0" fill="#525252" transform="matrix(1.00, 0.00, -0.00, -1.00, 441.0, 315.0)">d</text><text xml:space="preserve" font-family="GillSans-Light" font-size="38.0" fill="#525252" transform="matrix(1.00, 0.00, -0.00, -1.00, 460.3, 315.0)">r</text><text xml:space="preserve" font-family="GillSans-Light" font-size="38.0" fill="#525252" transform="matrix(1.00, 0.00, -0.00, -1.00, 473.0, 315.0)">e</text><text xml:space="preserve" font-family="GillSans-Light" font-size="38.0" fill="#525252" transform="matrix(1.00, 0.00, -0.00, -1.00, 491.2, 315.0)">w</text><text xml:space="preserve" font-family="GillSans-Light" font-size="38.0" fill="#525252" transform="matrix(1.00, 0.00, -0.00, -1.00, 518.1, 315.0)"> </text><text xml:space="preserve" font-family="GillSans-Light" font-size="38.0" fill="#525252" transform="matrix(1.00, 0.00, -0.00, -1.00, 528.7, 315.0)">F</text><text xml:space="preserve" font-family="GillSans-Light" font-size="38.0" fill="#525252" transform="matrix(1.00, 0.00, -0.00, -1.00, 545.3, 315.0)">r</text><text xml:space="preserve" font-family="GillSans-Light" font-size="38.0" fill="#525252" transform="matrix(1.00, 0.00, -0.00, -1.00, 558.0, 315.0)">o</text><text xml:space="preserve" font-family="GillSans-Light" font-size="38.0" fill="#525252" transform="matrix(1.00, 0.00, -0.00, -1.00, 578.6, 315.0)">l</text><text xml:space="preserve" font-family="GillSans-Light" font-size="38.0" fill="#525252" transform="matrix(1.00, 0.00, -0.00, -1.00, 585.7, 315.0)">k</text><text xml:space="preserve" font-family="GillSans-Light" font-size="38.0" fill="#525252" transform="matrix(1.00, 0.00, -0.00, -1.00, 601.9, 315.0)">i</text><text xml:space="preserve" font-family="GillSans-Light" font-size="38.0" fill="#525252" transform="matrix(1.00, 0.00, -0.00, -1.00, 609.0, 315.0)">n</text></g></svg>