<?xml version="1.0" encoding="UTF-8" standalone="no"?><svg xmlns="http://www.w3.org/2000/svg" xmlns:xlink="http://www.w3.org/1999/xlink" clip-rule="evenodd" stroke-miterlimit="4.00" viewBox="0 0 1024 768"><desc>SVG generated by Keynote</desc><defs></defs><g transform="matrix(1.00, 0.00, -0.00, -1.00, 0.0, 768.0)"><g><clipPath id="clip-116"><path d="M 0.0 768.0 L 1024.0 768.0 L 1024.0 0.0 L 0.0 0.0 Z M 0.0 768.0 "></path></clipPath><g clip-path="url(#clip-116)"><image xlink:href="../../7BB23D08-1DB8-49DD-BF67-071A41A734D0/assets/D3CB8578D364082F6943B53F933CCC32.jpeg" width="1024.00" height="768.00" transform="matrix(1.00, 0.00, -0.00, -1.00, 0.0, 768.0)"></image></g></g><text xml:space="preserve" font-family="GillSans-Light" font-size="72.0" fill="#525252" transform="matrix(1.00, 0.00, -0.00, -1.00, 317.0, 628.0)">I</text><text xml:space="preserve" font-family="GillSans-Light" font-size="72.0" fill="#525252" transform="matrix(1.00, 0.00, -0.00, -1.00, 332.0, 628.0)">P</text><text xml:space="preserve" font-family="GillSans-Light" font-size="72.0" fill="#525252" transform="matrix(1.00, 0.00, -0.00, -1.00, 368.7, 628.0)">H</text><text xml:space="preserve" font-family="GillSans-Light" font-size="72.0" fill="#525252" transform="matrix(1.00, 0.00, -0.00, -1.00, 420.5, 628.0)">O</text><text xml:space="preserve" font-family="GillSans-Light" font-size="72.0" fill="#525252" transform="matrix(1.00, 0.00, -0.00, -1.00, 479.8, 628.0)">N</text><text xml:space="preserve" font-family="GillSans-Light" font-size="72.0" fill="#525252" transform="matrix(1.00, 0.00, -0.00, -1.00, 535.3, 628.0)">E</text><text xml:space="preserve" font-family="GillSans-Light" font-size="72.0" fill="#525252" transform="matrix(1.00, 0.00, -0.00, -1.00, 570.6, 628.0)"> </text><text xml:space="preserve" font-family="GillSans-Light" font-size="72.0" fill="#525252" transform="matrix(1.00, 0.00, -0.00, -1.00, 586.2, 628.0)">A</text><text xml:space="preserve" font-family="GillSans-Light" font-size="72.0" fill="#525252" transform="matrix(1.00, 0.00, -0.00, -1.00, 634.3, 628.0)">P</text><text xml:space="preserve" font-family="GillSans-Light" font-size="72.0" fill="#525252" transform="matrix(1.00, 0.00, -0.00, -1.00, 671.0, 628.0)">P</text><text xml:space="preserve" font-family="GillSans-Light" font-size="35.1" fill="#525252" transform="matrix(1.00, 0.00, -0.00, -1.00, 32.0, 509.9)">•</text><text xml:space="preserve" font-family="GillSans-Light" font-size="42.8" fill="#525252" transform="matrix(1.00, 0.00, -0.00, -1.00, 70.0, 507.0)">P</text><text xml:space="preserve" font-family="GillSans-Light" font-size="42.8" fill="#525252" transform="matrix(1.00, 0.00, -0.00, -1.00, 91.8, 507.0)">r</text><text xml:space="preserve" font-family="GillSans-Light" font-size="42.8" fill="#525252" transform="matrix(1.00, 0.00, -0.00, -1.00, 107.1, 507.0)">i</text><text xml:space="preserve" font-family="GillSans-Light" font-size="42.8" fill="#525252" transform="matrix(1.00, 0.00, -0.00, -1.00, 115.2, 507.0)">m</text><text xml:space="preserve" font-family="GillSans-Light" font-size="42.8" fill="#525252" transform="matrix(1.00, 0.00, -0.00, -1.00, 148.1, 507.0)">a</text><text xml:space="preserve" font-family="GillSans-Light" font-size="42.8" fill="#525252" transform="matrix(1.00, 0.00, -0.00, -1.00, 166.4, 507.0)">r</text><text xml:space="preserve" font-family="GillSans-Light" font-size="42.8" fill="#525252" transform="matrix(1.00, 0.00, -0.00, -1.00, 183.6, 507.0)">y</text><text xml:space="preserve" font-family="GillSans-Light" font-size="42.8" fill="#525252" transform="matrix(1.00, 0.00, -0.00, -1.00, 201.5, 507.0)"> </text><text xml:space="preserve" font-family="GillSans-Light" font-size="42.8" fill="#525252" transform="matrix(1.00, 0.00, -0.00, -1.00, 213.3, 507.0)">a</text><text xml:space="preserve" font-family="GillSans-Light" font-size="42.8" fill="#525252" transform="matrix(1.00, 0.00, -0.00, -1.00, 231.6, 507.0)">u</text><text xml:space="preserve" font-family="GillSans-Light" font-size="42.8" fill="#525252" transform="matrix(1.00, 0.00, -0.00, -1.00, 252.6, 507.0)">t</text><text xml:space="preserve" font-family="GillSans-Light" font-size="42.8" fill="#525252" transform="matrix(1.00, 0.00, -0.00, -1.00, 265.5, 507.0)">h</text><text xml:space="preserve" font-family="GillSans-Light" font-size="42.8" fill="#525252" transform="matrix(1.00, 0.00, -0.00, -1.00, 286.4, 507.0)">e</text><text xml:space="preserve" font-family="GillSans-Light" font-size="42.8" fill="#525252" transform="matrix(1.00, 0.00, -0.00, -1.00, 306.9, 507.0)">n</text><text xml:space="preserve" font-family="GillSans-Light" font-size="42.8" fill="#525252" transform="matrix(1.00, 0.00, -0.00, -1.00, 327.9, 507.0)">t</text><text xml:space="preserve" font-family="GillSans-Light" font-size="42.8" fill="#525252" transform="matrix(1.00, 0.00, -0.00, -1.00, 340.8, 507.0)">i</text><text xml:space="preserve" font-family="GillSans-Light" font-size="42.8" fill="#525252" transform="matrix(1.00, 0.00, -0.00, -1.00, 348.9, 507.0)">c</text><text xml:space="preserve" font-family="GillSans-Light" font-size="42.8" fill="#525252" transform="matrix(1.00, 0.00, -0.00, -1.00, 366.7, 507.0)">a</text><text xml:space="preserve" font-family="GillSans-Light" font-size="42.8" fill="#525252" transform="matrix(1.00, 0.00, -0.00, -1.00, 384.9, 507.0)">t</text><text xml:space="preserve" font-family="GillSans-Light" font-size="42.8" fill="#525252" transform="matrix(1.00, 0.00, -0.00, -1.00, 397.8, 507.0)">i</text><text xml:space="preserve" font-family="GillSans-Light" font-size="42.8" fill="#525252" transform="matrix(1.00, 0.00, -0.00, -1.00, 405.9, 507.0)">o</text><text xml:space="preserve" font-family="GillSans-Light" font-size="42.8" fill="#525252" transform="matrix(1.00, 0.00, -0.00, -1.00, 429.1, 507.0)">n</text><text xml:space="preserve" font-family="GillSans-Light" font-size="42.8" fill="#525252" transform="matrix(1.00, 0.00, -0.00, -1.00, 450.1, 507.0)"> </text><text xml:space="preserve" font-family="GillSans-Light" font-size="42.8" fill="#525252" transform="matrix(1.00, 0.00, -0.00, -1.00, 70.0, 450.0)">p</text><text xml:space="preserve" font-family="GillSans-Light" font-size="42.8" fill="#525252" transform="matrix(1.00, 0.00, -0.00, -1.00, 91.8, 450.0)">l</text><text xml:space="preserve" font-family="GillSans-Light" font-size="42.8" fill="#525252" transform="matrix(1.00, 0.00, -0.00, -1.00, 99.8, 450.0)">a</text><text xml:space="preserve" font-family="GillSans-Light" font-size="42.8" fill="#525252" transform="matrix(1.00, 0.00, -0.00, -1.00, 118.1, 450.0)">t</text><text xml:space="preserve" font-family="GillSans-Light" font-size="42.8" fill="#525252" transform="matrix(1.00, 0.00, -0.00, -1.00, 131.0, 450.0)">f</text><text xml:space="preserve" font-family="GillSans-Light" font-size="42.8" fill="#525252" transform="matrix(1.00, 0.00, -0.00, -1.00, 140.9, 450.0)">o</text><text xml:space="preserve" font-family="GillSans-Light" font-size="42.8" fill="#525252" transform="matrix(1.00, 0.00, -0.00, -1.00, 164.0, 450.0)">r</text><text xml:space="preserve" font-family="GillSans-Light" font-size="42.8" fill="#525252" transform="matrix(1.00, 0.00, -0.00, -1.00, 179.4, 450.0)">m</text><text xml:space="preserve" font-family="GillSans-Light" font-size="35.1" fill="#525252" transform="matrix(1.00, 0.00, -0.00, -1.00, 32.0, 351.9)">•</text><text xml:space="preserve" font-family="GillSans-Light" font-size="42.8" fill="#525252" transform="matrix(1.00, 0.00, -0.00, -1.00, 70.0, 349.0)">A</text><text xml:space="preserve" font-family="GillSans-Light" font-size="42.8" fill="#525252" transform="matrix(1.00, 0.00, -0.00, -1.00, 98.5, 349.0)">b</text><text xml:space="preserve" font-family="GillSans-Light" font-size="42.8" fill="#525252" transform="matrix(1.00, 0.00, -0.00, -1.00, 120.3, 349.0)">i</text><text xml:space="preserve" font-family="GillSans-Light" font-size="42.8" fill="#525252" transform="matrix(1.00, 0.00, -0.00, -1.00, 128.4, 349.0)">l</text><text xml:space="preserve" font-family="GillSans-Light" font-size="42.8" fill="#525252" transform="matrix(1.00, 0.00, -0.00, -1.00, 136.4, 349.0)">i</text><text xml:space="preserve" font-family="GillSans-Light" font-size="42.8" fill="#525252" transform="matrix(1.00, 0.00, -0.00, -1.00, 144.5, 349.0)">t</text><text xml:space="preserve" font-family="GillSans-Light" font-size="42.8" fill="#525252" transform="matrix(1.00, 0.00, -0.00, -1.00, 157.4, 349.0)">y</text><text xml:space="preserve" font-family="GillSans-Light" font-size="42.8" fill="#525252" transform="matrix(1.00, 0.00, -0.00, -1.00, 175.2, 349.0)"> </text><text xml:space="preserve" font-family="GillSans-Light" font-size="42.8" fill="#525252" transform="matrix(1.00, 0.00, -0.00, -1.00, 187.1, 349.0)">t</text><text xml:space="preserve" font-family="GillSans-Light" font-size="42.8" fill="#525252" transform="matrix(1.00, 0.00, -0.00, -1.00, 200.0, 349.0)">o</text><text xml:space="preserve" font-family="GillSans-Light" font-size="42.8" fill="#525252" transform="matrix(1.00, 0.00, -0.00, -1.00, 223.2, 349.0)"> </text><text xml:space="preserve" font-family="GillSans-Light" font-size="42.8" fill="#525252" transform="matrix(1.00, 0.00, -0.00, -1.00, 230.8, 349.0)">“</text><text xml:space="preserve" font-family="GillSans-Light" font-size="42.8" fill="#525252" transform="matrix(1.00, 0.00, -0.00, -1.00, 247.7, 349.0)">e</text><text xml:space="preserve" font-family="GillSans-Light" font-size="42.8" fill="#525252" transform="matrix(1.00, 0.00, -0.00, -1.00, 268.2, 349.0)">n</text><text xml:space="preserve" font-family="GillSans-Light" font-size="42.8" fill="#525252" transform="matrix(1.00, 0.00, -0.00, -1.00, 289.2, 349.0)">r</text><text xml:space="preserve" font-family="GillSans-Light" font-size="42.8" fill="#525252" transform="matrix(1.00, 0.00, -0.00, -1.00, 303.4, 349.0)">o</text><text xml:space="preserve" font-family="GillSans-Light" font-size="42.8" fill="#525252" transform="matrix(1.00, 0.00, -0.00, -1.00, 326.6, 349.0)">l</text><text xml:space="preserve" font-family="GillSans-Light" font-size="42.8" fill="#525252" transform="matrix(1.00, 0.00, -0.00, -1.00, 334.6, 349.0)">”</text><text xml:space="preserve" font-family="GillSans-Light" font-size="42.8" fill="#525252" transform="matrix(1.00, 0.00, -0.00, -1.00, 348.2, 349.0)"> </text><text xml:space="preserve" font-family="GillSans-Light" font-size="42.8" fill="#525252" transform="matrix(1.00, 0.00, -0.00, -1.00, 360.0, 349.0)">a</text><text xml:space="preserve" font-family="GillSans-Light" font-size="42.8" fill="#525252" transform="matrix(1.00, 0.00, -0.00, -1.00, 378.3, 349.0)">s</text><text xml:space="preserve" font-family="GillSans-Light" font-size="42.8" fill="#525252" transform="matrix(1.00, 0.00, -0.00, -1.00, 393.4, 349.0)"> </text><text xml:space="preserve" font-family="GillSans-Light" font-size="42.8" fill="#525252" transform="matrix(1.00, 0.00, -0.00, -1.00, 405.3, 349.0)">p</text><text xml:space="preserve" font-family="GillSans-Light" font-size="42.8" fill="#525252" transform="matrix(1.00, 0.00, -0.00, -1.00, 427.1, 349.0)">r</text><text xml:space="preserve" font-family="GillSans-Light" font-size="42.8" fill="#525252" transform="matrix(1.00, 0.00, -0.00, -1.00, 442.4, 349.0)">i</text><text xml:space="preserve" font-family="GillSans-Light" font-size="42.8" fill="#525252" transform="matrix(1.00, 0.00, -0.00, -1.00, 450.5, 349.0)">m</text><text xml:space="preserve" font-family="GillSans-Light" font-size="42.8" fill="#525252" transform="matrix(1.00, 0.00, -0.00, -1.00, 483.4, 349.0)">a</text><text xml:space="preserve" font-family="GillSans-Light" font-size="42.8" fill="#525252" transform="matrix(1.00, 0.00, -0.00, -1.00, 501.7, 349.0)">r</text><text xml:space="preserve" font-family="GillSans-Light" font-size="42.8" fill="#525252" transform="matrix(1.00, 0.00, -0.00, -1.00, 518.9, 349.0)">y</text><text xml:space="preserve" font-family="GillSans-Light" font-size="42.8" fill="#525252" transform="matrix(1.00, 0.00, -0.00, -1.00, 536.8, 349.0)"> </text><text xml:space="preserve" font-family="GillSans-Light" font-size="42.8" fill="#525252" transform="matrix(1.00, 0.00, -0.00, -1.00, 70.0, 292.0)">d</text><text xml:space="preserve" font-family="GillSans-Light" font-size="42.8" fill="#525252" transform="matrix(1.00, 0.00, -0.00, -1.00, 91.8, 292.0)">e</text><text xml:space="preserve" font-family="GillSans-Light" font-size="42.8" fill="#525252" transform="matrix(1.00, 0.00, -0.00, -1.00, 112.3, 292.0)">v</text><text xml:space="preserve" font-family="GillSans-Light" font-size="42.8" fill="#525252" transform="matrix(1.00, 0.00, -0.00, -1.00, 130.5, 292.0)">i</text><text xml:space="preserve" font-family="GillSans-Light" font-size="42.8" fill="#525252" transform="matrix(1.00, 0.00, -0.00, -1.00, 138.6, 292.0)">c</text><text xml:space="preserve" font-family="GillSans-Light" font-size="42.8" fill="#525252" transform="matrix(1.00, 0.00, -0.00, -1.00, 156.4, 292.0)">e</text><text xml:space="preserve" font-family="GillSans-Light" font-size="35.1" fill="#525252" transform="matrix(1.00, 0.00, -0.00, -1.00, 32.0, 193.9)">•</text><text xml:space="preserve" font-family="GillSans-Light" font-size="42.8" fill="#525252" transform="matrix(1.00, 0.00, -0.00, -1.00, 70.0, 191.0)">W</text><text xml:space="preserve" font-family="GillSans-Light" font-size="42.8" fill="#525252" transform="matrix(1.00, 0.00, -0.00, -1.00, 114.1, 191.0)">i</text><text xml:space="preserve" font-family="GillSans-Light" font-size="42.8" fill="#525252" transform="matrix(1.00, 0.00, -0.00, -1.00, 122.1, 191.0)">l</text><text xml:space="preserve" font-family="GillSans-Light" font-size="42.8" fill="#525252" transform="matrix(1.00, 0.00, -0.00, -1.00, 130.2, 191.0)">l</text><text xml:space="preserve" font-family="GillSans-Light" font-size="42.8" fill="#525252" transform="matrix(1.00, 0.00, -0.00, -1.00, 138.2, 191.0)"> </text><text xml:space="preserve" font-family="GillSans-Light" font-size="42.8" fill="#525252" transform="matrix(1.00, 0.00, -0.00, -1.00, 150.1, 191.0)">b</text><text xml:space="preserve" font-family="GillSans-Light" font-size="42.8" fill="#525252" transform="matrix(1.00, 0.00, -0.00, -1.00, 171.9, 191.0)">e</text><text xml:space="preserve" font-family="GillSans-Light" font-size="42.8" fill="#525252" transform="matrix(1.00, 0.00, -0.00, -1.00, 192.4, 191.0)"> </text><text xml:space="preserve" font-family="GillSans-Light" font-size="42.8" fill="#525252" transform="matrix(1.00, 0.00, -0.00, -1.00, 204.3, 191.0)">u</text><text xml:space="preserve" font-family="GillSans-Light" font-size="42.8" fill="#525252" transform="matrix(1.00, 0.00, -0.00, -1.00, 225.2, 191.0)">s</text><text xml:space="preserve" font-family="GillSans-Light" font-size="42.8" fill="#525252" transform="matrix(1.00, 0.00, -0.00, -1.00, 240.4, 191.0)">e</text><text xml:space="preserve" font-family="GillSans-Light" font-size="42.8" fill="#525252" transform="matrix(1.00, 0.00, -0.00, -1.00, 260.9, 191.0)">d</text><text xml:space="preserve" font-family="GillSans-Light" font-size="42.8" fill="#525252" transform="matrix(1.00, 0.00, -0.00, -1.00, 282.7, 191.0)"> </text><text xml:space="preserve" font-family="GillSans-Light" font-size="42.8" fill="#525252" transform="matrix(1.00, 0.00, -0.00, -1.00, 294.6, 191.0)">t</text><text xml:space="preserve" font-family="GillSans-Light" font-size="42.8" fill="#525252" transform="matrix(1.00, 0.00, -0.00, -1.00, 307.5, 191.0)">o</text><text xml:space="preserve" font-family="GillSans-Light" font-size="42.8" fill="#525252" transform="matrix(1.00, 0.00, -0.00, -1.00, 330.6, 191.0)"> </text><text xml:space="preserve" font-family="GillSans-Light" font-size="42.8" fill="#525252" transform="matrix(1.00, 0.00, -0.00, -1.00, 342.5, 191.0)">a</text><text xml:space="preserve" font-family="GillSans-Light" font-size="42.8" fill="#525252" transform="matrix(1.00, 0.00, -0.00, -1.00, 360.8, 191.0)">u</text><text xml:space="preserve" font-family="GillSans-Light" font-size="42.8" fill="#525252" transform="matrix(1.00, 0.00, -0.00, -1.00, 381.7, 191.0)">t</text><text xml:space="preserve" font-family="GillSans-Light" font-size="42.8" fill="#525252" transform="matrix(1.00, 0.00, -0.00, -1.00, 394.6, 191.0)">h</text><text xml:space="preserve" font-family="GillSans-Light" font-size="42.8" fill="#525252" transform="matrix(1.00, 0.00, -0.00, -1.00, 415.6, 191.0)">e</text><text xml:space="preserve" font-family="GillSans-Light" font-size="42.8" fill="#525252" transform="matrix(1.00, 0.00, -0.00, -1.00, 436.1, 191.0)">n</text><text xml:space="preserve" font-family="GillSans-Light" font-size="42.8" fill="#525252" transform="matrix(1.00, 0.00, -0.00, -1.00, 457.1, 191.0)">t</text><text xml:space="preserve" font-family="GillSans-Light" font-size="42.8" fill="#525252" transform="matrix(1.00, 0.00, -0.00, -1.00, 470.0, 191.0)">i</text><text xml:space="preserve" font-family="GillSans-Light" font-size="42.8" fill="#525252" transform="matrix(1.00, 0.00, -0.00, -1.00, 478.0, 191.0)">c</text><text xml:space="preserve" font-family="GillSans-Light" font-size="42.8" fill="#525252" transform="matrix(1.00, 0.00, -0.00, -1.00, 495.9, 191.0)">a</text><text xml:space="preserve" font-family="GillSans-Light" font-size="42.8" fill="#525252" transform="matrix(1.00, 0.00, -0.00, -1.00, 514.1, 191.0)">t</text><text xml:space="preserve" font-family="GillSans-Light" font-size="42.8" fill="#525252" transform="matrix(1.00, 0.00, -0.00, -1.00, 527.0, 191.0)">e</text><text xml:space="preserve" font-family="GillSans-Light" font-size="42.8" fill="#525252" transform="matrix(1.00, 0.00, -0.00, -1.00, 547.5, 191.0)"> </text><text xml:space="preserve" font-family="GillSans-Light" font-size="42.8" fill="#525252" transform="matrix(1.00, 0.00, -0.00, -1.00, 70.0, 134.0)">o</text><text xml:space="preserve" font-family="GillSans-Light" font-size="42.8" fill="#525252" transform="matrix(1.00, 0.00, -0.00, -1.00, 93.2, 134.0)">t</text><text xml:space="preserve" font-family="GillSans-Light" font-size="42.8" fill="#525252" transform="matrix(1.00, 0.00, -0.00, -1.00, 106.1, 134.0)">h</text><text xml:space="preserve" font-family="GillSans-Light" font-size="42.8" fill="#525252" transform="matrix(1.00, 0.00, -0.00, -1.00, 127.1, 134.0)">e</text><text xml:space="preserve" font-family="GillSans-Light" font-size="42.8" fill="#525252" transform="matrix(1.00, 0.00, -0.00, -1.00, 147.6, 134.0)">r</text><text xml:space="preserve" font-family="GillSans-Light" font-size="42.8" fill="#525252" transform="matrix(1.00, 0.00, -0.00, -1.00, 161.8, 134.0)"> </text><text xml:space="preserve" font-family="GillSans-Light" font-size="42.8" fill="#525252" transform="matrix(1.00, 0.00, -0.00, -1.00, 173.7, 134.0)">p</text><text xml:space="preserve" font-family="GillSans-Light" font-size="42.8" fill="#525252" transform="matrix(1.00, 0.00, -0.00, -1.00, 195.5, 134.0)">l</text><text xml:space="preserve" font-family="GillSans-Light" font-size="42.8" fill="#525252" transform="matrix(1.00, 0.00, -0.00, -1.00, 203.5, 134.0)">a</text><text xml:space="preserve" font-family="GillSans-Light" font-size="42.8" fill="#525252" transform="matrix(1.00, 0.00, -0.00, -1.00, 221.8, 134.0)">t</text><text xml:space="preserve" font-family="GillSans-Light" font-size="42.8" fill="#525252" transform="matrix(1.00, 0.00, -0.00, -1.00, 234.7, 134.0)">f</text><text xml:space="preserve" font-family="GillSans-Light" font-size="42.8" fill="#525252" transform="matrix(1.00, 0.00, -0.00, -1.00, 244.5, 134.0)">o</text><text xml:space="preserve" font-family="GillSans-Light" font-size="42.8" fill="#525252" transform="matrix(1.00, 0.00, -0.00, -1.00, 267.7, 134.0)">r</text><text xml:space="preserve" font-family="GillSans-Light" font-size="42.8" fill="#525252" transform="matrix(1.00, 0.00, -0.00, -1.00, 283.0, 134.0)">m</text><text xml:space="preserve" font-family="GillSans-Light" font-size="42.8" fill="#525252" transform="matrix(1.00, 0.00, -0.00, -1.00, 316.0, 134.0)">s</text><text xml:space="preserve" font-family="GillSans-Light" font-size="42.8" fill="#525252" transform="matrix(1.00, 0.00, -0.00, -1.00, 331.2, 134.0)"> </text><text xml:space="preserve" font-family="GillSans-Light" font-size="42.8" fill="#525252" transform="matrix(1.00, 0.00, -0.00, -1.00, 343.0, 134.0)">v</text><text xml:space="preserve" font-family="GillSans-Light" font-size="42.8" fill="#525252" transform="matrix(1.00, 0.00, -0.00, -1.00, 361.3, 134.0)">i</text><text xml:space="preserve" font-family="GillSans-Light" font-size="42.8" fill="#525252" transform="matrix(1.00, 0.00, -0.00, -1.00, 369.3, 134.0)">a</text><text xml:space="preserve" font-family="GillSans-Light" font-size="42.8" fill="#525252" transform="matrix(1.00, 0.00, -0.00, -1.00, 387.6, 134.0)"> </text><text xml:space="preserve" font-family="GillSans-Light" font-size="42.8" fill="#525252" transform="matrix(1.00, 0.00, -0.00, -1.00, 399.5, 134.0)">P</text><text xml:space="preserve" font-family="GillSans-Light" font-size="42.8" fill="#525252" transform="matrix(1.00, 0.00, -0.00, -1.00, 421.3, 134.0)">u</text><text xml:space="preserve" font-family="GillSans-Light" font-size="42.8" fill="#525252" transform="matrix(1.00, 0.00, -0.00, -1.00, 442.2, 134.0)">s</text><text xml:space="preserve" font-family="GillSans-Light" font-size="42.8" fill="#525252" transform="matrix(1.00, 0.00, -0.00, -1.00, 457.4, 134.0)">h</text><text xml:space="preserve" font-family="GillSans-Light" font-size="42.8" fill="#525252" transform="matrix(1.00, 0.00, -0.00, -1.00, 478.4, 134.0)"> </text><text xml:space="preserve" font-family="GillSans-Light" font-size="42.8" fill="#525252" transform="matrix(1.00, 0.00, -0.00, -1.00, 70.0, 76.0)">N</text><text xml:space="preserve" font-family="GillSans-Light" font-size="42.8" fill="#525252" transform="matrix(1.00, 0.00, -0.00, -1.00, 103.0, 76.0)">o</text><text xml:space="preserve" font-family="GillSans-Light" font-size="42.8" fill="#525252" transform="matrix(1.00, 0.00, -0.00, -1.00, 126.2, 76.0)">t</text><text xml:space="preserve" font-family="GillSans-Light" font-size="42.8" fill="#525252" transform="matrix(1.00, 0.00, -0.00, -1.00, 139.1, 76.0)">i</text><text xml:space="preserve" font-family="GillSans-Light" font-size="42.8" fill="#525252" transform="matrix(1.00, 0.00, -0.00, -1.00, 147.1, 76.0)">ﬁ</text><text xml:space="preserve" font-family="GillSans-Light" font-size="42.8" fill="#525252" transform="matrix(1.00, 0.00, -0.00, -1.00, 167.6, 76.0)">c</text><text xml:space="preserve" font-family="GillSans-Light" font-size="42.8" fill="#525252" transform="matrix(1.00, 0.00, -0.00, -1.00, 185.4, 76.0)">a</text><text xml:space="preserve" font-family="GillSans-Light" font-size="42.8" fill="#525252" transform="matrix(1.00, 0.00, -0.00, -1.00, 203.7, 76.0)">t</text><text xml:space="preserve" font-family="GillSans-Light" font-size="42.8" fill="#525252" transform="matrix(1.00, 0.00, -0.00, -1.00, 216.6, 76.0)">i</text><text xml:space="preserve" font-family="GillSans-Light" font-size="42.8" fill="#525252" transform="matrix(1.00, 0.00, -0.00, -1.00, 224.6, 76.0)">o</text><text xml:space="preserve" font-family="GillSans-Light" font-size="42.8" fill="#525252" transform="matrix(1.00, 0.00, -0.00, -1.00, 247.8, 76.0)">n</text><text xml:space="preserve" font-family="GillSans-Light" font-size="42.8" fill="#525252" transform="matrix(1.00, 0.00, -0.00, -1.00, 268.8, 76.0)">s</text><image xlink:href="../../2F1AD55E-CE94-4453-8DD2-CE9DB39432F6/assets/A3A1659BB874E7DA7B963BA29DB66181.jpeg" width="272.00" height="485.00" transform="matrix(1.00, 0.00, -0.00, -1.00, 652.0, 536.0)"></image></g></svg>