<?xml version="1.0" encoding="UTF-8" standalone="no"?><svg xmlns="http://www.w3.org/2000/svg" xmlns:xlink="http://www.w3.org/1999/xlink" clip-rule="evenodd" stroke-miterlimit="4.00" viewBox="0 0 1024 768"><desc>SVG generated by Keynote</desc><defs></defs><g transform="matrix(1.00, 0.00, -0.00, -1.00, 0.0, 768.0)"><g><clipPath id="clip-158"><path d="M 0.0 768.0 L 1024.0 768.0 L 1024.0 0.0 L 0.0 0.0 Z M 0.0 768.0 "></path></clipPath><g clip-path="url(#clip-158)"><image xlink:href="../../7BB23D08-1DB8-49DD-BF67-071A41A734D0/assets/D3CB8578D364082F6943B53F933CCC32.jpeg" width="1024.00" height="768.00" transform="matrix(1.00, 0.00, -0.00, -1.00, 0.0, 768.0)"></image></g></g><text xml:space="preserve" font-family="GillSans-Light" font-size="18.9" fill="#525252" transform="matrix(1.00, 0.00, -0.00, -1.00, 104.0, 100.0)">•</text><text xml:space="preserve" font-family="GillSans-Light" font-size="23.0" fill="#525252" transform="matrix(1.00, 0.00, -0.00, -1.00, 125.0, 98.0)">S</text><text xml:space="preserve" font-family="GillSans-Light" font-size="23.0" fill="#525252" transform="matrix(1.00, 0.00, -0.00, -1.00, 135.8, 98.0)">e</text><text xml:space="preserve" font-family="GillSans-Light" font-size="23.0" fill="#525252" transform="matrix(1.00, 0.00, -0.00, -1.00, 146.8, 98.0)">r</text><text xml:space="preserve" font-family="GillSans-Light" font-size="23.0" fill="#525252" transform="matrix(1.00, 0.00, -0.00, -1.00, 156.1, 98.0)">v</text><text xml:space="preserve" font-family="GillSans-Light" font-size="23.0" fill="#525252" transform="matrix(1.00, 0.00, -0.00, -1.00, 165.5, 98.0)">e</text><text xml:space="preserve" font-family="GillSans-Light" font-size="23.0" fill="#525252" transform="matrix(1.00, 0.00, -0.00, -1.00, 176.6, 98.0)">r</text><text xml:space="preserve" font-family="GillSans-Light" font-size="23.0" fill="#525252" transform="matrix(1.00, 0.00, -0.00, -1.00, 184.2, 98.0)"> </text><text xml:space="preserve" font-family="GillSans-Light" font-size="23.0" fill="#525252" transform="matrix(1.00, 0.00, -0.00, -1.00, 190.6, 98.0)">w</text><text xml:space="preserve" font-family="GillSans-Light" font-size="23.0" fill="#525252" transform="matrix(1.00, 0.00, -0.00, -1.00, 206.9, 98.0)">i</text><text xml:space="preserve" font-family="GillSans-Light" font-size="23.0" fill="#525252" transform="matrix(1.00, 0.00, -0.00, -1.00, 211.2, 98.0)">l</text><text xml:space="preserve" font-family="GillSans-Light" font-size="23.0" fill="#525252" transform="matrix(1.00, 0.00, -0.00, -1.00, 215.5, 98.0)">l</text><text xml:space="preserve" font-family="GillSans-Light" font-size="23.0" fill="#525252" transform="matrix(1.00, 0.00, -0.00, -1.00, 219.9, 98.0)"> </text><text xml:space="preserve" font-family="GillSans-Light" font-size="23.0" fill="#525252" transform="matrix(1.00, 0.00, -0.00, -1.00, 226.2, 98.0)">s</text><text xml:space="preserve" font-family="GillSans-Light" font-size="23.0" fill="#525252" transform="matrix(1.00, 0.00, -0.00, -1.00, 234.4, 98.0)">e</text><text xml:space="preserve" font-family="GillSans-Light" font-size="23.0" fill="#525252" transform="matrix(1.00, 0.00, -0.00, -1.00, 245.4, 98.0)">n</text><text xml:space="preserve" font-family="GillSans-Light" font-size="23.0" fill="#525252" transform="matrix(1.00, 0.00, -0.00, -1.00, 256.7, 98.0)">d</text><text xml:space="preserve" font-family="GillSans-Light" font-size="23.0" fill="#525252" transform="matrix(1.00, 0.00, -0.00, -1.00, 268.4, 98.0)"> </text><text xml:space="preserve" font-family="GillSans-Light" font-size="23.0" fill="#525252" transform="matrix(1.00, 0.00, -0.00, -1.00, 274.8, 98.0)">p</text><text xml:space="preserve" font-family="GillSans-Light" font-size="23.0" fill="#525252" transform="matrix(1.00, 0.00, -0.00, -1.00, 286.5, 98.0)">u</text><text xml:space="preserve" font-family="GillSans-Light" font-size="23.0" fill="#525252" transform="matrix(1.00, 0.00, -0.00, -1.00, 297.8, 98.0)">s</text><text xml:space="preserve" font-family="GillSans-Light" font-size="23.0" fill="#525252" transform="matrix(1.00, 0.00, -0.00, -1.00, 305.9, 98.0)">h</text><text xml:space="preserve" font-family="GillSans-Light" font-size="23.0" fill="#525252" transform="matrix(1.00, 0.00, -0.00, -1.00, 317.2, 98.0)"> </text><text xml:space="preserve" font-family="GillSans-Light" font-size="23.0" fill="#525252" transform="matrix(1.00, 0.00, -0.00, -1.00, 323.6, 98.0)">n</text><text xml:space="preserve" font-family="GillSans-Light" font-size="23.0" fill="#525252" transform="matrix(1.00, 0.00, -0.00, -1.00, 334.9, 98.0)">o</text><text xml:space="preserve" font-family="GillSans-Light" font-size="23.0" fill="#525252" transform="matrix(1.00, 0.00, -0.00, -1.00, 347.3, 98.0)">t</text><text xml:space="preserve" font-family="GillSans-Light" font-size="23.0" fill="#525252" transform="matrix(1.00, 0.00, -0.00, -1.00, 354.3, 98.0)">i</text><text xml:space="preserve" font-family="GillSans-Light" font-size="23.0" fill="#525252" transform="matrix(1.00, 0.00, -0.00, -1.00, 358.6, 98.0)">ﬁ</text><text xml:space="preserve" font-family="GillSans-Light" font-size="23.0" fill="#525252" transform="matrix(1.00, 0.00, -0.00, -1.00, 369.6, 98.0)">c</text><text xml:space="preserve" font-family="GillSans-Light" font-size="23.0" fill="#525252" transform="matrix(1.00, 0.00, -0.00, -1.00, 379.2, 98.0)">a</text><text xml:space="preserve" font-family="GillSans-Light" font-size="23.0" fill="#525252" transform="matrix(1.00, 0.00, -0.00, -1.00, 389.0, 98.0)">t</text><text xml:space="preserve" font-family="GillSans-Light" font-size="23.0" fill="#525252" transform="matrix(1.00, 0.00, -0.00, -1.00, 396.0, 98.0)">i</text><text xml:space="preserve" font-family="GillSans-Light" font-size="23.0" fill="#525252" transform="matrix(1.00, 0.00, -0.00, -1.00, 400.3, 98.0)">o</text><text xml:space="preserve" font-family="GillSans-Light" font-size="23.0" fill="#525252" transform="matrix(1.00, 0.00, -0.00, -1.00, 412.7, 98.0)">n</text><text xml:space="preserve" font-family="GillSans-Light" font-size="23.0" fill="#525252" transform="matrix(1.00, 0.00, -0.00, -1.00, 424.0, 98.0)"> </text><text xml:space="preserve" font-family="GillSans-Light" font-size="23.0" fill="#525252" transform="matrix(1.00, 0.00, -0.00, -1.00, 430.4, 98.0)">t</text><text xml:space="preserve" font-family="GillSans-Light" font-size="23.0" fill="#525252" transform="matrix(1.00, 0.00, -0.00, -1.00, 437.3, 98.0)">o</text><text xml:space="preserve" font-family="GillSans-Light" font-size="23.0" fill="#525252" transform="matrix(1.00, 0.00, -0.00, -1.00, 449.8, 98.0)"> </text><text xml:space="preserve" font-family="GillSans-Light" font-size="23.0" fill="#525252" transform="matrix(1.00, 0.00, -0.00, -1.00, 456.2, 98.0)">p</text><text xml:space="preserve" font-family="GillSans-Light" font-size="23.0" fill="#525252" transform="matrix(1.00, 0.00, -0.00, -1.00, 467.9, 98.0)">r</text><text xml:space="preserve" font-family="GillSans-Light" font-size="23.0" fill="#525252" transform="matrix(1.00, 0.00, -0.00, -1.00, 476.1, 98.0)">i</text><text xml:space="preserve" font-family="GillSans-Light" font-size="23.0" fill="#525252" transform="matrix(1.00, 0.00, -0.00, -1.00, 480.5, 98.0)">m</text><text xml:space="preserve" font-family="GillSans-Light" font-size="23.0" fill="#525252" transform="matrix(1.00, 0.00, -0.00, -1.00, 498.2, 98.0)">a</text><text xml:space="preserve" font-family="GillSans-Light" font-size="23.0" fill="#525252" transform="matrix(1.00, 0.00, -0.00, -1.00, 508.0, 98.0)">r</text><text xml:space="preserve" font-family="GillSans-Light" font-size="23.0" fill="#525252" transform="matrix(1.00, 0.00, -0.00, -1.00, 517.3, 98.0)">y</text><text xml:space="preserve" font-family="GillSans-Light" font-size="23.0" fill="#525252" transform="matrix(1.00, 0.00, -0.00, -1.00, 526.9, 98.0)"> </text><text xml:space="preserve" font-family="GillSans-Light" font-size="23.0" fill="#525252" transform="matrix(1.00, 0.00, -0.00, -1.00, 533.3, 98.0)">(</text><text xml:space="preserve" font-family="GillSans-Light" font-size="23.0" fill="#525252" transform="matrix(1.00, 0.00, -0.00, -1.00, 540.9, 98.0)">e</text><text xml:space="preserve" font-family="GillSans-Light" font-size="23.0" fill="#525252" transform="matrix(1.00, 0.00, -0.00, -1.00, 551.9, 98.0)">n</text><text xml:space="preserve" font-family="GillSans-Light" font-size="23.0" fill="#525252" transform="matrix(1.00, 0.00, -0.00, -1.00, 563.2, 98.0)">r</text><text xml:space="preserve" font-family="GillSans-Light" font-size="23.0" fill="#525252" transform="matrix(1.00, 0.00, -0.00, -1.00, 570.9, 98.0)">o</text><text xml:space="preserve" font-family="GillSans-Light" font-size="23.0" fill="#525252" transform="matrix(1.00, 0.00, -0.00, -1.00, 583.3, 98.0)">l</text><text xml:space="preserve" font-family="GillSans-Light" font-size="23.0" fill="#525252" transform="matrix(1.00, 0.00, -0.00, -1.00, 587.7, 98.0)">l</text><text xml:space="preserve" font-family="GillSans-Light" font-size="23.0" fill="#525252" transform="matrix(1.00, 0.00, -0.00, -1.00, 592.0, 98.0)">e</text><text xml:space="preserve" font-family="GillSans-Light" font-size="23.0" fill="#525252" transform="matrix(1.00, 0.00, -0.00, -1.00, 603.0, 98.0)">d</text><text xml:space="preserve" font-family="GillSans-Light" font-size="23.0" fill="#525252" transform="matrix(1.00, 0.00, -0.00, -1.00, 614.7, 98.0)">)</text><text xml:space="preserve" font-family="GillSans-Light" font-size="23.0" fill="#525252" transform="matrix(1.00, 0.00, -0.00, -1.00, 622.4, 98.0)"> </text><text xml:space="preserve" font-family="GillSans-Light" font-size="23.0" fill="#525252" transform="matrix(1.00, 0.00, -0.00, -1.00, 628.8, 98.0)">d</text><text xml:space="preserve" font-family="GillSans-Light" font-size="23.0" fill="#525252" transform="matrix(1.00, 0.00, -0.00, -1.00, 640.5, 98.0)">e</text><text xml:space="preserve" font-family="GillSans-Light" font-size="23.0" fill="#525252" transform="matrix(1.00, 0.00, -0.00, -1.00, 651.5, 98.0)">v</text><text xml:space="preserve" font-family="GillSans-Light" font-size="23.0" fill="#525252" transform="matrix(1.00, 0.00, -0.00, -1.00, 661.3, 98.0)">i</text><text xml:space="preserve" font-family="GillSans-Light" font-size="23.0" fill="#525252" transform="matrix(1.00, 0.00, -0.00, -1.00, 665.6, 98.0)">c</text><text xml:space="preserve" font-family="GillSans-Light" font-size="23.0" fill="#525252" transform="matrix(1.00, 0.00, -0.00, -1.00, 675.2, 98.0)">e</text><image xlink:href="../../5FE947BB-5F11-43D7-B5A5-88267E05E00C/assets/B9B410316C4A3859A1AEEDEF4EA75553.jpeg" width="309.00" height="551.00" transform="matrix(1.00, 0.00, -0.00, -1.00, 357.0, 718.0)"></image></g></svg>