<?xml version="1.0" encoding="UTF-8" standalone="no"?><svg xmlns="http://www.w3.org/2000/svg" xmlns:xlink="http://www.w3.org/1999/xlink" clip-rule="evenodd" stroke-miterlimit="4.00" viewBox="0 0 1024 768"><desc>SVG generated by Keynote</desc><defs></defs><g transform="matrix(1.00, 0.00, -0.00, -1.00, 0.0, 768.0)"><g><clipPath id="clip-159"><path d="M 0.0 768.0 L 1024.0 768.0 L 1024.0 0.0 L 0.0 0.0 Z M 0.0 768.0 "></path></clipPath><g clip-path="url(#clip-159)"><image xlink:href="../../7BB23D08-1DB8-49DD-BF67-071A41A734D0/assets/D3CB8578D364082F6943B53F933CCC32.jpeg" width="1024.00" height="768.00" transform="matrix(1.00, 0.00, -0.00, -1.00, 0.0, 768.0)"></image></g></g><text xml:space="preserve" font-family="GillSans-Light" font-size="18.9" fill="#525252" transform="matrix(1.00, 0.00, -0.00, -1.00, 104.0, 100.0)">•</text><text xml:space="preserve" font-family="GillSans-Light" font-size="23.0" fill="#525252" transform="matrix(1.00, 0.00, -0.00, -1.00, 125.0, 98.0)">P</text><text xml:space="preserve" font-family="GillSans-Light" font-size="23.0" fill="#525252" transform="matrix(1.00, 0.00, -0.00, -1.00, 136.7, 98.0)">r</text><text xml:space="preserve" font-family="GillSans-Light" font-size="23.0" fill="#525252" transform="matrix(1.00, 0.00, -0.00, -1.00, 145.0, 98.0)">i</text><text xml:space="preserve" font-family="GillSans-Light" font-size="23.0" fill="#525252" transform="matrix(1.00, 0.00, -0.00, -1.00, 149.3, 98.0)">m</text><text xml:space="preserve" font-family="GillSans-Light" font-size="23.0" fill="#525252" transform="matrix(1.00, 0.00, -0.00, -1.00, 167.0, 98.0)">a</text><text xml:space="preserve" font-family="GillSans-Light" font-size="23.0" fill="#525252" transform="matrix(1.00, 0.00, -0.00, -1.00, 176.8, 98.0)">r</text><text xml:space="preserve" font-family="GillSans-Light" font-size="23.0" fill="#525252" transform="matrix(1.00, 0.00, -0.00, -1.00, 186.1, 98.0)">y</text><text xml:space="preserve" font-family="GillSans-Light" font-size="23.0" fill="#525252" transform="matrix(1.00, 0.00, -0.00, -1.00, 195.7, 98.0)"> </text><text xml:space="preserve" font-family="GillSans-Light" font-size="23.0" fill="#525252" transform="matrix(1.00, 0.00, -0.00, -1.00, 202.1, 98.0)">d</text><text xml:space="preserve" font-family="GillSans-Light" font-size="23.0" fill="#525252" transform="matrix(1.00, 0.00, -0.00, -1.00, 213.8, 98.0)">e</text><text xml:space="preserve" font-family="GillSans-Light" font-size="23.0" fill="#525252" transform="matrix(1.00, 0.00, -0.00, -1.00, 224.8, 98.0)">v</text><text xml:space="preserve" font-family="GillSans-Light" font-size="23.0" fill="#525252" transform="matrix(1.00, 0.00, -0.00, -1.00, 234.6, 98.0)">i</text><text xml:space="preserve" font-family="GillSans-Light" font-size="23.0" fill="#525252" transform="matrix(1.00, 0.00, -0.00, -1.00, 238.9, 98.0)">c</text><text xml:space="preserve" font-family="GillSans-Light" font-size="23.0" fill="#525252" transform="matrix(1.00, 0.00, -0.00, -1.00, 248.5, 98.0)">e</text><text xml:space="preserve" font-family="GillSans-Light" font-size="23.0" fill="#525252" transform="matrix(1.00, 0.00, -0.00, -1.00, 259.5, 98.0)"> </text><text xml:space="preserve" font-family="GillSans-Light" font-size="23.0" fill="#525252" transform="matrix(1.00, 0.00, -0.00, -1.00, 265.9, 98.0)">w</text><text xml:space="preserve" font-family="GillSans-Light" font-size="23.0" fill="#525252" transform="matrix(1.00, 0.00, -0.00, -1.00, 282.2, 98.0)">i</text><text xml:space="preserve" font-family="GillSans-Light" font-size="23.0" fill="#525252" transform="matrix(1.00, 0.00, -0.00, -1.00, 286.5, 98.0)">l</text><text xml:space="preserve" font-family="GillSans-Light" font-size="23.0" fill="#525252" transform="matrix(1.00, 0.00, -0.00, -1.00, 290.9, 98.0)">l</text><text xml:space="preserve" font-family="GillSans-Light" font-size="23.0" fill="#525252" transform="matrix(1.00, 0.00, -0.00, -1.00, 295.2, 98.0)"> </text><text xml:space="preserve" font-family="GillSans-Light" font-size="23.0" fill="#525252" transform="matrix(1.00, 0.00, -0.00, -1.00, 301.6, 98.0)">s</text><text xml:space="preserve" font-family="GillSans-Light" font-size="23.0" fill="#525252" transform="matrix(1.00, 0.00, -0.00, -1.00, 309.7, 98.0)">e</text><text xml:space="preserve" font-family="GillSans-Light" font-size="23.0" fill="#525252" transform="matrix(1.00, 0.00, -0.00, -1.00, 320.7, 98.0)">n</text><text xml:space="preserve" font-family="GillSans-Light" font-size="23.0" fill="#525252" transform="matrix(1.00, 0.00, -0.00, -1.00, 332.0, 98.0)">d</text><text xml:space="preserve" font-family="GillSans-Light" font-size="23.0" fill="#525252" transform="matrix(1.00, 0.00, -0.00, -1.00, 343.7, 98.0)"> </text><text xml:space="preserve" font-family="GillSans-Light" font-size="23.0" fill="#525252" transform="matrix(1.00, 0.00, -0.00, -1.00, 350.1, 98.0)">t</text><text xml:space="preserve" font-family="GillSans-Light" font-size="23.0" fill="#525252" transform="matrix(1.00, 0.00, -0.00, -1.00, 357.0, 98.0)">r</text><text xml:space="preserve" font-family="GillSans-Light" font-size="23.0" fill="#525252" transform="matrix(1.00, 0.00, -0.00, -1.00, 365.3, 98.0)">a</text><text xml:space="preserve" font-family="GillSans-Light" font-size="23.0" fill="#525252" transform="matrix(1.00, 0.00, -0.00, -1.00, 375.1, 98.0)">n</text><text xml:space="preserve" font-family="GillSans-Light" font-size="23.0" fill="#525252" transform="matrix(1.00, 0.00, -0.00, -1.00, 386.4, 98.0)">s</text><text xml:space="preserve" font-family="GillSans-Light" font-size="23.0" fill="#525252" transform="matrix(1.00, 0.00, -0.00, -1.00, 394.5, 98.0)">a</text><text xml:space="preserve" font-family="GillSans-Light" font-size="23.0" fill="#525252" transform="matrix(1.00, 0.00, -0.00, -1.00, 404.3, 98.0)">c</text><text xml:space="preserve" font-family="GillSans-Light" font-size="23.0" fill="#525252" transform="matrix(1.00, 0.00, -0.00, -1.00, 413.9, 98.0)">t</text><text xml:space="preserve" font-family="GillSans-Light" font-size="23.0" fill="#525252" transform="matrix(1.00, 0.00, -0.00, -1.00, 420.8, 98.0)">i</text><text xml:space="preserve" font-family="GillSans-Light" font-size="23.0" fill="#525252" transform="matrix(1.00, 0.00, -0.00, -1.00, 425.2, 98.0)">o</text><text xml:space="preserve" font-family="GillSans-Light" font-size="23.0" fill="#525252" transform="matrix(1.00, 0.00, -0.00, -1.00, 437.6, 98.0)">n</text><text xml:space="preserve" font-family="GillSans-Light" font-size="23.0" fill="#525252" transform="matrix(1.00, 0.00, -0.00, -1.00, 448.9, 98.0)"> </text><text xml:space="preserve" font-family="GillSans-Light" font-size="23.0" fill="#525252" transform="matrix(1.00, 0.00, -0.00, -1.00, 455.3, 98.0)">r</text><text xml:space="preserve" font-family="GillSans-Light" font-size="23.0" fill="#525252" transform="matrix(1.00, 0.00, -0.00, -1.00, 463.0, 98.0)">e</text><text xml:space="preserve" font-family="GillSans-Light" font-size="23.0" fill="#525252" transform="matrix(1.00, 0.00, -0.00, -1.00, 474.0, 98.0)">s</text><text xml:space="preserve" font-family="GillSans-Light" font-size="23.0" fill="#525252" transform="matrix(1.00, 0.00, -0.00, -1.00, 482.1, 98.0)">u</text><text xml:space="preserve" font-family="GillSans-Light" font-size="23.0" fill="#525252" transform="matrix(1.00, 0.00, -0.00, -1.00, 493.4, 98.0)">l</text><text xml:space="preserve" font-family="GillSans-Light" font-size="23.0" fill="#525252" transform="matrix(1.00, 0.00, -0.00, -1.00, 497.7, 98.0)">t</text><text xml:space="preserve" font-family="GillSans-Light" font-size="23.0" fill="#525252" transform="matrix(1.00, 0.00, -0.00, -1.00, 504.7, 98.0)"> </text><text xml:space="preserve" font-family="GillSans-Light" font-size="23.0" fill="#525252" transform="matrix(1.00, 0.00, -0.00, -1.00, 511.0, 98.0)">b</text><text xml:space="preserve" font-family="GillSans-Light" font-size="23.0" fill="#525252" transform="matrix(1.00, 0.00, -0.00, -1.00, 522.8, 98.0)">a</text><text xml:space="preserve" font-family="GillSans-Light" font-size="23.0" fill="#525252" transform="matrix(1.00, 0.00, -0.00, -1.00, 532.6, 98.0)">c</text><text xml:space="preserve" font-family="GillSans-Light" font-size="23.0" fill="#525252" transform="matrix(1.00, 0.00, -0.00, -1.00, 542.2, 98.0)">k</text><text xml:space="preserve" font-family="GillSans-Light" font-size="23.0" fill="#525252" transform="matrix(1.00, 0.00, -0.00, -1.00, 552.0, 98.0)"> </text><text xml:space="preserve" font-family="GillSans-Light" font-size="23.0" fill="#525252" transform="matrix(1.00, 0.00, -0.00, -1.00, 558.4, 98.0)">t</text><text xml:space="preserve" font-family="GillSans-Light" font-size="23.0" fill="#525252" transform="matrix(1.00, 0.00, -0.00, -1.00, 565.3, 98.0)">o</text><text xml:space="preserve" font-family="GillSans-Light" font-size="23.0" fill="#525252" transform="matrix(1.00, 0.00, -0.00, -1.00, 577.8, 98.0)"> </text><text xml:space="preserve" font-family="GillSans-Light" font-size="23.0" fill="#525252" transform="matrix(1.00, 0.00, -0.00, -1.00, 584.2, 98.0)">s</text><text xml:space="preserve" font-family="GillSans-Light" font-size="23.0" fill="#525252" transform="matrix(1.00, 0.00, -0.00, -1.00, 592.3, 98.0)">e</text><text xml:space="preserve" font-family="GillSans-Light" font-size="23.0" fill="#525252" transform="matrix(1.00, 0.00, -0.00, -1.00, 603.3, 98.0)">r</text><text xml:space="preserve" font-family="GillSans-Light" font-size="23.0" fill="#525252" transform="matrix(1.00, 0.00, -0.00, -1.00, 612.6, 98.0)">v</text><text xml:space="preserve" font-family="GillSans-Light" font-size="23.0" fill="#525252" transform="matrix(1.00, 0.00, -0.00, -1.00, 622.0, 98.0)">e</text><text xml:space="preserve" font-family="GillSans-Light" font-size="23.0" fill="#525252" transform="matrix(1.00, 0.00, -0.00, -1.00, 633.1, 98.0)">r</text><image xlink:href="549A6353574217EAFA512FCD6D4748F5.jpeg" width="324.00" height="576.00" transform="matrix(1.00, 0.00, -0.00, -1.00, 350.0, 732.0)"></image></g></svg>