<?xml version="1.0" encoding="UTF-8" standalone="no"?><svg xmlns="http://www.w3.org/2000/svg" xmlns:xlink="http://www.w3.org/1999/xlink" clip-rule="evenodd" stroke-miterlimit="4.00" viewBox="0 0 345 408"><desc>SVG generated by Keynote</desc><defs></defs><g transform="matrix(1.00, 0.00, -0.00, -1.00, 0.0, 408.0)"><path d="M 79.9 406.2 L 264.9 406.2 C 287.3 406.2 298.7 406.2 310.9 402.4 C 324.1 397.6 334.6 387.1 339.4 373.9 C 343.2 361.8 343.2 350.4 343.2 327.6 L 343.2 80.1 C 343.2 57.6 343.2 46.2 339.4 34.1 C 334.6 20.9 324.1 10.4 310.9 5.6 C 298.7 1.8 287.3 1.8 264.5 1.8 L 79.9 1.8 C 57.5 1.8 46.0 1.8 33.9 5.6 C 20.7 10.4 10.2 20.9 5.4 34.1 C 1.6 46.2 1.6 57.6 1.6 80.4 L 1.6 327.9 C 1.6 350.4 1.6 361.8 5.4 373.9 C 10.2 387.1 20.7 397.6 33.9 402.4 C 46.0 406.2 57.5 406.2 80.3 406.2 Z M 79.9 406.2 " fill="#34A4DA"></path></g></svg>