<?xml version="1.0" encoding="UTF-8" standalone="no"?><svg xmlns="http://www.w3.org/2000/svg" xmlns:xlink="http://www.w3.org/1999/xlink" clip-rule="evenodd" stroke-miterlimit="4.00" viewBox="0 0 424 51"><desc>SVG generated by Keynote</desc><defs></defs><g transform="matrix(1.00, 0.00, -0.00, -1.00, 0.0, 51.0)"><text xml:space="preserve" font-family="AvenirNext-Medium" font-size="20.0" fill="#838686" transform="matrix(1.00, 0.00, -0.00, -1.00, 1.0, 34.0)">N</text><text xml:space="preserve" font-family="AvenirNext-Medium" font-size="20.0" fill="#838686" transform="matrix(1.00, 0.00, -0.00, -1.00, 16.4, 34.0)">o</text><text xml:space="preserve" font-family="AvenirNext-Medium" font-size="20.0" fill="#838686" transform="matrix(1.00, 0.00, -0.00, -1.00, 28.6, 34.0)">d</text><text xml:space="preserve" font-family="AvenirNext-Medium" font-size="20.0" fill="#838686" transform="matrix(1.00, 0.00, -0.00, -1.00, 41.3, 34.0)">e</text><text xml:space="preserve" font-family="AvenirNext-Medium" font-size="20.0" fill="#838686" transform="matrix(1.00, 0.00, -0.00, -1.00, 52.8, 34.0)">-</text><text xml:space="preserve" font-family="AvenirNext-Medium" font-size="20.0" fill="#838686" transform="matrix(1.00, 0.00, -0.00, -1.00, 59.2, 34.0)">R</text><text xml:space="preserve" font-family="AvenirNext-Medium" font-size="20.0" fill="#838686" transform="matrix(1.00, 0.00, -0.00, -1.00, 71.5, 34.0)">E</text><text xml:space="preserve" font-family="AvenirNext-Medium" font-size="20.0" fill="#838686" transform="matrix(1.00, 0.00, -0.00, -1.00, 83.5, 34.0)">D</text><text xml:space="preserve" font-family="AvenirNext-Medium" font-size="20.0" fill="#838686" transform="matrix(1.00, 0.00, -0.00, -1.00, 98.7, 34.0)"> </text><text xml:space="preserve" font-family="AvenirNext-Medium" font-size="20.0" fill="#838686" transform="matrix(1.00, 0.00, -0.00, -1.00, 103.7, 34.0)">s</text><text xml:space="preserve" font-family="AvenirNext-Medium" font-size="20.0" fill="#838686" transform="matrix(1.00, 0.00, -0.00, -1.00, 112.6, 34.0)">i</text><text xml:space="preserve" font-family="AvenirNext-Medium" font-size="20.0" fill="#838686" transform="matrix(1.00, 0.00, -0.00, -1.00, 117.8, 34.0)">m</text><text xml:space="preserve" font-family="AvenirNext-Medium" font-size="20.0" fill="#838686" transform="matrix(1.00, 0.00, -0.00, -1.00, 135.5, 34.0)">p</text><text xml:space="preserve" font-family="AvenirNext-Medium" font-size="20.0" fill="#838686" transform="matrix(1.00, 0.00, -0.00, -1.00, 148.2, 34.0)">l</text><text xml:space="preserve" font-family="AvenirNext-Medium" font-size="20.0" fill="#838686" transform="matrix(1.00, 0.00, -0.00, -1.00, 153.4, 34.0)">i</text><text xml:space="preserve" font-family="AvenirNext-Medium" font-size="20.0" fill="#838686" transform="matrix(1.00, 0.00, -0.00, -1.00, 158.6, 34.0)">ï¬</text><text xml:space="preserve" font-family="AvenirNext-Medium" font-size="20.0" fill="#838686" transform="matrix(1.00, 0.00, -0.00, -1.00, 170.1, 34.0)">e</text><text xml:space="preserve" font-family="AvenirNext-Medium" font-size="20.0" fill="#838686" transform="matrix(1.00, 0.00, -0.00, -1.00, 181.5, 34.0)">s</text><text xml:space="preserve" font-family="AvenirNext-Medium" font-size="20.0" fill="#838686" transform="matrix(1.00, 0.00, -0.00, -1.00, 190.4, 34.0)"> </text><text xml:space="preserve" font-family="AvenirNext-Medium" font-size="20.0" fill="#838686" transform="matrix(1.00, 0.00, -0.00, -1.00, 195.4, 34.0)">p</text><text xml:space="preserve" font-family="AvenirNext-Medium" font-size="20.0" fill="#838686" transform="matrix(1.00, 0.00, -0.00, -1.00, 208.1, 34.0)">r</text><text xml:space="preserve" font-family="AvenirNext-Medium" font-size="20.0" fill="#838686" transform="matrix(1.00, 0.00, -0.00, -1.00, 215.0, 34.0)">o</text><text xml:space="preserve" font-family="AvenirNext-Medium" font-size="20.0" fill="#838686" transform="matrix(1.00, 0.00, -0.00, -1.00, 227.2, 34.0)">g</text><text xml:space="preserve" font-family="AvenirNext-Medium" font-size="20.0" fill="#838686" transform="matrix(1.00, 0.00, -0.00, -1.00, 239.8, 34.0)">r</text><text xml:space="preserve" font-family="AvenirNext-Medium" font-size="20.0" fill="#838686" transform="matrix(1.00, 0.00, -0.00, -1.00, 246.8, 34.0)">a</text><text xml:space="preserve" font-family="AvenirNext-Medium" font-size="20.0" fill="#838686" transform="matrix(1.00, 0.00, -0.00, -1.00, 257.6, 34.0)">m</text><text xml:space="preserve" font-family="AvenirNext-Medium" font-size="20.0" fill="#838686" transform="matrix(1.00, 0.00, -0.00, -1.00, 275.4, 34.0)">m</text><text xml:space="preserve" font-family="AvenirNext-Medium" font-size="20.0" fill="#838686" transform="matrix(1.00, 0.00, -0.00, -1.00, 293.1, 34.0)">i</text><text xml:space="preserve" font-family="AvenirNext-Medium" font-size="20.0" fill="#838686" transform="matrix(1.00, 0.00, -0.00, -1.00, 298.3, 34.0)">n</text><text xml:space="preserve" font-family="AvenirNext-Medium" font-size="20.0" fill="#838686" transform="matrix(1.00, 0.00, -0.00, -1.00, 309.9, 34.0)">g</text><text xml:space="preserve" font-family="AvenirNext-Medium" font-size="20.0" fill="#838686" transform="matrix(1.00, 0.00, -0.00, -1.00, 322.6, 34.0)"> </text><text xml:space="preserve" font-family="AvenirNext-Medium" font-size="20.0" fill="#838686" transform="matrix(1.00, 0.00, -0.00, -1.00, 327.6, 34.0)">w</text><text xml:space="preserve" font-family="AvenirNext-Medium" font-size="20.0" fill="#838686" transform="matrix(1.00, 0.00, -0.00, -1.00, 343.0, 34.0)">i</text><text xml:space="preserve" font-family="AvenirNext-Medium" font-size="20.0" fill="#838686" transform="matrix(1.00, 0.00, -0.00, -1.00, 348.2, 34.0)">t</text><text xml:space="preserve" font-family="AvenirNext-Medium" font-size="20.0" fill="#838686" transform="matrix(1.00, 0.00, -0.00, -1.00, 354.8, 34.0)">h</text><text xml:space="preserve" font-family="AvenirNext-Medium" font-size="20.0" fill="#838686" transform="matrix(1.00, 0.00, -0.00, -1.00, 366.5, 34.0)"> </text><text xml:space="preserve" font-family="AvenirNext-Medium" font-size="20.0" fill="#838686" transform="matrix(1.00, 0.00, -0.00, -1.00, 371.5, 34.0)">s</text><text xml:space="preserve" font-family="AvenirNext-Medium" font-size="20.0" fill="#838686" transform="matrix(1.00, 0.00, -0.00, -1.00, 380.3, 34.0)">e</text><text xml:space="preserve" font-family="AvenirNext-Medium" font-size="20.0" fill="#838686" transform="matrix(1.00, 0.00, -0.00, -1.00, 391.8, 34.0)">t</text><text xml:space="preserve" font-family="AvenirNext-Medium" font-size="20.0" fill="#838686" transform="matrix(1.00, 0.00, -0.00, -1.00, 398.4, 34.0)"> </text><text xml:space="preserve" font-family="AvenirNext-Medium" font-size="20.0" fill="#838686" transform="matrix(1.00, 0.00, -0.00, -1.00, 403.4, 34.0)">o</text><text xml:space="preserve" font-family="AvenirNext-Medium" font-size="20.0" fill="#838686" transform="matrix(1.00, 0.00, -0.00, -1.00, 415.6, 34.0)">f</text><text xml:space="preserve" font-family="AvenirNext-Medium" font-size="20.0" fill="#838686" transform="matrix(1.00, 0.00, -0.00, -1.00, 422.3, 34.0)"> </text><text xml:space="preserve" font-family="AvenirNext-Medium" font-size="20.0" fill="#838686" transform="matrix(1.00, 0.00, -0.00, -1.00, 1.0, 7.0)">n</text><text xml:space="preserve" font-family="AvenirNext-Medium" font-size="20.0" fill="#838686" transform="matrix(1.00, 0.00, -0.00, -1.00, 12.6, 7.0)">o</text><text xml:space="preserve" font-family="AvenirNext-Medium" font-size="20.0" fill="#838686" transform="matrix(1.00, 0.00, -0.00, -1.00, 24.8, 7.0)">d</text><text xml:space="preserve" font-family="AvenirNext-Medium" font-size="20.0" fill="#838686" transform="matrix(1.00, 0.00, -0.00, -1.00, 37.5, 7.0)">e</text><text xml:space="preserve" font-family="AvenirNext-Medium" font-size="20.0" fill="#838686" transform="matrix(1.00, 0.00, -0.00, -1.00, 49.0, 7.0)">s</text><text xml:space="preserve" font-family="AvenirNext-Medium" font-size="20.0" fill="#838686" transform="matrix(1.00, 0.00, -0.00, -1.00, 57.9, 7.0)"> </text><text xml:space="preserve" font-family="AvenirNext-Medium" font-size="20.0" fill="#838686" transform="matrix(1.00, 0.00, -0.00, -1.00, 62.9, 7.0)">t</text><text xml:space="preserve" font-family="AvenirNext-Medium" font-size="20.0" fill="#838686" transform="matrix(1.00, 0.00, -0.00, -1.00, 69.5, 7.0)">h</text><text xml:space="preserve" font-family="AvenirNext-Medium" font-size="20.0" fill="#838686" transform="matrix(1.00, 0.00, -0.00, -1.00, 81.1, 7.0)">a</text><text xml:space="preserve" font-family="AvenirNext-Medium" font-size="20.0" fill="#838686" transform="matrix(1.00, 0.00, -0.00, -1.00, 91.8, 7.0)">t</text><text xml:space="preserve" font-family="AvenirNext-Medium" font-size="20.0" fill="#838686" transform="matrix(1.00, 0.00, -0.00, -1.00, 98.4, 7.0)"> </text><text xml:space="preserve" font-family="AvenirNext-Medium" font-size="20.0" fill="#838686" transform="matrix(1.00, 0.00, -0.00, -1.00, 103.4, 7.0)">a</text><text xml:space="preserve" font-family="AvenirNext-Medium" font-size="20.0" fill="#838686" transform="matrix(1.00, 0.00, -0.00, -1.00, 114.2, 7.0)">r</text><text xml:space="preserve" font-family="AvenirNext-Medium" font-size="20.0" fill="#838686" transform="matrix(1.00, 0.00, -0.00, -1.00, 121.1, 7.0)">e</text><text xml:space="preserve" font-family="AvenirNext-Medium" font-size="20.0" fill="#838686" transform="matrix(1.00, 0.00, -0.00, -1.00, 132.5, 7.0)"> </text><text xml:space="preserve" font-family="AvenirNext-Medium" font-size="20.0" fill="#838686" transform="matrix(1.00, 0.00, -0.00, -1.00, 137.5, 7.0)">r</text><text xml:space="preserve" font-family="AvenirNext-Medium" font-size="20.0" fill="#838686" transform="matrix(1.00, 0.00, -0.00, -1.00, 144.4, 7.0)">e</text><text xml:space="preserve" font-family="AvenirNext-Medium" font-size="20.0" fill="#838686" transform="matrix(1.00, 0.00, -0.00, -1.00, 155.8, 7.0)">a</text><text xml:space="preserve" font-family="AvenirNext-Medium" font-size="20.0" fill="#838686" transform="matrix(1.00, 0.00, -0.00, -1.00, 166.6, 7.0)">d</text><text xml:space="preserve" font-family="AvenirNext-Medium" font-size="20.0" fill="#838686" transform="matrix(1.00, 0.00, -0.00, -1.00, 179.3, 7.0)">y</text><text xml:space="preserve" font-family="AvenirNext-Medium" font-size="20.0" fill="#838686" transform="matrix(1.00, 0.00, -0.00, -1.00, 189.4, 7.0)"> </text><text xml:space="preserve" font-family="AvenirNext-Medium" font-size="20.0" fill="#838686" transform="matrix(1.00, 0.00, -0.00, -1.00, 194.4, 7.0)">t</text><text xml:space="preserve" font-family="AvenirNext-Medium" font-size="20.0" fill="#838686" transform="matrix(1.00, 0.00, -0.00, -1.00, 201.0, 7.0)">o</text><text xml:space="preserve" font-family="AvenirNext-Medium" font-size="20.0" fill="#838686" transform="matrix(1.00, 0.00, -0.00, -1.00, 213.2, 7.0)"> </text><text xml:space="preserve" font-family="AvenirNext-Medium" font-size="20.0" fill="#838686" transform="matrix(1.00, 0.00, -0.00, -1.00, 218.2, 7.0)">b</text><text xml:space="preserve" font-family="AvenirNext-Medium" font-size="20.0" fill="#838686" transform="matrix(1.00, 0.00, -0.00, -1.00, 230.9, 7.0)">e</text><text xml:space="preserve" font-family="AvenirNext-Medium" font-size="20.0" fill="#838686" transform="matrix(1.00, 0.00, -0.00, -1.00, 242.3, 7.0)"> </text><text xml:space="preserve" font-family="AvenirNext-Medium" font-size="20.0" fill="#838686" transform="matrix(1.00, 0.00, -0.00, -1.00, 247.3, 7.0)">w</text><text xml:space="preserve" font-family="AvenirNext-Medium" font-size="20.0" fill="#838686" transform="matrix(1.00, 0.00, -0.00, -1.00, 262.8, 7.0)">i</text><text xml:space="preserve" font-family="AvenirNext-Medium" font-size="20.0" fill="#838686" transform="matrix(1.00, 0.00, -0.00, -1.00, 268.0, 7.0)">r</text><text xml:space="preserve" font-family="AvenirNext-Medium" font-size="20.0" fill="#838686" transform="matrix(1.00, 0.00, -0.00, -1.00, 274.9, 7.0)">e</text><text xml:space="preserve" font-family="AvenirNext-Medium" font-size="20.0" fill="#838686" transform="matrix(1.00, 0.00, -0.00, -1.00, 286.3, 7.0)">d</text><text xml:space="preserve" font-family="AvenirNext-Medium" font-size="20.0" fill="#838686" transform="matrix(1.00, 0.00, -0.00, -1.00, 299.0, 7.0)"> </text><text xml:space="preserve" font-family="AvenirNext-Medium" font-size="20.0" fill="#838686" transform="matrix(1.00, 0.00, -0.00, -1.00, 304.0, 7.0)">t</text><text xml:space="preserve" font-family="AvenirNext-Medium" font-size="20.0" fill="#838686" transform="matrix(1.00, 0.00, -0.00, -1.00, 310.6, 7.0)">o</text><text xml:space="preserve" font-family="AvenirNext-Medium" font-size="20.0" fill="#838686" transform="matrix(1.00, 0.00, -0.00, -1.00, 322.8, 7.0)">g</text><text xml:space="preserve" font-family="AvenirNext-Medium" font-size="20.0" fill="#838686" transform="matrix(1.00, 0.00, -0.00, -1.00, 335.4, 7.0)">e</text><text xml:space="preserve" font-family="AvenirNext-Medium" font-size="20.0" fill="#838686" transform="matrix(1.00, 0.00, -0.00, -1.00, 346.9, 7.0)">t</text><text xml:space="preserve" font-family="AvenirNext-Medium" font-size="20.0" fill="#838686" transform="matrix(1.00, 0.00, -0.00, -1.00, 353.5, 7.0)">h</text><text xml:space="preserve" font-family="AvenirNext-Medium" font-size="20.0" fill="#838686" transform="matrix(1.00, 0.00, -0.00, -1.00, 365.2, 7.0)">e</text><text xml:space="preserve" font-family="AvenirNext-Medium" font-size="20.0" fill="#838686" transform="matrix(1.00, 0.00, -0.00, -1.00, 376.6, 7.0)">r</text><text xml:space="preserve" font-family="AvenirNext-Medium" font-size="20.0" fill="#838686" transform="matrix(1.00, 0.00, -0.00, -1.00, 382.9, 7.0)">.</text></g></svg>