<?xml version="1.0" encoding="UTF-8" standalone="no"?><svg xmlns="http://www.w3.org/2000/svg" xmlns:xlink="http://www.w3.org/1999/xlink" clip-rule="evenodd" stroke-miterlimit="4.00" viewBox="0 0 1024 768"><desc>SVG generated by Keynote</desc><defs></defs><g transform="matrix(1.00, 0.00, -0.00, -1.00, 0.0, 768.0)"><g><clipPath id="clip-164"><path d="M 0.0 768.0 L 1024.0 768.0 L 1024.0 0.0 L 0.0 0.0 Z M 0.0 768.0 "></path></clipPath><g clip-path="url(#clip-164)"><image xlink:href="../../7BB23D08-1DB8-49DD-BF67-071A41A734D0/assets/D3CB8578D364082F6943B53F933CCC32.jpeg" width="1024.00" height="768.00" transform="matrix(1.00, 0.00, -0.00, -1.00, 0.0, 768.0)"></image></g></g><text xml:space="preserve" font-family="GillSans-Light" font-size="37.7" fill="#525252" transform="matrix(1.00, 0.00, -0.00, -1.00, 104.0, 80.5)">•</text><text xml:space="preserve" font-family="GillSans-Light" font-size="46.0" fill="#525252" transform="matrix(1.00, 0.00, -0.00, -1.00, 145.0, 78.0)">A</text><text xml:space="preserve" font-family="GillSans-Light" font-size="46.0" fill="#525252" transform="matrix(1.00, 0.00, -0.00, -1.00, 175.7, 78.0)">p</text><text xml:space="preserve" font-family="GillSans-Light" font-size="46.0" fill="#525252" transform="matrix(1.00, 0.00, -0.00, -1.00, 199.1, 78.0)">p</text><text xml:space="preserve" font-family="GillSans-Light" font-size="46.0" fill="#525252" transform="matrix(1.00, 0.00, -0.00, -1.00, 222.6, 78.0)"> </text><text xml:space="preserve" font-family="GillSans-Light" font-size="46.0" fill="#525252" transform="matrix(1.00, 0.00, -0.00, -1.00, 235.3, 78.0)">w</text><text xml:space="preserve" font-family="GillSans-Light" font-size="46.0" fill="#525252" transform="matrix(1.00, 0.00, -0.00, -1.00, 267.9, 78.0)">i</text><text xml:space="preserve" font-family="GillSans-Light" font-size="46.0" fill="#525252" transform="matrix(1.00, 0.00, -0.00, -1.00, 276.5, 78.0)">l</text><text xml:space="preserve" font-family="GillSans-Light" font-size="46.0" fill="#525252" transform="matrix(1.00, 0.00, -0.00, -1.00, 285.2, 78.0)">l</text><text xml:space="preserve" font-family="GillSans-Light" font-size="46.0" fill="#525252" transform="matrix(1.00, 0.00, -0.00, -1.00, 293.8, 78.0)"> </text><text xml:space="preserve" font-family="GillSans-Light" font-size="46.0" fill="#525252" transform="matrix(1.00, 0.00, -0.00, -1.00, 306.6, 78.0)">l</text><text xml:space="preserve" font-family="GillSans-Light" font-size="46.0" fill="#525252" transform="matrix(1.00, 0.00, -0.00, -1.00, 315.3, 78.0)">o</text><text xml:space="preserve" font-family="GillSans-Light" font-size="46.0" fill="#525252" transform="matrix(1.00, 0.00, -0.00, -1.00, 340.2, 78.0)">g</text><text xml:space="preserve" font-family="GillSans-Light" font-size="46.0" fill="#525252" transform="matrix(1.00, 0.00, -0.00, -1.00, 359.8, 78.0)"> </text><text xml:space="preserve" font-family="GillSans-Light" font-size="46.0" fill="#525252" transform="matrix(1.00, 0.00, -0.00, -1.00, 372.6, 78.0)">i</text><text xml:space="preserve" font-family="GillSans-Light" font-size="46.0" fill="#525252" transform="matrix(1.00, 0.00, -0.00, -1.00, 381.2, 78.0)">n</text><text xml:space="preserve" font-family="GillSans-Light" font-size="46.0" fill="#525252" transform="matrix(1.00, 0.00, -0.00, -1.00, 403.8, 78.0)"> </text><image xlink:href="../../E0775CD4-7175-4D19-B25A-CCDCA39BF9FF/assets/B8A16A98A6D880FE57DE6B91C33A6C06.jpeg" width="705.00" height="528.00" transform="matrix(1.00, 0.00, -0.00, -1.00, 160.0, 685.0)"></image></g></svg>