<?xml version="1.0" encoding="UTF-8" standalone="no"?><svg xmlns="http://www.w3.org/2000/svg" xmlns:xlink="http://www.w3.org/1999/xlink" clip-rule="evenodd" stroke-miterlimit="4.00" viewBox="0 0 1024 768"><desc>SVG generated by Keynote</desc><defs></defs><g transform="matrix(1.00, 0.00, -0.00, -1.00, 0.0, 768.0)"><g><clipPath id="clip-96"><path d="M 0.0 768.0 L 1024.0 768.0 L 1024.0 0.0 L 0.0 0.0 Z M 0.0 768.0 "></path></clipPath><g clip-path="url(#clip-96)"><image xlink:href="../../7BB23D08-1DB8-49DD-BF67-071A41A734D0/assets/D3CB8578D364082F6943B53F933CCC32.jpeg" width="1024.00" height="768.00" transform="matrix(1.00, 0.00, -0.00, -1.00, 0.0, 768.0)"></image></g></g><text xml:space="preserve" font-family="GillSans-Light" font-size="72.0" fill="#525252" transform="matrix(1.00, 0.00, -0.00, -1.00, 44.0, 628.0)">S</text><text xml:space="preserve" font-family="GillSans-Light" font-size="72.0" fill="#525252" transform="matrix(1.00, 0.00, -0.00, -1.00, 77.8, 628.0)">Y</text><text xml:space="preserve" font-family="GillSans-Light" font-size="72.0" fill="#525252" transform="matrix(1.00, 0.00, -0.00, -1.00, 119.8, 628.0)">S</text><text xml:space="preserve" font-family="GillSans-Light" font-size="72.0" fill="#525252" transform="matrix(1.00, 0.00, -0.00, -1.00, 153.6, 628.0)">T</text><text xml:space="preserve" font-family="GillSans-Light" font-size="72.0" fill="#525252" transform="matrix(1.00, 0.00, -0.00, -1.00, 194.9, 628.0)">E</text><text xml:space="preserve" font-family="GillSans-Light" font-size="72.0" fill="#525252" transform="matrix(1.00, 0.00, -0.00, -1.00, 230.2, 628.0)">M</text><text xml:space="preserve" font-family="GillSans-Light" font-size="72.0" fill="#525252" transform="matrix(1.00, 0.00, -0.00, -1.00, 286.4, 628.0)">S</text><text xml:space="preserve" font-family="GillSans-Light" font-size="72.0" fill="#525252" transform="matrix(1.00, 0.00, -0.00, -1.00, 320.2, 628.0)"> </text><text xml:space="preserve" font-family="GillSans-Light" font-size="72.0" fill="#525252" transform="matrix(1.00, 0.00, -0.00, -1.00, 340.2, 628.0)">&amp;</text><text xml:space="preserve" font-family="GillSans-Light" font-size="72.0" fill="#525252" transform="matrix(1.00, 0.00, -0.00, -1.00, 384.5, 628.0)"> </text><text xml:space="preserve" font-family="GillSans-Light" font-size="72.0" fill="#525252" transform="matrix(1.00, 0.00, -0.00, -1.00, 404.5, 628.0)">I</text><text xml:space="preserve" font-family="GillSans-Light" font-size="72.0" fill="#525252" transform="matrix(1.00, 0.00, -0.00, -1.00, 419.4, 628.0)">N</text><text xml:space="preserve" font-family="GillSans-Light" font-size="72.0" fill="#525252" transform="matrix(1.00, 0.00, -0.00, -1.00, 475.0, 628.0)">F</text><text xml:space="preserve" font-family="GillSans-Light" font-size="72.0" fill="#525252" transform="matrix(1.00, 0.00, -0.00, -1.00, 506.5, 628.0)">R</text><text xml:space="preserve" font-family="GillSans-Light" font-size="72.0" fill="#525252" transform="matrix(1.00, 0.00, -0.00, -1.00, 547.8, 628.0)">A</text><text xml:space="preserve" font-family="GillSans-Light" font-size="72.0" fill="#525252" transform="matrix(1.00, 0.00, -0.00, -1.00, 595.8, 628.0)">S</text><text xml:space="preserve" font-family="GillSans-Light" font-size="72.0" fill="#525252" transform="matrix(1.00, 0.00, -0.00, -1.00, 629.6, 628.0)">T</text><text xml:space="preserve" font-family="GillSans-Light" font-size="72.0" fill="#525252" transform="matrix(1.00, 0.00, -0.00, -1.00, 670.9, 628.0)">R</text><text xml:space="preserve" font-family="GillSans-Light" font-size="72.0" fill="#525252" transform="matrix(1.00, 0.00, -0.00, -1.00, 712.2, 628.0)">U</text><text xml:space="preserve" font-family="GillSans-Light" font-size="72.0" fill="#525252" transform="matrix(1.00, 0.00, -0.00, -1.00, 762.5, 628.0)">C</text><text xml:space="preserve" font-family="GillSans-Light" font-size="72.0" fill="#525252" transform="matrix(1.00, 0.00, -0.00, -1.00, 811.2, 628.0)">T</text><text xml:space="preserve" font-family="GillSans-Light" font-size="72.0" fill="#525252" transform="matrix(1.00, 0.00, -0.00, -1.00, 852.5, 628.0)">U</text><text xml:space="preserve" font-family="GillSans-Light" font-size="72.0" fill="#525252" transform="matrix(1.00, 0.00, -0.00, -1.00, 902.8, 628.0)">R</text><text xml:space="preserve" font-family="GillSans-Light" font-size="72.0" fill="#525252" transform="matrix(1.00, 0.00, -0.00, -1.00, 944.0, 628.0)">E</text><text xml:space="preserve" font-family="GillSans-Light" font-size="28.7" fill="#525252" transform="matrix(1.00, 0.00, -0.00, -1.00, 32.0, 515.8)">•</text><text xml:space="preserve" font-family="GillSans-Light" font-size="35.0" fill="#525252" transform="matrix(1.00, 0.00, -0.00, -1.00, 63.0, 514.0)">3</text><text xml:space="preserve" font-family="GillSans-Light" font-size="35.0" fill="#525252" transform="matrix(1.00, 0.00, -0.00, -1.00, 80.5, 514.0)"> </text><text xml:space="preserve" font-family="GillSans-Light" font-size="35.0" fill="#525252" transform="matrix(1.00, 0.00, -0.00, -1.00, 90.2, 514.0)">S</text><text xml:space="preserve" font-family="GillSans-Light" font-size="35.0" fill="#525252" transform="matrix(1.00, 0.00, -0.00, -1.00, 106.6, 514.0)">o</text><text xml:space="preserve" font-family="GillSans-Light" font-size="35.0" fill="#525252" transform="matrix(1.00, 0.00, -0.00, -1.00, 125.5, 514.0)">f</text><text xml:space="preserve" font-family="GillSans-Light" font-size="35.0" fill="#525252" transform="matrix(1.00, 0.00, -0.00, -1.00, 134.0, 514.0)">t</text><text xml:space="preserve" font-family="GillSans-Light" font-size="35.0" fill="#525252" transform="matrix(1.00, 0.00, -0.00, -1.00, 144.5, 514.0)"> </text><text xml:space="preserve" font-family="GillSans-Light" font-size="35.0" fill="#525252" transform="matrix(1.00, 0.00, -0.00, -1.00, 154.2, 514.0)">l</text><text xml:space="preserve" font-family="GillSans-Light" font-size="35.0" fill="#525252" transform="matrix(1.00, 0.00, -0.00, -1.00, 160.8, 514.0)">a</text><text xml:space="preserve" font-family="GillSans-Light" font-size="35.0" fill="#525252" transform="matrix(1.00, 0.00, -0.00, -1.00, 175.2, 514.0)">y</text><text xml:space="preserve" font-family="GillSans-Light" font-size="35.0" fill="#525252" transform="matrix(1.00, 0.00, -0.00, -1.00, 189.0, 514.0)">e</text><text xml:space="preserve" font-family="GillSans-Light" font-size="35.0" fill="#525252" transform="matrix(1.00, 0.00, -0.00, -1.00, 205.8, 514.0)">r</text><text xml:space="preserve" font-family="GillSans-Light" font-size="35.0" fill="#525252" transform="matrix(1.00, 0.00, -0.00, -1.00, 217.4, 514.0)"> </text><text xml:space="preserve" font-family="GillSans-Light" font-size="35.0" fill="#525252" transform="matrix(1.00, 0.00, -0.00, -1.00, 227.1, 514.0)">N</text><text xml:space="preserve" font-family="GillSans-Light" font-size="35.0" fill="#525252" transform="matrix(1.00, 0.00, -0.00, -1.00, 254.1, 514.0)">o</text><text xml:space="preserve" font-family="GillSans-Light" font-size="35.0" fill="#525252" transform="matrix(1.00, 0.00, -0.00, -1.00, 273.0, 514.0)">d</text><text xml:space="preserve" font-family="GillSans-Light" font-size="35.0" fill="#525252" transform="matrix(1.00, 0.00, -0.00, -1.00, 290.8, 514.0)">e</text><text xml:space="preserve" font-family="GillSans-Light" font-size="35.0" fill="#525252" transform="matrix(1.00, 0.00, -0.00, -1.00, 307.6, 514.0)">s</text><text xml:space="preserve" font-family="GillSans-Light" font-size="18.7" fill="#525252" transform="matrix(1.00, 0.00, -0.00, -1.00, 114.0, 444.7)">•</text><text xml:space="preserve" font-family="GillSans-Light" font-size="22.8" fill="#525252" transform="matrix(1.00, 0.00, -0.00, -1.00, 145.0, 444.0)">R</text><text xml:space="preserve" font-family="GillSans-Light" font-size="22.8" fill="#525252" transform="matrix(1.00, 0.00, -0.00, -1.00, 158.1, 444.0)">e</text><text xml:space="preserve" font-family="GillSans-Light" font-size="22.8" fill="#525252" transform="matrix(1.00, 0.00, -0.00, -1.00, 169.0, 444.0)">p</text><text xml:space="preserve" font-family="GillSans-Light" font-size="22.8" fill="#525252" transform="matrix(1.00, 0.00, -0.00, -1.00, 180.6, 444.0)">o</text><text xml:space="preserve" font-family="GillSans-Light" font-size="22.8" fill="#525252" transform="matrix(1.00, 0.00, -0.00, -1.00, 193.0, 444.0)">:</text><text xml:space="preserve" font-family="GillSans-Light" font-size="22.8" fill="#525252" transform="matrix(1.00, 0.00, -0.00, -1.00, 195.2, 444.0)"> </text><text xml:space="preserve" font-family="GillSans-Light" font-size="22.8" fill="#525252" transform="matrix(1.00, 0.00, -0.00, -1.00, 201.5, 444.0)">G</text><text xml:space="preserve" font-family="GillSans-Light" font-size="22.8" fill="#525252" transform="matrix(1.00, 0.00, -0.00, -1.00, 217.9, 444.0)">i</text><text xml:space="preserve" font-family="GillSans-Light" font-size="22.8" fill="#525252" transform="matrix(1.00, 0.00, -0.00, -1.00, 222.2, 444.0)">t</text><text xml:space="preserve" font-family="GillSans-Light" font-size="22.8" fill="#525252" transform="matrix(1.00, 0.00, -0.00, -1.00, 229.1, 444.0)">L</text><text xml:space="preserve" font-family="GillSans-Light" font-size="22.8" fill="#525252" transform="matrix(1.00, 0.00, -0.00, -1.00, 239.8, 444.0)">a</text><text xml:space="preserve" font-family="GillSans-Light" font-size="22.8" fill="#525252" transform="matrix(1.00, 0.00, -0.00, -1.00, 249.5, 444.0)">b</text><text xml:space="preserve" font-family="GillSans-Light" font-size="18.7" fill="#525252" transform="matrix(1.00, 0.00, -0.00, -1.00, 114.0, 379.7)">•</text><text xml:space="preserve" font-family="GillSans-Light" font-size="22.8" fill="#525252" transform="matrix(1.00, 0.00, -0.00, -1.00, 145.0, 379.0)">A</text><text xml:space="preserve" font-family="GillSans-Light" font-size="22.8" fill="#525252" transform="matrix(1.00, 0.00, -0.00, -1.00, 160.2, 379.0)">u</text><text xml:space="preserve" font-family="GillSans-Light" font-size="22.8" fill="#525252" transform="matrix(1.00, 0.00, -0.00, -1.00, 171.4, 379.0)">t</text><text xml:space="preserve" font-family="GillSans-Light" font-size="22.8" fill="#525252" transform="matrix(1.00, 0.00, -0.00, -1.00, 178.3, 379.0)">h</text><text xml:space="preserve" font-family="GillSans-Light" font-size="22.8" fill="#525252" transform="matrix(1.00, 0.00, -0.00, -1.00, 189.4, 379.0)">e</text><text xml:space="preserve" font-family="GillSans-Light" font-size="22.8" fill="#525252" transform="matrix(1.00, 0.00, -0.00, -1.00, 200.4, 379.0)">n</text><text xml:space="preserve" font-family="GillSans-Light" font-size="22.8" fill="#525252" transform="matrix(1.00, 0.00, -0.00, -1.00, 211.5, 379.0)">t</text><text xml:space="preserve" font-family="GillSans-Light" font-size="22.8" fill="#525252" transform="matrix(1.00, 0.00, -0.00, -1.00, 218.4, 379.0)">i</text><text xml:space="preserve" font-family="GillSans-Light" font-size="22.8" fill="#525252" transform="matrix(1.00, 0.00, -0.00, -1.00, 222.7, 379.0)">c</text><text xml:space="preserve" font-family="GillSans-Light" font-size="22.8" fill="#525252" transform="matrix(1.00, 0.00, -0.00, -1.00, 232.2, 379.0)">a</text><text xml:space="preserve" font-family="GillSans-Light" font-size="22.8" fill="#525252" transform="matrix(1.00, 0.00, -0.00, -1.00, 241.9, 379.0)">t</text><text xml:space="preserve" font-family="GillSans-Light" font-size="22.8" fill="#525252" transform="matrix(1.00, 0.00, -0.00, -1.00, 248.8, 379.0)">i</text><text xml:space="preserve" font-family="GillSans-Light" font-size="22.8" fill="#525252" transform="matrix(1.00, 0.00, -0.00, -1.00, 253.1, 379.0)">o</text><text xml:space="preserve" font-family="GillSans-Light" font-size="22.8" fill="#525252" transform="matrix(1.00, 0.00, -0.00, -1.00, 265.5, 379.0)">n</text><text xml:space="preserve" font-family="GillSans-Light" font-size="22.8" fill="#525252" transform="matrix(1.00, 0.00, -0.00, -1.00, 276.6, 379.0)">:</text><text xml:space="preserve" font-family="GillSans-Light" font-size="22.8" fill="#525252" transform="matrix(1.00, 0.00, -0.00, -1.00, 278.8, 379.0)"> </text><text xml:space="preserve" font-family="GillSans-Light" font-size="22.8" fill="#525252" transform="matrix(1.00, 0.00, -0.00, -1.00, 285.2, 379.0)">F</text><text xml:space="preserve" font-family="GillSans-Light" font-size="22.8" fill="#525252" transform="matrix(1.00, 0.00, -0.00, -1.00, 295.2, 379.0)">o</text><text xml:space="preserve" font-family="GillSans-Light" font-size="22.8" fill="#525252" transform="matrix(1.00, 0.00, -0.00, -1.00, 307.5, 379.0)">r</text><text xml:space="preserve" font-family="GillSans-Light" font-size="22.8" fill="#525252" transform="matrix(1.00, 0.00, -0.00, -1.00, 315.7, 379.0)">g</text><text xml:space="preserve" font-family="GillSans-Light" font-size="22.8" fill="#525252" transform="matrix(1.00, 0.00, -0.00, -1.00, 325.4, 379.0)">e</text><text xml:space="preserve" font-family="GillSans-Light" font-size="22.8" fill="#525252" transform="matrix(1.00, 0.00, -0.00, -1.00, 336.3, 379.0)">R</text><text xml:space="preserve" font-family="GillSans-Light" font-size="22.8" fill="#525252" transform="matrix(1.00, 0.00, -0.00, -1.00, 349.4, 379.0)">o</text><text xml:space="preserve" font-family="GillSans-Light" font-size="22.8" fill="#525252" transform="matrix(1.00, 0.00, -0.00, -1.00, 361.8, 379.0)">c</text><text xml:space="preserve" font-family="GillSans-Light" font-size="22.8" fill="#525252" transform="matrix(1.00, 0.00, -0.00, -1.00, 371.3, 379.0)">k</text><text xml:space="preserve" font-family="GillSans-Light" font-size="18.7" fill="#525252" transform="matrix(1.00, 0.00, -0.00, -1.00, 114.0, 314.8)">•</text><text xml:space="preserve" font-family="GillSans-Light" font-size="22.8" fill="#525252" transform="matrix(1.00, 0.00, -0.00, -1.00, 145.0, 314.0)">E</text><text xml:space="preserve" font-family="GillSans-Light" font-size="22.8" fill="#525252" transform="matrix(1.00, 0.00, -0.00, -1.00, 156.2, 314.0)">C</text><text xml:space="preserve" font-family="GillSans-Light" font-size="22.8" fill="#525252" transform="matrix(1.00, 0.00, -0.00, -1.00, 171.6, 314.0)">M</text><text xml:space="preserve" font-family="GillSans-Light" font-size="22.8" fill="#525252" transform="matrix(1.00, 0.00, -0.00, -1.00, 189.4, 314.0)">:</text><text xml:space="preserve" font-family="GillSans-Light" font-size="22.8" fill="#525252" transform="matrix(1.00, 0.00, -0.00, -1.00, 191.6, 314.0)"> </text><text xml:space="preserve" font-family="GillSans-Light" font-size="22.8" fill="#525252" transform="matrix(1.00, 0.00, -0.00, -1.00, 196.6, 314.0)">A</text><text xml:space="preserve" font-family="GillSans-Light" font-size="22.8" fill="#525252" transform="matrix(1.00, 0.00, -0.00, -1.00, 211.8, 314.0)">l</text><text xml:space="preserve" font-family="GillSans-Light" font-size="22.8" fill="#525252" transform="matrix(1.00, 0.00, -0.00, -1.00, 216.1, 314.0)">f</text><text xml:space="preserve" font-family="GillSans-Light" font-size="22.8" fill="#525252" transform="matrix(1.00, 0.00, -0.00, -1.00, 221.5, 314.0)">r</text><text xml:space="preserve" font-family="GillSans-Light" font-size="22.8" fill="#525252" transform="matrix(1.00, 0.00, -0.00, -1.00, 229.1, 314.0)">e</text><text xml:space="preserve" font-family="GillSans-Light" font-size="22.8" fill="#525252" transform="matrix(1.00, 0.00, -0.00, -1.00, 240.1, 314.0)">s</text><text xml:space="preserve" font-family="GillSans-Light" font-size="22.8" fill="#525252" transform="matrix(1.00, 0.00, -0.00, -1.00, 248.1, 314.0)">c</text><text xml:space="preserve" font-family="GillSans-Light" font-size="22.8" fill="#525252" transform="matrix(1.00, 0.00, -0.00, -1.00, 257.6, 314.0)">o</text><text xml:space="preserve" font-family="GillSans-Light" font-size="28.7" fill="#525252" transform="matrix(1.00, 0.00, -0.00, -1.00, 32.0, 239.2)">•</text><text xml:space="preserve" font-family="GillSans-Light" font-size="35.0" fill="#525252" transform="matrix(1.00, 0.00, -0.00, -1.00, 63.0, 238.0)">M</text><text xml:space="preserve" font-family="GillSans-Light" font-size="35.0" fill="#525252" transform="matrix(1.00, 0.00, -0.00, -1.00, 90.3, 238.0)">o</text><text xml:space="preserve" font-family="GillSans-Light" font-size="35.0" fill="#525252" transform="matrix(1.00, 0.00, -0.00, -1.00, 109.2, 238.0)">n</text><text xml:space="preserve" font-family="GillSans-Light" font-size="35.0" fill="#525252" transform="matrix(1.00, 0.00, -0.00, -1.00, 126.4, 238.0)">t</text><text xml:space="preserve" font-family="GillSans-Light" font-size="35.0" fill="#525252" transform="matrix(1.00, 0.00, -0.00, -1.00, 136.9, 238.0)">h</text><text xml:space="preserve" font-family="GillSans-Light" font-size="35.0" fill="#525252" transform="matrix(1.00, 0.00, -0.00, -1.00, 154.1, 238.0)">l</text><text xml:space="preserve" font-family="GillSans-Light" font-size="35.0" fill="#525252" transform="matrix(1.00, 0.00, -0.00, -1.00, 160.3, 238.0)">y</text><text xml:space="preserve" font-family="GillSans-Light" font-size="35.0" fill="#525252" transform="matrix(1.00, 0.00, -0.00, -1.00, 174.9, 238.0)"> </text><text xml:space="preserve" font-family="GillSans-Light" font-size="35.0" fill="#525252" transform="matrix(1.00, 0.00, -0.00, -1.00, 184.6, 238.0)">B</text><text xml:space="preserve" font-family="GillSans-Light" font-size="35.0" fill="#525252" transform="matrix(1.00, 0.00, -0.00, -1.00, 203.1, 238.0)">l</text><text xml:space="preserve" font-family="GillSans-Light" font-size="35.0" fill="#525252" transform="matrix(1.00, 0.00, -0.00, -1.00, 209.7, 238.0)">u</text><text xml:space="preserve" font-family="GillSans-Light" font-size="35.0" fill="#525252" transform="matrix(1.00, 0.00, -0.00, -1.00, 226.8, 238.0)">e</text><text xml:space="preserve" font-family="GillSans-Light" font-size="35.0" fill="#525252" transform="matrix(1.00, 0.00, -0.00, -1.00, 243.6, 238.0)">M</text><text xml:space="preserve" font-family="GillSans-Light" font-size="35.0" fill="#525252" transform="matrix(1.00, 0.00, -0.00, -1.00, 270.9, 238.0)">i</text><text xml:space="preserve" font-family="GillSans-Light" font-size="35.0" fill="#525252" transform="matrix(1.00, 0.00, -0.00, -1.00, 277.5, 238.0)">x</text><text xml:space="preserve" font-family="GillSans-Light" font-size="35.0" fill="#525252" transform="matrix(1.00, 0.00, -0.00, -1.00, 294.2, 238.0)"> </text><text xml:space="preserve" font-family="GillSans-Light" font-size="35.0" fill="#525252" transform="matrix(1.00, 0.00, -0.00, -1.00, 303.9, 238.0)">S</text><text xml:space="preserve" font-family="GillSans-Light" font-size="35.0" fill="#525252" transform="matrix(1.00, 0.00, -0.00, -1.00, 320.3, 238.0)">u</text><text xml:space="preserve" font-family="GillSans-Light" font-size="35.0" fill="#525252" transform="matrix(1.00, 0.00, -0.00, -1.00, 337.5, 238.0)">b</text><text xml:space="preserve" font-family="GillSans-Light" font-size="35.0" fill="#525252" transform="matrix(1.00, 0.00, -0.00, -1.00, 355.3, 238.0)">s</text><text xml:space="preserve" font-family="GillSans-Light" font-size="35.0" fill="#525252" transform="matrix(1.00, 0.00, -0.00, -1.00, 367.7, 238.0)">c</text><text xml:space="preserve" font-family="GillSans-Light" font-size="35.0" fill="#525252" transform="matrix(1.00, 0.00, -0.00, -1.00, 382.2, 238.0)">r</text><text xml:space="preserve" font-family="GillSans-Light" font-size="35.0" fill="#525252" transform="matrix(1.00, 0.00, -0.00, -1.00, 394.7, 238.0)">i</text><text xml:space="preserve" font-family="GillSans-Light" font-size="35.0" fill="#525252" transform="matrix(1.00, 0.00, -0.00, -1.00, 401.3, 238.0)">p</text><text xml:space="preserve" font-family="GillSans-Light" font-size="35.0" fill="#525252" transform="matrix(1.00, 0.00, -0.00, -1.00, 419.1, 238.0)">t</text><text xml:space="preserve" font-family="GillSans-Light" font-size="35.0" fill="#525252" transform="matrix(1.00, 0.00, -0.00, -1.00, 429.7, 238.0)">i</text><text xml:space="preserve" font-family="GillSans-Light" font-size="35.0" fill="#525252" transform="matrix(1.00, 0.00, -0.00, -1.00, 436.2, 238.0)">o</text><text xml:space="preserve" font-family="GillSans-Light" font-size="35.0" fill="#525252" transform="matrix(1.00, 0.00, -0.00, -1.00, 455.2, 238.0)">n</text><text xml:space="preserve" font-family="GillSans-Light" font-size="35.0" fill="#525252" transform="matrix(1.00, 0.00, -0.00, -1.00, 472.3, 238.0)">s</text><text xml:space="preserve" font-family="GillSans-Light" font-size="28.7" fill="#525252" transform="matrix(1.00, 0.00, -0.00, -1.00, 32.0, 157.4)">•</text><text xml:space="preserve" font-family="GillSans-Light" font-size="35.0" fill="#525252" transform="matrix(1.00, 0.00, -0.00, -1.00, 63.0, 156.0)">B</text><text xml:space="preserve" font-family="GillSans-Light" font-size="35.0" fill="#525252" transform="matrix(1.00, 0.00, -0.00, -1.00, 81.5, 156.0)">a</text><text xml:space="preserve" font-family="GillSans-Light" font-size="35.0" fill="#525252" transform="matrix(1.00, 0.00, -0.00, -1.00, 96.5, 156.0)">c</text><text xml:space="preserve" font-family="GillSans-Light" font-size="35.0" fill="#525252" transform="matrix(1.00, 0.00, -0.00, -1.00, 111.0, 156.0)">k</text><text xml:space="preserve" font-family="GillSans-Light" font-size="35.0" fill="#525252" transform="matrix(1.00, 0.00, -0.00, -1.00, 126.0, 156.0)">-</text><text xml:space="preserve" font-family="GillSans-Light" font-size="35.0" fill="#525252" transform="matrix(1.00, 0.00, -0.00, -1.00, 136.9, 156.0)">e</text><text xml:space="preserve" font-family="GillSans-Light" font-size="35.0" fill="#525252" transform="matrix(1.00, 0.00, -0.00, -1.00, 153.6, 156.0)">n</text><text xml:space="preserve" font-family="GillSans-Light" font-size="35.0" fill="#525252" transform="matrix(1.00, 0.00, -0.00, -1.00, 170.8, 156.0)">d</text><text xml:space="preserve" font-family="GillSans-Light" font-size="35.0" fill="#525252" transform="matrix(1.00, 0.00, -0.00, -1.00, 188.6, 156.0)">:</text><text xml:space="preserve" font-family="GillSans-Light" font-size="35.0" fill="#525252" transform="matrix(1.00, 0.00, -0.00, -1.00, 192.0, 156.0)"> </text><text xml:space="preserve" font-family="GillSans-Light" font-size="35.0" fill="#525252" transform="matrix(1.00, 0.00, -0.00, -1.00, 201.7, 156.0)">J</text><text xml:space="preserve" font-family="GillSans-Light" font-size="35.0" fill="#525252" transform="matrix(1.00, 0.00, -0.00, -1.00, 208.9, 156.0)">a</text><text xml:space="preserve" font-family="GillSans-Light" font-size="35.0" fill="#525252" transform="matrix(1.00, 0.00, -0.00, -1.00, 223.0, 156.0)">v</text><text xml:space="preserve" font-family="GillSans-Light" font-size="35.0" fill="#525252" transform="matrix(1.00, 0.00, -0.00, -1.00, 237.9, 156.0)">a</text><text xml:space="preserve" font-family="GillSans-Light" font-size="35.0" fill="#525252" transform="matrix(1.00, 0.00, -0.00, -1.00, 252.8, 156.0)"> </text><text xml:space="preserve" font-family="GillSans-Light" font-size="35.0" fill="#525252" transform="matrix(1.00, 0.00, -0.00, -1.00, 262.5, 156.0)">&amp;</text><text xml:space="preserve" font-family="GillSans-Light" font-size="35.0" fill="#525252" transform="matrix(1.00, 0.00, -0.00, -1.00, 284.0, 156.0)"> </text><text xml:space="preserve" font-family="GillSans-Light" font-size="35.0" fill="#525252" transform="matrix(1.00, 0.00, -0.00, -1.00, 293.7, 156.0)">N</text><text xml:space="preserve" font-family="GillSans-Light" font-size="35.0" fill="#525252" transform="matrix(1.00, 0.00, -0.00, -1.00, 320.7, 156.0)">o</text><text xml:space="preserve" font-family="GillSans-Light" font-size="35.0" fill="#525252" transform="matrix(1.00, 0.00, -0.00, -1.00, 339.6, 156.0)">d</text><text xml:space="preserve" font-family="GillSans-Light" font-size="35.0" fill="#525252" transform="matrix(1.00, 0.00, -0.00, -1.00, 357.5, 156.0)">e</text><text xml:space="preserve" font-family="GillSans-Light" font-size="35.0" fill="#525252" transform="matrix(1.00, 0.00, -0.00, -1.00, 375.2, 156.0)">.</text><text xml:space="preserve" font-family="GillSans-Light" font-size="35.0" fill="#525252" transform="matrix(1.00, 0.00, -0.00, -1.00, 381.4, 156.0)">J</text><text xml:space="preserve" font-family="GillSans-Light" font-size="35.0" fill="#525252" transform="matrix(1.00, 0.00, -0.00, -1.00, 388.7, 156.0)">S</text><text xml:space="preserve" font-family="GillSans-Light" font-size="28.7" fill="#525252" transform="matrix(1.00, 0.00, -0.00, -1.00, 32.0, 75.7)">•</text><text xml:space="preserve" font-family="GillSans-Light" font-size="35.0" fill="#525252" transform="matrix(1.00, 0.00, -0.00, -1.00, 63.0, 74.0)">F</text><text xml:space="preserve" font-family="GillSans-Light" font-size="35.0" fill="#525252" transform="matrix(1.00, 0.00, -0.00, -1.00, 78.3, 74.0)">r</text><text xml:space="preserve" font-family="GillSans-Light" font-size="35.0" fill="#525252" transform="matrix(1.00, 0.00, -0.00, -1.00, 90.0, 74.0)">o</text><text xml:space="preserve" font-family="GillSans-Light" font-size="35.0" fill="#525252" transform="matrix(1.00, 0.00, -0.00, -1.00, 108.9, 74.0)">n</text><text xml:space="preserve" font-family="GillSans-Light" font-size="35.0" fill="#525252" transform="matrix(1.00, 0.00, -0.00, -1.00, 126.0, 74.0)">t</text><text xml:space="preserve" font-family="GillSans-Light" font-size="35.0" fill="#525252" transform="matrix(1.00, 0.00, -0.00, -1.00, 136.6, 74.0)">-</text><text xml:space="preserve" font-family="GillSans-Light" font-size="35.0" fill="#525252" transform="matrix(1.00, 0.00, -0.00, -1.00, 147.5, 74.0)">e</text><text xml:space="preserve" font-family="GillSans-Light" font-size="35.0" fill="#525252" transform="matrix(1.00, 0.00, -0.00, -1.00, 164.3, 74.0)">n</text><text xml:space="preserve" font-family="GillSans-Light" font-size="35.0" fill="#525252" transform="matrix(1.00, 0.00, -0.00, -1.00, 181.4, 74.0)">d</text><text xml:space="preserve" font-family="GillSans-Light" font-size="35.0" fill="#525252" transform="matrix(1.00, 0.00, -0.00, -1.00, 199.2, 74.0)">:</text><text xml:space="preserve" font-family="GillSans-Light" font-size="35.0" fill="#525252" transform="matrix(1.00, 0.00, -0.00, -1.00, 202.6, 74.0)"> </text><text xml:space="preserve" font-family="GillSans-Light" font-size="35.0" fill="#525252" transform="matrix(1.00, 0.00, -0.00, -1.00, 212.3, 74.0)">i</text><text xml:space="preserve" font-family="GillSans-Light" font-size="35.0" fill="#525252" transform="matrix(1.00, 0.00, -0.00, -1.00, 218.9, 74.0)">O</text><text xml:space="preserve" font-family="GillSans-Light" font-size="35.0" fill="#525252" transform="matrix(1.00, 0.00, -0.00, -1.00, 247.7, 74.0)">S</text><text xml:space="preserve" font-family="GillSans-Light" font-size="35.0" fill="#525252" transform="matrix(1.00, 0.00, -0.00, -1.00, 264.1, 74.0)"> </text><text xml:space="preserve" font-family="GillSans-Light" font-size="35.0" fill="#525252" transform="matrix(1.00, 0.00, -0.00, -1.00, 273.8, 74.0)">&amp;</text><text xml:space="preserve" font-family="GillSans-Light" font-size="35.0" fill="#525252" transform="matrix(1.00, 0.00, -0.00, -1.00, 295.3, 74.0)"> </text><text xml:space="preserve" font-family="GillSans-Light" font-size="35.0" fill="#525252" transform="matrix(1.00, 0.00, -0.00, -1.00, 305.0, 74.0)">H</text><text xml:space="preserve" font-family="GillSans-Light" font-size="35.0" fill="#525252" transform="matrix(1.00, 0.00, -0.00, -1.00, 330.2, 74.0)">T</text><text xml:space="preserve" font-family="GillSans-Light" font-size="35.0" fill="#525252" transform="matrix(1.00, 0.00, -0.00, -1.00, 350.2, 74.0)">M</text><text xml:space="preserve" font-family="GillSans-Light" font-size="35.0" fill="#525252" transform="matrix(1.00, 0.00, -0.00, -1.00, 377.5, 74.0)">L</text></g></svg>