<?xml version="1.0" encoding="UTF-8" standalone="no"?><svg xmlns="http://www.w3.org/2000/svg" xmlns:xlink="http://www.w3.org/1999/xlink" clip-rule="evenodd" stroke-miterlimit="4.00" viewBox="0 0 389 306"><desc>SVG generated by Keynote</desc><defs></defs><g transform="matrix(1.00, 0.00, -0.00, -1.00, 0.0, 306.0)"><text xml:space="preserve" font-family="LucidaGrande" font-size="24.5" fill="#34A4DA" transform="matrix(1.00, 0.00, -0.00, -1.00, 0.1, 282.1)">▸</text><text xml:space="preserve" font-family="AvenirNext-Medium" font-size="23.4" fill="#838686" transform="matrix(1.00, 0.00, -0.00, -1.00, 26.0, 284.0)">I</text><text xml:space="preserve" font-family="AvenirNext-Medium" font-size="23.4" fill="#838686" transform="matrix(1.00, 0.00, -0.00, -1.00, 32.3, 284.0)">B</text><text xml:space="preserve" font-family="AvenirNext-Medium" font-size="23.4" fill="#838686" transform="matrix(1.00, 0.00, -0.00, -1.00, 47.3, 284.0)">M</text><text xml:space="preserve" font-family="AvenirNext-Medium" font-size="23.4" fill="#838686" transform="matrix(1.00, 0.00, -0.00, -1.00, 68.4, 284.0)">'</text><text xml:space="preserve" font-family="AvenirNext-Medium" font-size="23.4" fill="#838686" transform="matrix(1.00, 0.00, -0.00, -1.00, 74.5, 284.0)">s</text><text xml:space="preserve" font-family="AvenirNext-Medium" font-size="23.4" fill="#838686" transform="matrix(1.00, 0.00, -0.00, -1.00, 84.9, 284.0)"> </text><text xml:space="preserve" font-family="AvenirNext-Medium" font-size="23.4" fill="#838686" transform="matrix(1.00, 0.00, -0.00, -1.00, 90.8, 284.0)">n</text><text xml:space="preserve" font-family="AvenirNext-Medium" font-size="23.4" fill="#838686" transform="matrix(1.00, 0.00, -0.00, -1.00, 104.3, 284.0)">e</text><text xml:space="preserve" font-family="AvenirNext-Medium" font-size="23.4" fill="#838686" transform="matrix(1.00, 0.00, -0.00, -1.00, 117.7, 284.0)">w</text><text xml:space="preserve" font-family="AvenirNext-Medium" font-size="23.4" fill="#838686" transform="matrix(1.00, 0.00, -0.00, -1.00, 135.8, 284.0)"> </text><text xml:space="preserve" font-family="AvenirNext-Medium" font-size="23.4" fill="#838686" transform="matrix(1.00, 0.00, -0.00, -1.00, 141.4, 284.0)">W</text><text xml:space="preserve" font-family="AvenirNext-Medium" font-size="23.4" fill="#838686" transform="matrix(1.00, 0.00, -0.00, -1.00, 163.6, 284.0)">a</text><text xml:space="preserve" font-family="AvenirNext-Medium" font-size="23.4" fill="#838686" transform="matrix(1.00, 0.00, -0.00, -1.00, 176.0, 284.0)">t</text><text xml:space="preserve" font-family="AvenirNext-Medium" font-size="23.4" fill="#838686" transform="matrix(1.00, 0.00, -0.00, -1.00, 183.7, 284.0)">s</text><text xml:space="preserve" font-family="AvenirNext-Medium" font-size="23.4" fill="#838686" transform="matrix(1.00, 0.00, -0.00, -1.00, 194.1, 284.0)">o</text><text xml:space="preserve" font-family="AvenirNext-Medium" font-size="23.4" fill="#838686" transform="matrix(1.00, 0.00, -0.00, -1.00, 208.3, 284.0)">n</text><text xml:space="preserve" font-family="AvenirNext-Medium" font-size="23.4" fill="#838686" transform="matrix(1.00, 0.00, -0.00, -1.00, 221.9, 284.0)"> </text><text xml:space="preserve" font-family="AvenirNext-Medium" font-size="23.4" fill="#838686" transform="matrix(1.00, 0.00, -0.00, -1.00, 227.8, 284.0)">I</text><text xml:space="preserve" font-family="AvenirNext-Medium" font-size="23.4" fill="#838686" transform="matrix(1.00, 0.00, -0.00, -1.00, 234.1, 284.0)">n</text><text xml:space="preserve" font-family="AvenirNext-Medium" font-size="23.4" fill="#838686" transform="matrix(1.00, 0.00, -0.00, -1.00, 247.7, 284.0)">t</text><text xml:space="preserve" font-family="AvenirNext-Medium" font-size="23.4" fill="#838686" transform="matrix(1.00, 0.00, -0.00, -1.00, 255.4, 284.0)">e</text><text xml:space="preserve" font-family="AvenirNext-Medium" font-size="23.4" fill="#838686" transform="matrix(1.00, 0.00, -0.00, -1.00, 268.8, 284.0)">r</text><text xml:space="preserve" font-family="AvenirNext-Medium" font-size="23.4" fill="#838686" transform="matrix(1.00, 0.00, -0.00, -1.00, 277.2, 284.0)">n</text><text xml:space="preserve" font-family="AvenirNext-Medium" font-size="23.4" fill="#838686" transform="matrix(1.00, 0.00, -0.00, -1.00, 290.8, 284.0)">e</text><text xml:space="preserve" font-family="AvenirNext-Medium" font-size="23.4" fill="#838686" transform="matrix(1.00, 0.00, -0.00, -1.00, 304.2, 284.0)">t</text><text xml:space="preserve" font-family="AvenirNext-Medium" font-size="23.4" fill="#838686" transform="matrix(1.00, 0.00, -0.00, -1.00, 311.9, 284.0)"> </text><text xml:space="preserve" font-family="AvenirNext-Medium" font-size="23.4" fill="#838686" transform="matrix(1.00, 0.00, -0.00, -1.00, 317.7, 284.0)">o</text><text xml:space="preserve" font-family="AvenirNext-Medium" font-size="23.4" fill="#838686" transform="matrix(1.00, 0.00, -0.00, -1.00, 332.0, 284.0)">f</text><text xml:space="preserve" font-family="AvenirNext-Medium" font-size="23.4" fill="#838686" transform="matrix(1.00, 0.00, -0.00, -1.00, 339.8, 284.0)"> </text><text xml:space="preserve" font-family="AvenirNext-Medium" font-size="23.4" fill="#838686" transform="matrix(1.00, 0.00, -0.00, -1.00, 26.0, 252.0)">T</text><text xml:space="preserve" font-family="AvenirNext-Medium" font-size="23.4" fill="#838686" transform="matrix(1.00, 0.00, -0.00, -1.00, 38.9, 252.0)">h</text><text xml:space="preserve" font-family="AvenirNext-Medium" font-size="23.4" fill="#838686" transform="matrix(1.00, 0.00, -0.00, -1.00, 52.5, 252.0)">i</text><text xml:space="preserve" font-family="AvenirNext-Medium" font-size="23.4" fill="#838686" transform="matrix(1.00, 0.00, -0.00, -1.00, 58.6, 252.0)">n</text><text xml:space="preserve" font-family="AvenirNext-Medium" font-size="23.4" fill="#838686" transform="matrix(1.00, 0.00, -0.00, -1.00, 72.2, 252.0)">g</text><text xml:space="preserve" font-family="AvenirNext-Medium" font-size="23.4" fill="#838686" transform="matrix(1.00, 0.00, -0.00, -1.00, 86.9, 252.0)">s</text><text xml:space="preserve" font-family="AvenirNext-Medium" font-size="23.4" fill="#838686" transform="matrix(1.00, 0.00, -0.00, -1.00, 97.3, 252.0)"> </text><text xml:space="preserve" font-family="AvenirNext-Medium" font-size="23.4" fill="#838686" transform="matrix(1.00, 0.00, -0.00, -1.00, 103.1, 252.0)">(</text><text xml:space="preserve" font-family="AvenirNext-Medium" font-size="23.4" fill="#838686" transform="matrix(1.00, 0.00, -0.00, -1.00, 110.5, 252.0)">I</text><text xml:space="preserve" font-family="AvenirNext-Medium" font-size="23.4" fill="#838686" transform="matrix(1.00, 0.00, -0.00, -1.00, 116.8, 252.0)">o</text><text xml:space="preserve" font-family="AvenirNext-Medium" font-size="23.4" fill="#838686" transform="matrix(1.00, 0.00, -0.00, -1.00, 131.1, 252.0)">T</text><text xml:space="preserve" font-family="AvenirNext-Medium" font-size="23.4" fill="#838686" transform="matrix(1.00, 0.00, -0.00, -1.00, 144.4, 252.0)">)</text><text xml:space="preserve" font-family="AvenirNext-Medium" font-size="23.4" fill="#838686" transform="matrix(1.00, 0.00, -0.00, -1.00, 151.7, 252.0)"> </text><text xml:space="preserve" font-family="AvenirNext-Medium" font-size="23.4" fill="#838686" transform="matrix(1.00, 0.00, -0.00, -1.00, 157.6, 252.0)">l</text><text xml:space="preserve" font-family="AvenirNext-Medium" font-size="23.4" fill="#838686" transform="matrix(1.00, 0.00, -0.00, -1.00, 163.6, 252.0)">e</text><text xml:space="preserve" font-family="AvenirNext-Medium" font-size="23.4" fill="#838686" transform="matrix(1.00, 0.00, -0.00, -1.00, 176.9, 252.0)">a</text><text xml:space="preserve" font-family="AvenirNext-Medium" font-size="23.4" fill="#838686" transform="matrix(1.00, 0.00, -0.00, -1.00, 189.5, 252.0)">d</text><text xml:space="preserve" font-family="AvenirNext-Medium" font-size="23.4" fill="#838686" transform="matrix(1.00, 0.00, -0.00, -1.00, 204.4, 252.0)">s</text><text xml:space="preserve" font-family="AvenirNext-Medium" font-size="23.4" fill="#838686" transform="matrix(1.00, 0.00, -0.00, -1.00, 214.7, 252.0)"> </text><text xml:space="preserve" font-family="AvenirNext-Medium" font-size="23.4" fill="#838686" transform="matrix(1.00, 0.00, -0.00, -1.00, 220.6, 252.0)">t</text><text xml:space="preserve" font-family="AvenirNext-Medium" font-size="23.4" fill="#838686" transform="matrix(1.00, 0.00, -0.00, -1.00, 228.3, 252.0)">h</text><text xml:space="preserve" font-family="AvenirNext-Medium" font-size="23.4" fill="#838686" transform="matrix(1.00, 0.00, -0.00, -1.00, 241.9, 252.0)">e</text><text xml:space="preserve" font-family="AvenirNext-Medium" font-size="23.4" fill="#838686" transform="matrix(1.00, 0.00, -0.00, -1.00, 255.3, 252.0)"> </text><text xml:space="preserve" font-family="AvenirNext-Medium" font-size="23.4" fill="#838686" transform="matrix(1.00, 0.00, -0.00, -1.00, 261.1, 252.0)">I</text><text xml:space="preserve" font-family="AvenirNext-Medium" font-size="23.4" fill="#838686" transform="matrix(1.00, 0.00, -0.00, -1.00, 267.5, 252.0)">o</text><text xml:space="preserve" font-family="AvenirNext-Medium" font-size="23.4" fill="#838686" transform="matrix(1.00, 0.00, -0.00, -1.00, 281.7, 252.0)">T</text><text xml:space="preserve" font-family="AvenirNext-Medium" font-size="23.4" fill="#838686" transform="matrix(1.00, 0.00, -0.00, -1.00, 294.5, 252.0)"> </text><text xml:space="preserve" font-family="AvenirNext-Medium" font-size="23.4" fill="#838686" transform="matrix(1.00, 0.00, -0.00, -1.00, 300.3, 252.0)">i</text><text xml:space="preserve" font-family="AvenirNext-Medium" font-size="23.4" fill="#838686" transform="matrix(1.00, 0.00, -0.00, -1.00, 306.3, 252.0)">n</text><text xml:space="preserve" font-family="AvenirNext-Medium" font-size="23.4" fill="#838686" transform="matrix(1.00, 0.00, -0.00, -1.00, 319.9, 252.0)">d</text><text xml:space="preserve" font-family="AvenirNext-Medium" font-size="23.4" fill="#838686" transform="matrix(1.00, 0.00, -0.00, -1.00, 334.8, 252.0)">u</text><text xml:space="preserve" font-family="AvenirNext-Medium" font-size="23.4" fill="#838686" transform="matrix(1.00, 0.00, -0.00, -1.00, 348.4, 252.0)">s</text><text xml:space="preserve" font-family="AvenirNext-Medium" font-size="23.4" fill="#838686" transform="matrix(1.00, 0.00, -0.00, -1.00, 358.7, 252.0)">t</text><text xml:space="preserve" font-family="AvenirNext-Medium" font-size="23.4" fill="#838686" transform="matrix(1.00, 0.00, -0.00, -1.00, 366.4, 252.0)">r</text><text xml:space="preserve" font-family="AvenirNext-Medium" font-size="23.4" fill="#838686" transform="matrix(1.00, 0.00, -0.00, -1.00, 374.9, 252.0)">y</text><text xml:space="preserve" font-family="AvenirNext-Medium" font-size="23.4" fill="#838686" transform="matrix(1.00, 0.00, -0.00, -1.00, 386.7, 252.0)"> </text><text xml:space="preserve" font-family="AvenirNext-Medium" font-size="23.4" fill="#838686" transform="matrix(1.00, 0.00, -0.00, -1.00, 26.0, 220.0)">w</text><text xml:space="preserve" font-family="AvenirNext-Medium" font-size="23.4" fill="#838686" transform="matrix(1.00, 0.00, -0.00, -1.00, 44.1, 220.0)">i</text><text xml:space="preserve" font-family="AvenirNext-Medium" font-size="23.4" fill="#838686" transform="matrix(1.00, 0.00, -0.00, -1.00, 50.1, 220.0)">t</text><text xml:space="preserve" font-family="AvenirNext-Medium" font-size="23.4" fill="#838686" transform="matrix(1.00, 0.00, -0.00, -1.00, 57.8, 220.0)">h</text><text xml:space="preserve" font-family="AvenirNext-Medium" font-size="23.4" fill="#838686" transform="matrix(1.00, 0.00, -0.00, -1.00, 71.4, 220.0)"> </text><text xml:space="preserve" font-family="AvenirNext-Medium" font-size="23.4" fill="#838686" transform="matrix(1.00, 0.00, -0.00, -1.00, 77.3, 220.0)">i</text><text xml:space="preserve" font-family="AvenirNext-Medium" font-size="23.4" fill="#838686" transform="matrix(1.00, 0.00, -0.00, -1.00, 83.3, 220.0)">t</text><text xml:space="preserve" font-family="AvenirNext-Medium" font-size="23.4" fill="#838686" transform="matrix(1.00, 0.00, -0.00, -1.00, 91.0, 220.0)">s</text><text xml:space="preserve" font-family="AvenirNext-Medium" font-size="23.4" fill="#838686" transform="matrix(1.00, 0.00, -0.00, -1.00, 101.4, 220.0)"> </text><text xml:space="preserve" font-family="AvenirNext-Medium" font-size="23.4" fill="#838686" transform="matrix(1.00, 0.00, -0.00, -1.00, 107.2, 220.0)">c</text><text xml:space="preserve" font-family="AvenirNext-Medium" font-size="23.4" fill="#838686" transform="matrix(1.00, 0.00, -0.00, -1.00, 118.8, 220.0)">o</text><text xml:space="preserve" font-family="AvenirNext-Medium" font-size="23.4" fill="#838686" transform="matrix(1.00, 0.00, -0.00, -1.00, 133.0, 220.0)">g</text><text xml:space="preserve" font-family="AvenirNext-Medium" font-size="23.4" fill="#838686" transform="matrix(1.00, 0.00, -0.00, -1.00, 147.8, 220.0)">n</text><text xml:space="preserve" font-family="AvenirNext-Medium" font-size="23.4" fill="#838686" transform="matrix(1.00, 0.00, -0.00, -1.00, 161.4, 220.0)">i</text><text xml:space="preserve" font-family="AvenirNext-Medium" font-size="23.4" fill="#838686" transform="matrix(1.00, 0.00, -0.00, -1.00, 167.4, 220.0)">t</text><text xml:space="preserve" font-family="AvenirNext-Medium" font-size="23.4" fill="#838686" transform="matrix(1.00, 0.00, -0.00, -1.00, 175.1, 220.0)">i</text><text xml:space="preserve" font-family="AvenirNext-Medium" font-size="23.4" fill="#838686" transform="matrix(1.00, 0.00, -0.00, -1.00, 181.2, 220.0)">v</text><text xml:space="preserve" font-family="AvenirNext-Medium" font-size="23.4" fill="#838686" transform="matrix(1.00, 0.00, -0.00, -1.00, 192.9, 220.0)">e</text><text xml:space="preserve" font-family="AvenirNext-Medium" font-size="23.4" fill="#838686" transform="matrix(1.00, 0.00, -0.00, -1.00, 206.3, 220.0)"> </text><text xml:space="preserve" font-family="AvenirNext-Medium" font-size="23.4" fill="#838686" transform="matrix(1.00, 0.00, -0.00, -1.00, 212.2, 220.0)">s</text><text xml:space="preserve" font-family="AvenirNext-Medium" font-size="23.4" fill="#838686" transform="matrix(1.00, 0.00, -0.00, -1.00, 222.5, 220.0)">y</text><text xml:space="preserve" font-family="AvenirNext-Medium" font-size="23.4" fill="#838686" transform="matrix(1.00, 0.00, -0.00, -1.00, 234.3, 220.0)">s</text><text xml:space="preserve" font-family="AvenirNext-Medium" font-size="23.4" fill="#838686" transform="matrix(1.00, 0.00, -0.00, -1.00, 244.7, 220.0)">t</text><text xml:space="preserve" font-family="AvenirNext-Medium" font-size="23.4" fill="#838686" transform="matrix(1.00, 0.00, -0.00, -1.00, 252.4, 220.0)">e</text><text xml:space="preserve" font-family="AvenirNext-Medium" font-size="23.4" fill="#838686" transform="matrix(1.00, 0.00, -0.00, -1.00, 265.7, 220.0)">m</text><text xml:space="preserve" font-family="AvenirNext-Medium" font-size="23.4" fill="#838686" transform="matrix(1.00, 0.00, -0.00, -1.00, 286.5, 220.0)"> </text><text xml:space="preserve" font-family="AvenirNext-Medium" font-size="23.4" fill="#838686" transform="matrix(1.00, 0.00, -0.00, -1.00, 292.3, 220.0)">w</text><text xml:space="preserve" font-family="AvenirNext-Medium" font-size="23.4" fill="#838686" transform="matrix(1.00, 0.00, -0.00, -1.00, 310.4, 220.0)">h</text><text xml:space="preserve" font-family="AvenirNext-Medium" font-size="23.4" fill="#838686" transform="matrix(1.00, 0.00, -0.00, -1.00, 324.0, 220.0)">i</text><text xml:space="preserve" font-family="AvenirNext-Medium" font-size="23.4" fill="#838686" transform="matrix(1.00, 0.00, -0.00, -1.00, 330.1, 220.0)">c</text><text xml:space="preserve" font-family="AvenirNext-Medium" font-size="23.4" fill="#838686" transform="matrix(1.00, 0.00, -0.00, -1.00, 341.6, 220.0)">h</text><text xml:space="preserve" font-family="AvenirNext-Medium" font-size="23.4" fill="#838686" transform="matrix(1.00, 0.00, -0.00, -1.00, 355.2, 220.0)"> </text><text xml:space="preserve" font-family="AvenirNext-Medium" font-size="23.4" fill="#838686" transform="matrix(1.00, 0.00, -0.00, -1.00, 26.0, 188.0)">i</text><text xml:space="preserve" font-family="AvenirNext-Medium" font-size="23.4" fill="#838686" transform="matrix(1.00, 0.00, -0.00, -1.00, 32.1, 188.0)">n</text><text xml:space="preserve" font-family="AvenirNext-Medium" font-size="23.4" fill="#838686" transform="matrix(1.00, 0.00, -0.00, -1.00, 45.6, 188.0)">f</text><text xml:space="preserve" font-family="AvenirNext-Medium" font-size="23.4" fill="#838686" transform="matrix(1.00, 0.00, -0.00, -1.00, 52.9, 188.0)">u</text><text xml:space="preserve" font-family="AvenirNext-Medium" font-size="23.4" fill="#838686" transform="matrix(1.00, 0.00, -0.00, -1.00, 66.5, 188.0)">s</text><text xml:space="preserve" font-family="AvenirNext-Medium" font-size="23.4" fill="#838686" transform="matrix(1.00, 0.00, -0.00, -1.00, 76.9, 188.0)">e</text><text xml:space="preserve" font-family="AvenirNext-Medium" font-size="23.4" fill="#838686" transform="matrix(1.00, 0.00, -0.00, -1.00, 90.2, 188.0)">s</text><text xml:space="preserve" font-family="AvenirNext-Medium" font-size="23.4" fill="#838686" transform="matrix(1.00, 0.00, -0.00, -1.00, 100.6, 188.0)"> </text><text xml:space="preserve" font-family="AvenirNext-Medium" font-size="23.4" fill="#838686" transform="matrix(1.00, 0.00, -0.00, -1.00, 106.5, 188.0)">i</text><text xml:space="preserve" font-family="AvenirNext-Medium" font-size="23.4" fill="#838686" transform="matrix(1.00, 0.00, -0.00, -1.00, 112.5, 188.0)">n</text><text xml:space="preserve" font-family="AvenirNext-Medium" font-size="23.4" fill="#838686" transform="matrix(1.00, 0.00, -0.00, -1.00, 126.1, 188.0)">t</text><text xml:space="preserve" font-family="AvenirNext-Medium" font-size="23.4" fill="#838686" transform="matrix(1.00, 0.00, -0.00, -1.00, 133.8, 188.0)">e</text><text xml:space="preserve" font-family="AvenirNext-Medium" font-size="23.4" fill="#838686" transform="matrix(1.00, 0.00, -0.00, -1.00, 147.2, 188.0)">l</text><text xml:space="preserve" font-family="AvenirNext-Medium" font-size="23.4" fill="#838686" transform="matrix(1.00, 0.00, -0.00, -1.00, 153.2, 188.0)">l</text><text xml:space="preserve" font-family="AvenirNext-Medium" font-size="23.4" fill="#838686" transform="matrix(1.00, 0.00, -0.00, -1.00, 159.3, 188.0)">i</text><text xml:space="preserve" font-family="AvenirNext-Medium" font-size="23.4" fill="#838686" transform="matrix(1.00, 0.00, -0.00, -1.00, 165.4, 188.0)">g</text><text xml:space="preserve" font-family="AvenirNext-Medium" font-size="23.4" fill="#838686" transform="matrix(1.00, 0.00, -0.00, -1.00, 180.1, 188.0)">e</text><text xml:space="preserve" font-family="AvenirNext-Medium" font-size="23.4" fill="#838686" transform="matrix(1.00, 0.00, -0.00, -1.00, 193.5, 188.0)">n</text><text xml:space="preserve" font-family="AvenirNext-Medium" font-size="23.4" fill="#838686" transform="matrix(1.00, 0.00, -0.00, -1.00, 207.1, 188.0)">c</text><text xml:space="preserve" font-family="AvenirNext-Medium" font-size="23.4" fill="#838686" transform="matrix(1.00, 0.00, -0.00, -1.00, 218.6, 188.0)">e</text><text xml:space="preserve" font-family="AvenirNext-Medium" font-size="23.4" fill="#838686" transform="matrix(1.00, 0.00, -0.00, -1.00, 232.0, 188.0)"> </text><text xml:space="preserve" font-family="AvenirNext-Medium" font-size="23.4" fill="#838686" transform="matrix(1.00, 0.00, -0.00, -1.00, 237.9, 188.0)">a</text><text xml:space="preserve" font-family="AvenirNext-Medium" font-size="23.4" fill="#838686" transform="matrix(1.00, 0.00, -0.00, -1.00, 250.5, 188.0)">n</text><text xml:space="preserve" font-family="AvenirNext-Medium" font-size="23.4" fill="#838686" transform="matrix(1.00, 0.00, -0.00, -1.00, 264.1, 188.0)">d</text><text xml:space="preserve" font-family="AvenirNext-Medium" font-size="23.4" fill="#838686" transform="matrix(1.00, 0.00, -0.00, -1.00, 279.0, 188.0)"> </text><text xml:space="preserve" font-family="AvenirNext-Medium" font-size="23.4" fill="#838686" transform="matrix(1.00, 0.00, -0.00, -1.00, 26.0, 156.0)">i</text><text xml:space="preserve" font-family="AvenirNext-Medium" font-size="23.4" fill="#838686" transform="matrix(1.00, 0.00, -0.00, -1.00, 32.1, 156.0)">n</text><text xml:space="preserve" font-family="AvenirNext-Medium" font-size="23.4" fill="#838686" transform="matrix(1.00, 0.00, -0.00, -1.00, 45.6, 156.0)">f</text><text xml:space="preserve" font-family="AvenirNext-Medium" font-size="23.4" fill="#838686" transform="matrix(1.00, 0.00, -0.00, -1.00, 52.9, 156.0)">o</text><text xml:space="preserve" font-family="AvenirNext-Medium" font-size="23.4" fill="#838686" transform="matrix(1.00, 0.00, -0.00, -1.00, 67.1, 156.0)">r</text><text xml:space="preserve" font-family="AvenirNext-Medium" font-size="23.4" fill="#838686" transform="matrix(1.00, 0.00, -0.00, -1.00, 75.6, 156.0)">m</text><text xml:space="preserve" font-family="AvenirNext-Medium" font-size="23.4" fill="#838686" transform="matrix(1.00, 0.00, -0.00, -1.00, 96.3, 156.0)">a</text><text xml:space="preserve" font-family="AvenirNext-Medium" font-size="23.4" fill="#838686" transform="matrix(1.00, 0.00, -0.00, -1.00, 108.7, 156.0)">t</text><text xml:space="preserve" font-family="AvenirNext-Medium" font-size="23.4" fill="#838686" transform="matrix(1.00, 0.00, -0.00, -1.00, 116.4, 156.0)">i</text><text xml:space="preserve" font-family="AvenirNext-Medium" font-size="23.4" fill="#838686" transform="matrix(1.00, 0.00, -0.00, -1.00, 122.5, 156.0)">o</text><text xml:space="preserve" font-family="AvenirNext-Medium" font-size="23.4" fill="#838686" transform="matrix(1.00, 0.00, -0.00, -1.00, 136.7, 156.0)">n</text><text xml:space="preserve" font-family="AvenirNext-Medium" font-size="23.4" fill="#838686" transform="matrix(1.00, 0.00, -0.00, -1.00, 150.3, 156.0)"> </text><text xml:space="preserve" font-family="AvenirNext-Medium" font-size="23.4" fill="#838686" transform="matrix(1.00, 0.00, -0.00, -1.00, 156.2, 156.0)">i</text><text xml:space="preserve" font-family="AvenirNext-Medium" font-size="23.4" fill="#838686" transform="matrix(1.00, 0.00, -0.00, -1.00, 162.2, 156.0)">n</text><text xml:space="preserve" font-family="AvenirNext-Medium" font-size="23.4" fill="#838686" transform="matrix(1.00, 0.00, -0.00, -1.00, 175.8, 156.0)">t</text><text xml:space="preserve" font-family="AvenirNext-Medium" font-size="23.4" fill="#838686" transform="matrix(1.00, 0.00, -0.00, -1.00, 183.5, 156.0)">o</text><text xml:space="preserve" font-family="AvenirNext-Medium" font-size="23.4" fill="#838686" transform="matrix(1.00, 0.00, -0.00, -1.00, 197.7, 156.0)"> </text><text xml:space="preserve" font-family="AvenirNext-Medium" font-size="23.4" fill="#838686" transform="matrix(1.00, 0.00, -0.00, -1.00, 203.6, 156.0)">t</text><text xml:space="preserve" font-family="AvenirNext-Medium" font-size="23.4" fill="#838686" transform="matrix(1.00, 0.00, -0.00, -1.00, 211.3, 156.0)">h</text><text xml:space="preserve" font-family="AvenirNext-Medium" font-size="23.4" fill="#838686" transform="matrix(1.00, 0.00, -0.00, -1.00, 224.9, 156.0)">e</text><text xml:space="preserve" font-family="AvenirNext-Medium" font-size="23.4" fill="#838686" transform="matrix(1.00, 0.00, -0.00, -1.00, 238.3, 156.0)"> </text><text xml:space="preserve" font-family="AvenirNext-Medium" font-size="23.4" fill="#838686" transform="matrix(1.00, 0.00, -0.00, -1.00, 244.1, 156.0)">p</text><text xml:space="preserve" font-family="AvenirNext-Medium" font-size="23.4" fill="#838686" transform="matrix(1.00, 0.00, -0.00, -1.00, 258.9, 156.0)">h</text><text xml:space="preserve" font-family="AvenirNext-Medium" font-size="23.4" fill="#838686" transform="matrix(1.00, 0.00, -0.00, -1.00, 272.6, 156.0)">y</text><text xml:space="preserve" font-family="AvenirNext-Medium" font-size="23.4" fill="#838686" transform="matrix(1.00, 0.00, -0.00, -1.00, 284.4, 156.0)">s</text><text xml:space="preserve" font-family="AvenirNext-Medium" font-size="23.4" fill="#838686" transform="matrix(1.00, 0.00, -0.00, -1.00, 294.7, 156.0)">i</text><text xml:space="preserve" font-family="AvenirNext-Medium" font-size="23.4" fill="#838686" transform="matrix(1.00, 0.00, -0.00, -1.00, 300.8, 156.0)">c</text><text xml:space="preserve" font-family="AvenirNext-Medium" font-size="23.4" fill="#838686" transform="matrix(1.00, 0.00, -0.00, -1.00, 312.3, 156.0)">a</text><text xml:space="preserve" font-family="AvenirNext-Medium" font-size="23.4" fill="#838686" transform="matrix(1.00, 0.00, -0.00, -1.00, 325.0, 156.0)">l</text><text xml:space="preserve" font-family="AvenirNext-Medium" font-size="23.4" fill="#838686" transform="matrix(1.00, 0.00, -0.00, -1.00, 331.1, 156.0)"> </text><text xml:space="preserve" font-family="AvenirNext-Medium" font-size="23.4" fill="#838686" transform="matrix(1.00, 0.00, -0.00, -1.00, 26.0, 124.0)">w</text><text xml:space="preserve" font-family="AvenirNext-Medium" font-size="23.4" fill="#838686" transform="matrix(1.00, 0.00, -0.00, -1.00, 44.1, 124.0)">o</text><text xml:space="preserve" font-family="AvenirNext-Medium" font-size="23.4" fill="#838686" transform="matrix(1.00, 0.00, -0.00, -1.00, 58.3, 124.0)">r</text><text xml:space="preserve" font-family="AvenirNext-Medium" font-size="23.4" fill="#838686" transform="matrix(1.00, 0.00, -0.00, -1.00, 66.8, 124.0)">l</text><text xml:space="preserve" font-family="AvenirNext-Medium" font-size="23.4" fill="#838686" transform="matrix(1.00, 0.00, -0.00, -1.00, 72.8, 124.0)">d</text><text xml:space="preserve" font-family="AvenirNext-Medium" font-size="23.4" fill="#838686" transform="matrix(1.00, 0.00, -0.00, -1.00, 87.7, 124.0)">.</text><text xml:space="preserve" font-family="AvenirNext-Medium" font-size="23.4" fill="#838686" transform="matrix(1.00, 0.00, -0.00, -1.00, 93.0, 124.0)"> </text><text xml:space="preserve" font-family="LucidaGrande" font-size="24.5" fill="#34A4DA" transform="matrix(1.00, 0.00, -0.00, -1.00, 0.1, 69.7)">▸</text><text xml:space="preserve" font-family="AvenirNext-Medium" font-size="23.4" fill="#838686" transform="matrix(1.00, 0.00, -0.00, -1.00, 26.0, 72.0)">M</text><text xml:space="preserve" font-family="AvenirNext-Medium" font-size="23.4" fill="#838686" transform="matrix(1.00, 0.00, -0.00, -1.00, 47.1, 72.0)">Q</text><text xml:space="preserve" font-family="AvenirNext-Medium" font-size="23.4" fill="#838686" transform="matrix(1.00, 0.00, -0.00, -1.00, 66.9, 72.0)">T</text><text xml:space="preserve" font-family="AvenirNext-Medium" font-size="23.4" fill="#838686" transform="matrix(1.00, 0.00, -0.00, -1.00, 80.1, 72.0)">T</text><text xml:space="preserve" font-family="AvenirNext-Medium" font-size="23.4" fill="#838686" transform="matrix(1.00, 0.00, -0.00, -1.00, 92.9, 72.0)"> </text><text xml:space="preserve" font-family="AvenirNext-Medium" font-size="23.4" fill="#838686" transform="matrix(1.00, 0.00, -0.00, -1.00, 98.7, 72.0)">c</text><text xml:space="preserve" font-family="AvenirNext-Medium" font-size="23.4" fill="#838686" transform="matrix(1.00, 0.00, -0.00, -1.00, 110.3, 72.0)">l</text><text xml:space="preserve" font-family="AvenirNext-Medium" font-size="23.4" fill="#838686" transform="matrix(1.00, 0.00, -0.00, -1.00, 116.3, 72.0)">i</text><text xml:space="preserve" font-family="AvenirNext-Medium" font-size="23.4" fill="#838686" transform="matrix(1.00, 0.00, -0.00, -1.00, 122.4, 72.0)">e</text><text xml:space="preserve" font-family="AvenirNext-Medium" font-size="23.4" fill="#838686" transform="matrix(1.00, 0.00, -0.00, -1.00, 135.8, 72.0)">n</text><text xml:space="preserve" font-family="AvenirNext-Medium" font-size="23.4" fill="#838686" transform="matrix(1.00, 0.00, -0.00, -1.00, 149.4, 72.0)">t</text><text xml:space="preserve" font-family="AvenirNext-Medium" font-size="23.4" fill="#838686" transform="matrix(1.00, 0.00, -0.00, -1.00, 157.0, 72.0)"> </text><text xml:space="preserve" font-family="AvenirNext-Medium" font-size="23.4" fill="#838686" transform="matrix(1.00, 0.00, -0.00, -1.00, 162.9, 72.0)">l</text><text xml:space="preserve" font-family="AvenirNext-Medium" font-size="23.4" fill="#838686" transform="matrix(1.00, 0.00, -0.00, -1.00, 169.0, 72.0)">i</text><text xml:space="preserve" font-family="AvenirNext-Medium" font-size="23.4" fill="#838686" transform="matrix(1.00, 0.00, -0.00, -1.00, 175.0, 72.0)">b</text><text xml:space="preserve" font-family="AvenirNext-Medium" font-size="23.4" fill="#838686" transform="matrix(1.00, 0.00, -0.00, -1.00, 189.9, 72.0)">r</text><text xml:space="preserve" font-family="AvenirNext-Medium" font-size="23.4" fill="#838686" transform="matrix(1.00, 0.00, -0.00, -1.00, 198.0, 72.0)">a</text><text xml:space="preserve" font-family="AvenirNext-Medium" font-size="23.4" fill="#838686" transform="matrix(1.00, 0.00, -0.00, -1.00, 210.7, 72.0)">r</text><text xml:space="preserve" font-family="AvenirNext-Medium" font-size="23.4" fill="#838686" transform="matrix(1.00, 0.00, -0.00, -1.00, 219.1, 72.0)">i</text><text xml:space="preserve" font-family="AvenirNext-Medium" font-size="23.4" fill="#838686" transform="matrix(1.00, 0.00, -0.00, -1.00, 225.2, 72.0)">e</text><text xml:space="preserve" font-family="AvenirNext-Medium" font-size="23.4" fill="#838686" transform="matrix(1.00, 0.00, -0.00, -1.00, 238.6, 72.0)">s</text><text xml:space="preserve" font-family="AvenirNext-Medium" font-size="23.4" fill="#838686" transform="matrix(1.00, 0.00, -0.00, -1.00, 248.9, 72.0)">,</text><text xml:space="preserve" font-family="AvenirNext-Medium" font-size="23.4" fill="#838686" transform="matrix(1.00, 0.00, -0.00, -1.00, 254.3, 72.0)"> </text><text xml:space="preserve" font-family="AvenirNext-Medium" font-size="23.4" fill="#838686" transform="matrix(1.00, 0.00, -0.00, -1.00, 260.2, 72.0)">r</text><text xml:space="preserve" font-family="AvenirNext-Medium" font-size="23.4" fill="#838686" transform="matrix(1.00, 0.00, -0.00, -1.00, 268.6, 72.0)">u</text><text xml:space="preserve" font-family="AvenirNext-Medium" font-size="23.4" fill="#838686" transform="matrix(1.00, 0.00, -0.00, -1.00, 282.2, 72.0)">n</text><text xml:space="preserve" font-family="AvenirNext-Medium" font-size="23.4" fill="#838686" transform="matrix(1.00, 0.00, -0.00, -1.00, 295.8, 72.0)">t</text><text xml:space="preserve" font-family="AvenirNext-Medium" font-size="23.4" fill="#838686" transform="matrix(1.00, 0.00, -0.00, -1.00, 303.5, 72.0)">i</text><text xml:space="preserve" font-family="AvenirNext-Medium" font-size="23.4" fill="#838686" transform="matrix(1.00, 0.00, -0.00, -1.00, 309.5, 72.0)">m</text><text xml:space="preserve" font-family="AvenirNext-Medium" font-size="23.4" fill="#838686" transform="matrix(1.00, 0.00, -0.00, -1.00, 330.3, 72.0)">e</text><text xml:space="preserve" font-family="AvenirNext-Medium" font-size="23.4" fill="#838686" transform="matrix(1.00, 0.00, -0.00, -1.00, 343.6, 72.0)"> </text><text xml:space="preserve" font-family="AvenirNext-Medium" font-size="23.4" fill="#838686" transform="matrix(1.00, 0.00, -0.00, -1.00, 349.5, 72.0)">o</text><text xml:space="preserve" font-family="AvenirNext-Medium" font-size="23.4" fill="#838686" transform="matrix(1.00, 0.00, -0.00, -1.00, 363.7, 72.0)">f</text><text xml:space="preserve" font-family="AvenirNext-Medium" font-size="23.4" fill="#838686" transform="matrix(1.00, 0.00, -0.00, -1.00, 371.5, 72.0)"> </text><text xml:space="preserve" font-family="AvenirNext-Medium" font-size="23.4" fill="#838686" transform="matrix(1.00, 0.00, -0.00, -1.00, 26.0, 40.0)">y</text><text xml:space="preserve" font-family="AvenirNext-Medium" font-size="23.4" fill="#838686" transform="matrix(1.00, 0.00, -0.00, -1.00, 37.8, 40.0)">o</text><text xml:space="preserve" font-family="AvenirNext-Medium" font-size="23.4" fill="#838686" transform="matrix(1.00, 0.00, -0.00, -1.00, 52.0, 40.0)">u</text><text xml:space="preserve" font-family="AvenirNext-Medium" font-size="23.4" fill="#838686" transform="matrix(1.00, 0.00, -0.00, -1.00, 65.6, 40.0)">r</text><text xml:space="preserve" font-family="AvenirNext-Medium" font-size="23.4" fill="#838686" transform="matrix(1.00, 0.00, -0.00, -1.00, 74.1, 40.0)"> </text><text xml:space="preserve" font-family="AvenirNext-Medium" font-size="23.4" fill="#838686" transform="matrix(1.00, 0.00, -0.00, -1.00, 79.9, 40.0)">c</text><text xml:space="preserve" font-family="AvenirNext-Medium" font-size="23.4" fill="#838686" transform="matrix(1.00, 0.00, -0.00, -1.00, 91.5, 40.0)">h</text><text xml:space="preserve" font-family="AvenirNext-Medium" font-size="23.4" fill="#838686" transform="matrix(1.00, 0.00, -0.00, -1.00, 105.1, 40.0)">o</text><text xml:space="preserve" font-family="AvenirNext-Medium" font-size="23.4" fill="#838686" transform="matrix(1.00, 0.00, -0.00, -1.00, 119.3, 40.0)">i</text><text xml:space="preserve" font-family="AvenirNext-Medium" font-size="23.4" fill="#838686" transform="matrix(1.00, 0.00, -0.00, -1.00, 125.4, 40.0)">c</text><text xml:space="preserve" font-family="AvenirNext-Medium" font-size="23.4" fill="#838686" transform="matrix(1.00, 0.00, -0.00, -1.00, 136.9, 40.0)">e</text><text xml:space="preserve" font-family="AvenirNext-Medium" font-size="23.4" fill="#838686" transform="matrix(1.00, 0.00, -0.00, -1.00, 150.3, 40.0)">:</text><text xml:space="preserve" font-family="AvenirNext-Medium" font-size="23.4" fill="#838686" transform="matrix(1.00, 0.00, -0.00, -1.00, 157.3, 40.0)"> </text><text xml:space="preserve" font-family="AvenirNext-Medium" font-size="23.4" fill="#838686" transform="matrix(1.00, 0.00, -0.00, -1.00, 162.9, 40.0)">J</text><text xml:space="preserve" font-family="AvenirNext-Medium" font-size="23.4" fill="#838686" transform="matrix(1.00, 0.00, -0.00, -1.00, 174.3, 40.0)">a</text><text xml:space="preserve" font-family="AvenirNext-Medium" font-size="23.4" fill="#838686" transform="matrix(1.00, 0.00, -0.00, -1.00, 187.0, 40.0)">v</text><text xml:space="preserve" font-family="AvenirNext-Medium" font-size="23.4" fill="#838686" transform="matrix(1.00, 0.00, -0.00, -1.00, 198.7, 40.0)">a</text><text xml:space="preserve" font-family="AvenirNext-Medium" font-size="23.4" fill="#838686" transform="matrix(1.00, 0.00, -0.00, -1.00, 211.4, 40.0)">,</text><text xml:space="preserve" font-family="AvenirNext-Medium" font-size="23.4" fill="#838686" transform="matrix(1.00, 0.00, -0.00, -1.00, 216.8, 40.0)"> </text><text xml:space="preserve" font-family="AvenirNext-Medium" font-size="23.4" fill="#838686" transform="matrix(1.00, 0.00, -0.00, -1.00, 222.6, 40.0)">N</text><text xml:space="preserve" font-family="AvenirNext-Medium" font-size="23.4" fill="#838686" transform="matrix(1.00, 0.00, -0.00, -1.00, 240.7, 40.0)">o</text><text xml:space="preserve" font-family="AvenirNext-Medium" font-size="23.4" fill="#838686" transform="matrix(1.00, 0.00, -0.00, -1.00, 254.9, 40.0)">d</text><text xml:space="preserve" font-family="AvenirNext-Medium" font-size="23.4" fill="#838686" transform="matrix(1.00, 0.00, -0.00, -1.00, 269.7, 40.0)">e</text><text xml:space="preserve" font-family="AvenirNext-Medium" font-size="23.4" fill="#838686" transform="matrix(1.00, 0.00, -0.00, -1.00, 283.1, 40.0)">,</text><text xml:space="preserve" font-family="AvenirNext-Medium" font-size="23.4" fill="#838686" transform="matrix(1.00, 0.00, -0.00, -1.00, 288.5, 40.0)"> </text><text xml:space="preserve" font-family="AvenirNext-Medium" font-size="23.4" fill="#838686" transform="matrix(1.00, 0.00, -0.00, -1.00, 26.0, 8.0)">W</text><text xml:space="preserve" font-family="AvenirNext-Medium" font-size="23.4" fill="#838686" transform="matrix(1.00, 0.00, -0.00, -1.00, 48.2, 8.0)">e</text><text xml:space="preserve" font-family="AvenirNext-Medium" font-size="23.4" fill="#838686" transform="matrix(1.00, 0.00, -0.00, -1.00, 61.6, 8.0)">b</text><text xml:space="preserve" font-family="AvenirNext-Medium" font-size="23.4" fill="#838686" transform="matrix(1.00, 0.00, -0.00, -1.00, 76.5, 8.0)">s</text><text xml:space="preserve" font-family="AvenirNext-Medium" font-size="23.4" fill="#838686" transform="matrix(1.00, 0.00, -0.00, -1.00, 86.9, 8.0)">p</text><text xml:space="preserve" font-family="AvenirNext-Medium" font-size="23.4" fill="#838686" transform="matrix(1.00, 0.00, -0.00, -1.00, 101.7, 8.0)">h</text><text xml:space="preserve" font-family="AvenirNext-Medium" font-size="23.4" fill="#838686" transform="matrix(1.00, 0.00, -0.00, -1.00, 115.3, 8.0)">e</text><text xml:space="preserve" font-family="AvenirNext-Medium" font-size="23.4" fill="#838686" transform="matrix(1.00, 0.00, -0.00, -1.00, 128.7, 8.0)">r</text><text xml:space="preserve" font-family="AvenirNext-Medium" font-size="23.4" fill="#838686" transform="matrix(1.00, 0.00, -0.00, -1.00, 136.7, 8.0)">e</text><text xml:space="preserve" font-family="AvenirNext-Medium" font-size="23.4" fill="#838686" transform="matrix(1.00, 0.00, -0.00, -1.00, 150.1, 8.0)">.</text><text xml:space="preserve" font-family="AvenirNext-Medium" font-size="23.4" fill="#838686" transform="matrix(1.00, 0.00, -0.00, -1.00, 156.2, 8.0)">.</text><text xml:space="preserve" font-family="AvenirNext-Medium" font-size="23.4" fill="#838686" transform="matrix(1.00, 0.00, -0.00, -1.00, 161.6, 8.0)"> </text><text xml:space="preserve" font-family="AvenirNext-Medium" font-size="23.4" fill="#838686" transform="matrix(1.00, 0.00, -0.00, -1.00, 167.4, 8.0)">e</text><text xml:space="preserve" font-family="AvenirNext-Medium" font-size="23.4" fill="#838686" transform="matrix(1.00, 0.00, -0.00, -1.00, 180.8, 8.0)">t</text><text xml:space="preserve" font-family="AvenirNext-Medium" font-size="23.4" fill="#838686" transform="matrix(1.00, 0.00, -0.00, -1.00, 188.5, 8.0)">c</text></g></svg>